<svg xmlns="http://www.w3.org/2000/svg" viewBox="0 0 2800 1499.89"><defs><style>.cls-1{fill:#264c14;}.cls-2{fill:#93542a;}.cls-3{fill:#f7c6a4;}.cls-4{fill:#367c1d;}.cls-5{fill:#96a362;}.cls-6{fill:#a01227;}.cls-7{fill:none;}.cls-11,.cls-7{stroke:#bfd8b4;stroke-miterlimit:10;}.cls-8{fill:#fff;}.cls-9{fill:#39440c;}.cls-10{fill:#2c5b18;}.cls-11{fill:#6d3758;}</style></defs><title>frogsprite</title><g id="Layer_17" data-name="Layer 17"><path class="cls-1" d="M2567.94,445a4.93,4.93,0,0,0-3.94,1c-9.48-6.48-37.6,1.21-37.6,1.21l37.76,6.77a5,5,0,1,0,3.78-9Z"/><path class="cls-1" d="M2623.56,272.78c.16-.37.31-.75.44-1.15,2.17-6.55-.81-13.44-6.66-15.38s-12.35,1.81-14.53,8.36a13.08,13.08,0,0,0,.89,10.54l-64.76,90.45,5.7,4.08,4-5.59c4.71-4.52,19.16-15.61,31.72-25,7.52-4.14,15.46-8.29,22.71-11.67C2623.77,317.72,2623.7,278.77,2623.56,272.78Z"/><path class="cls-1" d="M2550.86,365.79a8.75,8.75,0,1,0-8.58,12.08l23,75,4.78-1.46-4.47-14.58c-4.1-34.2-7.27-51.34-12.7-54.33-2.27-4.13-4-5.71-5.06-6.28A8.74,8.74,0,0,0,2550.86,365.79Z"/><path class="cls-1" d="M2637.3,153a8,8,0,0,0,10.63,1.74l45.27,31.63,3.44-4.91-8.4-5.87c-19.74-23.9-31.09-29.95-37.28-30.59a7.83,7.83,0,0,0-1.12-1.93A8,8,0,0,0,2637.3,153Z"/><path class="cls-1" d="M2686.62,187.9a7,7,0,0,0,8.45,2l.12.42c1.4,10.56,9.91,37.32,14.34,50.85-3.6,2-4.56,8.55-2.08,15.14,2.62,7,8.1,11.38,12.24,9.82s5.36-8.47,2.74-15.45c-2.13-5.65-6.12-9.6-9.76-10.08l-2.19-7.67c-2-13.14-6.17-37.36-12.62-45.37a7,7,0,1,0-11.24.35Z"/><path class="cls-2" d="M2594,46.25s-13,10-2,13,52-12,78,8,43,17,34,2-5-15-3-20,6-7-10-10c-7-5-3-8-11-13s-6,2-28,10S2600,40.25,2594,46.25Z"/><path class="cls-3" d="M2661.49,32.22S2696.1,52.7,2699.05,53s0,5.28,0,6.28-43.68-22.5-41.35-25.25S2661.49,32.22,2661.49,32.22Z"/><path class="cls-4" d="M2538.5,235.75c-20-26.89-13-62-2-95s55-58,58-65,17-63,43-58,22,31,23,39,39,10,46,34,10,20,7,36-14,30-13,45,24.07,111.66-46,122C2593.5,302.75,2573.5,282.75,2538.5,235.75Z"/><ellipse cx="2567.21" cy="109.06" rx="6" ry="3.45" transform="translate(786.03 1961.04) rotate(-48.55)"/><path class="cls-5" d="M2573.5,119.75c10-5,19-12,32-8s33,22,4,68c-13,19-25,54-26,67s3.46,41.58-7.27,31.79-57.7-49-49.71-96.38,11.88-46.56,14.43-51.48c4.55-.93,11.55-.93,16.55-2.93S2571.5,121.75,2573.5,119.75Z"/><path class="cls-6" d="M2544.5,142.75s7,2,18-5,31-22,33-9-25,29-33,30-27,3-29,0-.49-12.49,1.26-15.24S2539.5,139.75,2544.5,142.75Z"/><path class="cls-7" d="M2584.5,135.75c-2,1-20,18-51,13"/><path class="cls-8" d="M2623.5,33.75a48.31,48.31,0,0,0-12,17c-1.78,4.29-3.64,8.94-3,15,.25,2.37,1.26,11.14,7.95,15.07a15.24,15.24,0,0,0,15.05-.07c9-5,21-21,19-39S2628.5,27.75,2623.5,33.75Z"/><ellipse cx="2618" cy="52.75" rx="6" ry="6.5"/><path class="cls-9" d="M2613.13,47.25s32.12,1.64,37.25,3.57c0,0,3.39-21.07-12.24-22.07S2613.76,45.75,2613.13,47.25Z"/><path class="cls-10" d="M2686.67,104.2c7.66,0,7.67-11.9,0-11.9s-7.68,11.9,0,11.9Z"/><path class="cls-10" d="M2698,116.2c7.66,0,7.67-11.9,0-11.9s-7.67,11.9,0,11.9Z"/><path class="cls-10" d="M2683.33,120.87c7.66,0,7.68-11.91,0-11.91s-7.67,11.91,0,11.91Z"/><path class="cls-10" d="M2691.33,243.54c7.66,0,7.68-11.91,0-11.91s-7.67,11.91,0,11.91Z"/><path class="cls-10" d="M2673.33,254.87c7.66,0,7.68-11.91,0-11.91s-7.67,11.91,0,11.91Z"/><path class="cls-10" d="M2690,259.54c7.66,0,7.67-11.91,0-11.91s-7.67,11.91,0,11.91Z"/><path class="cls-10" d="M2670.23,456.4a5,5,0,0,0-3.73,1.62c-10.41-4.85-36.9,7.33-36.9,7.33l38.36.52a4.89,4.89,0,0,0,2.13.53,5,5,0,0,0,.14-10Z"/><path class="cls-10" d="M2629.89,265.79c-.1-.39-.21-.79-.35-1.18-2.31-6.51-8.88-10.11-14.7-8.06s-8.65,9-6.34,15.51a13.05,13.05,0,0,0,7.16,7.78L2620,391l7-.27-.27-6.87c.95-6.46,5.56-24.08,9.69-39.23,3.41-7.89,7.13-16,10.78-23.15C2657.62,301.15,2633.67,270.43,2629.89,265.79Z"/><path class="cls-10" d="M2632.09,385.08A8.75,8.75,0,1,0,2627,399l41.85,66.4,4.23-2.67-8.12-12.89c-12.9-31.95-20.44-47.66-26.47-49.13-3.27-3.38-5.32-4.47-6.53-4.73A8.73,8.73,0,0,0,2632.09,385.08Z"/><path class="cls-10" d="M2635.59,142.49a8,8,0,0,0-3.55,10.17l-38.94,39.17,4.25,4.23,7.23-7.27c26.93-15.33,34.84-25.47,36.54-31.46a8.11,8.11,0,0,0,2.09-.77,8,8,0,0,0-7.62-14.07Z"/><path class="cls-10" d="M2589.13,185.69a7,7,0,0,0-2.69,8.26l-.42.08c-10.65.52-38,6.77-51.87,10.07-1.71-3.76-8.14-5.26-14.92-3.33-7.17,2-12,7.13-10.8,11.38s8,6,15.17,4c5.81-1.65,10.08-5.3,10.86-8.88l7.82-1.55c13.26-.89,37.75-3,46.26-8.82a7,7,0,1,0,.59-11.22Z"/><path class="cls-1" d="M2176.34,434.87a5,5,0,0,0-4.05-.38c-6.77-9.26-35.85-11.38-35.85-11.38l33.34,19a4.93,4.93,0,0,0,1.61,1.5,5,5,0,0,0,5-8.7Z"/><path class="cls-1" d="M2273.83,256c.1-.4.18-.8.25-1.21,1.08-6.82-3-13.13-9.07-14.09s-11.9,3.78-13,10.59a13.08,13.08,0,0,0,2.59,10.26l-49.24,99.76,6.28,3.1,3-6.17c3.92-5.22,16.38-18.51,27.24-29.85,6.76-5.3,13.92-10.68,20.53-15.2C2281.32,300.35,2274.94,261.92,2273.83,256Z"/><path class="cls-1" d="M2218.2,365.9a8.75,8.75,0,1,0-14.47,3.18l-33.39,71,4.52,2.13,6.49-13.8c20-28.07,29.13-42.89,27.12-48.76,1.09-4.58.91-6.88.47-8.05A8.75,8.75,0,0,0,2218.2,365.9Z"/><path class="cls-1" d="M2287.57,139a8,8,0,0,0,10.76.65l48.25,26.87,2.92-5.24-8.95-5c-22.06-21.77-34-26.63-40.19-26.65a8,8,0,1,0-12.79,9.36Z"/><path class="cls-1" d="M2340.19,168.74a7,7,0,0,0,8.61,1.12l.16.4c2.47,10.37,13.65,36.13,19.44,49.13-3.38,2.37-3.68,9-.54,15.28,3.32,6.67,9.22,10.49,13.17,8.52s4.48-9,1.16-15.65c-2.69-5.4-7.06-8.92-10.73-9l-3-7.41c-3.31-12.87-9.94-36.54-17.17-43.85a7,7,0,1,0-11.14,1.49Z"/><path class="cls-2" d="M2244,31.25s-13,10-2,13,52-12,78,8,43,17,34,2-5-15-3-20,6-7-10-10c-7-5-3-8-11-13s-6,2-28,10S2250,25.25,2244,31.25Z"/><path class="cls-3" d="M2311.49,17.22S2346.1,37.7,2349.05,38s0,5.28,0,6.28-43.68-22.5-41.35-25.25S2311.49,17.22,2311.49,17.22Z"/><path class="cls-4" d="M2188.5,220.75c-20-26.89-13-62-2-95s55-58,58-65,17-63,43-58,22,31,23,39,39,10,46,34,10,20,7,36-14,30-13,45,24.07,111.66-46,122C2243.5,287.75,2223.5,267.75,2188.5,220.75Z"/><ellipse cx="2217.21" cy="94.06" rx="6" ry="3.45" transform="translate(678.96 1693.64) rotate(-48.55)"/><path class="cls-5" d="M2223.5,104.75c10-5,19-12,32-8s33,22,4,68c-13,19-25,54-26,67s3.46,41.58-7.27,31.79-57.7-49-49.71-96.38,11.88-46.56,14.43-51.48c4.55-.93,11.55-.93,16.55-2.93S2221.5,106.75,2223.5,104.75Z"/><path class="cls-6" d="M2194.5,127.75s7,2,18-5,31-22,33-9-25,29-33,30-27,3-29,0-.49-12.49,1.26-15.24S2189.5,124.75,2194.5,127.75Z"/><path class="cls-7" d="M2234.5,120.75c-2,1-20,18-51,13"/><path class="cls-8" d="M2273.5,18.75a48.31,48.31,0,0,0-12,17c-1.78,4.29-3.64,8.94-3,15,.25,2.37,1.26,11.14,7.95,15.07a15.24,15.24,0,0,0,15.05-.07c9-5,21-21,19-39S2278.5,12.75,2273.5,18.75Z"/><ellipse cx="2268" cy="37.75" rx="6" ry="6.5"/><path class="cls-9" d="M2263.13,32.25s32.12,1.64,37.25,3.57c0,0,3.39-21.07-12.24-22.07S2263.76,30.75,2263.13,32.25Z"/><path class="cls-10" d="M2336.67,89.2c7.66,0,7.67-11.9,0-11.9s-7.68,11.9,0,11.9Z"/><path class="cls-10" d="M2348,101.2c7.66,0,7.67-11.9,0-11.9s-7.67,11.9,0,11.9Z"/><path class="cls-10" d="M2333.33,105.87c7.66,0,7.68-11.91,0-11.91s-7.67,11.91,0,11.91Z"/><path class="cls-10" d="M2341.33,228.54c7.66,0,7.68-11.91,0-11.91s-7.67,11.91,0,11.91Z"/><path class="cls-10" d="M2323.33,239.87c7.66,0,7.68-11.91,0-11.91s-7.67,11.91,0,11.91Z"/><path class="cls-10" d="M2340,244.54c7.66,0,7.67-11.91,0-11.91s-7.67,11.91,0,11.91Z"/><path class="cls-10" d="M2341.74,442.9a5,5,0,0,0-2.9,2.85c-11.45-.81-31.84,20-31.84,20l36-13.22a4.89,4.89,0,0,0,2.19-.27,5,5,0,1,0-3.45-9.39Z"/><path class="cls-10" d="M2278.87,247.56c-.2-.35-.42-.7-.66-1-3.92-5.68-11.22-7.44-16.29-3.93s-6,10.95-2.07,16.63a13.09,13.09,0,0,0,9,5.63L2302.09,371l6.68-2.09-2.06-6.57c-.77-6.47-.93-24.69-.91-40.39,1.22-8.5,2.69-17.34,4.35-25.17C2314.88,274.44,2283.73,251.06,2278.87,247.56Z"/><path class="cls-10" d="M2314.47,364.52a8.75,8.75,0,1,0-6.84,13.14l33.11,71.17,4.53-2.11-6.43-13.83c-8.75-33.32-14.24-49.86-20-52.08-2.81-3.77-4.7-5.11-5.87-5.52A8.74,8.74,0,0,0,2314.47,364.52Z"/><path class="cls-10" d="M2284.23,128.37a8,8,0,0,0-1.3,10.7l-29.73,46.54,5.06,3.23,5.51-8.63c23.06-20.71,28.64-32.3,29-38.52a7.68,7.68,0,0,0,1.88-1.2,8,8,0,0,0-10.44-12.12Z"/><path class="cls-10" d="M2248,180.46a7,7,0,0,0-.87,8.64l-.4.18C2236.46,192,2211,204,2198.21,210.14c-2.46-3.31-9.07-3.4-15.28-.08-6.58,3.51-10.22,9.52-8.14,13.42s9.1,4.2,15.68.69c5.32-2.85,8.72-7.32,8.72-11l7.31-3.18c12.77-3.68,36.24-11,43.33-18.45a7,7,0,1,0-1.81-11.09Z"/><path class="cls-1" d="M1838.66,456.32a5,5,0,0,0-3.74,1.61c-10.38-4.9-36.93,7.16-36.93,7.16l38.35.69a4.84,4.84,0,0,0,2.14.54,5,5,0,1,0,.18-10Z"/><path class="cls-1" d="M1924,271.44c.08-.4.15-.8.2-1.22.77-6.86-3.56-13-9.69-13.67s-11.72,4.3-12.49,11.16a13,13,0,0,0,3,10.13l-44.75,101.84,6.4,2.82,2.77-6.3c3.68-5.38,15.54-19.21,25.88-31,6.52-5.59,13.44-11.28,19.84-16.09C1933.46,315.37,1925.38,277.27,1924,271.44Z"/><path class="cls-1" d="M1873.59,383a8.75,8.75,0,1,0-14,4.92l-24.44,74.59,4.75,1.56,4.74-14.49c16.38-30.31,23.67-46.14,20.95-51.72.53-4.68.06-6.95-.51-8.05A8.74,8.74,0,0,0,1873.59,383Z"/><path class="cls-1" d="M1937.58,156.39a8,8,0,0,0,10.75-.74l51.3,20.44,2.23-5.57-9.52-3.8c-24.68-18.75-37.11-22-43.29-21.25a7.8,7.8,0,0,0-1.53-1.62,8,8,0,1,0-9.94,12.54Z"/><path class="cls-1" d="M1993.58,179.11a7,7,0,0,0,8.69,0l.21.37c3.78,10,18.17,34.08,25.59,46.23-3,2.78-2.49,9.36,1.43,15.22,4.15,6.19,10.49,9.22,14.16,6.76s3.28-9.48-.87-15.67c-3.36-5-8.15-7.95-11.8-7.58l-3.88-7c-4.94-12.34-14.56-35-22.67-41.28a7,7,0,1,0-10.86,2.91Z"/><path class="cls-2" d="M1894,47.25s-13,10-2,13,52-12,78,8,43,17,34,2-5-15-3-20,6-7-10-10c-7-5-3-8-11-13s-6,2-28,10S1900,41.25,1894,47.25Z"/><path class="cls-3" d="M1961.49,33.22S1996.1,53.7,1999.05,54s0,5.28,0,6.28-43.68-22.5-41.35-25.25S1961.49,33.22,1961.49,33.22Z"/><path class="cls-4" d="M1838.5,236.75c-20-26.89-13-62-2-95s55-58,58-65,17-63,43-58,22,31,23,39,39,10,46,34,10,20,7,36-14,30-13,45,24.07,111.66-46,122C1893.5,303.75,1873.5,283.75,1838.5,236.75Z"/><ellipse cx="1867.21" cy="110.06" rx="6" ry="3.45" transform="translate(548.66 1436.72) rotate(-48.55)"/><path class="cls-5" d="M1873.5,120.75c10-5,19-12,32-8s33,22,4,68c-13,19-25,54-26,67s3.46,41.58-7.27,31.79-57.7-49-49.71-96.38,11.88-46.56,14.43-51.48c4.55-.93,11.55-.93,16.55-2.93S1871.5,122.75,1873.5,120.75Z"/><path class="cls-6" d="M1844.5,143.75s7,2,18-5,31-22,33-9-25,29-33,30-27,3-29,0-.49-12.49,1.26-15.24S1839.5,140.75,1844.5,143.75Z"/><path class="cls-7" d="M1884.5,136.75c-2,1-20,18-51,13"/><path class="cls-8" d="M1923.5,34.75a48.31,48.31,0,0,0-12,17c-1.78,4.29-3.64,8.94-3,15,.25,2.37,1.26,11.14,8,15.07a15.24,15.24,0,0,0,15-.07c9-5,21-21,19-39S1928.5,28.75,1923.5,34.75Z"/><ellipse cx="1918" cy="53.75" rx="6" ry="6.5"/><path class="cls-9" d="M1913.13,48.25s32.12,1.64,37.25,3.57c0,0,3.39-21.07-12.24-22.07S1913.76,46.75,1913.13,48.25Z"/><path class="cls-10" d="M1986.67,105.2c7.66,0,7.67-11.9,0-11.9s-7.68,11.9,0,11.9Z"/><path class="cls-10" d="M1998,117.2c7.66,0,7.67-11.9,0-11.9s-7.67,11.9,0,11.9Z"/><path class="cls-10" d="M1983.33,121.87c7.66,0,7.68-11.91,0-11.91s-7.67,11.91,0,11.91Z"/><path class="cls-10" d="M1991.33,244.54c7.66,0,7.68-11.91,0-11.91s-7.67,11.91,0,11.91Z"/><path class="cls-10" d="M1973.33,255.87c7.66,0,7.68-11.91,0-11.91s-7.67,11.91,0,11.91Z"/><path class="cls-10" d="M1990,260.54c7.66,0,7.67-11.91,0-11.91s-7.67,11.91,0,11.91Z"/><path class="cls-10" d="M2040.1,418.5a5,5,0,0,0,1.13,3.9c-6.12,9.71,2.61,37.53,2.61,37.53l5.36-38a5,5,0,1,0-9.1-3.45Z"/><path class="cls-10" d="M1928.69,262.21c-.23-.33-.48-.66-.75-1-4.45-5.28-11.87-6.34-16.59-2.37s-4.93,11.47-.48,16.75a13.06,13.06,0,0,0,9.44,4.76l43.19,102.52,6.45-2.72-2.67-6.33c-1.38-6.38-3.27-24.5-4.74-40.14.42-8.57,1-17.51,2-25.46C1967.09,285.55,1933.86,265.23,1928.69,262.21Z"/><path class="cls-10" d="M1971.26,372.42a8.75,8.75,0,1,0,2.91,14.53l70.4,34.7,2.21-4.48-13.67-6.74c-27.71-20.48-42.35-29.93-48.26-28-4.55-1.18-6.86-1-8-.62A8.76,8.76,0,0,0,1971.26,372.42Z"/><path class="cls-10" d="M1932,146.1a8,8,0,0,0,.62,10.76l-21,51.08,5.55,2.28,3.89-9.47c19-24.48,22.44-36.87,21.72-43.06A8,8,0,1,0,1932,146.1Z"/><path class="cls-10" d="M1905.61,203.8a7,7,0,0,0,.68,8.65l-.36.24c-9.63,4.56-32.53,20.81-44.06,29.16-3-2.82-9.53-1.74-15.06,2.63-5.85,4.63-8.36,11.19-5.62,14.65s9.7,2.52,15.55-2.1c4.73-3.75,7.28-8.76,6.63-12.37l6.63-4.42c11.92-5.9,33.71-17.27,39.37-25.85a7,7,0,1,0-3.76-10.59Z"/><path class="cls-1" d="M1554.7,456.84a5,5,0,0,0-3.63,1.83c-10.66-4.26-36.43,9.37-36.43,9.37l38.32-1.62a5,5,0,1,0,1.74-9.58Z"/><path class="cls-1" d="M1573.74,289.68c.11-.39.2-.79.28-1.2,1.28-6.78-2.6-13.2-8.66-14.34s-12,3.43-13.28,10.22a13.1,13.1,0,0,0,2.29,10.33L1502.31,393l6.18,3.28,3.22-6.08c4.06-5.11,16.9-18,28.08-29.06,6.91-5.1,14.22-10.28,21-14.6C1580,334.19,1574.67,295.6,1573.74,289.68Z"/><path class="cls-1" d="M1515.29,388.21a8.75,8.75,0,1,0-4.5,14.11l44.72,64.5,4.11-2.85-8.68-12.52c-14.29-31.35-22.52-46.72-28.6-47.92-3.42-3.24-5.51-4.23-6.73-4.44A8.74,8.74,0,0,0,1515.29,388.21Z"/><path class="cls-1" d="M1585.11,173.4a8,8,0,0,0,10.66,1.61l45.66,31.07,3.37-5-8.47-5.76c-20-23.66-31.45-29.56-37.65-30.13a8.12,8.12,0,0,0-1.14-1.91,8,8,0,0,0-12.43,10.08Z"/><path class="cls-1" d="M1634.87,207.72a7,7,0,0,0,8.47,1.88l.13.42c1.53,10.55,10.36,37.2,15,50.67-3.57,2.06-4.46,8.6-1.89,15.17,2.71,6.94,8.24,11.27,12.36,9.67s5.25-8.54,2.54-15.49c-2.19-5.62-6.23-9.52-9.88-10l-2.28-7.64c-2.15-13.12-6.64-37.28-13.18-45.21a7,7,0,1,0-11.23.49Z"/><path class="cls-2" d="M1544,64.25s-13,10-2,13,52-12,78,8,43,17,34,2-5-15-3-20,6-7-10-10c-7-5-3-8-11-13s-6,2-28,10S1550,58.25,1544,64.25Z"/><path class="cls-3" d="M1611.49,50.22S1646.1,70.7,1649.05,71s0,5.28,0,6.28-43.68-22.5-41.35-25.25S1611.49,50.22,1611.49,50.22Z"/><path class="cls-4" d="M1488.5,253.75c-20-26.89-13-62-2-95s55-58,58-65,17-63,43-58,22,31,23,39,39,10,46,34,10,20,7,36-14,30-13,45,24.07,111.66-46,122C1543.5,320.75,1523.5,300.75,1488.5,253.75Z"/><ellipse cx="1517.21" cy="127.06" rx="6" ry="3.45" transform="translate(417.62 1180.13) rotate(-48.55)"/><path class="cls-5" d="M1523.5,137.75c10-5,19-12,32-8s33,22,4,68c-13,19-25,54-26,67s3.46,41.58-7.27,31.79-57.7-49-49.71-96.38,11.88-46.56,14.43-51.48c4.55-.93,11.55-.93,16.55-2.93S1521.5,139.75,1523.5,137.75Z"/><path class="cls-6" d="M1494.5,160.75s7,2,18-5,31-22,33-9-25,29-33,30-27,3-29,0-.49-12.49,1.26-15.24S1489.5,157.75,1494.5,160.75Z"/><path class="cls-7" d="M1534.5,153.75c-2,1-20,18-51,13"/><path class="cls-8" d="M1573.5,51.75a48.31,48.31,0,0,0-12,17c-1.78,4.29-3.64,8.94-3,15,.25,2.37,1.26,11.14,8,15.07a15.24,15.24,0,0,0,15-.07c9-5,21-21,19-39S1578.5,45.75,1573.5,51.75Z"/><ellipse cx="1568" cy="70.75" rx="6" ry="6.5"/><path class="cls-9" d="M1563.13,65.25s32.12,1.64,37.25,3.57c0,0,3.39-21.07-12.24-22.07S1563.76,63.75,1563.13,65.25Z"/><path class="cls-10" d="M1636.67,122.2c7.66,0,7.67-11.9,0-11.9s-7.68,11.9,0,11.9Z"/><path class="cls-10" d="M1648,134.2c7.66,0,7.67-11.9,0-11.9s-7.67,11.9,0,11.9Z"/><path class="cls-10" d="M1633.33,138.87c7.66,0,7.68-11.91,0-11.91s-7.67,11.91,0,11.91Z"/><path class="cls-10" d="M1641.33,261.54c7.66,0,7.68-11.91,0-11.91s-7.67,11.91,0,11.91Z"/><path class="cls-10" d="M1623.33,272.87c7.66,0,7.68-11.91,0-11.91s-7.67,11.91,0,11.91Z"/><path class="cls-10" d="M1640,277.54c7.66,0,7.67-11.91,0-11.91s-7.67,11.91,0,11.91Z"/><path class="cls-10" d="M1650.39,437.43a5,5,0,0,0-2.76,3c-11.48-.26-30.86,21.52-30.86,21.52L1652.11,447a5,5,0,1,0-1.72-9.59Z"/><path class="cls-10" d="M1581.86,281.68a12.29,12.29,0,0,0-.32-1.19c-2.11-6.57-8.58-10.38-14.45-8.49s-8.91,8.73-6.8,15.31a13.07,13.07,0,0,0,6.93,8l1,111.24,7-.07-.07-6.87c1.14-6.43,6.28-23.9,10.86-38.93,3.64-7.78,7.6-15.81,11.47-22.82C1608.52,317.85,1585.5,286.43,1581.86,281.68Z"/><path class="cls-10" d="M1576.17,398a8.75,8.75,0,1,0,3.61,14.37l72,31.22,2-4.58-14-6.07c-28.67-19.1-43.76-27.83-49.57-25.64-4.61-.95-6.9-.69-8-.23A8.75,8.75,0,0,0,1576.17,398Z"/><path class="cls-10" d="M1577.26,164.52a8,8,0,0,0,5.36,9.34l4.05,55.08,6-.44-.75-10.22c6.08-30.39,3.6-43,.2-48.22a8.5,8.5,0,0,0,.78-2.08,8,8,0,1,0-15.62-3.46Z"/><path class="cls-10" d="M1580.39,225.19a7,7,0,0,0,1.24,8.59l-.34.27c-9.32,5.16-31.12,22.86-42.09,31.94-3.19-2.62-9.62-1.12-14.85,3.6-5.54,5-7.63,11.7-4.67,15s9.85,1.89,15.38-3.1c4.48-4.05,6.7-9.21,5.82-12.77l6.34-4.84c11.5-6.66,32.51-19.41,37.6-28.34a7,7,0,1,0-4.43-10.33Z"/><path class="cls-1" d="M1197.45,454.9a5,5,0,0,0-3.64,1.8c-10.63-4.34-36.51,9.08-36.51,9.08l38.34-1.31a4.88,4.88,0,0,0,2.16.42,5,5,0,0,0-.35-10Z"/><path class="cls-1" d="M1224.46,270.34c.07-.4.11-.81.14-1.22.49-6.89-4.1-12.82-10.25-13.26s-11.53,4.8-12,11.69a13,13,0,0,0,3.46,10l-40.4,103.65,6.52,2.54,2.5-6.41c3.45-5.54,14.71-19.85,24.55-32.09,6.27-5.87,12.94-11.85,19.13-16.92C1235.76,313.84,1226.07,276.11,1224.46,270.34Z"/><path class="cls-1" d="M1180.74,378a8.75,8.75,0,1,0-8.34,12.24l24.49,74.57,4.76-1.56-4.76-14.48c-4.77-34.12-8.27-51.2-13.76-54.08-2.36-4.08-4.07-5.63-5.19-6.17A8.75,8.75,0,0,0,1180.74,378Z"/><path class="cls-1" d="M1232.19,154.7a8,8,0,0,0,9.85,4.35l35.86,42,4.57-3.89-6.65-7.79c-13.1-28.1-22.56-36.8-28.39-39a8,8,0,1,0-15.24,4.32Z"/><path class="cls-1" d="M1271.14,200.91a7,7,0,0,0,7.69,4.05v.43c-1.31,10.58.19,38.62,1.08,52.83-4,1-6.56,7.12-5.82,14.13.78,7.41,5,13,9.37,12.58s7.32-6.85,6.54-14.27c-.64-6-3.51-10.83-6.91-12.21l-.19-8c1.39-13.22,3.42-37.71-.8-47.08a7,7,0,1,0-11-2.49Z"/><path class="cls-2" d="M1194,46.25s-13,10-2,13,52-12,78,8,43,17,34,2-5-15-3-20,6-7-10-10c-7-5-3-8-11-13s-6,2-28,10S1200,40.25,1194,46.25Z"/><path class="cls-3" d="M1261.49,32.22S1296.1,52.7,1299.05,53s0,5.28,0,6.28-43.68-22.5-41.35-25.25S1261.49,32.22,1261.49,32.22Z"/><path class="cls-4" d="M1138.5,235.75c-20-26.89-13-62-2-95s55-58,58-65,17-63,43-58,22,31,23,39,39,10,46,34,10,20,7,36-14,30-13,45,24.07,111.66-46,122C1193.5,302.75,1173.5,282.75,1138.5,235.75Z"/><ellipse cx="1167.21" cy="109.06" rx="6" ry="3.45" transform="translate(312.8 911.71) rotate(-48.55)"/><path class="cls-5" d="M1173.5,119.75c10-5,19-12,32-8s33,22,4,68c-13,19-25,54-26,67s3.46,41.58-7.27,31.79-57.7-49-49.71-96.38,11.88-46.56,14.43-51.48c4.55-.93,11.55-.93,16.55-2.93S1171.5,121.75,1173.5,119.75Z"/><path class="cls-6" d="M1144.5,142.75s7,2,18-5,31-22,33-9-25,29-33,30-27,3-29,0-.49-12.49,1.26-15.24S1139.5,139.75,1144.5,142.75Z"/><path class="cls-7" d="M1184.5,135.75c-2,1-20,18-51,13"/><path class="cls-8" d="M1223.5,33.75a48.31,48.31,0,0,0-12,17c-1.78,4.29-3.64,8.94-3,15,.25,2.37,1.26,11.14,8,15.07a15.24,15.24,0,0,0,15-.07c9-5,21-21,19-39S1228.5,27.75,1223.5,33.75Z"/><ellipse cx="1218" cy="52.75" rx="6" ry="6.5"/><path class="cls-9" d="M1213.13,47.25s32.12,1.64,37.25,3.57c0,0,3.39-21.07-12.24-22.07S1213.76,45.75,1213.13,47.25Z"/><path class="cls-10" d="M1286.67,104.2c7.66,0,7.67-11.9,0-11.9s-7.68,11.9,0,11.9Z"/><path class="cls-10" d="M1298,116.2c7.66,0,7.67-11.9,0-11.9s-7.67,11.9,0,11.9Z"/><path class="cls-10" d="M1283.33,120.87c7.66,0,7.68-11.91,0-11.91s-7.67,11.91,0,11.91Z"/><path class="cls-10" d="M1291.33,243.54c7.66,0,7.68-11.91,0-11.91s-7.67,11.91,0,11.91Z"/><path class="cls-10" d="M1273.33,254.87c7.66,0,7.68-11.91,0-11.91s-7.67,11.91,0,11.91Z"/><path class="cls-10" d="M1290,259.54c7.66,0,7.67-11.91,0-11.91s-7.67,11.91,0,11.91Z"/><path class="cls-10" d="M1253.45,417.38a5,5,0,0,0-.41,4.05c-9.32,6.7-11.67,35.76-11.67,35.76L1260.59,424a5,5,0,1,0-7.14-6.62Z"/><path class="cls-10" d="M1226.63,270.57c0-.4.07-.81.07-1.23.1-6.9-4.83-12.56-11-12.64s-11.23,5.44-11.33,12.34a13.12,13.12,0,0,0,4,9.79L1174,384.61l6.65,2.17,2.13-6.54c3.13-5.73,13.56-20.67,22.68-33.45,5.92-6.22,12.24-12.57,18.13-18C1240.4,313.35,1228.57,276.24,1226.63,270.57Z"/><path class="cls-10" d="M1181.53,377.83a8.75,8.75,0,1,0,4,14.27l72.79,29.38,1.87-4.64-14.14-5.7c-29.15-18.37-44.45-26.7-50.2-24.37-4.63-.83-6.93-.52-8.06,0A8.76,8.76,0,0,0,1181.53,377.83Z"/><path class="cls-10" d="M1227.76,149.42a8,8,0,0,0,8.65,6.43l25.67,48.9,5.31-2.79-4.76-9.07c-6.55-30.29-13.85-40.88-19.05-44.3a7.59,7.59,0,0,0-.11-2.22,8,8,0,0,0-15.71,3Z"/><path class="cls-10" d="M1255.23,202.2a7,7,0,0,0,2.77,8.23l-.29.32c-8.24,6.76-26.48,28.1-35.63,39-3.61-2-9.67.63-14,6.22-4.54,5.91-5.38,12.89-1.88,15.58s10,.08,14.57-5.83c3.68-4.78,4.93-10.26,3.42-13.61l5.35-5.9c10.12-8.62,28.48-25,31.88-34.66a7,7,0,1,0-6.22-9.36Z"/><path class="cls-1" d="M884.22,445.74a5,5,0,0,0-3.13,2.6c-11.34-1.74-33.38,17.35-33.38,17.35l37-10.22a4.84,4.84,0,0,0,2.2-.09,5,5,0,1,0-2.66-9.64Z"/><path class="cls-1" d="M875.14,251.37a12.29,12.29,0,0,0-.23-1.21c-1.55-6.73-7.68-11.06-13.68-9.67s-9.62,8-8.07,14.69a13.09,13.09,0,0,0,6.25,8.54l-8.25,110.94,7,.52.51-6.86c1.67-6.31,8.24-23.3,14.06-37.89,4.28-7.44,8.9-15.11,13.33-21.78C898.69,289.64,878.37,256.41,875.14,251.37Z"/><path class="cls-1" d="M866.33,368.81a8.75,8.75,0,1,0-8,12.47l26.58,73.86,4.71-1.69-5.17-14.35c-5.72-34-9.7-50.94-15.27-53.67-2.46-4-4.23-5.51-5.35-6A8.76,8.76,0,0,0,866.33,368.81Z"/><path class="cls-1" d="M886.76,123.08a8,8,0,0,0-4.91,9.58l-44,33.41,3.63,4.78,8.16-6.2c28.8-11.47,38-20.42,40.55-26.11a8,8,0,1,0-3.44-15.46Z"/><path class="cls-1" d="M837.79,159.86a7,7,0,0,0-3.69,7.86l-.43,0c-10.63-.8-38.57,2-52.72,3.58-1.23-3.94-7.42-6.23-14.39-5.16-7.37,1.14-12.8,5.59-12.13,10s7.19,7,14.56,5.86c6-.92,10.66-4,11.88-7.48l8-.56c13.27.76,37.83,1.64,47-3a7,7,0,1,0,2-11.07Z"/><path class="cls-2" d="M844,30.25s-13,10-2,13,52-12,78,8,43,17,34,2-5-15-3-20,6-7-10-10c-7-5-3-8-11-13s-6,2-28,10S850,24.25,844,30.25Z"/><path class="cls-3" d="M911.49,16.22S946.1,36.7,949.05,37s0,5.28,0,6.28S905.33,20.75,907.66,18,911.49,16.22,911.49,16.22Z"/><path class="cls-4" d="M788.5,219.75c-20-26.89-13-62-2-95s55-58,58-65,17-63,43-58,22,31,23,39,39,10,46,34,10,20,7,36-14,30-13,45,24.07,111.66-46,122C843.5,286.75,823.5,266.75,788.5,219.75Z"/><ellipse cx="817.21" cy="93.06" rx="6" ry="3.45" transform="translate(206.49 643.97) rotate(-48.55)"/><path class="cls-5" d="M823.5,103.75c10-5,19-12,32-8s33,22,4,68c-13,19-25,54-26,67s3.46,41.58-7.27,31.79-57.7-49-49.71-96.38S788.4,119.6,791,114.68c4.55-.93,11.55-.93,16.55-2.93S821.5,105.75,823.5,103.75Z"/><path class="cls-6" d="M794.5,126.75s7,2,18-5,31-22,33-9-25,29-33,30-27,3-29,0-.49-12.49,1.26-15.24S789.5,123.75,794.5,126.75Z"/><path class="cls-7" d="M834.5,119.75c-2,1-20,18-51,13"/><path class="cls-8" d="M873.5,17.75a48.31,48.31,0,0,0-12,17c-1.78,4.29-3.64,8.94-3,15,.25,2.37,1.26,11.14,8,15.07a15.24,15.24,0,0,0,15-.07c9-5,21-21,19-39S878.5,11.75,873.5,17.75Z"/><ellipse cx="868" cy="36.75" rx="6" ry="6.5"/><path class="cls-9" d="M863.13,31.25s32.12,1.64,37.25,3.57c0,0,3.39-21.07-12.24-22.07S863.76,29.75,863.13,31.25Z"/><path class="cls-10" d="M936.67,88.2c7.66,0,7.67-11.9,0-11.9s-7.68,11.9,0,11.9Z"/><path class="cls-10" d="M948,100.2c7.66,0,7.67-11.9,0-11.9s-7.67,11.9,0,11.9Z"/><path class="cls-10" d="M933.33,104.87c7.66,0,7.68-11.91,0-11.91s-7.67,11.91,0,11.91Z"/><path class="cls-10" d="M941.33,227.54c7.66,0,7.68-11.91,0-11.91s-7.67,11.91,0,11.91Z"/><path class="cls-10" d="M923.33,238.87c7.66,0,7.68-11.91,0-11.91s-7.67,11.91,0,11.91Z"/><path class="cls-10" d="M940,243.54c7.66,0,7.67-11.91,0-11.91s-7.67,11.91,0,11.91Z"/><path class="cls-10" d="M784.24,417.69a5,5,0,0,0-4.06-.08c-7.43-8.75-36.59-8.76-36.59-8.76l34.63,16.5a5,5,0,1,0,6-7.66Z"/><path class="cls-10" d="M875.07,259.81c.23-.33.46-.68.67-1,3.51-5.95,2-13.31-3.26-16.44s-12.46-.85-16,5.1a13.14,13.14,0,0,0-1.36,10.49l-82.39,74.74,4.71,5.19,5.09-4.62c5.56-3.42,22-11.21,36.29-17.78,8.23-2.46,16.86-4.83,24.67-6.61C865.78,303.78,873.94,265.69,875.07,259.81Z"/><path class="cls-10" d="M785.89,334.71a8.75,8.75,0,1,0-11.06,9.86l5.72,78.28,5-.36-1.11-15.2c3.64-34.26,4.37-51.68-.26-55.81-1.29-4.52-2.58-6.44-3.53-7.24A8.75,8.75,0,0,0,785.89,334.71Z"/><path class="cls-10" d="M875.8,138a8,8,0,0,0,10.61,1.87l44.87,32.2,3.5-4.87-8.33-6c-19.43-24.15-30.7-30.34-36.89-31.06a7.47,7.47,0,0,0-1.09-1.94A8,8,0,1,0,875.8,138Z"/><path class="cls-10" d="M924.57,174.86a7,7,0,0,0,7.89,3.63l0,.43c-.73,10.63,2.28,38.55,3.94,52.69-3.93,1.26-6.17,7.47-5.05,14.43,1.18,7.36,5.68,12.75,10,12s6.94-7.24,5.76-14.6c-1-6-4.09-10.62-7.56-11.82l-.62-7.95c.66-13.27,1.37-37.84-3.36-47a7,7,0,1,0-11.08-1.89Z"/><path class="cls-1" d="M601.67,419.7a5,5,0,0,0,1.15,3.9c-6.09,9.73,2.72,37.52,2.72,37.52l5.25-38a5.06,5.06,0,0,0,.79-2.06,5,5,0,1,0-9.91-1.37Z"/><path class="cls-1" d="M524.83,266.06a12.19,12.19,0,0,0-.42-1.15c-2.68-6.36-9.46-9.58-15.14-7.19s-8.11,9.5-5.43,15.86a13.1,13.1,0,0,0,7.61,7.35L522.3,391.64l7-.69-.67-6.84c.57-6.5,4.14-24.36,7.37-39.73,2.94-8.07,6.18-16.42,9.41-23.74C554.59,299.74,528.88,270.48,524.83,266.06Z"/><path class="cls-1" d="M532.11,380.47a8.75,8.75,0,1,0,4,14.25l72.94,29,1.85-4.64-14.17-5.64c-29.25-18.21-44.6-26.46-50.33-24.1-4.64-.81-6.93-.48-8.06,0A8.75,8.75,0,0,0,532.11,380.47Z"/><path class="cls-1" d="M536.71,144.26A8,8,0,0,0,536.6,155l-24.43,49.54,5.39,2.65,4.53-9.19c20.64-23.12,24.9-35.25,24.6-41.47a7.65,7.65,0,0,0,1.73-1.4,8,8,0,0,0-11.71-10.9Z"/><path class="cls-1" d="M508.59,200.36a7,7,0,0,0,2.5,8.32l-.31.31c-8.45,6.49-27.4,27.21-36.91,37.81-3.54-2.12-9.68.31-14.16,5.75-4.74,5.75-5.81,12.7-2.4,15.5s10,.42,14.75-5.34c3.84-4.65,5.27-10.09,3.87-13.48l5.56-5.72c10.39-8.28,29.29-24,33-33.58a7,7,0,1,0-5.91-9.57Z"/><path class="cls-2" d="M494,46.25s-13,10-2,13,52-12,78,8,43,17,34,2-5-15-3-20,6-7-10-10c-7-5-3-8-11-13s-6,2-28,10S500,40.25,494,46.25Z"/><path class="cls-3" d="M561.49,32.22S596.1,52.7,599.05,53s0,5.28,0,6.28S555.33,36.75,557.66,34,561.49,32.22,561.49,32.22Z"/><path class="cls-4" d="M438.5,235.75c-20-26.89-13-62-2-95s55-58,58-65,17-63,43-58,22,31,23,39,39,10,46,34,10,20,7,36-14,30-13,45,24.07,111.66-46,122C493.5,302.75,473.5,282.75,438.5,235.75Z"/><ellipse cx="467.21" cy="109.06" rx="6" ry="3.45" transform="translate(76.19 387.05) rotate(-48.55)"/><path class="cls-5" d="M473.5,119.75c10-5,19-12,32-8s33,22,4,68c-13,19-25,54-26,67s3.46,41.58-7.27,31.79-57.7-49-49.71-96.38S438.4,135.6,441,130.68c4.55-.93,11.55-.93,16.55-2.93S471.5,121.75,473.5,119.75Z"/><path class="cls-6" d="M444.5,142.75s7,2,18-5,31-22,33-9-25,29-33,30-27,3-29,0-.49-12.49,1.26-15.24S439.5,139.75,444.5,142.75Z"/><path class="cls-7" d="M484.5,135.75c-2,1-20,18-51,13"/><path class="cls-8" d="M523.5,33.75a48.31,48.31,0,0,0-12,17c-1.78,4.29-3.64,8.94-3,15,.25,2.37,1.26,11.14,8,15.07a15.24,15.24,0,0,0,15-.07c9-5,21-21,19-39S528.5,27.75,523.5,33.75Z"/><ellipse cx="518" cy="52.75" rx="6" ry="6.5"/><path class="cls-9" d="M513.13,47.25s32.12,1.64,37.25,3.57c0,0,3.39-21.07-12.24-22.07S513.76,45.75,513.13,47.25Z"/><path class="cls-10" d="M586.67,104.2c7.66,0,7.67-11.9,0-11.9s-7.68,11.9,0,11.9Z"/><path class="cls-10" d="M598,116.2c7.66,0,7.67-11.9,0-11.9s-7.67,11.9,0,11.9Z"/><path class="cls-10" d="M583.33,120.87c7.66,0,7.68-11.91,0-11.91s-7.67,11.91,0,11.91Z"/><path class="cls-10" d="M591.33,243.54c7.66,0,7.68-11.91,0-11.91s-7.67,11.91,0,11.91Z"/><path class="cls-10" d="M573.33,254.87c7.66,0,7.68-11.91,0-11.91s-7.67,11.91,0,11.91Z"/><path class="cls-10" d="M590,259.54c7.66,0,7.67-11.91,0-11.91s-7.67,11.91,0,11.91Z"/><path class="cls-10" d="M448.41,457.84a5,5,0,0,0-4,.68c-8.93-7.22-37.58-1.81-37.58-1.81l37.09,9.78a4.92,4.92,0,0,0,1.95,1,5,5,0,1,0,2.55-9.67Z"/><path class="cls-10" d="M527,272.38a12.18,12.18,0,0,0,.3-1.19c1.38-6.77-2.4-13.25-8.43-14.48s-12.06,3.25-13.44,10a13.12,13.12,0,0,0,2.13,10.36L454,374.58l6.14,3.37,3.31-6c4.14-5.05,17.17-17.77,28.52-28.63,7-5,14.37-10.06,21.17-14.28C532.5,317,527.81,278.31,527,272.38Z"/><path class="cls-10" d="M468.32,376.93a8.75,8.75,0,1,0-12.77,7.52l-9.64,77.9,5,.61,1.87-15.13C463,414.94,467.1,398,463.36,393.05c-.39-4.69-1.28-6.83-2.06-7.8A8.74,8.74,0,0,0,468.32,376.93Z"/><path class="cls-10" d="M525.58,148.77a8,8,0,0,0,7.91,7.31l20.29,51.37,5.58-2.21-3.76-9.52c-3.27-30.83-9.4-42.13-14.2-46.09a7.8,7.8,0,0,0,.12-2.22,8,8,0,1,0-15.94,1.36Z"/><path class="cls-10" d="M547.05,204.72a7,7,0,0,0,3,8.13l-.28.33c-8,7-25.53,29-34.31,40.18-3.68-1.88-9.65.95-13.75,6.68-4.35,6.06-5,13-1.37,15.63s10-.25,14.37-6.31c3.52-4.9,4.59-10.42,3-13.71l5.16-6.08c9.83-9,27.64-25.89,30.71-35.71a7,7,0,1,0-6.53-9.14Z"/><path class="cls-1" d="M188.29,432.79a5,5,0,0,0,3.29,2.39c1.11,11.42,25,28.07,25,28.07l-19-33.31a5.1,5.1,0,0,0-.63-2.11,5,5,0,0,0-8.69,5Z"/><path class="cls-1" d="M175.38,287.67c.08-.4.16-.8.21-1.21.91-6.85-3.32-13-9.43-13.86s-11.79,4.09-12.7,10.94a13.1,13.1,0,0,0,2.85,10.18l-46.61,101,6.35,2.93,2.88-6.24c3.78-5.32,15.89-18.93,26.45-30.55,6.62-5.48,13.64-11,20.13-15.73C184,331.77,176.63,293.52,175.38,287.67Z"/><path class="cls-1" d="M120.48,387.5A8.75,8.75,0,1,0,124,401.89l71.77,31.77,2-4.57-13.94-6.17c-28.53-19.32-43.55-28.16-49.37-26-4.61-1-6.91-.75-8.06-.29A8.74,8.74,0,0,0,120.48,387.5Z"/><path class="cls-1" d="M181.24,170.06a8,8,0,0,0,8.38,6.77l23.72,49.87,5.42-2.58-4.4-9.25c-5.34-30.53-12.22-41.4-17.28-45a8.26,8.26,0,0,0,0-2.22,8,8,0,0,0-15.82,2.43Z"/><path class="cls-1" d="M207.82,226.9a7,7,0,0,0,8.08,3.21l0,.43c-.15,10.65,4.36,38.36,6.78,52.39-3.86,1.47-5.76,7.79-4.27,14.68,1.58,7.29,6.36,12.44,10.68,11.5s6.54-7.6,5-14.89c-1.28-5.89-4.66-10.39-8.18-11.39l-1-7.91c-.05-13.29-.67-37.86-5.88-46.72a7,7,0,1,0-11.17-1.3Z"/><path class="cls-2" d="M144,62.25s-13,10-2,13,52-12,78,8,43,17,34,2-5-15-3-20,6-7-10-10c-7-5-3-8-11-13s-6,2-28,10S150,56.25,144,62.25Z"/><path class="cls-3" d="M211.49,48.22S246.1,68.7,249.05,69s0,5.28,0,6.28S205.33,52.75,207.66,50,211.49,48.22,211.49,48.22Z"/><path class="cls-4" d="M88.5,251.75c-20-26.89-13-62-2-95s55-58,58-65,17-63,43-58,22,31,23,39,39,10,46,34,10,20,7,36-14,30-13,45,24.07,111.66-46,122C143.5,318.75,123.5,298.75,88.5,251.75Z"/><ellipse cx="117.21" cy="125.06" rx="6" ry="3.45" transform="translate(-54.11 130.13) rotate(-48.55)"/><path class="cls-5" d="M123.5,135.75c10-5,19-12,32-8s33,22,4,68c-13,19-25,54-26,67s3.46,41.58-7.27,31.79-57.7-49-49.71-96.38S88.4,151.6,91,146.68c4.55-.93,11.55-.93,16.55-2.93S121.5,137.75,123.5,135.75Z"/><path class="cls-6" d="M94.5,158.75s7,2,18-5,31-22,33-9-25,29-33,30-27,3-29,0-.49-12.49,1.26-15.24S89.5,155.75,94.5,158.75Z"/><path class="cls-7" d="M134.5,151.75c-2,1-20,18-51,13"/><path class="cls-8" d="M173.5,49.75a48.31,48.31,0,0,0-12,17c-1.78,4.29-3.64,8.94-3,15,.25,2.37,1.26,11.14,7.95,15.07a15.24,15.24,0,0,0,15.05-.07c9-5,21-21,19-39S178.5,43.75,173.5,49.75Z"/><ellipse cx="168" cy="68.75" rx="6" ry="6.5"/><path class="cls-9" d="M163.13,63.25s32.12,1.64,37.25,3.57c0,0,3.39-21.07-12.24-22.07S163.76,61.75,163.13,63.25Z"/><path class="cls-10" d="M236.67,120.2c7.66,0,7.67-11.9,0-11.9s-7.68,11.9,0,11.9Z"/><path class="cls-10" d="M248,132.2c7.66,0,7.67-11.9,0-11.9s-7.67,11.9,0,11.9Z"/><path class="cls-10" d="M233.33,136.87c7.66,0,7.68-11.91,0-11.91s-7.67,11.91,0,11.91Z"/><path class="cls-10" d="M241.33,259.54c7.66,0,7.68-11.91,0-11.91s-7.67,11.91,0,11.91Z"/><path class="cls-10" d="M223.33,270.87c7.66,0,7.68-11.91,0-11.91s-7.67,11.91,0,11.91Z"/><path class="cls-10" d="M240,275.54c7.66,0,7.67-11.91,0-11.91s-7.67,11.91,0,11.91Z"/><path class="cls-10" d="M134,456.31a5,5,0,0,0-3.69,1.69c-10.51-4.62-36.74,8.1-36.74,8.1l38.36-.28a4.8,4.8,0,0,0,2.14.48,5,5,0,1,0-.07-10Z"/><path class="cls-10" d="M176.62,289.28c.17-.37.32-.75.46-1.15,2.25-6.52-.64-13.44-6.46-15.46s-12.38,1.64-14.64,8.17a13.13,13.13,0,0,0,.75,10.55L90.81,381l5.64,4.15,4.07-5.54c4.77-4.45,19.36-15.35,32-24.62,7.58-4,15.57-8.08,22.87-11.38C176.25,334.21,176.68,295.27,176.62,289.28Z"/><path class="cls-10" d="M103.17,378.76a8.75,8.75,0,1,0-6.28,13.41l36,69.73,4.45-2.3-7-13.54c-10.13-32.93-16.3-49.23-22.18-51.2-3-3.65-4.92-4.91-6.1-5.27A8.74,8.74,0,0,0,103.17,378.76Z"/><path class="cls-10" d="M179.15,159.45a8,8,0,0,0,.94,10.73L160.6,221.86l5.62,2.11,3.61-9.58c18.29-25,21.35-37.52,20.45-43.67a8.1,8.1,0,0,0,1.59-1.56,8,8,0,1,0-12.72-9.71Z"/><path class="cls-10" d="M154.57,217.8a7,7,0,0,0,1.31,8.59l-.34.26c-9.28,5.25-30.92,23.13-41.82,32.3-3.21-2.59-9.63-1-14.82,3.72-5.49,5-7.52,11.77-4.54,15s9.86,1.81,15.36-3.23c4.44-4.08,6.62-9.26,5.71-12.81l6.29-4.9c11.45-6.75,32.35-19.68,37.37-28.65a7,7,0,1,0-4.52-10.3Z"/><path class="cls-1" d="M518.06,956a5,5,0,0,0-3.71,1.65c-10.45-4.75-36.83,7.66-36.83,7.66l38.36.18a5,5,0,1,0,2.18-9.49Z"/><path class="cls-1" d="M526.06,768.13c0-.41.05-.82.05-1.23,0-6.91-5.08-12.47-11.24-12.43s-11.13,5.67-11.08,12.58a13.07,13.07,0,0,0,4.22,9.69l-32.3,106.45,6.7,2,2-6.58c3-5.79,13.13-20.93,22-33.9,5.8-6.33,12-12.8,17.77-18.34C540.68,810.62,528.11,773.75,526.06,768.13Z"/><path class="cls-1" d="M487.6,880.84a8.75,8.75,0,1,0-6.37,13.37l35.6,70,4.45-2.27-6.91-13.58c-9.92-33-16-49.34-21.86-51.35-2.94-3.67-4.88-4.94-6.06-5.31A8.74,8.74,0,0,0,487.6,880.84Z"/><path class="cls-1" d="M538.21,642.2a8,8,0,0,0-5.13,9.48l-44.7,32.43L491.9,689l8.29-6c29-10.83,38.47-19.57,41.11-25.21a8,8,0,1,0-3.09-15.54Z"/><path class="cls-1" d="M489.06,677.38a7,7,0,0,0-4.65,7.34l-.43,0c-10.44-2.14-38.51-2.86-52.75-3.09-.72-4.07-6.58-7.11-13.62-6.93-7.46.2-13.4,3.94-13.29,8.35s6.26,7.84,13.71,7.65c6-.16,11.07-2.64,12.72-5.92l8,.44c13.07,2.42,37.33,6.39,47,2.91a7,7,0,1,0,3.35-10.73Z"/><path class="cls-2" d="M494.46,545.25s-13,10-2,13,52-12,78,8,43,17,34,2-5-15-3-20,6-7-10-10c-7-5-3-8-11-13s-6,2-28,10S500.46,539.25,494.46,545.25Z"/><path class="cls-3" d="M561.94,531.22S596.56,551.7,599.51,552s0,5.28,0,6.28-43.67-22.5-41.34-25.25S561.94,531.22,561.94,531.22Z"/><path class="cls-4" d="M439,734.75c-20-26.89-13-62-2-95s55-58,58-65,17-63,43-58,22,31,23,39,39,10,46,34,10,20,7,36-14,30-13,45,24.07,111.66-46,122C494,801.75,474,781.75,439,734.75Z"/><ellipse cx="467.67" cy="608.06" rx="6" ry="3.45" transform="translate(-297.67 556.06) rotate(-48.55)"/><path class="cls-5" d="M474,618.75c10-5,19-12,32-8s33,22,4,68c-13,19-25,54-26,67s3.46,41.58-7.27,31.79-57.7-49-49.72-96.38,11.89-46.56,14.44-51.48c4.55-.93,11.55-.93,16.55-2.93S472,620.75,474,618.75Z"/><path class="cls-6" d="M445,641.75s7,2,18-5,31-22,33-9-25,29-33,30-27,3-29,0-.49-12.49,1.25-15.24S440,638.75,445,641.75Z"/><path class="cls-7" d="M485,634.75c-2,1-20,18-51,13"/><path class="cls-8" d="M524,532.75a48.31,48.31,0,0,0-12,17c-1.78,4.29-3.64,8.94-3,15,.25,2.37,1.26,11.14,7.95,15.07a15.24,15.24,0,0,0,15.05-.07c9-5,21-21,19-39S529,526.75,524,532.75Z"/><ellipse cx="518.46" cy="551.75" rx="6" ry="6.5"/><path class="cls-9" d="M513.59,546.25s32.12,1.64,37.24,3.57c0,0,3.4-21.07-12.24-22.07S514.21,544.75,513.59,546.25Z"/><path class="cls-10" d="M587.12,603.2c7.67,0,7.68-11.9,0-11.9s-7.67,11.9,0,11.9Z"/><path class="cls-10" d="M598.46,615.2c7.66,0,7.67-11.9,0-11.9s-7.68,11.9,0,11.9Z"/><path class="cls-10" d="M583.79,619.87c7.66,0,7.67-11.91,0-11.91s-7.67,11.91,0,11.91Z"/><path class="cls-10" d="M591.79,742.54c7.66,0,7.67-11.91,0-11.91s-7.67,11.91,0,11.91Z"/><path class="cls-10" d="M573.79,753.87c7.66,0,7.67-11.91,0-11.91s-7.67,11.91,0,11.91Z"/><path class="cls-10" d="M590.46,758.54c7.66,0,7.67-11.91,0-11.91s-7.68,11.91,0,11.91Z"/><path class="cls-10" d="M539.62,955.62a5,5,0,0,0-3.68,1.74c-10.55-4.51-36.64,8.52-36.64,8.52l38.35-.72a5,5,0,0,0,2.16.46,5,5,0,0,0-.19-10Z"/><path class="cls-10" d="M530.43,767.54c0-.41,0-.82-.08-1.23-.75-6.86-6.32-11.88-12.45-11.21s-10.49,6.77-9.74,13.64a13.09,13.09,0,0,0,5.19,9.21l-21.26,109.2,6.87,1.33,1.32-6.75c2.4-6.06,10.93-22.16,18.42-36,5.13-6.89,10.62-14,15.81-20.06C549.31,808.32,533.05,772.93,530.43,767.54Z"/><path class="cls-10" d="M504.57,882.88a8.75,8.75,0,1,0-5.65,13.69l39.28,68,4.33-2.5-7.63-13.2c-11.67-32.42-18.6-48.41-24.57-50.11-3.13-3.51-5.13-4.67-6.33-5A8.73,8.73,0,0,0,504.57,882.88Z"/><path class="cls-10" d="M532,645.2a8,8,0,0,0,4,10l-3.77,55.1,6,.41.7-10.22c10.3-29.23,9.64-42.08,7-47.71a8.37,8.37,0,0,0,1.07-1.95,8,8,0,0,0-15-5.64Z"/><path class="cls-10" d="M527.24,704.93a7,7,0,0,0-1.25,8.59l-.41.16c-10.4,2.3-36.33,13.08-49.43,18.67-2.31-3.42-8.9-3.82-15.26-.78-6.73,3.22-10.64,9.06-8.73,13s8.9,4.61,15.63,1.4c5.44-2.6,9-6.92,9.2-10.59l7.45-2.84c12.93-3.11,36.69-9.37,44.12-16.49a7,7,0,1,0-1.32-11.16Z"/><path class="cls-1" d="M1217.9,956a5,5,0,0,0-3.71,1.65c-10.45-4.75-36.83,7.66-36.83,7.66l38.36.18a5,5,0,0,0,7.16-4.47A5,5,0,0,0,1217.9,956Z"/><path class="cls-1" d="M1225.9,768.13c0-.41,0-.82,0-1.23,0-6.91-5.08-12.47-11.24-12.43s-11.13,5.67-11.08,12.58a13,13,0,0,0,4.22,9.69l-32.3,106.45,6.7,2,2-6.58c3-5.79,13.13-20.93,22-33.9,5.8-6.33,12-12.8,17.77-18.34C1240.52,810.62,1228,773.75,1225.9,768.13Z"/><path class="cls-1" d="M1187.44,880.84a8.75,8.75,0,1,0-6.37,13.37l35.6,70,4.45-2.27-6.91-13.58c-9.92-33-16-49.34-21.86-51.35-2.94-3.67-4.88-4.94-6.06-5.31A8.74,8.74,0,0,0,1187.44,880.84Z"/><path class="cls-1" d="M1238,642.2a8,8,0,0,0-5.12,9.48l-44.7,32.43,3.52,4.86,8.29-6c29-10.83,38.47-19.57,41.11-25.21a8,8,0,1,0-3.1-15.54Z"/><path class="cls-1" d="M1188.9,677.38a7,7,0,0,0-4.65,7.34l-.43,0c-10.44-2.14-38.51-2.86-52.75-3.09-.72-4.07-6.58-7.11-13.62-6.93-7.46.2-13.4,3.94-13.29,8.35s6.26,7.84,13.71,7.65c6-.16,11.07-2.64,12.72-5.92l8,.44c13.07,2.42,37.32,6.39,47,2.91a7,7,0,1,0,3.35-10.73Z"/><path class="cls-2" d="M1194.3,545.25s-13,10-2,13,52-12,78,8,43,17,34,2-5-15-3-20,6-7-10-10c-7-5-3-8-11-13s-6,2-28,10S1200.3,539.25,1194.3,545.25Z"/><path class="cls-3" d="M1261.78,531.22s34.62,20.48,37.57,20.75,0,5.28,0,6.28S1255.62,535.75,1258,533,1261.78,531.22,1261.78,531.22Z"/><path class="cls-4" d="M1138.8,734.75c-20-26.89-13-62-2-95s55-58,58-65,17-63,43-58,22,31,23,39,39,10,46,34,10,20,7,36-14,30-13,45,24.07,111.66-46,122C1193.8,801.75,1173.8,781.75,1138.8,734.75Z"/><ellipse cx="1167.51" cy="608.06" rx="6" ry="3.45" transform="translate(-61.11 1080.61) rotate(-48.55)"/><path class="cls-5" d="M1173.8,618.75c10-5,19-12,32-8s33,22,4,68c-13,19-25,54-26,67s3.45,41.58-7.28,31.79-57.69-49-49.71-96.38,11.88-46.56,14.44-51.48c4.55-.93,11.55-.93,16.55-2.93S1171.8,620.75,1173.8,618.75Z"/><path class="cls-6" d="M1144.8,641.75s7,2,18-5,31-22,33-9-25,29-33,30-27,3-29,0-.49-12.49,1.25-15.24S1139.8,638.75,1144.8,641.75Z"/><path class="cls-7" d="M1184.8,634.75c-2,1-20,18-51,13"/><path class="cls-8" d="M1223.8,532.75a48.31,48.31,0,0,0-12,17c-1.78,4.29-3.65,8.94-3,15,.25,2.37,1.26,11.14,8,15.07a15.24,15.24,0,0,0,15-.07c9-5,21-21,19-39S1228.8,526.75,1223.8,532.75Z"/><ellipse cx="1218.3" cy="551.75" rx="6" ry="6.5"/><path class="cls-9" d="M1213.42,546.25s32.13,1.64,37.25,3.57c0,0,3.4-21.07-12.24-22.07S1214.05,544.75,1213.42,546.25Z"/><path class="cls-10" d="M1287,603.2c7.66,0,7.68-11.9,0-11.9s-7.67,11.9,0,11.9Z"/><path class="cls-10" d="M1298.3,615.2c7.66,0,7.67-11.9,0-11.9s-7.68,11.9,0,11.9Z"/><path class="cls-10" d="M1283.63,619.87c7.66,0,7.67-11.91,0-11.91s-7.67,11.91,0,11.91Z"/><path class="cls-10" d="M1291.63,742.54c7.66,0,7.67-11.91,0-11.91s-7.67,11.91,0,11.91Z"/><path class="cls-10" d="M1273.63,753.87c7.66,0,7.67-11.91,0-11.91s-7.67,11.91,0,11.91Z"/><path class="cls-10" d="M1290.3,758.54c7.66,0,7.67-11.91,0-11.91s-7.68,11.91,0,11.91Z"/><path class="cls-10" d="M1239.46,955.62a5,5,0,0,0-3.68,1.74c-10.55-4.51-36.64,8.52-36.64,8.52l38.35-.72a5,5,0,1,0,2-9.54Z"/><path class="cls-10" d="M1230.27,767.54c0-.41,0-.82-.08-1.23-.75-6.86-6.32-11.88-12.45-11.21s-10.49,6.77-9.74,13.64a13.06,13.06,0,0,0,5.19,9.21l-21.26,109.2,6.87,1.33,1.32-6.75c2.4-6.06,10.93-22.16,18.42-36,5.13-6.89,10.62-14,15.81-20.06C1249.15,808.32,1232.88,772.93,1230.27,767.54Z"/><path class="cls-10" d="M1204.41,882.88a8.75,8.75,0,1,0-5.65,13.69l39.28,68,4.33-2.5-7.63-13.2c-11.67-32.42-18.6-48.41-24.57-50.11-3.13-3.51-5.14-4.67-6.34-5A8.73,8.73,0,0,0,1204.41,882.88Z"/><path class="cls-10" d="M1231.81,645.2a8,8,0,0,0,4,10l-3.77,55.1,6,.41.7-10.22c10.3-29.23,9.63-42.08,7-47.71a8.37,8.37,0,0,0,1.07-1.95,8,8,0,0,0-15-5.64Z"/><path class="cls-10" d="M1227.08,704.93a7,7,0,0,0-1.26,8.59l-.4.16c-10.4,2.3-36.33,13.08-49.43,18.67-2.31-3.42-8.91-3.82-15.26-.78-6.73,3.22-10.64,9.06-8.73,13s8.9,4.61,15.63,1.4c5.44-2.6,9-6.92,9.2-10.59l7.45-2.84c12.93-3.11,36.69-9.37,44.11-16.49a7,7,0,1,0-1.31-11.16Z"/><path class="cls-1" d="M867.9,956a5,5,0,0,0-3.71,1.65c-10.45-4.75-36.83,7.66-36.83,7.66l38.36.18a5,5,0,0,0,7.16-4.47A5,5,0,0,0,867.9,956Z"/><path class="cls-1" d="M875.43,786.24a11.94,11.94,0,0,0,.19-1.22c.77-6.86-3.58-13-9.71-13.65s-11.71,4.32-12.47,11.18a13.08,13.08,0,0,0,3,10.13L811.94,894.61l6.42,2.81,2.75-6.31c3.67-5.39,15.5-19.24,25.82-31.08,6.51-5.61,13.41-11.31,19.8-16.13C885,830.15,876.81,792.07,875.43,786.24Z"/><path class="cls-1" d="M824.49,887.17a8.75,8.75,0,1,0-4,14.27l47.17,62.74,4-3L862.52,949c-15.47-30.78-24.28-45.82-30.41-46.78-3.53-3.11-5.66-4-6.89-4.18A8.75,8.75,0,0,0,824.49,887.17Z"/><path class="cls-1" d="M888,660.2a8,8,0,0,0-5.12,9.48l-44.7,32.43,3.52,4.86,8.29-6c29-10.83,38.47-19.57,41.11-25.21A8,8,0,1,0,888,660.2Z"/><path class="cls-1" d="M838.9,695.38a7,7,0,0,0-4.65,7.34l-.43,0c-10.44-2.14-38.51-2.86-52.75-3.09-.72-4.07-6.58-7.11-13.62-6.93-7.46.2-13.4,3.94-13.29,8.35s6.26,7.84,13.71,7.65c6-.16,11.07-2.64,12.72-5.92l8,.44c13.07,2.42,37.32,6.39,47,2.91a7,7,0,1,0,3.35-10.73Z"/><path class="cls-2" d="M844.3,563.25s-13,10-2,13,52-12,78,8,43,17,34,2-5-15-3-20,6-7-10-10c-7-5-3-8-11-13s-6,2-28,10S850.3,557.25,844.3,563.25Z"/><path class="cls-3" d="M911.78,549.22S946.4,569.7,949.35,570s0,5.28-.05,6.28S905.62,553.75,908,551,911.78,549.22,911.78,549.22Z"/><path class="cls-4" d="M788.8,752.75c-20-26.89-13-62-2-95s55-58,58-65,17-63,43-58,22,31,23,39,39,10,46,34,10,20,7,36-14,30-13,45,24.07,111.66-46,122C843.8,819.75,823.8,799.75,788.8,752.75Z"/><ellipse cx="817.51" cy="626.06" rx="6" ry="3.45" transform="translate(-192.91 824.36) rotate(-48.55)"/><path class="cls-5" d="M823.8,636.75c10-5,19-12,32-8s33,22,4,68c-13,19-25,54-26,67s3.45,41.58-7.28,31.79-57.69-49-49.71-96.38,11.88-46.56,14.44-51.48c4.55-.93,11.55-.93,16.55-2.93S821.8,638.75,823.8,636.75Z"/><path class="cls-6" d="M794.8,659.75s7,2,18-5,31-22,33-9-25,29-33,30-27,3-29,0-.49-12.49,1.25-15.24S789.8,656.75,794.8,659.75Z"/><path class="cls-7" d="M834.8,652.75c-2,1-20,18-51,13"/><path class="cls-8" d="M873.8,550.75a48.31,48.31,0,0,0-12,17c-1.78,4.29-3.65,8.94-3,15,.25,2.37,1.26,11.14,8,15.07a15.24,15.24,0,0,0,15-.07c9-5,21-21,19-39S878.8,544.75,873.8,550.75Z"/><ellipse cx="868.3" cy="569.75" rx="6" ry="6.5"/><path class="cls-9" d="M863.42,564.25s32.13,1.64,37.25,3.57c0,0,3.4-21.07-12.24-22.07S864.05,562.75,863.42,564.25Z"/><path class="cls-10" d="M937,621.2c7.66,0,7.68-11.9,0-11.9s-7.67,11.9,0,11.9Z"/><path class="cls-10" d="M948.3,633.2c7.66,0,7.67-11.9,0-11.9s-7.68,11.9,0,11.9Z"/><path class="cls-10" d="M933.63,637.87c7.66,0,7.67-11.91,0-11.91s-7.67,11.91,0,11.91Z"/><path class="cls-10" d="M941.63,760.54c7.66,0,7.67-11.91,0-11.91s-7.67,11.91,0,11.91Z"/><path class="cls-10" d="M923.63,771.87c7.66,0,7.67-11.91,0-11.91s-7.67,11.91,0,11.91Z"/><path class="cls-10" d="M940.3,776.54c7.66,0,7.67-11.91,0-11.91s-7.68,11.91,0,11.91Z"/><path class="cls-10" d="M889.46,955.62a5,5,0,0,0-3.68,1.74c-10.55-4.51-36.64,8.52-36.64,8.52l38.35-.72a5,5,0,1,0,2-9.54Z"/><path class="cls-10" d="M879.63,786.8a12.29,12.29,0,0,0,.08-1.23c.12-6.9-4.77-12.58-10.94-12.69s-11.25,5.39-11.38,12.29a13,13,0,0,0,4,9.8L826.49,900.6l6.64,2.2,2.16-6.53c3.15-5.71,13.64-20.6,22.82-33.35,6-6.19,12.3-12.51,18.22-17.9C893.21,829.64,881.55,792.48,879.63,786.8Z"/><path class="cls-10" d="M837.32,893A8.75,8.75,0,1,0,835,907.64l53.93,57,3.64-3.44-10.48-11.08c-18.84-28.84-29.29-42.79-35.48-43.06-3.87-2.69-6.08-3.36-7.32-3.38A8.75,8.75,0,0,0,837.32,893Z"/><path class="cls-10" d="M881.81,663.2a8,8,0,0,0,4,10L882,728.31l6,.41.7-10.22c10.3-29.23,9.63-42.08,7-47.71a8.37,8.37,0,0,0,1.07-1.95,8,8,0,0,0-15-5.64Z"/><path class="cls-10" d="M877.08,722.93a7,7,0,0,0-1.26,8.59l-.4.16C865,734,839.09,744.76,826,750.35c-2.31-3.42-8.91-3.82-15.26-.78-6.73,3.22-10.64,9.06-8.73,13s8.9,4.61,15.63,1.4c5.44-2.6,9-6.92,9.2-10.59l7.45-2.84c12.93-3.11,36.69-9.37,44.11-16.49a7,7,0,1,0-1.31-11.16Z"/><path class="cls-1" d="M163.6,944.84a5,5,0,0,0-3.1,2.64c-11.36-1.59-33.14,17.79-33.14,17.79l36.83-10.71a4.85,4.85,0,0,0,2.2-.12,5,5,0,0,0-2.79-9.6Z"/><path class="cls-1" d="M175.74,758.91q.06-.6.06-1.23c0-6.9-5-12.51-11.13-12.53s-11.17,5.57-11.19,12.47a13.07,13.07,0,0,0,4.13,9.74L124.33,873.51,131,875.6l2.05-6.56c3.07-5.76,13.34-20.81,22.32-33.69,5.86-6.28,12.11-12.69,17.94-18.17C190,801.54,177.74,764.56,175.74,758.91Z"/><path class="cls-1" d="M137.32,867.62a8.75,8.75,0,1,0-7,13.06l32.23,71.57,4.56-2-6.26-13.9c-8.34-33.43-13.62-50-19.39-52.33-2.77-3.81-4.64-5.16-5.8-5.59A8.76,8.76,0,0,0,137.32,867.62Z"/><path class="cls-1" d="M188,626.77a8,8,0,0,0-5.12,9.48l-44.7,32.43,3.52,4.85,8.29-6c29-10.83,38.47-19.58,41.11-25.22a7.6,7.6,0,0,0,2.18-.43,8,8,0,1,0-5.28-15.1Z"/><path class="cls-1" d="M138.9,662a7,7,0,0,0-4.65,7.34l-.43,0c-10.44-2.13-38.51-2.86-52.75-3.09-.72-4.06-6.58-7.11-13.62-6.92-7.46.19-13.4,3.93-13.29,8.35s6.26,7.84,13.71,7.64c6-.16,11.07-2.64,12.72-5.92l8,.44c13.07,2.43,37.32,6.39,47,2.92A7,7,0,1,0,138.9,662Z"/><path class="cls-2" d="M144.3,529.82s-13,10-2,13,52-12,78,8,43,17,34,2-5-15-3-20,6-7-10-10c-7-5-3-8-11-13s-6,2-28,10S150.3,523.82,144.3,529.82Z"/><path class="cls-3" d="M211.78,515.78s34.62,20.48,37.57,20.76,0,5.28,0,6.28S205.62,520.31,208,517.56,211.78,515.78,211.78,515.78Z"/><path class="cls-4" d="M88.8,719.32c-20-26.89-13-62-2-95s55-58,58-65,17-63,43-58,22,31,23,39,39,10,46,34,10,20,7,36-14,30-13,45,24.07,111.66-46,122C143.8,786.32,123.8,766.32,88.8,719.32Z"/><ellipse cx="117.51" cy="592.62" rx="6" ry="3.45" transform="translate(-404.46 288.39) rotate(-48.55)"/><path class="cls-5" d="M123.8,603.32c10-5,19-12,32-8s33,22,4,68c-13,19-25,54-26,67s3.45,41.58-7.28,31.79-57.69-49-49.71-96.39,11.88-46.55,14.44-51.48c4.55-.92,11.55-.92,16.55-2.92S121.8,605.32,123.8,603.32Z"/><path class="cls-6" d="M94.8,626.32s7,2,18-5,31-22,33-9-25,29-33,30-27,3-29,0-.49-12.49,1.25-15.25S89.8,623.32,94.8,626.32Z"/><path class="cls-7" d="M134.8,619.32c-2,1-20,18-51,13"/><path class="cls-8" d="M173.8,517.32a48.13,48.13,0,0,0-12,17c-1.78,4.29-3.65,8.93-3,15,.25,2.36,1.26,11.14,7.95,15.06a15.24,15.24,0,0,0,15.05-.06c9-5,21-21,19-39S178.8,511.32,173.8,517.32Z"/><ellipse cx="168.3" cy="536.32" rx="6" ry="6.5"/><path class="cls-9" d="M163.42,530.82s32.13,1.64,37.25,3.57c0,0,3.4-21.07-12.24-22.07S164.05,529.32,163.42,530.82Z"/><path class="cls-10" d="M237,587.77c7.66,0,7.68-11.91,0-11.91s-7.67,11.91,0,11.91Z"/><path class="cls-10" d="M248.3,599.77c7.66,0,7.67-11.91,0-11.91s-7.68,11.91,0,11.91Z"/><path class="cls-10" d="M233.63,604.44c7.66,0,7.67-11.91,0-11.91s-7.67,11.91,0,11.91Z"/><path class="cls-10" d="M241.63,727.1c7.66,0,7.67-11.9,0-11.9s-7.67,11.9,0,11.9Z"/><path class="cls-10" d="M223.63,746c7.66,0,7.67-11.91,0-11.91S216,746,223.63,746Z"/><path class="cls-10" d="M240.3,750.7c7.66,0,7.67-11.9,0-11.9s-7.68,11.9,0,11.9Z"/><path class="cls-10" d="M186.3,947.17a5,5,0,0,0-3.21,2.5c-11.28-2.13-34,16.21-34,16.21l37.3-9a5,5,0,0,0,2.2,0,5,5,0,0,0-2.34-9.73Z"/><path class="cls-10" d="M179.82,759.09c0-.4-.06-.81-.12-1.22-1-6.83-6.81-11.61-12.91-10.69s-10.2,7.19-9.17,14a13.1,13.1,0,0,0,5.57,9l-16.78,110,6.92,1.05,1-6.79c2.16-6.16,10-22.59,16.94-36.69,4.84-7.1,10-14.39,15-20.69C200.35,799.07,182.66,764.37,179.82,759.09Z"/><path class="cls-10" d="M159.42,870.64a8.75,8.75,0,1,0-6.81,13.16l33.27,71.09,4.53-2.12L184,939c-8.83-33.3-14.35-49.83-20.15-52-2.83-3.77-4.72-5.1-5.89-5.51A8.74,8.74,0,0,0,159.42,870.64Z"/><path class="cls-10" d="M181.81,629.77a8,8,0,0,0,4,10L182,694.87l6,.41.7-10.22c10.3-29.23,9.63-42.07,7-47.71a8,8,0,1,0-13.91-7.58Z"/><path class="cls-10" d="M177.08,689.5a7,7,0,0,0-1.26,8.59l-.4.15c-10.4,2.31-36.33,13.08-49.43,18.67-2.31-3.42-8.91-3.81-15.26-.77-6.73,3.21-10.64,9.05-8.73,13s8.9,4.61,15.63,1.39c5.44-2.6,9-6.92,9.2-10.58l7.45-2.85c12.93-3.11,36.69-9.37,44.11-16.48a7,7,0,1,0-1.31-11.16Z"/><g id="step2-2" data-name="step2"><path class="cls-1" d="M2617.75,1457a5,5,0,0,0-3.71,1.65c-10.45-4.75-36.83,7.66-36.83,7.66l38.36.18a5,5,0,1,0,2.18-9.49Z"/><path class="cls-1" d="M2625.28,1287.24c.08-.4.15-.81.19-1.22.77-6.86-3.58-13-9.71-13.65s-11.71,4.32-12.47,11.18a13,13,0,0,0,3.06,10.13l-44.56,101.93,6.42,2.81,2.75-6.31c3.67-5.39,15.5-19.24,25.82-31.08,6.51-5.61,13.41-11.31,19.8-16.13C2634.82,1331.15,2626.66,1293.07,2625.28,1287.24Z"/><path class="cls-1" d="M2574.34,1388.17a8.75,8.75,0,1,0-4,14.27l47.16,62.74,4-3-9.12-12.18c-15.48-30.78-24.29-45.82-30.41-46.78-3.54-3.11-5.67-4-6.89-4.18A8.75,8.75,0,0,0,2574.34,1388.17Z"/><path class="cls-1" d="M2637.9,1161.2a8,8,0,0,0-5.13,9.48l-44.7,32.43,3.52,4.86,8.29-6c29-10.83,38.47-19.57,41.11-25.21a8,8,0,1,0-.91-16,7.74,7.74,0,0,0-2.18.43Z"/><path class="cls-1" d="M2588.75,1196.38a7,7,0,0,0-4.65,7.34h-.43c-10.44-2.14-38.51-2.86-52.75-3.09-.72-4.07-6.58-7.11-13.62-6.93-7.45.2-13.4,3.94-13.29,8.35s6.26,7.84,13.71,7.65c6-.16,11.07-2.64,12.72-5.92l8,.44c13.07,2.42,37.33,6.39,47,2.91a7,7,0,1,0,3.35-10.73Z"/><path class="cls-2" d="M2594.15,1064.25s-13,10-2,13,52-12,78,8,43,17,34,2-5-15-3-20,6-7-10-10c-7-5-3-8-11-13s-6,2-28,10S2600.15,1058.25,2594.15,1064.25Z"/><path class="cls-3" d="M2661.63,1050.22s34.62,20.48,37.57,20.78,0,5.28,0,6.28-43.67-22.5-41.34-25.25S2661.63,1050.22,2661.63,1050.22Z"/><path class="cls-4" d="M2538.65,1253.75c-20-26.89-13-62-2-95s55-58,58-65,17-63,43-58,22,31,23,39,39,10,46,34,10,20,7,36-14,30-13,45,24.07,111.66-46,122C2593.65,1320.75,2573.65,1300.75,2538.65,1253.75Z"/><ellipse cx="2567.33" cy="1127.03" rx="6" ry="3.45" transform="translate(23.1 2305.27) rotate(-48.55)"/><path class="cls-5" d="M2573.65,1137.75c10-5,19-12,32-8s33,22,4,68c-13,19-25,54-26,67s3.46,41.58-7.27,31.79-57.7-49-49.72-96.38,11.89-46.56,14.44-51.48c4.55-.93,11.55-.93,16.55-2.93S2571.65,1139.75,2573.65,1137.75Z"/><path class="cls-6" d="M2544.65,1160.75s7,2,18-5,31-22,33-9-25,29-33,30-27,3-29,0-.49-12.49,1.26-15.24S2539.65,1157.75,2544.65,1160.75Z"/><path class="cls-7" d="M2584.65,1153.75c-2,1-20,18-51,13"/><path class="cls-8" d="M2623.65,1051.75a48.34,48.34,0,0,0-12,17c-1.78,4.29-3.64,8.94-3,15,.25,2.37,1.26,11.14,7.95,15.07a15.24,15.24,0,0,0,15.05-.07c9-5,21-21,19-39S2628.65,1045.75,2623.65,1051.75Z"/><ellipse cx="2618.15" cy="1070.75" rx="6" ry="6.5"/><path class="cls-9" d="M2613.28,1065.25s32.12,1.64,37.24,3.57c0,0,3.4-21.07-12.23-22.07S2613.9,1063.75,2613.28,1065.25Z"/><path class="cls-10" d="M2686.81,1122.2c7.67,0,7.68-11.9,0-11.9S2679.14,1122.2,2686.81,1122.2Z"/><path class="cls-10" d="M2698.15,1134.2c7.66,0,7.67-11.9,0-11.9S2690.47,1134.2,2698.15,1134.2Z"/><path class="cls-10" d="M2683.48,1138.87c7.66,0,7.68-11.91,0-11.91S2675.81,1138.87,2683.48,1138.87Z"/><path class="cls-10" d="M2691.48,1261.54c7.66,0,7.68-11.91,0-11.91S2683.81,1261.54,2691.48,1261.54Z"/><path class="cls-10" d="M2673.48,1272.87c7.66,0,7.68-11.91,0-11.91S2665.81,1272.87,2673.48,1272.87Z"/><path class="cls-10" d="M2690.15,1277.54c7.66,0,7.67-11.91,0-11.91S2682.47,1277.54,2690.15,1277.54Z"/><path class="cls-10" d="M2639.31,1456.62a5,5,0,0,0-3.68,1.74c-10.55-4.51-36.64,8.52-36.64,8.52l38.35-.72a5,5,0,1,0,2-9.54Z"/><path class="cls-10" d="M2629.49,1287.8c0-.4.07-.81.07-1.23.13-6.9-4.77-12.58-10.93-12.69s-11.26,5.39-11.39,12.29a13.06,13.06,0,0,0,4,9.8l-34.9,105.63,6.65,2.2,2.15-6.53c3.15-5.71,13.65-20.6,22.83-33.35,6-6.19,12.29-12.51,18.21-17.9C2643.06,1330.64,2631.4,1293.48,2629.49,1287.8Z"/><path class="cls-10" d="M2587.18,1394a8.75,8.75,0,1,0-2.33,14.63l53.92,57,3.64-3.44-10.48-11.08c-18.84-28.84-29.28-42.79-35.48-43.06-3.87-2.69-6.08-3.36-7.32-3.38A8.77,8.77,0,0,0,2587.18,1394Z"/><path class="cls-10" d="M2631.66,1164.2a8,8,0,0,0,4,10l-3.77,55.1,6,.41.7-10.22c10.3-29.23,9.64-42.08,7-47.71a8.61,8.61,0,0,0,1.07-2,8,8,0,1,0-15-5.64h0Z"/><path class="cls-10" d="M2626.93,1223.93a7,7,0,0,0-1.25,8.59l-.41.16c-10.4,2.3-36.33,13.08-49.43,18.67-2.31-3.42-8.9-3.82-15.26-.78-6.73,3.22-10.64,9.06-8.73,13s8.9,4.61,15.63,1.4c5.44-2.6,9-6.92,9.2-10.59l7.45-2.84c12.93-3.11,36.7-9.37,44.12-16.49a7,7,0,1,0-1.32-11.16Z"/></g><g id="Layer_4" data-name="Layer 4"><path class="cls-1" d="M2267.75,1457a5,5,0,0,0-3.71,1.65c-10.45-4.75-36.83,7.66-36.83,7.66l38.36.18a5,5,0,1,0,2.18-9.49Z"/><path class="cls-1" d="M2275.28,1287.24c.08-.4.15-.81.19-1.22.77-6.86-3.58-13-9.71-13.65s-11.71,4.32-12.47,11.18a13,13,0,0,0,3.06,10.13l-44.56,101.93,6.42,2.81,2.75-6.31c3.67-5.39,15.5-19.24,25.82-31.08,6.51-5.61,13.41-11.31,19.8-16.13C2284.82,1331.15,2276.66,1293.07,2275.28,1287.24Z"/><path class="cls-1" d="M2224.34,1388.17a8.75,8.75,0,1,0-4,14.27l47.16,62.74,4-3-9.12-12.18c-15.48-30.78-24.29-45.82-30.41-46.78-3.54-3.11-5.67-4-6.89-4.18A8.75,8.75,0,0,0,2224.34,1388.17Z"/><path class="cls-1" d="M2290.29,1161.6a8,8,0,0,0-8.72,6.32l-54.34,9.87,1.07,5.9,10.08-1.83c30.87,2.82,43.15-1,48-4.92a7.73,7.73,0,0,0,2.16.56,8,8,0,1,0,1.93-15.88l-.15,0Z"/><path class="cls-1" d="M2230.76,1172a7,7,0,0,0-7.37,4.6l-.38-.21c-8.48-6.45-33.47-19.26-46.2-25.63,1.11-4-2.85-9.26-9.28-12.15-6.8-3-13.78-2.25-15.59,1.78s2.24,9.77,9,12.82c5.5,2.47,11.12,2.42,14,.18l7,3.84c10.73,7.85,30.88,21.93,41.1,23a7,7,0,1,0,7.67-8.22Z"/><path class="cls-2" d="M2244.15,1064.25s-13,10-2,13,52-12,78,8,43,17,34,2-5-15-3-20,6-7-10-10c-7-5-3-8-11-13s-6,2-28,10S2250.15,1058.25,2244.15,1064.25Z"/><path class="cls-3" d="M2311.63,1050.22s34.62,20.48,37.57,20.78,0,5.28,0,6.28-43.67-22.5-41.34-25.25S2311.63,1050.22,2311.63,1050.22Z"/><path class="cls-4" d="M2188.65,1253.75c-20-26.89-13-62-2-95s55-58,58-65,17-63,43-58,22,31,23,39,39,10,46,34,10,20,7,36-14,30-13,45,24.07,111.66-46,122C2243.65,1320.75,2223.65,1300.75,2188.65,1253.75Z"/><ellipse cx="2217.33" cy="1127.03" rx="6" ry="3.45" transform="translate(-95.22 2042.94) rotate(-48.55)"/><path class="cls-5" d="M2223.65,1137.75c10-5,19-12,32-8s33,22,4,68c-13,19-25,54-26,67s3.46,41.58-7.27,31.79-57.7-49-49.72-96.38,11.89-46.56,14.44-51.48c4.55-.93,11.55-.93,16.55-2.93S2221.65,1139.75,2223.65,1137.75Z"/><path class="cls-6" d="M2194.65,1160.75s7,2,18-5,31-22,33-9-22.5,50.5-30.5,51.5-29.5-18.5-31.5-21.5-.49-12.49,1.26-15.24S2189.65,1157.75,2194.65,1160.75Z"/><path class="cls-11" d="M2183.57,1167.24l.16-1a70.32,70.32,0,0,0,12.47.9q3.09-.06,6.12-.41a63.43,63.43,0,0,0,30.68-12.45,15.59,15.59,0,0,1,1.41-1l.45.9a12.42,12.42,0,0,0-1.26.89c-9,6.66-14.14,31.59-24.46,33.16C2206,1188.73,2187.42,1167.86,2183.57,1167.24Z"/><path class="cls-8" d="M2273.65,1051.75a48.34,48.34,0,0,0-12,17c-1.78,4.29-3.64,8.94-3,15,.25,2.37,1.26,11.14,7.95,15.07a15.24,15.24,0,0,0,15.05-.07c9-5,21-21,19-39S2278.65,1045.75,2273.65,1051.75Z"/><ellipse cx="2268.15" cy="1070.75" rx="6" ry="6.5"/><path class="cls-9" d="M2268.15,1057.25s26.87.07,32,2c0,0,3.77-11.5-11.86-12.5S2268.78,1055.75,2268.15,1057.25Z"/><path class="cls-10" d="M2336.81,1122.2c7.67,0,7.68-11.9,0-11.9S2329.14,1122.2,2336.81,1122.2Z"/><path class="cls-10" d="M2348.15,1134.2c7.66,0,7.67-11.9,0-11.9S2340.47,1134.2,2348.15,1134.2Z"/><path class="cls-10" d="M2333.48,1138.87c7.66,0,7.68-11.91,0-11.91S2325.81,1138.87,2333.48,1138.87Z"/><path class="cls-10" d="M2341.48,1261.54c7.66,0,7.68-11.91,0-11.91S2333.81,1261.54,2341.48,1261.54Z"/><path class="cls-10" d="M2323.48,1272.87c7.66,0,7.68-11.91,0-11.91S2315.81,1272.87,2323.48,1272.87Z"/><path class="cls-10" d="M2340.15,1277.54c7.66,0,7.67-11.91,0-11.91S2332.47,1277.54,2340.15,1277.54Z"/><path class="cls-10" d="M2289.31,1456.62a5,5,0,0,0-3.68,1.74c-10.55-4.51-36.64,8.52-36.64,8.52l38.35-.72a5,5,0,1,0,2-9.54Z"/><path class="cls-10" d="M2279.49,1287.8c0-.4.07-.81.07-1.23.13-6.9-4.77-12.58-10.93-12.69s-11.26,5.39-11.39,12.29a13.06,13.06,0,0,0,4,9.8l-34.9,105.63,6.65,2.2,2.15-6.53c3.15-5.71,13.65-20.6,22.83-33.35,6-6.19,12.29-12.51,18.21-17.9C2293.06,1330.64,2281.4,1293.48,2279.49,1287.8Z"/><path class="cls-10" d="M2237.18,1394a8.75,8.75,0,1,0-2.33,14.63l53.92,57,3.64-3.44-10.48-11.08c-18.84-28.84-29.28-42.79-35.48-43.06-3.87-2.69-6.08-3.36-7.32-3.38A8.77,8.77,0,0,0,2237.18,1394Z"/><path class="cls-10" d="M2285.38,1159.87a8,8,0,0,0-3,10.34l-36.89,41.1,4.46,4,6.85-7.63c26.11-16.69,33.49-27.22,34.88-33.29a7.76,7.76,0,0,0,2-.88,8,8,0,0,0-8-13.83l-.3.18Z"/><path class="cls-10" d="M2244.89,1204a7,7,0,0,0-6.28,6l-.42-.12c-9.61-4.59-36.68-12.06-50.44-15.72.28-4.12-4.67-8.49-11.55-10-7.29-1.61-14,.59-14.91,4.9s4.18,9.11,11.46,10.72c5.89,1.3,11.38.11,13.77-2.68l7.62,2.35c12.1,5.5,34.68,15.2,44.91,14.16a7,7,0,1,0,5.84-9.61Z"/><polygon class="cls-8" points="2202.15 1172.25 2195.15 1172.25 2195.15 1167.17 2201.8 1166.8 2202.15 1172.25"/><polygon class="cls-8" points="2211.55 1170.63 2204.65 1171.79 2203.81 1166.78 2210.3 1165.32 2211.55 1170.63"/></g><g id="Layer_5" data-name="Layer 5"><path class="cls-1" d="M1917.75,1457a5,5,0,0,0-3.71,1.65c-10.45-4.75-36.83,7.66-36.83,7.66l38.36.18a5,5,0,1,0,2.18-9.49Z"/><path class="cls-1" d="M1925.28,1287.24c.08-.4.15-.81.19-1.22.77-6.86-3.58-13-9.71-13.65s-11.71,4.32-12.47,11.18a13,13,0,0,0,3.06,10.13l-44.56,101.93,6.42,2.81,2.75-6.31c3.67-5.39,15.5-19.24,25.82-31.08,6.51-5.61,13.41-11.31,19.8-16.13C1934.82,1331.15,1926.66,1293.07,1925.28,1287.24Z"/><path class="cls-1" d="M1874.34,1388.17a8.75,8.75,0,1,0-4,14.27l47.16,62.74,4-3-9.12-12.18c-15.48-30.78-24.29-45.82-30.41-46.78-3.54-3.11-5.67-4-6.89-4.18A8.75,8.75,0,0,0,1874.34,1388.17Z"/><path class="cls-1" d="M1943,1162.07a8,8,0,0,0-10.61,1.86L1879.24,1149l-1.62,5.78,9.86,2.77c26.51,16,39.22,18,45.28,16.58a7.81,7.81,0,0,0,1.69,1.45,8,8,0,0,0,8.57-13.51Z"/><path class="cls-1" d="M1884.94,1145.36a7,7,0,0,0-8.64.91l-.25-.35c-4.81-9.51-21.66-32-30.31-43.28,2.74-3.09,1.49-9.57-3-15-4.78-5.73-11.4-8.07-14.79-5.24s-2.27,9.77,2.51,15.49c3.87,4.63,8.94,7,12.54,6.3l4.59,6.52c6.21,11.75,18.15,33.23,26.88,38.66a7,7,0,1,0,10.5-4Z"/><path class="cls-2" d="M1894.15,1064.25s-13,10-2,13,52-12,78,8,43,17,34,2-5-15-3-20,6-7-10-10c-7-5-3-8-11-13s-6,2-28,10S1900.15,1058.25,1894.15,1064.25Z"/><path class="cls-3" d="M1961.63,1050.22s34.62,20.48,37.57,20.78,0,5.28,0,6.28-43.67-22.5-41.34-25.25S1961.63,1050.22,1961.63,1050.22Z"/><path class="cls-4" d="M1838.65,1253.75c-20-26.89-13-62-2-95s55-58,58-65,17-63,43-58,22,31,23,39,39,10,46,34,10,20,7,36-14,30-13,45,24.07,111.66-46,122C1893.65,1320.75,1873.65,1300.75,1838.65,1253.75Z"/><ellipse cx="1867.33" cy="1127.03" rx="6" ry="3.45" transform="translate(-213.52 1780.6) rotate(-48.55)"/><path class="cls-5" d="M1873.65,1137.75c10-5,19-12,32-8s33,22,4,68c-13,19-25,54-26,67s3.46,41.58-7.27,31.79-57.7-49-49.72-96.38,11.89-46.56,14.44-51.48c4.55-.93,11.55-.93,16.55-2.93S1871.65,1139.75,1873.65,1137.75Z"/><path class="cls-6" d="M1844.65,1160.75s7,2,18-5,31-22,33-9-25,29-33,30-27,3-29,0-.49-12.49,1.26-15.24S1839.65,1157.75,1844.65,1160.75Z"/><path class="cls-7" d="M1884.65,1153.75c-2,1-20,18-51,13"/><path class="cls-8" d="M1923.65,1051.75a48.34,48.34,0,0,0-12,17c-1.78,4.29-3.64,8.94-3,15,.25,2.37,1.26,11.14,7.95,15.07a15.24,15.24,0,0,0,15.05-.07c9-5,21-21,19-39S1928.65,1045.75,1923.65,1051.75Z"/><ellipse cx="1918.15" cy="1070.75" rx="6" ry="6.5"/><path class="cls-9" d="M1925.15,1050.25s18.87,3.07,24,5c0,0,0-6-10.86-8.5C1933.15,1046.25,1925.78,1048.75,1925.15,1050.25Z"/><path class="cls-10" d="M1986.81,1122.2c7.67,0,7.68-11.9,0-11.9S1979.14,1122.2,1986.81,1122.2Z"/><path class="cls-10" d="M1998.15,1134.2c7.66,0,7.67-11.9,0-11.9S1990.47,1134.2,1998.15,1134.2Z"/><path class="cls-10" d="M1983.48,1138.87c7.66,0,7.68-11.91,0-11.91S1975.81,1138.87,1983.48,1138.87Z"/><path class="cls-10" d="M1991.48,1261.54c7.66,0,7.68-11.91,0-11.91S1983.81,1261.54,1991.48,1261.54Z"/><path class="cls-10" d="M1973.48,1272.87c7.66,0,7.68-11.91,0-11.91S1965.81,1272.87,1973.48,1272.87Z"/><path class="cls-10" d="M1990.15,1277.54c7.66,0,7.67-11.91,0-11.91S1982.47,1277.54,1990.15,1277.54Z"/><path class="cls-10" d="M1939.31,1456.62a5,5,0,0,0-3.68,1.74c-10.55-4.51-36.64,8.52-36.64,8.52l38.35-.72a5,5,0,1,0,2-9.54Z"/><path class="cls-10" d="M1929.49,1287.8c0-.4.07-.81.07-1.23.13-6.9-4.77-12.58-10.93-12.69s-11.26,5.39-11.39,12.29a13.06,13.06,0,0,0,4,9.8l-34.9,105.63,6.65,2.2,2.15-6.53c3.15-5.71,13.65-20.6,22.83-33.35,6-6.19,12.29-12.51,18.21-17.9C1943.06,1330.64,1931.4,1293.48,1929.49,1287.8Z"/><path class="cls-10" d="M1887.18,1394a8.75,8.75,0,1,0-2.33,14.63l53.92,57,3.64-3.44-10.48-11.08c-18.84-28.84-29.28-42.79-35.48-43.06-3.87-2.69-6.08-3.36-7.32-3.38A8.75,8.75,0,0,0,1887.18,1394Z"/><path class="cls-10" d="M1944.69,1159.67a8,8,0,0,0-9.58,4.93l-55.2,1.56.16,6,10.25-.29c30.08,7.45,42.8,5.54,48.16,2.38a7.71,7.71,0,0,0,11.61-5.11,8,8,0,0,0-5.45-9.46Z"/><path class="cls-10" d="M1882.6,1159.36a7,7,0,0,0-8.29,2.6l-.31-.29c-6.6-8.37-27.57-27-38.3-36.41,2.08-3.57-.43-9.68-5.93-14.08-5.82-4.66-12.78-5.65-15.54-2.2s-.28,10,5.54,14.69c4.7,3.77,10.16,5.13,13.53,3.68l5.8,5.48c8.42,10.29,24.38,29,34,32.56a7,7,0,1,0,9.48-6Z"/></g><g id="Layer_6" data-name="Layer 6"><path class="cls-1" d="M1567.75,1457a5,5,0,0,0-3.71,1.65c-10.45-4.75-36.83,7.66-36.83,7.66l38.36.18a5,5,0,1,0,2.18-9.49Z"/><path class="cls-1" d="M1575.28,1287.24c.08-.4.15-.81.19-1.22.77-6.86-3.58-13-9.71-13.65s-11.71,4.32-12.47,11.18a13,13,0,0,0,3.06,10.13l-44.56,101.93,6.42,2.81,2.75-6.31c3.67-5.39,15.5-19.24,25.82-31.08,6.51-5.61,13.41-11.31,19.8-16.13C1584.82,1331.15,1576.66,1293.07,1575.28,1287.24Z"/><path class="cls-1" d="M1524.34,1388.17a8.75,8.75,0,1,0-4,14.27l47.16,62.74,4-3-9.12-12.18c-15.48-30.78-24.29-45.82-30.41-46.78-3.54-3.11-5.67-4-6.89-4.18A8.75,8.75,0,0,0,1524.34,1388.17Z"/><path class="cls-1" d="M1595.6,1163.84a8,8,0,0,0-10.64-1.69l-45.41-31.43-3.42,4.94,8.43,5.83c19.84,23.81,31.22,29.8,37.41,30.42a8,8,0,1,0,13.63-8.07Z"/><path class="cls-1" d="M1546.12,1129.14a7,7,0,0,0-8.46-2l-.12-.41c-1.45-10.56-10.07-37.28-14.57-50.79,3.59-2,4.52-8.57,2-15.15-2.65-7-8.15-11.34-12.28-9.77s-5.32,8.5-2.67,15.47c2.15,5.64,6.16,9.57,9.8,10l2.23,7.65c2,13.14,6.34,37.34,12.83,45.31a7,7,0,1,0,11.23-.39Z"/><path class="cls-2" d="M1544.15,1064.25s-13,10-2,13,52-12,78,8,43,17,34,2-5-15-3-20,6-7-10-10c-7-5-3-8-11-13s-6,2-28,10S1550.15,1058.25,1544.15,1064.25Z"/><path class="cls-3" d="M1611.63,1050.22s34.62,20.48,37.57,20.78,0,5.28,0,6.28-43.67-22.5-41.34-25.25S1611.63,1050.22,1611.63,1050.22Z"/><path class="cls-4" d="M1488.65,1253.75c-20-26.89-13-62-2-95s55-58,58-65,17-63,43-58,22,31,23,39,39,10,46,34,10,20,7,36-14,30-13,45,24.07,111.66-46,122C1543.65,1320.75,1523.65,1300.75,1488.65,1253.75Z"/><ellipse cx="1517.35" cy="1127.04" rx="6" ry="3.45" transform="translate(-331.84 1518.28) rotate(-48.55)"/><path class="cls-5" d="M1523.65,1137.75c10-5,19-12,32-8s33,22,4,68c-13,19-25,54-26,67s3.46,41.58-7.27,31.79-57.7-49-49.72-96.38,11.89-46.56,14.44-51.48c4.55-.93,11.55-.93,16.55-2.93S1521.65,1139.75,1523.65,1137.75Z"/><path class="cls-6" d="M1494.65,1160.75s7,2,18-5,31-22,33-9-25,29-33,30-27,3-29,0-.49-12.49,1.26-15.24S1489.65,1157.75,1494.65,1160.75Z"/><path class="cls-7" d="M1534.65,1153.75c-2,1-20,18-51,13"/><path class="cls-8" d="M1573.65,1051.75a48.34,48.34,0,0,0-12,17c-1.78,4.29-3.64,8.94-3,15,.25,2.37,1.26,11.14,7.95,15.07a15.24,15.24,0,0,0,15.05-.07c9-5,21-21,19-39S1578.65,1045.75,1573.65,1051.75Z"/><ellipse cx="1568.15" cy="1070.75" rx="6" ry="6.5"/><path class="cls-9" d="M1563.28,1065.25s32.12,1.64,37.24,3.57c0,0,3.4-21.07-12.23-22.07S1563.9,1063.75,1563.28,1065.25Z"/><path class="cls-10" d="M1636.81,1122.2c7.67,0,7.68-11.9,0-11.9S1629.14,1122.2,1636.81,1122.2Z"/><path class="cls-10" d="M1648.15,1134.2c7.66,0,7.67-11.9,0-11.9S1640.47,1134.2,1648.15,1134.2Z"/><path class="cls-10" d="M1633.48,1138.87c7.66,0,7.68-11.91,0-11.91S1625.81,1138.87,1633.48,1138.87Z"/><path class="cls-10" d="M1641.48,1261.54c7.66,0,7.68-11.91,0-11.91S1633.81,1261.54,1641.48,1261.54Z"/><path class="cls-10" d="M1623.48,1272.87c7.66,0,7.68-11.91,0-11.91S1615.81,1272.87,1623.48,1272.87Z"/><path class="cls-10" d="M1640.15,1277.54c7.66,0,7.67-11.91,0-11.91S1632.47,1277.54,1640.15,1277.54Z"/><path class="cls-10" d="M1589.31,1456.62a5,5,0,0,0-3.68,1.74c-10.55-4.51-36.64,8.52-36.64,8.52l38.35-.72a5,5,0,1,0,2-9.54Z"/><path class="cls-10" d="M1579.49,1287.8c0-.4.07-.81.07-1.23.13-6.9-4.77-12.58-10.93-12.69s-11.26,5.39-11.39,12.29a13.06,13.06,0,0,0,4,9.8l-34.9,105.63,6.65,2.2,2.15-6.53c3.15-5.71,13.65-20.6,22.83-33.35,6-6.19,12.29-12.51,18.21-17.9C1593.06,1330.64,1581.4,1293.48,1579.49,1287.8Z"/><path class="cls-10" d="M1537.18,1394a8.75,8.75,0,1,0-2.33,14.63l53.92,57,3.64-3.44-10.48-11.08c-18.84-28.84-29.28-42.79-35.48-43.06-3.87-2.69-6.08-3.36-7.32-3.38A8.75,8.75,0,0,0,1537.18,1394Z"/><path class="cls-10" d="M1603.21,1168.42a8,8,0,0,0-10.24-3.35l-39.89-38.2-4.15,4.34,7.4,7.08c15.84,26.64,26.13,34.36,32.15,36a8.56,8.56,0,0,0,.81,2.07,8,8,0,1,0,13.92-7.89Z"/><path class="cls-10" d="M1559,1122.54a7,7,0,0,0-8.41-2.19l-.11-.42c-1.14-10.59-9-37.55-13.11-51.18,3.66-1.93,4.77-8.44,2.45-15.09-2.45-7-7.82-11.57-12-10.11s-5.56,8.34-3.1,15.38c2,5.7,5.88,9.74,9.51,10.31l2,7.72c1.67,13.19,5.27,37.5,11.53,45.66a7,7,0,1,0,11.24-.08Z"/><path class="cls-6" d="M1493.58,1159.74s7.28,2,18.73-5,32.25-22,34.33-9-23.41,50.46-31.73,51.46-30.69-18.48-32.77-21.48-.51-12.48,1.3-15.24S1488.38,1156.74,1493.58,1159.74Z"/><path class="cls-11" d="M1482.05,1166.23l.17-1a74.46,74.46,0,0,0,13,.9,55.83,55.83,0,0,0,6.36-.41,67.5,67.5,0,0,0,31.94-12.46,13.12,13.12,0,0,1,1.47-1l.46.89c-.2.1-.69.45-1.31.89-9.37,6.66-14.71,31.57-25.45,33.14C1505.38,1187.7,1486.06,1166.85,1482.05,1166.23Z"/><polygon class="cls-8" points="1501.38 1171.23 1494.1 1171.23 1494.1 1166.16 1501.02 1165.79 1501.38 1171.23"/><polygon class="cls-8" points="1511.17 1169.61 1503.98 1170.77 1503.11 1165.77 1509.87 1164.31 1511.17 1169.61"/></g><g id="Layer_7" data-name="Layer 7"><path class="cls-1" d="M1217.75,1457a5,5,0,0,0-3.71,1.65c-10.45-4.75-36.83,7.66-36.83,7.66l38.36.18a5,5,0,1,0,2.18-9.49Z"/><path class="cls-1" d="M1225.28,1287.24c.08-.4.15-.81.19-1.22.77-6.86-3.58-13-9.71-13.65s-11.71,4.32-12.47,11.18a13,13,0,0,0,3.06,10.13l-44.56,101.93,6.42,2.81,2.75-6.31c3.67-5.39,15.5-19.24,25.82-31.08,6.51-5.61,13.41-11.31,19.8-16.13C1234.82,1331.15,1226.66,1293.07,1225.28,1287.24Z"/><path class="cls-1" d="M1174.34,1388.17a8.75,8.75,0,1,0-4,14.27l47.16,62.74,4-3-9.12-12.18c-15.48-30.78-24.29-45.82-30.41-46.78-3.54-3.11-5.67-4-6.89-4.18A8.75,8.75,0,0,0,1174.34,1388.17Z"/><path class="cls-1" d="M1248,1171.25a8,8,0,0,0-7.16-8.06l-15.2-53.09-5.77,1.65,2.82,9.85c.26,31,5.25,42.84,9.65,47.25a8,8,0,1,0,15.32,4.61A7.9,7.9,0,0,0,1248,1171.25Z"/><path class="cls-1" d="M1231.76,1113a7,7,0,0,0-5.31-6.88l.17-.39c5.58-9.09,15.84-35.22,20.93-48.52,4.06.71,8.93-3.76,11.16-10.44,2.36-7.07.88-13.94-3.31-15.34s-9.5,3.2-11.86,10.27c-1.92,5.72-1.31,11.31,1.21,14l-3.13,7.33c-6.75,11.45-18.76,32.89-18.8,43.18a7,7,0,1,0,8.94,6.81Z"/><path class="cls-2" d="M1194.15,1064.25s-13,10-2,13,52-12,78,8,43,17,34,2-5-15-3-20,6-7-10-10c-7-5-3-8-11-13s-6,2-28,10S1200.15,1058.25,1194.15,1064.25Z"/><path class="cls-3" d="M1261.63,1050.22s34.62,20.48,37.57,20.78,0,5.28,0,6.28-43.67-22.5-41.34-25.25S1261.63,1050.22,1261.63,1050.22Z"/><path class="cls-4" d="M1138.65,1253.75c-20-26.89-13-62-2-95s55-58,58-65,17-63,43-58,22,31,23,39,39,10,46,34,10,20,7,36-14,30-13,45,24.07,111.66-46,122C1193.65,1320.75,1173.65,1300.75,1138.65,1253.75Z"/><ellipse cx="1167.35" cy="1127.04" rx="6" ry="3.45" transform="translate(-450.15 1255.95) rotate(-48.55)"/><path class="cls-5" d="M1173.65,1137.75c10-5,19-12,32-8s33,22,4,68c-13,19-25,54-26,67s3.46,41.58-7.27,31.79-57.7-49-49.72-96.38,11.89-46.56,14.44-51.48c4.55-.93,11.55-.93,16.55-2.93S1171.65,1139.75,1173.65,1137.75Z"/><path class="cls-6" d="M1144.65,1160.75s7,2,18-5,31-22,33-9-25,29-33,30-27,3-29,0-.49-12.49,1.26-15.24S1139.65,1157.75,1144.65,1160.75Z"/><path class="cls-7" d="M1184.65,1153.75c-2,1-20,18-51,13"/><path class="cls-8" d="M1223.65,1051.75a48.34,48.34,0,0,0-12,17c-1.78,4.29-3.64,8.94-3,15,.25,2.37,1.26,11.14,7.95,15.07a15.24,15.24,0,0,0,15.05-.07c9-5,21-21,19-39S1228.65,1045.75,1223.65,1051.75Z"/><ellipse cx="1218.15" cy="1070.75" rx="6" ry="6.5"/><path class="cls-10" d="M1286.81,1122.2c7.67,0,7.68-11.9,0-11.9S1279.14,1122.2,1286.81,1122.2Z"/><path class="cls-10" d="M1298.15,1134.2c7.66,0,7.67-11.9,0-11.9S1290.47,1134.2,1298.15,1134.2Z"/><path class="cls-10" d="M1283.48,1138.87c7.66,0,7.68-11.91,0-11.91S1275.81,1138.87,1283.48,1138.87Z"/><path class="cls-10" d="M1291.48,1261.54c7.66,0,7.68-11.91,0-11.91S1283.81,1261.54,1291.48,1261.54Z"/><path class="cls-10" d="M1273.48,1272.87c7.66,0,7.68-11.91,0-11.91S1265.81,1272.87,1273.48,1272.87Z"/><path class="cls-10" d="M1290.15,1277.54c7.66,0,7.67-11.91,0-11.91S1282.47,1277.54,1290.15,1277.54Z"/><path class="cls-10" d="M1239.31,1456.62a5,5,0,0,0-3.68,1.74c-10.55-4.51-36.64,8.52-36.64,8.52l38.35-.72a5,5,0,1,0,2-9.54Z"/><path class="cls-10" d="M1229.49,1287.8c0-.4.07-.81.07-1.23.13-6.9-4.77-12.58-10.93-12.69s-11.26,5.39-11.39,12.29a13.06,13.06,0,0,0,4,9.8l-34.9,105.63,6.65,2.2,2.15-6.53c3.15-5.71,13.65-20.6,22.83-33.35,6-6.19,12.29-12.51,18.21-17.9C1243.06,1330.64,1231.4,1293.48,1229.49,1287.8Z"/><path class="cls-10" d="M1187.18,1394a8.75,8.75,0,1,0-2.33,14.63l53.92,57,3.64-3.44-10.48-11.08c-18.84-28.84-29.28-42.79-35.48-43.06-3.87-2.69-6.08-3.36-7.32-3.38A8.75,8.75,0,0,0,1187.18,1394Z"/><path class="cls-10" d="M1248.67,1171.88a8,8,0,0,0-5-9.57l-1.61-55.2-6,.17.3,10.24c-7.41,30.1-5.49,42.82-2.32,48.17a7.72,7.72,0,0,0-.87,2,8,8,0,1,0,15.35,4.53c0-.13.07-.26.1-.39Z"/><path class="cls-10" d="M1247.56,1112a7,7,0,0,0,.41-8.68l.39-.19c10.13-3.3,34.89-16.55,47.38-23.39,2.63,3.18,9.24,2.93,15.27-.72,6.38-3.85,9.7-10,7.41-13.82s-9.31-3.73-15.69.13c-5.16,3.12-8.32,7.77-8.13,11.43l-7.14,3.56c-12.56,4.35-35.6,12.89-42.29,20.7a7,7,0,1,0,2.39,11Z"/></g><g id="Layer_8" data-name="Layer 8"><path class="cls-1" d="M867.75,1457a5,5,0,0,0-3.71,1.65c-10.45-4.75-36.83,7.66-36.83,7.66l38.36.18a5,5,0,1,0,2.18-9.49Z"/><path class="cls-1" d="M875.28,1287.24c.08-.4.15-.81.19-1.22.77-6.86-3.58-13-9.71-13.65s-11.71,4.32-12.47,11.18a13,13,0,0,0,3.06,10.13l-44.56,101.93,6.42,2.81,2.75-6.31c3.67-5.39,15.5-19.24,25.82-31.08,6.51-5.61,13.41-11.31,19.8-16.13C884.82,1331.15,876.66,1293.07,875.28,1287.24Z"/><path class="cls-1" d="M824.34,1388.17a8.75,8.75,0,1,0-4,14.27l47.16,62.74,4-3L862.38,1450c-15.48-30.78-24.29-45.82-30.41-46.78-3.54-3.11-5.67-4-6.89-4.18A8.75,8.75,0,0,0,824.34,1388.17Z"/><path class="cls-1" d="M894.7,1165.38a8,8,0,0,0-10.24-3.38l-39.91-38.18-4.15,4.34,7.4,7.08c15.86,26.67,26.2,34.38,32.2,36a8,8,0,0,0,15.56-3.74,8.22,8.22,0,0,0-.83-2.09Z"/><path class="cls-1" d="M851.29,1123.33a7,7,0,0,0-8-3.26l-.06-.43c.24-10.65-4.08-38.4-6.4-52.44,3.87-1.44,5.81-7.75,4.37-14.65-1.53-7.3-6.27-12.48-10.6-11.57s-6.59,7.55-5.06,14.85c1.24,5.9,4.58,10.42,8.1,11.45l1,7.91c0,13.3.4,37.87,5.55,46.77a7,7,0,1,0,11.16,1.37Z"/><path class="cls-2" d="M844.15,1064.25s-13,10-2,13,52-12,78,8,43,17,34,2-5-15-3-20,6-7-10-10c-7-5-3-8-11-13s-6,2-28,10S850.15,1058.25,844.15,1064.25Z"/><path class="cls-3" d="M911.63,1050.22s34.62,20.48,37.57,20.78,0,5.28-.05,6.28-43.67-22.53-41.34-25.28S911.63,1050.22,911.63,1050.22Z"/><path class="cls-4" d="M788.65,1253.75c-20-26.89-13-62-2-95s55-58,58-65,17-63,43-58,22,31,23,39,39,10,46,34,10,20,7,36-14,30-13,45,24.07,111.66-46,122C843.65,1320.75,823.65,1300.75,788.65,1253.75Z"/><ellipse cx="817.35" cy="1127.05" rx="6" ry="3.45" transform="translate(-568.47 993.61) rotate(-48.55)"/><path class="cls-5" d="M823.65,1137.75c10-5,19-12,32-8s33,22,4,68c-13,19-25,54-26,67s3.46,41.58-7.27,31.79-57.7-49-49.72-96.38,11.89-46.56,14.44-51.48c4.55-.93,11.55-.93,16.55-2.93S821.65,1139.75,823.65,1137.75Z"/><path class="cls-6" d="M794.65,1160.75s7,2,18-5,31-22,33-9-25,29-33,30-27,3-29,0-.49-12.49,1.26-15.24S789.65,1157.75,794.65,1160.75Z"/><path class="cls-7" d="M834.65,1153.75c-2,1-20,18-51,13"/><path class="cls-8" d="M873.65,1051.75a48.34,48.34,0,0,0-12,17c-1.78,4.29-3.64,8.94-3,15,.25,2.37,1.26,11.14,8,15.07a15.24,15.24,0,0,0,15-.07c9-5,21-21,19-39S878.65,1045.75,873.65,1051.75Z"/><ellipse cx="868.15" cy="1070.75" rx="6" ry="6.5"/><path class="cls-10" d="M936.81,1122.2c7.67,0,7.68-11.9,0-11.9S929.14,1122.2,936.81,1122.2Z"/><path class="cls-10" d="M948.15,1134.2c7.66,0,7.67-11.9,0-11.9S940.47,1134.2,948.15,1134.2Z"/><path class="cls-10" d="M933.48,1138.87c7.66,0,7.68-11.91,0-11.91S925.81,1138.87,933.48,1138.87Z"/><path class="cls-10" d="M941.48,1261.54c7.66,0,7.68-11.91,0-11.91S933.81,1261.54,941.48,1261.54Z"/><path class="cls-10" d="M923.48,1272.87c7.66,0,7.68-11.91,0-11.91S915.81,1272.87,923.48,1272.87Z"/><path class="cls-10" d="M940.15,1277.54c7.66,0,7.67-11.91,0-11.91S932.47,1277.54,940.15,1277.54Z"/><path class="cls-10" d="M889.31,1456.62a5,5,0,0,0-3.68,1.74c-10.55-4.51-36.64,8.52-36.64,8.52l38.35-.72a5,5,0,1,0,2-9.54Z"/><path class="cls-10" d="M879.49,1287.8c0-.4.07-.81.07-1.23.13-6.9-4.77-12.58-10.93-12.69s-11.26,5.39-11.39,12.29a13.06,13.06,0,0,0,4,9.8l-34.9,105.63,6.65,2.2,2.15-6.53c3.15-5.71,13.65-20.6,22.83-33.35,5.95-6.19,12.29-12.51,18.21-17.9C893.06,1330.64,881.4,1293.48,879.49,1287.8Z"/><path class="cls-10" d="M837.18,1394a8.75,8.75,0,1,0-2.33,14.63l53.92,57,3.64-3.44-10.48-11.08c-18.84-28.84-29.28-42.79-35.48-43.06-3.87-2.69-6.08-3.36-7.32-3.38A8.77,8.77,0,0,0,837.18,1394Z"/><path class="cls-10" d="M894.82,1161.91a8,8,0,0,0-10.48-2.49l-42.92-34.77-3.77,4.66,8,6.45c18,25.24,28.88,32.08,35,33.17a8,8,0,1,0,14.22-7Z"/><path class="cls-10" d="M848.67,1123.69a7,7,0,0,0-6.31-6l.11-.42c4.1-9.84,10.19-37.25,13.15-51.18,4.13.08,8.24-5.09,9.41-12,1.24-7.35-1.29-13.91-5.65-14.64s-8.89,4.63-10.13,12c-1,6,.47,11.38,3.37,13.62l-2,7.73c-4.88,12.36-13.43,35.41-11.88,45.57a7,7,0,1,0,9.89,5.34Z"/><path class="cls-6" d="M794.73,1160.5s7,2,18.12-5,31.2-22.15,33.21-9.06-22.64,50.83-30.7,51.84-29.69-18.62-31.71-21.64-.48-12.57,1.27-15.35S789.69,1157.48,794.73,1160.5Z"/><path class="cls-11" d="M783.57,1167l.16-1a71.34,71.34,0,0,0,12.56.91c2.08-.05,4.13-.18,6.16-.42a64,64,0,0,0,30.9-12.49,11.7,11.7,0,0,1,1.42-1l.45.9a13.79,13.79,0,0,0-1.27.89c-9.06,6.71-14.23,31.8-24.63,33.38C806.14,1188.67,787.45,1167.66,783.57,1167Z"/><polygon class="cls-8" points="802.28 1172.08 795.23 1172.08 795.23 1166.97 801.92 1166.6 802.28 1172.08"/><polygon class="cls-8" points="811.74 1170.45 804.79 1171.62 803.95 1166.58 810.48 1165.1 811.74 1170.45"/></g><g id="Layer_9" data-name="Layer 9"><path class="cls-1" d="M517.75,1457a5,5,0,0,0-3.71,1.65c-10.45-4.75-36.83,7.66-36.83,7.66l38.36.18a5,5,0,1,0,2.18-9.49Z"/><path class="cls-1" d="M525.28,1287.24c.08-.4.15-.81.19-1.22.77-6.86-3.58-13-9.71-13.65s-11.71,4.32-12.47,11.18a13,13,0,0,0,3.06,10.13l-44.56,101.93,6.42,2.81,2.75-6.31c3.67-5.39,15.5-19.24,25.82-31.08,6.51-5.61,13.41-11.31,19.8-16.13C534.82,1331.15,526.66,1293.07,525.28,1287.24Z"/><path class="cls-1" d="M474.34,1388.17a8.75,8.75,0,1,0-4,14.27l47.16,62.74,4-3L512.38,1450c-15.48-30.78-24.29-45.82-30.41-46.78-3.54-3.11-5.67-4-6.89-4.18A8.75,8.75,0,0,0,474.34,1388.17Z"/><path class="cls-1" d="M543.83,1164.71a8,8,0,0,0-10.77.17l-50.17-23.1-2.51,5.45,9.31,4.29c23.66,20,35.91,24,42.11,23.49a7.55,7.55,0,0,0,1.45,1.69A8,8,0,1,0,544,1164.87l-.19-.17Z"/><path class="cls-1" d="M489.09,1139.08a7,7,0,0,0-8.67-.46l-.19-.39c-3.25-10.14-16.37-35-23.14-47.5,3.19-2.62,3-9.22-.63-15.27-3.82-6.4-10-9.75-13.79-7.49s-3.77,9.29.05,15.69c3.09,5.18,7.72,8.36,11.39,8.19l3.51,7.15c4.29,12.58,12.71,35.67,20.48,42.41a7,7,0,1,0,11-2.34Z"/><path class="cls-2" d="M494.15,1064.25s-13,10-2,13,52-12,78,8,43,17,34,2-5-15-3-20,6-7-10-10c-7-5-3-8-11-13s-6,2-28,10S500.15,1058.25,494.15,1064.25Z"/><path class="cls-3" d="M561.63,1050.22s34.62,20.48,37.57,20.78,0,5.28-.05,6.28-43.67-22.53-41.34-25.28S561.63,1050.22,561.63,1050.22Z"/><path class="cls-4" d="M438.65,1253.75c-20-26.89-13-62-2-95s55-58,58-65,17-63,43-58,22,31,23,39,39,10,46,34,10,20,7,36-14,30-13,45,24.07,111.66-46,122C493.65,1320.75,473.65,1300.75,438.65,1253.75Z"/><ellipse cx="467.36" cy="1127.06" rx="6" ry="3.45" transform="translate(-686.78 731.29) rotate(-48.55)"/><path class="cls-5" d="M473.65,1137.75c10-5,19-12,32-8s33,22,4,68c-13,19-25,54-26,67s3.46,41.58-7.27,31.79-57.7-49-49.72-96.38,11.89-46.56,14.44-51.48c4.55-.93,11.55-.93,16.55-2.93S471.65,1139.75,473.65,1137.75Z"/><path class="cls-6" d="M444.65,1160.75s7,2,18-5,31-22,33-9-25,29-33,30-27,3-29,0-.49-12.49,1.26-15.24S439.65,1157.75,444.65,1160.75Z"/><path class="cls-7" d="M484.65,1153.75c-2,1-20,18-51,13"/><path class="cls-8" d="M523.65,1051.75a48.34,48.34,0,0,0-12,17c-1.78,4.29-3.64,8.94-3,15,.25,2.37,1.26,11.14,8,15.07a15.24,15.24,0,0,0,15-.07c9-5,21-21,19-39S528.65,1045.75,523.65,1051.75Z"/><ellipse cx="518.15" cy="1070.75" rx="6" ry="6.5"/><path class="cls-9" d="M520.15,1056.25s24.87,2.07,30,4c0,0,.51-9.69-11.86-13.5C530.15,1044.25,520.78,1054.75,520.15,1056.25Z"/><path class="cls-10" d="M586.81,1122.2c7.67,0,7.68-11.9,0-11.9S579.14,1122.2,586.81,1122.2Z"/><path class="cls-10" d="M598.15,1134.2c7.66,0,7.67-11.9,0-11.9S590.47,1134.2,598.15,1134.2Z"/><path class="cls-10" d="M583.48,1138.87c7.66,0,7.68-11.91,0-11.91S575.81,1138.87,583.48,1138.87Z"/><path class="cls-10" d="M591.48,1261.54c7.66,0,7.68-11.91,0-11.91S583.81,1261.54,591.48,1261.54Z"/><path class="cls-10" d="M573.48,1272.87c7.66,0,7.68-11.91,0-11.91S565.81,1272.87,573.48,1272.87Z"/><path class="cls-10" d="M590.15,1277.54c7.66,0,7.67-11.91,0-11.91S582.47,1277.54,590.15,1277.54Z"/><path class="cls-10" d="M539.31,1456.62a5,5,0,0,0-3.68,1.74c-10.55-4.51-36.64,8.52-36.64,8.52l38.35-.72a5,5,0,1,0,2-9.54Z"/><path class="cls-10" d="M529.49,1287.8c0-.4.07-.81.07-1.23.13-6.9-4.77-12.58-10.93-12.69s-11.26,5.39-11.39,12.29a13.06,13.06,0,0,0,4,9.8l-34.9,105.63,6.65,2.2,2.15-6.53c3.15-5.71,13.65-20.6,22.83-33.35,5.95-6.19,12.29-12.51,18.21-17.9C543.06,1330.64,531.4,1293.48,529.49,1287.8Z"/><path class="cls-10" d="M487.18,1394a8.75,8.75,0,1,0-2.33,14.63l53.92,57,3.64-3.44-10.48-11.08c-18.84-28.84-29.28-42.79-35.48-43.06-3.87-2.69-6.08-3.36-7.32-3.38A8.77,8.77,0,0,0,487.18,1394Z"/><path class="cls-10" d="M541.71,1159a8,8,0,0,0-9.71,4.66H476.77v6H487c29.87,8.3,42.64,6.76,48.08,3.75a8.1,8.1,0,0,0,2,.93,8,8,0,0,0,4.6-15.32Z"/><path class="cls-10" d="M481.8,1158.35a7,7,0,0,0-8.66-.66l-.18-.4c-3-10.22-15.51-35.36-22-48,3.25-2.55,3.2-9.15-.26-15.29-3.67-6.49-9.76-10-13.61-7.82s-4,9.2-.33,15.69c3,5.25,7.52,8.55,11.19,8.46l3.34,7.24c4,12.69,11.84,36,19.44,42.89a7,7,0,1,0,11-2.07Z"/></g><g id="Layer_10" data-name="Layer 10"><path class="cls-1" d="M167.75,1457a5,5,0,0,0-3.71,1.65c-10.45-4.75-36.83,7.66-36.83,7.66l38.36.18a5,5,0,1,0,2.18-9.49Z"/><path class="cls-1" d="M175.28,1287.24c.08-.4.15-.81.19-1.22.77-6.86-3.58-13-9.71-13.65s-11.71,4.32-12.47,11.18a13,13,0,0,0,3.06,10.13l-44.56,101.93,6.42,2.81,2.75-6.31c3.67-5.39,15.5-19.24,25.82-31.08,6.51-5.61,13.41-11.31,19.8-16.13C184.82,1331.15,176.66,1293.07,175.28,1287.24Z"/><path class="cls-1" d="M124.34,1388.17a8.75,8.75,0,1,0-4,14.27l47.16,62.74,4-3L162.38,1450c-15.48-30.78-24.29-45.82-30.41-46.78-3.54-3.11-5.67-4-6.89-4.18A8.75,8.75,0,0,0,124.34,1388.17Z"/><path class="cls-1" d="M191.23,1161.83a8,8,0,0,0-9.53,5l-55.19,2.07.22,6,10.24-.39c30.16,7.16,42.86,5.14,48.19,1.93a7.66,7.66,0,0,0,2.05.85A8,8,0,1,0,191.8,1162c-.2-.06-.39-.11-.59-.15Z"/><path class="cls-1" d="M130.82,1163.71a7,7,0,0,0-7.94,3.51l-.35-.26c-7.53-7.58-30.41-23.8-42.11-32,1.66-3.77-1.51-9.57-7.47-13.33-6.3-4-13.32-4.19-15.68-.45s.83,10,7.13,14c5.1,3.23,10.67,4,13.87,2.16l6.37,4.8c9.51,9.28,27.45,26.08,37.43,28.57a7,7,0,1,0,8.75-7Z"/><path class="cls-2" d="M144.15,1064.25s-13,10-2,13,52-12,78,8,43,17,34,2-5-15-3-20,6-7-10-10c-7-5-3-8-11-13s-6,2-28,10S150.15,1058.25,144.15,1064.25Z"/><path class="cls-3" d="M211.63,1050.22s34.62,20.48,37.57,20.78,0,5.28,0,6.28-43.72-22.53-41.39-25.28S211.63,1050.22,211.63,1050.22Z"/><path class="cls-4" d="M88.65,1253.75c-20-26.89-13-62-2-95s55-58,58-65,17-63,43-58,22,31,23,39,39,10,46,34,10,20,7,36-14,30-13,45,24.07,111.66-46,122C143.65,1320.75,123.65,1300.75,88.65,1253.75Z"/><ellipse cx="117.36" cy="1127.05" rx="6" ry="3.45" transform="translate(-805.09 468.95) rotate(-48.55)"/><path class="cls-5" d="M123.65,1137.75c10-5,19-12,32-8s33,22,4,68c-13,19-25,54-26,67s3.46,41.58-7.27,31.79-57.7-49-49.72-96.38,11.89-46.56,14.44-51.48c4.55-.93,11.55-.93,16.55-2.93S121.65,1139.75,123.65,1137.75Z"/><path class="cls-6" d="M94.65,1160.75s7,2,18-5,31-22,33-9-25,29-33,30-27,3-29,0-.49-12.49,1.26-15.24S89.65,1157.75,94.65,1160.75Z"/><path class="cls-7" d="M134.65,1153.75c-2,1-20,18-51,13"/><path class="cls-8" d="M173.65,1051.75a48.34,48.34,0,0,0-12,17c-1.78,4.29-3.64,8.94-3,15,.25,2.37,1.26,11.14,7.95,15.07a15.24,15.24,0,0,0,15.05-.07c9-5,21-21,19-39S178.65,1045.75,173.65,1051.75Z"/><ellipse cx="168.15" cy="1070.75" rx="6" ry="6.5"/><path class="cls-9" d="M166.15,1060.25s28.87,2.07,34,4c0,0,3.77-16.5-11.86-17.5S166.78,1058.75,166.15,1060.25Z"/><path class="cls-10" d="M236.81,1122.2c7.67,0,7.68-11.9,0-11.9S229.14,1122.2,236.81,1122.2Z"/><path class="cls-10" d="M248.15,1134.2c7.66,0,7.67-11.9,0-11.9S240.47,1134.2,248.15,1134.2Z"/><path class="cls-10" d="M233.48,1138.87c7.66,0,7.68-11.91,0-11.91S225.81,1138.87,233.48,1138.87Z"/><path class="cls-10" d="M241.48,1261.54c7.66,0,7.68-11.91,0-11.91S233.81,1261.54,241.48,1261.54Z"/><path class="cls-10" d="M223.48,1272.87c7.66,0,7.68-11.91,0-11.91S215.81,1272.87,223.48,1272.87Z"/><path class="cls-10" d="M240.15,1277.54c7.66,0,7.67-11.91,0-11.91S232.47,1277.54,240.15,1277.54Z"/><path class="cls-10" d="M189.31,1456.62a5,5,0,0,0-3.68,1.74c-10.55-4.51-36.64,8.52-36.64,8.52l38.35-.72a5,5,0,1,0,2-9.54Z"/><path class="cls-10" d="M179.49,1287.8c0-.4.07-.81.07-1.23.13-6.9-4.77-12.58-10.93-12.69s-11.26,5.39-11.39,12.29a13.06,13.06,0,0,0,4,9.8l-34.9,105.63,6.65,2.2,2.15-6.53c3.15-5.71,13.65-20.6,22.83-33.35,5.95-6.19,12.29-12.51,18.21-17.9C193.06,1330.64,181.4,1293.48,179.49,1287.8Z"/><path class="cls-10" d="M137.18,1394a8.75,8.75,0,1,0-2.33,14.63l53.92,57,3.64-3.44-10.48-11.08c-18.84-28.84-29.28-42.79-35.48-43.06-3.87-2.69-6.08-3.36-7.32-3.38A8.77,8.77,0,0,0,137.18,1394Z"/><path class="cls-6" d="M93.65,1159.75s7,2,18-5,31-22,33-9-22.5,50.5-30.5,51.5-29.5-18.5-31.5-21.5-.49-12.49,1.26-15.24S88.65,1156.75,93.65,1159.75Z"/><path class="cls-11" d="M82.57,1166.24l.16-1a70.32,70.32,0,0,0,12.47.9q3.09-.06,6.12-.41A63.43,63.43,0,0,0,132,1153.28a15.59,15.59,0,0,1,1.41-1l.45.9a12.42,12.42,0,0,0-1.26.89c-9,6.66-14.14,31.59-24.46,33.16C105,1187.73,86.42,1166.86,82.57,1166.24Z"/><polygon class="cls-8" points="101.15 1171.25 94.15 1171.25 94.15 1166.17 100.8 1165.8 101.15 1171.25"/><polygon class="cls-8" points="110.55 1169.63 103.65 1170.79 102.81 1165.78 109.3 1164.32 110.55 1169.63"/><path class="cls-10" d="M188.38,1158.12a8,8,0,0,0-8.14,7.06L127,1179.78l1.59,5.79,9.88-2.71c31,.1,42.9-4.77,47.35-9.11a8,8,0,1,0,2.58-15.63Z"/><path class="cls-10" d="M130.43,1173.33a7,7,0,0,0-8.53,1.67l-.28-.33c-5.6-9.07-24.32-30-33.91-40.52,2.46-3.31.66-9.67-4.3-14.67-5.25-5.29-12-7-15.19-3.94s-1.42,9.92,3.83,15.22c4.25,4.28,9.52,6.25,13,5.2l5.14,6.1c7.2,11.17,20.94,31.55,30.1,36.21a7,7,0,1,0,10.11-4.92Z"/></g></g></svg>
