<?xml version="1.0" encoding="utf-8"?>
<!-- Generator: Adobe Illustrator 22.0.1, SVG Export Plug-In . SVG Version: 6.00 Build 0)  -->
<svg version="1.1" id="Layer_1" xmlns="http://www.w3.org/2000/svg" xmlns:xlink="http://www.w3.org/1999/xlink" x="0px" y="0px"
	 width="1600px" height="900px" viewBox="0 0 1600 900" style="enable-background:new 0 0 1600 900;" xml:space="preserve">
<style type="text/css">
	.st0{fill:#545352;}
	.st1{fill:#3A3938;}
	.st2{fill:#4C4443;}
	.st3{fill:#3A3232;}
	.st4{fill:#563A2E;}
</style>
<g>
	<path class="st0" d="M732.8,462c0,0-62.6-185.6-82.5-198.1s-16.7-5.7-29.4-18.8c-12.7-13.2,1-20.6-17.3-26.9
		c-18.3-6.3-76.8-30.3-76.8-30.3l-39.4-40.2l-21.6-24.2l-29.6,26.4l-27.4,11.3l-2.8,12.3l-20.6,29.9c0,0-23.8,29.2-23.8,27.8
		c0-1.4-28.7,14.7-28.7,14.7l-182,219.8L732.8,462z"/>
	<path class="st1" d="M1613.3,124.6c0,0-111.8,15.8-127.6,26.5c-15.9,10.7-59.1,35.9-59.1,35.9s-5.4,37.9-9.2,47
		c-3.7,9-47,59.7-65.8,49.7c-18.8-10-96-63.1-114.5-68.7c-18.5-5.6-83.5,58.7-83.5,58.7s-44.6,51.9-113.5,60.3s-69.7,25.7-70.2,44.2
		s0.5,62.9,14.6,59.6c14.1-3.2,287.2-3.5,350.3,3.6c63,7,167.5,17.7,167.5,17.7s130,13.3,136.2-0.9c6.2-14.2,41.3-168.1,31.3-181.9
		C1659.8,262.4,1613.3,124.6,1613.3,124.6z"/>
	<path class="st2" d="M4.4,192.7c0,0,116.5,4.4,145.6,24.4s44.5,77,55.8,67.4s104.4,12.6,104.4,12.6s21,19.2,21,34.8
		c0,15.5,122.2,56.3,123,56.3s63.9,40.7,63.9,40.7l12.9,21.5c0,0-56.6-6.7-74.4,0c-17.8,6.7-132.7,0-132.7,0l-164.2,3l-87.4,12.6
		L-15,454.7L4.4,192.7z"/>
	<path class="st3" d="M811.9,451.7c0,0,68.4-137.9,89.2-147.1c20.8-9.2,17.4-4.1,30.8-13.8c13.4-9.7-0.7-15.4,18.4-19.9
		c19.1-4.6,80.1-21.9,80.1-21.9l41.6-29.6l22.8-17.9l30.2,19.9l28.2,8.7l2.7,9.2l20.8,22.5c0,0,24.1,22,24.1,20.9
		s29.5,11.2,29.5,11.2l184.4,165.5L811.9,451.7z"/>
	<path class="st2" d="M408.1,436.7l72.8-53l72.8-81.2l32.4-56.5l51.8,38.8c0,0,48.5,24.7,64.7,24.7c16.2,0,38.8-3.5,48.5-17.7
		c9.7-14.1-1.6-56.5,20.2-45.9c21.8,10.6,79.3-1.8,79.3-1.8l29.9,54.7v41.5l110,78.6l17.8,17.7l14.6,49.4c0,0-307.5-38.8-372.2-42.4
		s-200.7,42.4-200.7,42.4L408.1,436.7z"/>
	<path class="st4" d="M37.6,527.6c0,0-8-66.6,3.1-70.9c11.1-4.2,26.7-29.6,26.7-29.6S77.2,411,83.6,390c6.4-21,2.8-63.8,2.8-63.8
		l4.4-44.8c0,0,5.8-21,24.9-1.3c19.1,19.8,14.8,33.8,6.5,59.5s3.3,62.5,3.3,62.5l22.9,1l1.3-29.1l2.4-54.3c0,0,3.4,4.9,23.7-1.3
		c20.2-6.2,32.5,3.8,38.8-14.9c6.3-18.7,14.8-6.4,25.5-1.2c10.7,5.2,6.9,35.8,6.9,35.8l-26.7,29.6c0,0-24.6-5.8-28.5,1.1
		c-3.9,6.9,0.2,36.3,0.2,36.3l26.6,1.2c0,0,21.9-16.4,26.1-16.2s9.2,9.9,20.9-8.5c11.7-18.4,31-43.6,22.3-53.5
		c-8.6-9.8-38-15.9,3.1-16.4s40.1-17.2,41.2-0.6c1.1,16.6-21.2,70.1-4,89.8s31.6,25.1,31.6,25.1l24.9,10.6c0,0-8,16.2-1,23.6
		c6.9,7.4-1.2,28.3-1.2,28.3s6.8,24,1.7,30.8S37.6,527.6,37.6,527.6z"/>
	<path class="st4" d="M1643.5,518.6c0,0,26.9-55.3-2.6-57.9c-29.5-2.6-69.5-22.1-69.5-22.1s-25-12.4-40.5-29.2s-2.3-52.1-2.3-52.1
		l-8.1-36.4c0,0-13.8-16.8-66.9,1c-53.1,17.8-42.8,29-22.3,49.3s-14.1,51.5-14.1,51.5l-61.9,2.7l-1-23.8l-2-44.4
		c0,0-9.6,4.3-63.6,0.9c-54-3.4-87.9,5.8-103.2-9c-15.3-14.8-39.4-4.1-68.5,1.1c-29.2,5.2-21.5,30-21.5,30l69.5,22.1
		c0,0,66.6-6.8,76.7-1.4c10,5.4-3.6,29.8-3.6,29.8l-71.7,3.2c0,0-57.6-11.6-69-11.1s-25.7,8.9-55.7-5.3c-30-14.1-79.8-33.2-55.7-42
		c24.1-8.8,103.8-16.2-7.1-13.2s-106.6-10.8-110.9,3c-4.3,13.7,51.4,55.7,3.2,73.3C823,456.1,784,461.7,784,461.7L716,472.4
		c0,0,20.1,12.6,0.9,19.3s1,23.2,1,23.2s-20.3,20.2-7,25.4C724.1,545.6,1643.5,518.6,1643.5,518.6z"/>
	<path class="st4" d="M150.9,497.7v-30.4l62.4-33.2h38.3l46.6,12.9l0-44.6l24.5-34.5h54.5l35.5,10.8l41.8-10.8l-19.1-34.5l19.1-42.6
		c0,0,34.5,0,42.7,0c8.2,0,46.4,0,46.4,0L527.2,313c0,0-30,14.2-27.3,20.3c2.7,6.1,13.6,16.9,13.6,16.9h30c0,0,5.5,0.7,13.6,0
		s24.5,0,24.5,0l37.3-29.3l47.2,0.3c2.7,10.1,0,32.2,0,32.2l32.7-3.1L715,313l5.9-8.1v-33.2l60,0h13.6v18.9c0,0-13.6,23.7-13.6,29.1
		s13.6,30.4,13.6,30.4h40.9v-10.8l47.3-56.8c15.5,8.1,56.4,22.3,56.4,22.3v30.4c0,0-2.7,20.3,0,28.4s-5.5,15.6,0,21
		c5.5,5.4-0.2,11.2,16.2,23.6c16.5,12.3,0.1,12.4,24.7,12.3c24.5,0,48.9-4.4,57.2-12.3c8.3-8,16.5-48.6,16.5-48.6l13.6-9.5
		c0,0,36.4-14.9,48.2-16.9c11.8-2,6.4-18.3,11.8-2c5.5,16.2-3.6,58,0,69.9c3.6,11.9-2.7,92.4-68.2,96.5
		c-65.5,4.1-433.6,46.7-433.6,46.7L150.9,497.7z"/>
</g>
</svg>
