<svg xmlns="http://www.w3.org/2000/svg" viewBox="0 0 1400 500"><defs><style>.cls-1{fill:#3d221d;}.cls-2{fill:#efb27b;}.cls-3{fill:#4c322b;}.cls-4{fill:#492920;}.cls-5{fill:#7c4735;}.cls-6,.cls-9{fill:none;}.cls-13,.cls-14,.cls-15,.cls-16,.cls-17,.cls-6{stroke:#000;}.cls-13,.cls-14,.cls-15,.cls-16,.cls-17,.cls-6,.cls-9{stroke-miterlimit:10;}.cls-7{fill:#b7aea1;}.cls-8{fill:#720f35;}.cls-9{stroke:#492920;}.cls-10{fill:#ff0808;}.cls-11{fill:#4c2b22;}.cls-12{fill:#c7f2ff;}.cls-13{fill:#f2f9f9;}.cls-14{fill:#ff7373;}.cls-15{fill:#424441;}.cls-16{fill:#6a7265;}.cls-17{fill:#dee5da;}.cls-18{fill:#bcc9c9;}.cls-19{fill:#d15e5e;}</style></defs><title>talk</title><g id="talk1"><path class="cls-1" d="M145.63,235.77,109.24,219a9,9,0,0,0-1.66-3.91,8.74,8.74,0,0,0-2.15-2.06h0s-7-7.08-13.27-6a56.47,56.47,0,0,1,7.78,4.4,9.24,9.24,0,0,0-2.07.35c-1.84-1.45-3.89-2.56-5.53-1.34a38.93,38.93,0,0,1,4.21,1.83,8,8,0,0,0-1.29.75c-2-.89-4.38-1.58-5.4.44,0,0,2.23-.06,4.63.14a9.1,9.1,0,0,0-1.75,2c-1.64.1-3.28.54-3.47,1.81a10.29,10.29,0,0,1,2.61,0,9,9,0,0,0-.5,3.74c-1.6.34-3,.75-2.89,1.62a18.11,18.11,0,0,1,3.22.17,9,9,0,0,0,11.8,5.94l37.66,17.37C147.82,249.31,152.29,238.84,145.63,235.77Z"/><path class="cls-1" d="M220.71,198.16c-2.55-4.49-10.18-4.95-17.06-1-5.18,2.95-8.44,7.53-8.65,11.54l-47.52,27a7.1,7.1,0,0,0-9.19,8.38,7.05,7.05,0,0,1-4.48-1.41c-1.2,1.19,3.5,3,5.45,3.66.13.19.27.39.42.57l-4.42,3.27c2.67,1.35,5.45.19,7.38-1.11a7.2,7.2,0,0,0,1.12.33l-4.94,8.6c3.1-.23,7.93-6.68,9.79-9.32.23-.13.46-.27.68-.42l-1.18,10.69c2.25-.74,3.09-10,3.31-13.08a6.91,6.91,0,0,0,.72-1.93l49.35-28.08a18,18,0,0,0,11.38-2.49C219.74,209.45,223.25,202.64,220.71,198.16Z"/><ellipse class="cls-2" cx="209.2" cy="205.08" rx="9.7" ry="6.11" transform="translate(-66.19 105.17) rotate(-24.49)"/><path class="cls-1" d="M147.46,412.4l15.34-37.78a5.19,5.19,0,1,0-5.4-1.83l-15.21,37.47Z"/><path class="cls-1" d="M170.93,414.84s-12.79-10.27-22.16-5.08v0a4,4,0,1,0-2.71,5,3.93,3.93,0,0,0,1.14-.57Z"/><path class="cls-1" d="M165.76,367.15l-27-24.73a9.43,9.43,0,0,0-1.25-7.81l.13-.12s.33-8.15-5.44-10a35.58,35.58,0,0,1,3,7.78,8.59,8.59,0,0,0-1.54-.92c-.61-2.15-2.27-6.87-4.92-6.89,0,0,3.64,5.55,2.85,6.07s-1.53-5.8-5.22-4.51a40.94,40.94,0,0,1,2.53,4.43,10.54,10.54,0,0,0-1.34.19c-1.42-1.66-3.44-3.89-5.16-2a12.86,12.86,0,0,1,3.2,2.69,9.56,9.56,0,0,0-2.56,1.76,4.1,4.1,0,0,0-3.84,1.05s1.25.26,2.44.63a9.5,9.5,0,0,0-1.42,3.76c-1.27,1.08-2.35,2.48-2.14,4.28a20.72,20.72,0,0,1,2.4-.3,9.48,9.48,0,0,0,11.19,6.67,10.21,10.21,0,0,0,1.29-.4l27,24.71Z"/><path class="cls-3" d="M159.59,95.63c-1-3.39-12.44-22-20.73-25.41s-16.58-3.39-17.61,2.54,2.07,17.79,8.29,20.33S159.59,95.63,159.59,95.63Z"/><path class="cls-4" d="M39.18,352.1a53.86,53.86,0,0,1-3.42,8.27c-7.26-6.22-25.46-7.71-7.26,6.22,7.63,2.44,18.48,3,17.33-5.84C43.45,357.37,39.18,352.1,39.18,352.1Z"/><path class="cls-5" d="M157,377c-16.56,1-57,13.75-70.47,10.37s-68.91-8.8-47.15-81.64S79.8,188,80.83,174.4s7.26-60.13,8.29-62.68S115,65.14,171,98.17c12.43,9.32,21.76,25.41,25.91,36.42s17.61,38.12,15.54,45.74-3.11,11.86-21.76,6.77-44.56-7.62-29,19.48,25.91,22,28,19.48,21.76-20.32,31.09-7.62S228,244.7,234.2,253.17c1.94,2.63,9.79,9.12,19.41,18.09,21.3,19.85,51.26,51.83,44.84,81C289.12,394.61,197.41,374.41,157,377Z"/><path class="cls-2" d="M236.85,294.44c-3.15,4.73-5.65,11.6-9.72,15.46s-40.65,17.18-30.33,41.43,25.93,25.79,43.1,27.7c18.65,2.07,80.16-6.48,57.11-53.48s-48.35-46.13-50.84-44.63-6.95,1.93-8.14,7.73Z"/><ellipse cx="292.23" cy="348.87" rx="3.11" ry="5.93"/><ellipse cx="190.16" cy="133.32" rx="3.63" ry="6.35"/><path class="cls-6" d="M191.71,152.38c-5.18,6.77-8.29,15.24,0,13.55a31.81,31.81,0,0,1,5.18-.56c5.69-.22,9.23.4,5.19-6.22-5.18-8.47-4.15-11.85-7.26-9.31Z"/><path class="cls-6" d="M196.9,162.54c0,1.7,2.07,6.78,0,7.62s-5.19.85-6.22-.84"/><path class="cls-7" d="M202.08,191.34c-3.86,4.73-6.22,7.62-12.44,3.39s2.07-11.86,4.15-12.71S204.15,188.8,202.08,191.34Z"/><path class="cls-7" d="M179.28,179.48c3,2.47,1,10.16,0,11.86s-9.33,3.39-12.44,0-6.21-11.86-2.07-12.71S176.17,176.94,179.28,179.48Z"/><path class="cls-8" d="M210.37,218.44c-3.11-2.54-15.55-12.7-28-11.86s-19.69,4.24-19.69,7.63,7.25,22.87,21.76,18.63S213.48,221,210.37,218.44Z"/><line class="cls-6" x1="182.39" y1="220.98" x2="190.68" y2="207.43"/><path class="cls-2" d="M163.73,164.24c-10.36,8.47-20.2,8.57-19.17,54.16.52,24.93,8.41,36.69,31.09,36.27,8.34-.15,20.21-5.18,28-9.32s27.46-11.66,22.28-19.29-10-10-14.33-10.94-21.94,11.79-27.12,11.79S144,198.7,157.52,186.26s44.86,8.66,45.75,3.06,10.21.32,9.17-9a65.43,65.43,0,0,0-3.19-13.7c-3-8.8-8.47-18.59-17.54-24.42-8.29,2.55-12.43,11.86-17.61,16.94S163.73,164.24,163.73,164.24Z"/><path class="cls-6" d="M206.74,168.66s.78,7.91-5.31-4.33"/><path d="M212.42,182.89s-.23,12-26.79,2.49-30.2,4.57-31,5.85c-1.81,2.3,20,36.5,29.28,34.43,17-4.18,17.17-9.85,22.83-10.88s8.84-.62,10.88.73-3.14,12.74-22.83,14.81-25.9,1-35.23-13.47-13.47-35.23-5.18-40.42,35.23,0,39.38,1,16.58,1,17.61,3.11S211.37,181.05,212.42,182.89Z"/><path class="cls-5" d="M106.74,125.28A284.26,284.26,0,0,1,86,104.1C81.87,99,76.69,80.39,96.38,77.85s34.19,22.86,34.19,22.86Z"/><path class="cls-2" d="M121.25,101.56s-9.33-12.7-19.69-11-6.22,10.16-6.22,11,10.36,11.86,11.4,10.16S122.28,103.25,121.25,101.56Z"/><path class="cls-4" d="M176.55,123.15c-6.21-3.61-12.45,0-14.76-.7-2.61,1.43-7.53,3.66,3.18,4.63s10.41,3.1,13.3,2.49S179.15,124.66,176.55,123.15Z"/><path class="cls-4" d="M181.55,122.72c.51-2.78,3.89-3.32,4.34-4.15,1.39-.24,3.82-.86.86,2.3s-2,3.75-3.18,4.33S181.34,123.89,181.55,122.72Z"/><ellipse cx="176.69" cy="138.59" rx="6.53" ry="4.66" transform="translate(-46.24 165.53) rotate(-45)"/><path d="M194.23,148.49c.6.43,7.13,5.15,9.4,11.08a10.26,10.26,0,0,1,.71,3.26c-.09,1.82-1.68.22-2.91,1.5-.82.85-.41,1.86-1.34,2.14-.17.05-1.64.49-2.92-1.39-1-1.41-1-2.87-2.19-7.56-1.54-5.93-3-9.05-2.3-9.68C192.87,147.66,193.19,147.73,194.23,148.49Z"/><path class="cls-6" d="M201.56,162.44a18,18,0,0,0,2.07,7.26c2.07,4.14-4.14,3.11-4.14,1"/><path class="cls-9" d="M80.12,313.31,61,309.85l12,12.87-2.66,22.17,13.54-17.57-2,28.44L93.68,344s7.55.13,9.08,1.86-2.4-9-2.4-9"/><polyline class="cls-9" points="130.06 161.93 125.91 181.62 121.77 168.14 119.69 190.94 114.51 174.36 114.51 204.41 108.3 189.91"/><path class="cls-10" d="M125.75,239.8c7.66,0,7.67-11.91,0-11.91s-7.68,11.91,0,11.91Z"/><path class="cls-10" d="M135.86,343.45c7.66,0,7.67-11.91,0-11.91s-7.67,11.91,0,11.91Z"/><path class="cls-11" d="M126.13,413.48l26.56-30.94a5.2,5.2,0,1,0-4.53-3.45l-26.34,30.69Z"/><path class="cls-11" d="M150.1,414.75s-12.84-10.21-22.18-5v0a4.13,4.13,0,1,0-1.55,4.45Z"/><path class="cls-11" d="M157.22,375.32l-14.94-33.4a9.41,9.41,0,0,0,1.95-7.67l.18-.05s3.53-7.35-1-11.37a35.55,35.55,0,0,1-.31,8.34,9.84,9.84,0,0,0-1-1.45c.28-2.21.64-7.21-1.78-8.28,0,0,1.13,6.54.2,6.7s.9-5.92-3-6.21A42.39,42.39,0,0,1,138,327a8.05,8.05,0,0,0-1.3-.36c-.65-2.09-1.62-4.94-3.93-3.91a12.86,12.86,0,0,1,1.86,3.73,9.44,9.44,0,0,0-3,.6,4.09,4.09,0,0,0-3.94-.56s1,.74,2,1.55a9.42,9.42,0,0,0-2.8,2.89c-1.59.48-3.14,1.34-3.66,3.07a19,19,0,0,1,2.32.69,9.46,9.46,0,0,0,7.62,10.55,9,9,0,0,0,1.35.15l14.93,33.39Z"/><path class="cls-12" d="M331.73,214.72c-9,0-22.25-18.43-30.9-42.86-5.37-15.13-8-29.91-7.31-40.55.5-7.29,2.62-12,6-13.14a5.57,5.57,0,0,1,1.87-.32c9,0,22.25,18.43,30.91,42.86,9.4,26.54,10,50.62,1.32,53.7A5.56,5.56,0,0,1,331.73,214.72Z"/><path d="M301.37,117.35v1c8.62,0,22,18.68,30.43,42.53,4.57,12.88,7.19,25.57,7.38,35.73.18,9.65-1.91,16-5.74,17.33a5.38,5.38,0,0,1-1.71.28c-8.62,0-22-18.68-30.43-42.53-5.34-15.07-8-29.77-7.28-40.35.48-7.07,2.49-11.58,5.65-12.7a5,5,0,0,1,1.7-.29v-1m0,0a5.83,5.83,0,0,0-2,.35c-3.72,1.31-5.81,6.28-6.31,13.57-.69,10.25,1.78,25.07,7.33,40.76,8.82,24.88,22.33,43.19,31.38,43.19a6.07,6.07,0,0,0,2-.34c8.94-3.17,8.49-27.5-1-54.33-8.82-24.89-22.33-43.2-31.38-43.2Z"/><path class="cls-13" d="M293.05,131.46s-2.46,40.16,30.08,79.58c0,0-52.62-27.69-82.47,1.49l-6.4-22.29S294.2,180.9,293.05,131.46Z"/><path class="cls-14" d="M210.56,192.68l18.75-5.9,4.95,3.46,6.4,22.29s-5.24,4.09-5.2,6.3c0,1.34-7.15,3.61-12.87,5.21-3.8,1.06-7,1.82-7,1.82S179.45,201.48,210.56,192.68Z"/><path class="cls-15" d="M219.17,225.35a36,36,0,0,1,5.77,12.1,71.53,71.53,0,0,1,1.61,15.05s15.29-.95,18.71-8.12-16.89-15.1-14.94-22.73Z"/><ellipse class="cls-16" cx="314" cy="166.45" rx="2.45" ry="11.22" transform="translate(-37.56 114.44) rotate(-19.51)"/><path class="cls-17" d="M299,165.06s7.47-1.26,10.69-8.3a28,28,0,0,0,7.06,19.92s-8.9-1.36-12.83,2.27C303.92,179,297.91,166.19,299,165.06Z"/><path class="cls-18" d="M245.19,193.81s33.57-8.18,39.78-20.05c0,0,1.29,10,12.93,15.5,0,0-49.55,7.15-50.6,10.5S245.19,193.81,245.19,193.81Z"/><path class="cls-19" d="M201.3,204.34l6.61-2.35a.88.88,0,0,0-.58-1.65l-6.62,2.34a.88.88,0,0,0,.59,1.66Z"/><path class="cls-19" d="M201.92,201.89l3.3-1.18a.87.87,0,0,0-.58-1.65l-3.31,1.17a.88.88,0,0,0,.59,1.66Z"/><path class="cls-19" d="M201.34,206.55l9.26-3.28a.88.88,0,0,0-.59-1.65l-9.25,3.28a.87.87,0,0,0,.58,1.65Z"/><path class="cls-19" d="M204,207.84l5.29-1.88a.88.88,0,0,0-.59-1.65l-5.29,1.87a.88.88,0,0,0,.59,1.66Z"/><path class="cls-19" d="M206.71,209.12l2-.71a.88.88,0,0,0-.59-1.65l-2,.7a.88.88,0,0,0,.58,1.66Z"/><path class="cls-11" d="M249.72,232.29c-1.59-4.9-9-6.88-16.5-4.43-5.66,1.86-9.78,5.7-10.79,9.57l-52,17a7.09,7.09,0,0,0-10.68,6.37,7,7,0,0,1-4.11-2.28c-1.42.92,2.83,3.62,4.61,4.67.09.22.19.44.3.65l-5,2.32c2.34,1.86,5.29,1.27,7.44.39a6.84,6.84,0,0,0,1,.54l-6.56,7.44c3.08.4,9.1-5,11.45-7.17a6.92,6.92,0,0,0,.76-.28l-3.3,10.24c2.35-.27,5-9.17,5.86-12.15a7.15,7.15,0,0,0,1.09-1.75l54-17.65a18,18,0,0,0,11.65-.16C246.52,243.16,251.32,237.19,249.72,232.29Z"/><path class="cls-11" d="M167.64,256.21l-33.48-22a8.94,8.94,0,0,0-2.86-6.47h0s-5.88-8.06-12.23-7.89a55.75,55.75,0,0,1,7,5.51,9.24,9.24,0,0,0-2.1,0c-1.6-1.71-3.46-3.11-5.27-2.15a38,38,0,0,1,3.89,2.43,9.55,9.55,0,0,0-1.39.55c-1.85-1.17-4.09-2.21-5.4-.36,0,0,2.21.27,4.56.83a8.73,8.73,0,0,0-2,1.73c-1.65-.13-3.33.05-3.71,1.28a10.61,10.61,0,0,1,2.59.34,8.9,8.9,0,0,0-1,3.63c-1.64.09-3.12.28-3.1,1.16a18,18,0,0,1,3.15.65A9,9,0,0,0,127,243.09l34.64,22.8C167.79,269.92,173.77,260.24,167.64,256.21Z"/></g><g id="talk2"><path class="cls-1" d="M495.63,236.77,459.24,220a9,9,0,0,0-1.66-3.91,8.74,8.74,0,0,0-2.15-2.06h0s-7-7.08-13.27-6a56.47,56.47,0,0,1,7.78,4.4,9.24,9.24,0,0,0-2.07.35c-1.84-1.45-3.89-2.56-5.53-1.34a38.93,38.93,0,0,1,4.21,1.83,8,8,0,0,0-1.29.75c-2-.89-4.38-1.58-5.4.44,0,0,2.23-.06,4.63.14a9.1,9.1,0,0,0-1.75,2c-1.64.1-3.28.54-3.47,1.81a10.29,10.29,0,0,1,2.61,0,9,9,0,0,0-.5,3.74c-1.6.34-3,.75-2.89,1.62a18.11,18.11,0,0,1,3.22.17,9,9,0,0,0,11.8,5.94l37.66,17.37C497.82,250.31,502.29,239.84,495.63,236.77Z"/><path class="cls-1" d="M570.71,199.16c-2.55-4.49-10.18-4.95-17.06-1-5.18,2.95-8.44,7.53-8.65,11.54l-47.52,27a7.1,7.1,0,0,0-9.19,8.38,7.05,7.05,0,0,1-4.48-1.41c-1.2,1.19,3.5,3,5.45,3.66.13.19.27.39.42.57l-4.42,3.27c2.67,1.35,5.45.19,7.38-1.11a7.2,7.2,0,0,0,1.12.33l-4.94,8.6c3.1-.23,7.93-6.68,9.79-9.32.23-.13.46-.27.68-.42l-1.18,10.69c2.25-.74,3.09-10,3.31-13.08a6.91,6.91,0,0,0,.72-1.93l49.35-28.08a18,18,0,0,0,11.38-2.49C569.74,210.45,573.25,203.64,570.71,199.16Z"/><ellipse class="cls-2" cx="559.2" cy="206.08" rx="9.7" ry="6.11" transform="translate(-35.12 250.35) rotate(-24.49)"/><path class="cls-1" d="M497.46,413.4l15.34-37.78a5.19,5.19,0,1,0-5.4-1.83l-15.21,37.47Z"/><path class="cls-1" d="M520.93,415.84s-12.79-10.27-22.16-5.08v0a4,4,0,1,0-2.71,5,3.93,3.93,0,0,0,1.14-.57Z"/><path class="cls-1" d="M515.76,368.15l-27-24.73a9.43,9.43,0,0,0-1.25-7.81l.13-.12s.33-8.15-5.44-10a35.58,35.58,0,0,1,3,7.78,8.59,8.59,0,0,0-1.54-.92c-.61-2.15-2.27-6.87-4.92-6.89,0,0,3.64,5.55,2.85,6.07s-1.53-5.8-5.22-4.51a40.94,40.94,0,0,1,2.53,4.43,10.54,10.54,0,0,0-1.34.19c-1.42-1.66-3.44-3.89-5.16-2a12.86,12.86,0,0,1,3.2,2.69,9.56,9.56,0,0,0-2.56,1.76,4.1,4.1,0,0,0-3.84,1.05s1.25.26,2.44.63a9.5,9.5,0,0,0-1.42,3.76c-1.27,1.08-2.35,2.48-2.14,4.28a20.72,20.72,0,0,1,2.4-.3,9.48,9.48,0,0,0,11.19,6.67,10.21,10.21,0,0,0,1.29-.4l27,24.71Z"/><path class="cls-3" d="M509.59,96.63c-1-3.39-12.44-22-20.73-25.41s-16.58-3.39-17.61,2.54,2.07,17.79,8.29,20.33S509.59,96.63,509.59,96.63Z"/><path class="cls-4" d="M389.18,353.1a53.86,53.86,0,0,1-3.42,8.27c-7.26-6.22-25.46-7.71-7.26,6.22,7.63,2.44,18.48,3,17.33-5.84C393.45,358.37,389.18,353.1,389.18,353.1Z"/><path class="cls-5" d="M507,378c-16.56,1-57,13.75-70.47,10.37s-68.91-8.8-47.15-81.64S429.8,189,430.83,175.4s7.26-60.13,8.29-62.68S465,66.14,521,99.17c12.43,9.32,21.76,25.41,25.91,36.42s17.61,38.12,15.54,45.74-3.11,11.86-21.76,6.77-44.56-7.62-29,19.48,25.91,22,28,19.48,21.76-20.32,31.09-7.62S578,245.7,584.2,254.17c1.94,2.63,9.79,9.12,19.41,18.09,21.3,19.85,51.26,51.83,44.84,81C639.12,395.61,547.41,375.41,507,378Z"/><path class="cls-2" d="M586.85,295.44c-3.15,4.73-5.65,11.6-9.72,15.46s-40.65,17.18-30.33,41.43,25.93,25.79,43.1,27.7c18.65,2.07,80.16-6.48,57.11-53.48s-48.35-46.13-50.84-44.63-6.95,1.93-8.14,7.73Z"/><ellipse cx="642.23" cy="349.87" rx="3.11" ry="5.93"/><ellipse cx="540.16" cy="134.32" rx="3.63" ry="6.35"/><path class="cls-6" d="M541.71,153.38c-5.18,6.77-8.29,15.24,0,13.55a31.81,31.81,0,0,1,5.18-.56c5.69-.22,9.23.4,5.19-6.22-5.18-8.47-4.15-11.85-7.26-9.31Z"/><path class="cls-6" d="M546.9,163.54c0,1.7,2.07,6.78,0,7.62s-5.19.85-6.22-.84"/><path class="cls-8" d="M560.37,204.44c-3.11-2.54-15.55-12.7-28-11.86s-19.69,4.24-19.69,7.63,7.25,22.87,21.76,18.63S563.48,207,560.37,204.44Z"/><path class="cls-7" d="M552.08,192.34c-3.86,4.73-6.22,7.62-12.44,3.39s2.07-11.86,4.15-12.71S554.15,189.8,552.08,192.34Z"/><path class="cls-7" d="M529.28,180.48c3,2.47,1,10.16,0,11.86s-9.33,3.39-12.44,0-6.21-11.86-2.07-12.71S526.17,177.94,529.28,180.48Z"/><line class="cls-6" x1="531.39" y1="214.98" x2="539.68" y2="201.43"/><path class="cls-2" d="M513.73,165.24c-10.36,8.47-20.2,8.57-19.17,54.16.52,24.93,8.41,36.69,31.09,36.27,8.34-.15,20.21-5.18,28-9.32s27.46-11.66,22.28-19.29-4.34-18.9-8.66-19.81-27.82,10-33,10-40.23-17.55-26.73-30,44.86,8.66,45.75,3.06,10.21.32,9.17-9a65.43,65.43,0,0,0-3.19-13.7c-3-8.8-8.47-18.59-17.54-24.42-8.29,2.55-12.43,11.86-17.61,16.94S513.73,165.24,513.73,165.24Z"/><path class="cls-6" d="M556.74,169.66s.78,7.91-5.31-4.33"/><path d="M562.42,184.76s-.23,9.05-26.79,1.89-30.2,3.46-31,4.42c-1.81,1.74,20,27.61,29.28,26,17-3.16,17.17-7.45,22.83-8.23s8.84-.46,10.88.55-3.14,9.64-22.83,11.21-25.9.78-35.23-10.19-13.47-26.65-5.18-30.57,35.23,0,39.38.79,16.58.78,17.61,2.35S561.37,183.37,562.42,184.76Z"/><path class="cls-5" d="M456.74,126.28A284.26,284.26,0,0,1,436,105.1c-4.14-5.08-9.32-23.71,10.37-26.25s34.19,22.86,34.19,22.86Z"/><path class="cls-2" d="M471.25,102.56s-9.33-12.7-19.69-11-6.22,10.16-6.22,11,10.36,11.86,11.4,10.16S472.28,104.25,471.25,102.56Z"/><path class="cls-4" d="M526.55,124.15c-6.21-3.61-12.45,0-14.76-.7-2.61,1.43-7.53,3.66,3.18,4.63s10.41,3.1,13.3,2.49S529.15,125.66,526.55,124.15Z"/><path class="cls-4" d="M531.55,123.72c.51-2.78,3.89-3.32,4.34-4.15,1.39-.24,3.82-.86.86,2.3s-2,3.75-3.18,4.33S531.34,124.89,531.55,123.72Z"/><ellipse cx="526.69" cy="139.59" rx="6.53" ry="4.66" transform="translate(55.56 413.31) rotate(-45)"/><path d="M544.23,149.49c.6.43,7.13,5.15,9.4,11.08a10.26,10.26,0,0,1,.71,3.26c-.09,1.82-1.68.22-2.91,1.5-.82.85-.41,1.86-1.34,2.14-.17.05-1.64.49-2.92-1.39-1-1.41-1-2.87-2.19-7.56-1.54-5.93-3-9.05-2.3-9.68C542.87,148.66,543.19,148.73,544.23,149.49Z"/><path class="cls-6" d="M551.56,163.44a18,18,0,0,0,2.07,7.26c2.07,4.14-4.14,3.11-4.14,1"/><path class="cls-9" d="M430.12,314.31,411,310.85l12,12.87-2.66,22.17,13.54-17.57-2.05,28.44L443.68,345s7.55.13,9.08,1.86-2.4-9-2.4-9"/><polyline class="cls-9" points="480.06 162.93 475.91 182.62 471.77 169.14 469.69 191.94 464.51 175.36 464.51 205.41 458.3 190.91"/><path class="cls-10" d="M475.75,240.8c7.66,0,7.67-11.91,0-11.91s-7.68,11.91,0,11.91Z"/><path class="cls-10" d="M485.86,344.45c7.66,0,7.67-11.91,0-11.91s-7.67,11.91,0,11.91Z"/><path class="cls-11" d="M476.13,414.48l26.56-30.94a5.2,5.2,0,1,0-4.53-3.45l-26.34,30.69Z"/><path class="cls-11" d="M500.1,415.75s-12.84-10.21-22.18-5v0a4.13,4.13,0,1,0-1.55,4.45Z"/><path class="cls-11" d="M507.22,376.32l-14.94-33.4a9.41,9.41,0,0,0,2-7.67l.18-.05s3.53-7.35-1-11.37a35.55,35.55,0,0,1-.31,8.34,9.84,9.84,0,0,0-1-1.45c.28-2.21.64-7.21-1.78-8.28,0,0,1.13,6.54.2,6.7s.9-5.92-3-6.21A42.39,42.39,0,0,1,488,328a8.05,8.05,0,0,0-1.3-.36c-.65-2.09-1.62-4.94-3.93-3.91a12.86,12.86,0,0,1,1.86,3.73,9.44,9.44,0,0,0-3,.6,4.09,4.09,0,0,0-3.94-.56s1,.74,2,1.55a9.42,9.42,0,0,0-2.8,2.89c-1.59.48-3.14,1.34-3.66,3.07a19,19,0,0,1,2.32.69,9.46,9.46,0,0,0,7.62,10.55,9,9,0,0,0,1.35.15l14.93,33.39Z"/><path class="cls-12" d="M681.73,215.72c-9,0-22.25-18.43-30.9-42.86-5.37-15.13-8-29.91-7.31-40.55.5-7.29,2.62-12,6-13.14a5.57,5.57,0,0,1,1.87-.32c9,0,22.25,18.43,30.91,42.86,9.4,26.54,10,50.62,1.32,53.7A5.56,5.56,0,0,1,681.73,215.72Z"/><path d="M651.37,118.35v1c8.62,0,22,18.68,30.43,42.53,4.57,12.88,7.19,25.57,7.38,35.73.18,9.65-1.91,16-5.74,17.33a5.38,5.38,0,0,1-1.71.28c-8.62,0-22-18.68-30.43-42.53-5.34-15.07-8-29.77-7.28-40.35.48-7.07,2.49-11.58,5.65-12.7a5,5,0,0,1,1.7-.29v-1m0,0a5.83,5.83,0,0,0-2,.35c-3.72,1.31-5.81,6.28-6.3,13.57-.7,10.25,1.77,25.07,7.32,40.76,8.82,24.88,22.33,43.19,31.38,43.19a6.07,6.07,0,0,0,2-.34c8.94-3.17,8.49-27.5-1-54.33-8.82-24.89-22.33-43.2-31.38-43.2Z"/><path class="cls-13" d="M643.05,132.46s-2.46,40.16,30.08,79.58c0,0-52.62-27.69-82.47,1.49l-6.4-22.29S644.2,181.9,643.05,132.46Z"/><path class="cls-14" d="M560.56,193.68l18.75-5.9,5,3.46,6.4,22.29s-5.24,4.09-5.2,6.3c0,1.34-7.15,3.61-12.87,5.21-3.8,1.06-7,1.82-7,1.82S529.45,202.48,560.56,193.68Z"/><path class="cls-15" d="M569.17,226.35a36,36,0,0,1,5.77,12.1,71.53,71.53,0,0,1,1.61,15.05s15.29-.95,18.71-8.12-16.89-15.1-14.94-22.73Z"/><ellipse class="cls-16" cx="664" cy="167.45" rx="2.45" ry="11.22" transform="translate(-17.79 231.4) rotate(-19.51)"/><path class="cls-17" d="M649,166.06s7.47-1.26,10.69-8.3a28,28,0,0,0,7.06,19.92s-8.9-1.36-12.83,2.27C653.92,180,647.91,167.19,649,166.06Z"/><path class="cls-18" d="M595.19,194.81s33.57-8.18,39.78-20.05c0,0,1.29,10,12.93,15.5,0,0-49.55,7.15-50.6,10.5S595.19,194.81,595.19,194.81Z"/><path class="cls-19" d="M551.3,205.34l6.61-2.35a.88.88,0,0,0-.58-1.65l-6.62,2.34a.88.88,0,0,0,.59,1.66Z"/><path class="cls-19" d="M551.92,202.89l3.3-1.18a.87.87,0,0,0-.58-1.65l-3.31,1.17a.88.88,0,0,0,.59,1.66Z"/><path class="cls-19" d="M551.34,207.55l9.26-3.28a.88.88,0,0,0-.59-1.65l-9.25,3.28a.87.87,0,0,0,.58,1.65Z"/><path class="cls-19" d="M554,208.84l5.29-1.88a.88.88,0,0,0-.59-1.65l-5.29,1.87a.88.88,0,0,0,.59,1.66Z"/><path class="cls-19" d="M556.71,210.12l2-.71a.88.88,0,0,0-.59-1.65l-2,.7a.88.88,0,0,0,.58,1.66Z"/><path class="cls-11" d="M599.72,233.29c-1.59-4.9-9-6.88-16.5-4.43-5.66,1.86-9.78,5.7-10.79,9.57l-52,17a7.09,7.09,0,0,0-10.68,6.37,7,7,0,0,1-4.11-2.28c-1.42.92,2.83,3.62,4.61,4.67.09.22.19.44.3.65l-5,2.32c2.34,1.86,5.29,1.27,7.44.39a6.84,6.84,0,0,0,1,.54l-6.56,7.44c3.08.4,9.1-5,11.45-7.17a6.92,6.92,0,0,0,.76-.28l-3.3,10.24c2.35-.27,5-9.17,5.86-12.15a7.15,7.15,0,0,0,1.09-1.75l54-17.65a18,18,0,0,0,11.65-.16C596.52,244.16,601.32,238.19,599.72,233.29Z"/><path class="cls-11" d="M517.64,257.21l-33.48-22a8.94,8.94,0,0,0-2.86-6.47h0s-5.88-8.06-12.23-7.89a55.75,55.75,0,0,1,7,5.51,9.24,9.24,0,0,0-2.1,0c-1.6-1.71-3.46-3.11-5.27-2.15a38,38,0,0,1,3.89,2.43,9.55,9.55,0,0,0-1.39.55c-1.85-1.17-4.09-2.21-5.4-.36,0,0,2.21.27,4.56.83a8.73,8.73,0,0,0-2,1.73c-1.65-.13-3.33.05-3.71,1.28a10.61,10.61,0,0,1,2.59.34,8.9,8.9,0,0,0-1.05,3.63c-1.64.09-3.12.28-3.1,1.16a18,18,0,0,1,3.15.65A9,9,0,0,0,477,244.09l34.64,22.8C517.79,270.92,523.77,261.24,517.64,257.21Z"/></g><g id="talk3"><path class="cls-1" d="M845.63,236.77,809.24,220a9,9,0,0,0-1.66-3.91,8.74,8.74,0,0,0-2.15-2.06h0s-7-7.08-13.27-6a56.47,56.47,0,0,1,7.78,4.4,9.24,9.24,0,0,0-2.07.35c-1.84-1.45-3.89-2.56-5.53-1.34a38.93,38.93,0,0,1,4.21,1.83,8,8,0,0,0-1.29.75c-2-.89-4.38-1.58-5.4.44,0,0,2.23-.06,4.63.14a9.1,9.1,0,0,0-1.75,2c-1.64.1-3.28.54-3.47,1.81a10.29,10.29,0,0,1,2.61,0,9,9,0,0,0-.5,3.74c-1.6.34-3,.75-2.89,1.62a18.11,18.11,0,0,1,3.22.17,9,9,0,0,0,11.8,5.94l37.66,17.37C847.82,250.31,852.29,239.84,845.63,236.77Z"/><path class="cls-1" d="M920.71,199.16c-2.55-4.49-10.18-4.95-17.06-1-5.18,2.95-8.44,7.53-8.65,11.54l-47.52,27a7.1,7.1,0,0,0-9.19,8.38,7.05,7.05,0,0,1-4.48-1.41c-1.2,1.19,3.5,3,5.45,3.66.13.19.27.39.42.57l-4.42,3.27c2.67,1.35,5.45.19,7.38-1.11a7.2,7.2,0,0,0,1.12.33l-4.94,8.6c3.1-.23,7.93-6.68,9.79-9.32.23-.13.46-.27.68-.42l-1.18,10.69c2.25-.74,3.09-10,3.31-13.08a6.91,6.91,0,0,0,.72-1.93l49.35-28.08a18,18,0,0,0,11.38-2.49C919.74,210.45,923.25,203.64,920.71,199.16Z"/><ellipse class="cls-2" cx="909.2" cy="206.08" rx="9.7" ry="6.11" transform="translate(-3.63 395.44) rotate(-24.49)"/><path class="cls-1" d="M847.46,413.4l15.34-37.78a5.19,5.19,0,1,0-5.4-1.83l-15.21,37.47Z"/><path class="cls-1" d="M870.93,415.84s-12.79-10.27-22.16-5.08v0a4,4,0,1,0-2.71,5,3.93,3.93,0,0,0,1.14-.57Z"/><path class="cls-1" d="M865.76,368.15l-27-24.73a9.43,9.43,0,0,0-1.25-7.81l.13-.12s.33-8.15-5.44-10a35.58,35.58,0,0,1,3,7.78,8.59,8.59,0,0,0-1.54-.92c-.61-2.15-2.27-6.87-4.92-6.89,0,0,3.64,5.55,2.85,6.07s-1.53-5.8-5.22-4.51a40.94,40.94,0,0,1,2.53,4.43,10.54,10.54,0,0,0-1.34.19c-1.42-1.66-3.44-3.89-5.16-2a12.86,12.86,0,0,1,3.2,2.69,9.56,9.56,0,0,0-2.56,1.76,4.1,4.1,0,0,0-3.84,1.05s1.25.26,2.44.63a9.5,9.5,0,0,0-1.42,3.76c-1.27,1.08-2.35,2.48-2.14,4.28a20.72,20.72,0,0,1,2.4-.3,9.48,9.48,0,0,0,11.19,6.67,10.21,10.21,0,0,0,1.29-.4l27,24.71Z"/><path class="cls-3" d="M859.59,96.63c-1-3.39-12.44-22-20.73-25.41s-16.58-3.39-17.61,2.54,2.07,17.79,8.29,20.33S859.59,96.63,859.59,96.63Z"/><path class="cls-4" d="M739.18,353.1a53.86,53.86,0,0,1-3.42,8.27c-7.26-6.22-25.46-7.71-7.26,6.22,7.63,2.44,18.48,3,17.33-5.84C743.45,358.37,739.18,353.1,739.18,353.1Z"/><path class="cls-5" d="M857,378c-16.56,1-57,13.75-70.47,10.37s-68.91-8.8-47.15-81.64S779.8,189,780.83,175.4s7.26-60.13,8.29-62.68S815,66.14,871,99.17c12.43,9.32,21.76,25.41,25.91,36.42s17.61,38.12,15.54,45.74-3.11,11.86-21.76,6.77-44.56-7.62-29,19.48,25.91,22,28,19.48,21.76-20.32,31.09-7.62S928,245.7,934.2,254.17c1.94,2.63,9.79,9.12,19.41,18.09,21.3,19.85,51.26,51.83,44.84,81C989.12,395.61,897.41,375.41,857,378Z"/><path class="cls-2" d="M936.85,295.44c-3.15,4.73-5.65,11.6-9.72,15.46s-40.65,17.18-30.33,41.43,25.93,25.79,43.1,27.7c18.65,2.07,80.16-6.48,57.11-53.48s-48.35-46.13-50.84-44.63-6.95,1.93-8.14,7.73Z"/><ellipse cx="992.23" cy="349.87" rx="3.11" ry="5.93"/><ellipse cx="890.16" cy="134.32" rx="3.63" ry="6.35"/><path class="cls-6" d="M891.71,153.38c-5.18,6.77-8.29,15.24,0,13.55a31.81,31.81,0,0,1,5.18-.56c5.69-.22,9.23.4,5.19-6.22-5.18-8.47-4.15-11.85-7.26-9.31Z"/><path class="cls-6" d="M896.9,163.54c0,1.7,2.07,6.78,0,7.62s-5.19.85-6.22-.84"/><path class="cls-7" d="M902.08,192.34c-3.86,4.73-6.22,7.62-12.44,3.39s2.07-11.86,4.15-12.71S904.15,189.8,902.08,192.34Z"/><path class="cls-7" d="M879.28,180.48c3,2.47,1,10.16,0,11.86s-9.33,3.39-12.44,0-6.21-11.86-2.07-12.71S876.17,177.94,879.28,180.48Z"/><path class="cls-8" d="M910.37,219.44c-3.11-2.54-15.55-12.7-28-11.86s-19.69,4.24-19.69,7.63,7.25,22.87,21.76,18.63S913.48,222,910.37,219.44Z"/><line class="cls-6" x1="882.39" y1="221.98" x2="890.68" y2="208.43"/><path class="cls-2" d="M863.73,165.24c-10.36,8.47-20.2,8.57-19.17,54.16.52,24.93,8.41,36.69,31.09,36.27,8.34-.15,20.21-5.18,28-9.32s27.46-11.66,22.28-19.29-10-10-14.33-10.94-21.94,11.79-27.12,11.79S844,199.7,857.52,187.26s44.86,8.66,45.75,3.06,10.21.32,9.17-9a65.43,65.43,0,0,0-3.19-13.7c-3-8.8-8.47-18.59-17.54-24.42-8.29,2.55-12.43,11.86-17.61,16.94S863.73,165.24,863.73,165.24Z"/><path class="cls-6" d="M906.74,169.66s.78,7.91-5.31-4.33"/><path d="M912.42,183.89s-.23,12-26.79,2.49-30.2,4.57-31,5.85c-1.81,2.3,20,36.5,29.28,34.43,17-4.18,17.17-9.85,22.83-10.88s8.84-.62,10.88.73-3.14,12.74-22.83,14.81-25.9,1-35.23-13.47-13.47-35.23-5.18-40.42,35.23,0,39.38,1,16.58,1,17.61,3.11S911.37,182.05,912.42,183.89Z"/><path class="cls-5" d="M806.74,126.28A284.26,284.26,0,0,1,786,105.1c-4.14-5.08-9.32-23.71,10.37-26.25s34.19,22.86,34.19,22.86Z"/><path class="cls-2" d="M821.25,102.56s-9.33-12.7-19.69-11-6.22,10.16-6.22,11,10.36,11.86,11.4,10.16S822.28,104.25,821.25,102.56Z"/><path class="cls-4" d="M876.55,124.15c-6.21-3.61-12.45,0-14.76-.7-2.61,1.43-7.53,3.66,3.18,4.63s10.41,3.1,13.3,2.49S879.15,125.66,876.55,124.15Z"/><path class="cls-4" d="M881.55,123.72c.51-2.78,3.89-3.32,4.34-4.15,1.39-.24,3.82-.86.86,2.3s-2,3.75-3.18,4.33S881.34,124.89,881.55,123.72Z"/><ellipse cx="876.69" cy="139.59" rx="6.53" ry="4.66" transform="translate(158.07 660.8) rotate(-45)"/><path d="M894.23,149.49c.6.43,7.13,5.15,9.4,11.08a10.26,10.26,0,0,1,.71,3.26c-.09,1.82-1.68.22-2.91,1.5-.82.85-.41,1.86-1.34,2.14-.17.05-1.64.49-2.92-1.39-1-1.41-1-2.87-2.19-7.56-1.54-5.93-3-9.05-2.3-9.68C892.87,148.66,893.19,148.73,894.23,149.49Z"/><path class="cls-6" d="M901.56,163.44a18,18,0,0,0,2.07,7.26c2.07,4.14-4.14,3.11-4.14,1"/><path class="cls-9" d="M780.12,314.31,761,310.85l12,12.87-2.66,22.17,13.54-17.57-2.05,28.44L793.68,345s7.55.13,9.08,1.86-2.4-9-2.4-9"/><polyline class="cls-9" points="830.06 162.93 825.91 182.62 821.77 169.14 819.69 191.94 814.51 175.36 814.51 205.41 808.29 190.91"/><path class="cls-10" d="M825.75,240.8c7.66,0,7.67-11.91,0-11.91s-7.68,11.91,0,11.91Z"/><path class="cls-10" d="M835.86,344.45c7.66,0,7.67-11.91,0-11.91s-7.67,11.91,0,11.91Z"/><path class="cls-11" d="M826.13,414.48l26.56-30.94a5.2,5.2,0,1,0-4.53-3.45l-26.34,30.69Z"/><path class="cls-11" d="M850.1,415.75s-12.84-10.21-22.18-5v0a4.13,4.13,0,1,0-1.55,4.45Z"/><path class="cls-11" d="M857.22,376.32l-14.94-33.4a9.41,9.41,0,0,0,2-7.67l.18-.05s3.53-7.35-1-11.37a35.55,35.55,0,0,1-.31,8.34,9.84,9.84,0,0,0-1-1.45c.28-2.21.64-7.21-1.78-8.28,0,0,1.13,6.54.2,6.7s.9-5.92-3-6.21A42.39,42.39,0,0,1,838,328a8.05,8.05,0,0,0-1.3-.36c-.65-2.09-1.62-4.94-3.93-3.91a12.86,12.86,0,0,1,1.86,3.73,9.44,9.44,0,0,0-3,.6,4.09,4.09,0,0,0-3.94-.56s1,.74,2,1.55a9.42,9.42,0,0,0-2.8,2.89c-1.59.48-3.14,1.34-3.66,3.07a19,19,0,0,1,2.32.69,9.46,9.46,0,0,0,7.62,10.55,9,9,0,0,0,1.35.15l14.93,33.39Z"/><path class="cls-12" d="M1031.73,215.72c-9,0-22.25-18.43-30.9-42.86-5.37-15.13-8-29.91-7.31-40.55.5-7.29,2.62-12,6-13.14a5.57,5.57,0,0,1,1.87-.32c9,0,22.25,18.43,30.91,42.86,9.4,26.54,10,50.62,1.32,53.7A5.56,5.56,0,0,1,1031.73,215.72Z"/><path d="M1001.37,118.35v1c8.62,0,22,18.68,30.43,42.53,4.57,12.88,7.19,25.57,7.38,35.73.18,9.65-1.91,16-5.74,17.33a5.38,5.38,0,0,1-1.71.28c-8.62,0-22-18.68-30.43-42.53-5.34-15.07-8-29.77-7.28-40.35.48-7.07,2.49-11.58,5.65-12.7a5,5,0,0,1,1.7-.29v-1m0,0a5.83,5.83,0,0,0-2,.35c-3.72,1.31-5.81,6.28-6.3,13.57-.7,10.25,1.77,25.07,7.32,40.76,8.82,24.88,22.33,43.19,31.38,43.19a6.07,6.07,0,0,0,2-.34c8.94-3.17,8.49-27.5-1-54.33-8.82-24.89-22.33-43.2-31.38-43.2Z"/><path class="cls-13" d="M993.05,132.46s-2.46,40.16,30.08,79.58c0,0-52.62-27.69-82.47,1.49l-6.4-22.29S994.2,181.9,993.05,132.46Z"/><path class="cls-14" d="M910.56,193.68l18.75-5.9,5,3.46,6.4,22.29s-5.24,4.09-5.2,6.3c0,1.34-7.15,3.61-12.87,5.21-3.8,1.06-7,1.82-7,1.82S879.45,202.48,910.56,193.68Z"/><path class="cls-15" d="M919.17,226.35a36,36,0,0,1,5.77,12.1,71.53,71.53,0,0,1,1.61,15.05s15.29-.95,18.71-8.12-16.89-15.1-14.94-22.73Z"/><ellipse class="cls-16" cx="1014" cy="167.45" rx="2.45" ry="11.22" transform="translate(2.31 348.31) rotate(-19.51)"/><path class="cls-17" d="M999,166.06s7.47-1.26,10.69-8.3a28,28,0,0,0,7.06,19.92s-8.9-1.36-12.83,2.27C1003.92,180,997.91,167.19,999,166.06Z"/><path class="cls-18" d="M945.19,194.81s33.57-8.18,39.78-20.05c0,0,1.29,10,12.93,15.5,0,0-49.55,7.15-50.6,10.5S945.19,194.81,945.19,194.81Z"/><path class="cls-19" d="M901.3,205.34l6.61-2.35a.88.88,0,0,0-.58-1.65l-6.62,2.34a.88.88,0,0,0,.59,1.66Z"/><path class="cls-19" d="M901.92,202.89l3.3-1.18a.87.87,0,0,0-.58-1.65l-3.31,1.17a.88.88,0,0,0,.59,1.66Z"/><path class="cls-19" d="M901.34,207.55l9.26-3.28a.88.88,0,0,0-.59-1.65l-9.25,3.28a.87.87,0,0,0,.58,1.65Z"/><path class="cls-19" d="M904,208.84l5.29-1.88a.88.88,0,0,0-.59-1.65l-5.29,1.87a.88.88,0,0,0,.59,1.66Z"/><path class="cls-19" d="M906.71,210.12l2-.71a.88.88,0,0,0-.59-1.65l-2,.7a.88.88,0,0,0,.58,1.66Z"/><path class="cls-11" d="M949.72,233.29c-1.59-4.9-9-6.88-16.5-4.43-5.66,1.86-9.78,5.7-10.79,9.57l-52,17a7.09,7.09,0,0,0-10.68,6.37,7,7,0,0,1-4.11-2.28c-1.42.92,2.83,3.62,4.61,4.67.09.22.19.44.3.65l-5,2.32c2.34,1.86,5.29,1.27,7.44.39a6.84,6.84,0,0,0,1,.54l-6.56,7.44c3.08.4,9.1-5,11.45-7.17a6.92,6.92,0,0,0,.76-.28l-3.3,10.24c2.35-.27,5-9.17,5.86-12.15a7.15,7.15,0,0,0,1.09-1.75l54-17.65a18,18,0,0,0,11.65-.16C946.52,244.16,951.32,238.19,949.72,233.29Z"/><path class="cls-11" d="M867.64,257.21l-33.48-22a8.94,8.94,0,0,0-2.86-6.47h0s-5.88-8.06-12.23-7.89a55.75,55.75,0,0,1,7,5.51,9.24,9.24,0,0,0-2.1,0c-1.6-1.71-3.46-3.11-5.27-2.15a38,38,0,0,1,3.89,2.43,9.55,9.55,0,0,0-1.39.55c-1.85-1.17-4.09-2.21-5.4-.36,0,0,2.21.27,4.56.83a8.73,8.73,0,0,0-2,1.73c-1.65-.13-3.33.05-3.71,1.28a10.61,10.61,0,0,1,2.59.34,8.9,8.9,0,0,0-1,3.63c-1.64.09-3.12.28-3.1,1.16a18,18,0,0,1,3.15.65A9,9,0,0,0,827,244.09l34.64,22.8C867.79,270.92,873.77,261.24,867.64,257.21Z"/></g><g id="talk4"><path class="cls-1" d="M1196.63,236.77,1160.24,220a9,9,0,0,0-1.66-3.91,8.74,8.74,0,0,0-2.15-2.06h0s-7-7.08-13.27-6a56.47,56.47,0,0,1,7.78,4.4,9.24,9.24,0,0,0-2.07.35c-1.84-1.45-3.89-2.56-5.53-1.34a38.93,38.93,0,0,1,4.21,1.83,8,8,0,0,0-1.29.75c-2-.89-4.38-1.58-5.4.44,0,0,2.23-.06,4.63.14a9.1,9.1,0,0,0-1.75,2c-1.64.1-3.28.54-3.47,1.81a10.29,10.29,0,0,1,2.61,0,9,9,0,0,0-.5,3.74c-1.6.34-3,.75-2.89,1.62a18.11,18.11,0,0,1,3.22.17,9,9,0,0,0,11.8,5.94l37.66,17.37C1198.82,250.31,1203.29,239.84,1196.63,236.77Z"/><path class="cls-1" d="M1271.71,199.16c-2.55-4.49-10.18-4.95-17.06-1-5.18,2.95-8.44,7.53-8.65,11.54l-47.52,27a7.1,7.1,0,0,0-9.19,8.38,7.05,7.05,0,0,1-4.48-1.41c-1.2,1.19,3.5,3,5.45,3.66.13.19.27.39.42.57l-4.42,3.27c2.67,1.35,5.45.19,7.38-1.11a7.2,7.2,0,0,0,1.12.33l-4.94,8.6c3.1-.23,7.93-6.68,9.79-9.32.23-.13.46-.27.68-.42l-1.18,10.69c2.25-.74,3.09-10,3.31-13.08a6.91,6.91,0,0,0,.72-1.93l49.35-28.08a18,18,0,0,0,11.38-2.49C1270.74,210.45,1274.25,203.64,1271.71,199.16Z"/><ellipse class="cls-2" cx="1260.2" cy="206.08" rx="9.7" ry="6.11" transform="translate(27.95 540.94) rotate(-24.49)"/><path class="cls-1" d="M1198.46,413.4l15.34-37.78a5.19,5.19,0,1,0-5.4-1.83l-15.21,37.47Z"/><path class="cls-1" d="M1221.93,415.84s-12.79-10.27-22.16-5.08v0a4,4,0,1,0-2.71,5,3.93,3.93,0,0,0,1.14-.57Z"/><path class="cls-1" d="M1216.76,368.15l-27-24.73a9.43,9.43,0,0,0-1.25-7.81l.13-.12s.33-8.15-5.44-10a35.58,35.58,0,0,1,3,7.78,8.59,8.59,0,0,0-1.54-.92c-.61-2.15-2.27-6.87-4.92-6.89,0,0,3.64,5.55,2.85,6.07s-1.53-5.8-5.22-4.51a40.94,40.94,0,0,1,2.53,4.43,10.54,10.54,0,0,0-1.34.19c-1.42-1.66-3.44-3.89-5.16-2a12.86,12.86,0,0,1,3.2,2.69,9.56,9.56,0,0,0-2.56,1.76,4.1,4.1,0,0,0-3.84,1.05s1.25.26,2.44.63a9.5,9.5,0,0,0-1.42,3.76c-1.27,1.08-2.35,2.48-2.14,4.28a20.72,20.72,0,0,1,2.4-.3,9.48,9.48,0,0,0,11.19,6.67,10.21,10.21,0,0,0,1.29-.4l27,24.71Z"/><path class="cls-3" d="M1210.59,96.63c-1-3.39-12.44-22-20.73-25.41s-16.58-3.39-17.61,2.54,2.07,17.79,8.29,20.33S1210.59,96.63,1210.59,96.63Z"/><path class="cls-4" d="M1090.18,353.1a53.86,53.86,0,0,1-3.42,8.27c-7.26-6.22-25.46-7.71-7.26,6.22,7.63,2.44,18.48,3,17.33-5.84C1094.45,358.37,1090.18,353.1,1090.18,353.1Z"/><path class="cls-5" d="M1208,378c-16.56,1-57,13.75-70.47,10.37s-68.91-8.8-47.15-81.64S1130.8,189,1131.83,175.4s7.26-60.13,8.29-62.68S1166,66.14,1222,99.17c12.43,9.32,21.76,25.41,25.91,36.42s17.61,38.12,15.54,45.74-3.11,11.86-21.76,6.77-44.56-7.62-29,19.48,25.91,22,28,19.48,21.76-20.32,31.09-7.62,7.25,26.26,13.47,34.73c1.94,2.63,9.79,9.12,19.41,18.09,21.3,19.85,51.26,51.83,44.84,81C1340.12,395.61,1248.41,375.41,1208,378Z"/><path class="cls-2" d="M1287.85,295.44c-3.15,4.73-5.65,11.6-9.72,15.46s-40.65,17.18-30.33,41.43,25.93,25.79,43.1,27.7c18.65,2.07,80.16-6.48,57.11-53.48s-48.35-46.13-50.84-44.63-7,1.93-8.14,7.73Z"/><ellipse cx="1343.23" cy="349.87" rx="3.11" ry="5.93"/><ellipse cx="1241.16" cy="134.32" rx="3.63" ry="6.35"/><path class="cls-6" d="M1242.71,153.38c-5.18,6.77-8.29,15.24,0,13.55a31.81,31.81,0,0,1,5.18-.56c5.69-.22,9.23.4,5.19-6.22-5.18-8.47-4.15-11.85-7.26-9.31Z"/><path class="cls-6" d="M1247.9,163.54c0,1.7,2.07,6.78,0,7.62s-5.19.85-6.22-.84"/><path class="cls-8" d="M1261.37,204.44c-3.11-2.54-15.55-12.7-28-11.86s-19.69,4.24-19.69,7.63,7.25,22.87,21.76,18.63S1264.48,207,1261.37,204.44Z"/><path class="cls-7" d="M1253.08,192.34c-3.86,4.73-6.22,7.62-12.44,3.39s2.07-11.86,4.15-12.71S1255.15,189.8,1253.08,192.34Z"/><path class="cls-7" d="M1230.28,180.48c3,2.47,1,10.16,0,11.86s-9.33,3.39-12.44,0-6.21-11.86-2.07-12.71S1227.17,177.94,1230.28,180.48Z"/><line class="cls-6" x1="1232.39" y1="214.98" x2="1240.68" y2="201.43"/><path class="cls-2" d="M1214.73,165.24c-10.36,8.47-20.2,8.57-19.17,54.16.52,24.93,8.41,36.69,31.09,36.27,8.34-.15,20.21-5.18,28-9.32s27.46-11.66,22.28-19.29-4.34-18.9-8.66-19.81-27.82,10-33,10-40.23-17.55-26.73-30,44.86,8.66,45.75,3.06,10.21.32,9.17-9a65.43,65.43,0,0,0-3.19-13.7c-3-8.8-8.47-18.59-17.54-24.42-8.29,2.55-12.43,11.86-17.61,16.94S1214.73,165.24,1214.73,165.24Z"/><path class="cls-6" d="M1257.74,169.66s.78,7.91-5.31-4.33"/><path d="M1263.42,184.76s-.23,9.05-26.79,1.89-30.2,3.46-31,4.42c-1.81,1.74,20,27.61,29.28,26,17-3.16,17.17-7.45,22.83-8.23s8.84-.46,10.88.55-3.14,9.64-22.83,11.21-25.9.78-35.23-10.19-13.47-26.65-5.18-30.57,35.23,0,39.38.79,16.58.78,17.61,2.35S1262.37,183.37,1263.42,184.76Z"/><path class="cls-5" d="M1157.74,126.28A284.26,284.26,0,0,1,1137,105.1c-4.14-5.08-9.32-23.71,10.37-26.25s34.19,22.86,34.19,22.86Z"/><path class="cls-2" d="M1172.25,102.56s-9.33-12.7-19.69-11-6.22,10.16-6.22,11,10.36,11.86,11.4,10.16S1173.28,104.25,1172.25,102.56Z"/><path class="cls-4" d="M1227.55,124.15c-6.21-3.61-12.45,0-14.76-.7-2.61,1.43-7.53,3.66,3.18,4.63s10.41,3.1,13.3,2.49S1230.15,125.66,1227.55,124.15Z"/><path class="cls-4" d="M1232.55,123.72c.51-2.78,3.89-3.32,4.34-4.15,1.39-.24,3.82-.86.86,2.3s-2,3.75-3.18,4.33S1232.34,124.89,1232.55,123.72Z"/><ellipse cx="1227.69" cy="139.59" rx="6.53" ry="4.66" transform="translate(260.88 908.99) rotate(-45)"/><path d="M1245.23,149.49c.6.43,7.13,5.15,9.4,11.08a10.26,10.26,0,0,1,.71,3.26c-.09,1.82-1.68.22-2.91,1.5-.82.85-.41,1.86-1.34,2.14-.17.05-1.64.49-2.92-1.39-1-1.41-1-2.87-2.19-7.56-1.54-5.93-3-9.05-2.3-9.68C1243.87,148.66,1244.19,148.73,1245.23,149.49Z"/><path class="cls-6" d="M1252.56,163.44a18,18,0,0,0,2.07,7.26c2.07,4.14-4.14,3.11-4.14,1"/><path class="cls-9" d="M1131.12,314.31,1112,310.85l12,12.87-2.66,22.17,13.54-17.57-2,28.44L1144.68,345s7.55.13,9.08,1.86-2.4-9-2.4-9"/><polyline class="cls-9" points="1181.06 162.93 1176.91 182.62 1172.77 169.14 1170.69 191.94 1165.51 175.36 1165.51 205.41 1159.3 190.91"/><path class="cls-10" d="M1176.75,240.8c7.66,0,7.67-11.91,0-11.91s-7.68,11.91,0,11.91Z"/><path class="cls-10" d="M1186.86,344.45c7.66,0,7.67-11.91,0-11.91s-7.67,11.91,0,11.91Z"/><path class="cls-11" d="M1177.13,414.48l26.56-30.94a5.2,5.2,0,1,0-4.53-3.45l-26.34,30.69Z"/><path class="cls-11" d="M1201.1,415.75s-12.84-10.21-22.18-5v0a4.13,4.13,0,1,0-1.55,4.45Z"/><path class="cls-11" d="M1208.22,376.32l-14.94-33.4a9.41,9.41,0,0,0,2-7.67l.18-.05s3.53-7.35-1-11.37a35.55,35.55,0,0,1-.31,8.34,9.84,9.84,0,0,0-1-1.45c.28-2.21.64-7.21-1.78-8.28,0,0,1.13,6.54.2,6.7s.9-5.92-3-6.21A42.39,42.39,0,0,1,1189,328a8.05,8.05,0,0,0-1.3-.36c-.65-2.09-1.62-4.94-3.93-3.91a12.86,12.86,0,0,1,1.86,3.73,9.44,9.44,0,0,0-3,.6,4.09,4.09,0,0,0-3.94-.56s1,.74,2,1.55a9.42,9.42,0,0,0-2.8,2.89c-1.59.48-3.14,1.34-3.66,3.07a19,19,0,0,1,2.32.69,9.46,9.46,0,0,0,7.62,10.55,9,9,0,0,0,1.35.15l14.93,33.39Z"/><path class="cls-12" d="M1382.73,215.72c-9,0-22.25-18.43-30.9-42.86-5.37-15.13-8-29.91-7.31-40.55.5-7.29,2.62-12,6-13.14a5.57,5.57,0,0,1,1.87-.32c9,0,22.25,18.43,30.91,42.86,9.4,26.54,10,50.62,1.32,53.7A5.56,5.56,0,0,1,1382.73,215.72Z"/><path d="M1352.37,118.35v1c8.62,0,22,18.68,30.43,42.53,4.57,12.88,7.19,25.57,7.38,35.73.18,9.65-1.91,16-5.74,17.33a5.38,5.38,0,0,1-1.71.28c-8.62,0-22-18.68-30.43-42.53-5.34-15.07-8-29.77-7.28-40.35.48-7.07,2.49-11.58,5.65-12.7a5,5,0,0,1,1.7-.29v-1m0,0a5.83,5.83,0,0,0-2,.35c-3.72,1.31-5.81,6.28-6.3,13.57-.7,10.25,1.77,25.07,7.32,40.76,8.82,24.88,22.33,43.19,31.38,43.19a6.07,6.07,0,0,0,2-.34c8.94-3.17,8.49-27.5-1-54.33-8.82-24.89-22.33-43.2-31.38-43.2Z"/><path class="cls-13" d="M1344.05,132.46s-2.46,40.16,30.08,79.58c0,0-52.62-27.69-82.47,1.49l-6.4-22.29S1345.2,181.9,1344.05,132.46Z"/><path class="cls-14" d="M1261.56,193.68l18.75-5.9,5,3.46,6.4,22.29s-5.24,4.09-5.2,6.3c0,1.34-7.15,3.61-12.87,5.21-3.8,1.06-7,1.82-7,1.82S1230.45,202.48,1261.56,193.68Z"/><path class="cls-15" d="M1270.17,226.35a36,36,0,0,1,5.77,12.1,71.53,71.53,0,0,1,1.61,15.05s15.29-.95,18.71-8.12-16.89-15.1-14.94-22.73Z"/><ellipse class="cls-16" cx="1365" cy="167.45" rx="2.45" ry="11.22" transform="translate(22.47 465.55) rotate(-19.51)"/><path class="cls-17" d="M1350,166.06s7.47-1.26,10.69-8.3a28,28,0,0,0,7.06,19.92s-8.9-1.36-12.83,2.27C1354.92,180,1348.91,167.19,1350,166.06Z"/><path class="cls-18" d="M1296.19,194.81s33.57-8.18,39.78-20.05c0,0,1.29,10,12.93,15.5,0,0-49.55,7.15-50.6,10.5S1296.19,194.81,1296.19,194.81Z"/><path class="cls-19" d="M1252.3,205.34l6.61-2.35a.88.88,0,0,0-.58-1.65l-6.62,2.34a.88.88,0,0,0,.59,1.66Z"/><path class="cls-19" d="M1252.92,202.89l3.3-1.18a.87.87,0,0,0-.58-1.65l-3.31,1.17a.88.88,0,0,0,.59,1.66Z"/><path class="cls-19" d="M1252.34,207.55l9.26-3.28a.88.88,0,0,0-.59-1.65l-9.25,3.28a.87.87,0,0,0,.58,1.65Z"/><path class="cls-19" d="M1255,208.84l5.29-1.88a.88.88,0,0,0-.59-1.65l-5.29,1.87a.88.88,0,0,0,.59,1.66Z"/><path class="cls-19" d="M1257.71,210.12l2-.71a.88.88,0,0,0-.59-1.65l-2,.7a.88.88,0,0,0,.58,1.66Z"/><path class="cls-11" d="M1300.72,233.29c-1.59-4.9-9-6.88-16.5-4.43-5.66,1.86-9.78,5.7-10.79,9.57l-52,17a7.09,7.09,0,0,0-10.68,6.37,7,7,0,0,1-4.11-2.28c-1.42.92,2.83,3.62,4.61,4.67.09.22.19.44.3.65l-5,2.32c2.34,1.86,5.29,1.27,7.44.39a6.84,6.84,0,0,0,1,.54l-6.56,7.44c3.08.4,9.1-5,11.45-7.17a6.92,6.92,0,0,0,.76-.28l-3.3,10.24c2.35-.27,5-9.17,5.86-12.15a7.15,7.15,0,0,0,1.09-1.75l54-17.65a18,18,0,0,0,11.65-.16C1297.52,244.16,1302.32,238.19,1300.72,233.29Z"/><path class="cls-11" d="M1218.64,257.21l-33.48-22a8.94,8.94,0,0,0-2.86-6.47h0s-5.88-8.06-12.23-7.89a55.75,55.75,0,0,1,7,5.51,9.24,9.24,0,0,0-2.1,0c-1.6-1.71-3.46-3.11-5.27-2.15a38,38,0,0,1,3.89,2.43,9.55,9.55,0,0,0-1.39.55c-1.85-1.17-4.09-2.21-5.4-.36,0,0,2.21.27,4.56.83a8.73,8.73,0,0,0-2,1.73c-1.65-.13-3.33.05-3.71,1.28a10.61,10.61,0,0,1,2.59.34,8.9,8.9,0,0,0-1,3.63c-1.64.09-3.12.28-3.1,1.16a18,18,0,0,1,3.15.65,9,9,0,0,0,10.79,7.64l34.64,22.8C1218.79,270.92,1224.77,261.24,1218.64,257.21Z"/></g></svg>
