<svg xmlns="http://www.w3.org/2000/svg" viewBox="0 0 3154 500"><defs><style>.cls-1{fill:#3d221d;}.cls-2{fill:#efb27b;}.cls-3{fill:#4c322b;}.cls-4{fill:#492920;}.cls-5{fill:#7c4735;}.cls-6,.cls-9{fill:none;stroke-miterlimit:10;}.cls-6{stroke:#000;}.cls-7{fill:#b7aea1;}.cls-8{fill:#720f35;}.cls-9{stroke:#492920;}.cls-10{fill:#ff0808;}.cls-11{fill:#4c2b22;}</style></defs><title>bjornwalkcyckle</title><g id="_1step" data-name="1step"><path class="cls-1" d="M92.78,213.92l33.9,21.38a9.12,9.12,0,0,0,1.13,4.1,8.87,8.87,0,0,0,1.87,2.32h0s6,7.93,12.38,7.65a56.69,56.69,0,0,1-7.14-5.38,9.17,9.17,0,0,0,2.09-.08c1.64,1.67,3.53,3,5.32,2.05a37.57,37.57,0,0,1-3.94-2.36,9.12,9.12,0,0,0,1.38-.57c1.87,1.13,4.13,2.13,5.41.25a44.47,44.47,0,0,1-4.58-.74,9,9,0,0,0,2-1.77c1.65.1,3.32-.11,3.68-1.36a9.93,9.93,0,0,1-2.59-.28,9.1,9.1,0,0,0,1-3.65c1.63-.13,3.11-.34,3.07-1.23a17,17,0,0,1-3.16-.59,9.2,9.2,0,0,0-1-3,9,9,0,0,0-9.91-4.38L98.56,204.12C92.37,200.21,86.58,210,92.78,213.92Z"/><path class="cls-1" d="M46.79,280.84c4.3,2.85,11.31-.2,15.67-6.79,3.29-5,4.13-10.54,2.5-14.21Q80,237,95.1,214.22a7,7,0,0,0,4-2,7.11,7.11,0,0,0,.39-9.63,7.08,7.08,0,0,1,4.64-.77c.53-1.6-4.47-1.07-6.52-.79a6.23,6.23,0,0,0-.63-.32l2.45-4.92c-3,0-4.93,2.3-6.07,4.33a7.5,7.5,0,0,0-1.15.21l.52-9.9c-2.66,1.6-4,9.54-4.51,12.74a6.12,6.12,0,0,0-.43.69L84,193.79c-1.67,1.67,1.77,10.3,3,13.15a7.09,7.09,0,0,0,.22,2.05L55.92,256.36a18,18,0,0,0-9,7.38C42.54,270.33,42.49,278,46.79,280.84Z"/><ellipse class="cls-2" cx="53.92" cy="269.46" rx="9.7" ry="6.11" transform="translate(-190.3 143.47) rotate(-51.4)"/><path class="cls-1" d="M206.49,409.69,182.17,377a5.2,5.2,0,1,0-4.37,3.66l24.13,32.45Z"/><path class="cls-1" d="M225.17,394.92s-16.27,2.18-19,12.54h0a4,4,0,1,0,1.77,5.42,4.62,4.62,0,0,0,.37-1.22Z"/><path class="cls-1" d="M180.11,372.08l-27.47-24.17a9.42,9.42,0,0,0,0-4.63,9.23,9.23,0,0,0-1.43-3.15l.13-.12s.16-8.15-5.65-9.92a36,36,0,0,1,3.2,7.72,8.87,8.87,0,0,0-1.55-.89c-.66-2.13-2.42-6.82-5.06-6.79,0,0,3.75,5.48,3,6s-1.65-5.76-5.31-4.4a43.3,43.3,0,0,1,2.63,4.38,10.39,10.39,0,0,0-1.34.22c-1.46-1.63-3.52-3.82-5.2-1.92a13,13,0,0,1,3.25,2.62,9.3,9.3,0,0,0-2.52,1.81A4.09,4.09,0,0,0,133,340s1.26.24,2.45.58a9.66,9.66,0,0,0-1.34,3.79c-1.24,1.1-2.3,2.53-2.05,4.32a18,18,0,0,1,2.4-.34,9.47,9.47,0,0,0,11.32,6.43,9.29,9.29,0,0,0,1.29-.43l27.46,24.16Z"/><path class="cls-3" d="M191.84,107.51c-1-3.38-12.44-22-20.73-25.41s-16.58-3.38-17.61,2.55,2.07,17.78,8.29,20.32S191.84,107.51,191.84,107.51Z"/><path class="cls-4" d="M71.43,364A54.16,54.16,0,0,1,68,372.25c-7.26-6.21-25.46-7.71-7.26,6.22,7.63,2.44,18.48,3,17.33-5.84C75.7,369.25,71.43,364,71.43,364Z"/><path class="cls-5" d="M189.25,388.83c-16.56,1.05-57,13.76-70.47,10.37s-68.91-8.8-47.15-81.64,40.42-117.73,41.45-131.28,7.26-60.13,8.29-62.67S147.28,77,203.24,110.05c12.43,9.32,21.76,25.41,25.91,36.42s17.61,38.12,15.54,45.74-3.11,11.86-21.76,6.78-44.56-7.63-29,19.48,25.91,22,28,19.48,21.76-20.33,31.09-7.63,7.25,26.26,13.47,34.73c1.94,2.63,9.79,9.12,19.41,18.09,21.3,19.85,51.26,51.83,44.84,81C321.37,406.49,229.66,386.29,189.25,388.83Z"/><path class="cls-2" d="M269.1,306.33c-3.15,4.72-5.65,11.59-9.72,15.45S218.73,339,229.05,363.22,255,389,272.15,390.91c18.65,2.07,80.16-6.48,57.11-53.47s-48.35-46.14-50.84-44.64-6.95,1.93-8.14,7.73Z"/><ellipse cx="324.48" cy="360.76" rx="3.11" ry="5.93"/><ellipse cx="222.41" cy="145.2" rx="3.63" ry="6.35"/><path class="cls-6" d="M224,164.26c-5.18,6.78-8.29,15.25,0,13.55a31.81,31.81,0,0,1,5.18-.56c5.69-.22,9.23.4,5.19-6.21-5.18-8.47-4.15-11.86-7.26-9.32Z"/><path class="cls-6" d="M229.15,174.42c0,1.7,2.07,6.78,0,7.63s-5.19.84-6.22-.85"/><path class="cls-7" d="M234.33,203.22c-3.86,4.73-6.22,7.62-12.44,3.39S224,194.75,226,193.9,236.4,200.68,234.33,203.22Z"/><path class="cls-7" d="M211.53,191.36c3,2.47,1,10.17,0,11.86s-9.33,3.39-12.44,0-6.21-11.86-2.07-12.7S208.42,188.82,211.53,191.36Z"/><path class="cls-8" d="M242.62,230.32c-3.11-2.54-15.55-12.7-28-11.85S195,222.7,195,226.09s7.25,22.87,21.76,18.63S245.73,232.86,242.62,230.32Z"/><line class="cls-6" x1="214.64" y1="232.86" x2="222.93" y2="219.31"/><path class="cls-2" d="M196,176.12c-10.36,8.47-20.2,8.57-19.17,54.17.52,24.93,8.41,36.69,31.09,36.26,8.34-.15,20.21-5.18,28-9.32s27.46-11.66,22.28-19.28-10-10-14.33-10.95-21.94,11.79-27.12,11.79-40.44-28.21-26.94-40.65,44.86,8.66,45.75,3.06,10.21.33,9.17-9a65.57,65.57,0,0,0-3.19-13.7c-3-8.8-8.47-18.59-17.54-24.41-8.29,2.54-12.43,11.85-17.61,16.94S196,176.12,196,176.12Z"/><path class="cls-6" d="M239,180.54s.78,7.91-5.31-4.33"/><path d="M244.67,194.77s-.23,12-26.79,2.49-30.2,4.58-31,5.85c-1.81,2.3,20,36.5,29.28,34.43,17-4.18,17.17-9.85,22.83-10.88s8.84-.61,10.88.73-3.14,12.74-22.83,14.81-25.9,1-35.23-13.47-13.47-35.23-5.18-40.41,35.23,0,39.38,1,16.58,1,17.61,3.11S243.62,192.93,244.67,194.77Z"/><path class="cls-5" d="M139,137.16A280.43,280.43,0,0,1,118.26,116c-4.14-5.08-9.32-23.71,10.37-26.25s34.19,22.87,34.19,22.87Z"/><path class="cls-2" d="M153.5,113.44s-9.33-12.7-19.69-11-6.22,10.17-6.22,11S138,125.3,139,123.61,154.53,115.14,153.5,113.44Z"/><path class="cls-4" d="M208.8,135c-6.21-3.61-12.45,0-14.76-.7-2.61,1.43-7.53,3.66,3.18,4.63s10.41,3.1,13.3,2.49S211.4,136.54,208.8,135Z"/><path class="cls-4" d="M213.8,134.61c.51-2.79,3.89-3.32,4.34-4.16,1.39-.24,3.82-.86.86,2.3s-2,3.75-3.18,4.33S213.59,135.77,213.8,134.61Z"/><ellipse cx="208.94" cy="150.47" rx="6.53" ry="4.66" transform="translate(-45.2 191.81) rotate(-45)"/><path d="M226.48,160.37c.6.43,7.13,5.15,9.4,11.08a10.26,10.26,0,0,1,.71,3.26c-.09,1.82-1.68.22-2.91,1.5-.82.85-.41,1.86-1.34,2.14-.17.05-1.64.49-2.92-1.39-1-1.41-1-2.87-2.19-7.56-1.54-5.93-3-9.05-2.3-9.68C225.12,159.55,225.44,159.61,226.48,160.37Z"/><path class="cls-6" d="M233.81,174.33a17.89,17.89,0,0,0,2.07,7.25c2.07,4.15-4.14,3.11-4.14,1"/><path class="cls-9" d="M112.37,325.19l-19.16-3.46,12,12.88-2.66,22.16,13.54-17.56-2,28.43,11.87-11.75s7.55.13,9.08,1.86-2.4-9-2.4-9"/><polyline class="cls-9" points="162.31 173.81 158.16 193.5 154.02 180.03 151.94 202.82 146.76 186.24 146.76 216.29 140.54 201.79"/><path class="cls-10" d="M158,251.05c7.66,0,7.67-11.91,0-11.91s-7.68,11.91,0,11.91Z"/><path class="cls-10" d="M168.11,354.7c7.66,0,7.67-11.91,0-11.91s-7.67,11.91,0,11.91Z"/><path class="cls-11" d="M106.74,413.74,140,390.21a5.2,5.2,0,1,0-3.55-4.46l-33,23.34Z"/><path class="cls-11" d="M131.35,414.62s-12.81-10.25-22.17-5v0a4.11,4.11,0,1,0-1.56,4.45Z"/><path class="cls-11" d="M145.4,387.92l21-29.94a9.44,9.44,0,0,0,7.58-2.25l.13.12s8.12-.72,9.25-6.69a36.09,36.09,0,0,1-7.32,4,9.13,9.13,0,0,0,.71-1.64c2.05-.89,6.52-3.15,6.2-5.77,0,0-5,4.32-5.66,3.6s5.55-2.26,3.8-5.76a41.23,41.23,0,0,1-4.07,3.09,9.13,9.13,0,0,0-.36-1.31c1.46-1.62,3.41-3.91,1.35-5.38a12.91,12.91,0,0,1-2.26,3.52,9.53,9.53,0,0,0-2.07-2.31,4.07,4.07,0,0,0-1.54-3.67s-.09,1.28-.31,2.5a9.35,9.35,0,0,0-3.91-.92c-1.23-1.12-2.76-2-4.52-1.57a18.2,18.2,0,0,1,.6,2.34,9.48,9.48,0,0,0-5.16,12,9.86,9.86,0,0,0,.57,1.23l-21,29.93Z"/><path class="cls-11" d="M245.94,200.35c-4.23-2.94-11.31,0-15.81,6.46-3.39,4.9-4.35,10.45-2.8,14.15l-31.1,45a7.1,7.1,0,0,0-4.65,11.53,7,7,0,0,1-4.65.67c-.57,1.59,4.44,1.17,6.49.93a6.47,6.47,0,0,0,.63.34l-2.56,4.86c3,.06,5-2.19,6.17-4.2a6.57,6.57,0,0,0,1.15-.19l-.73,9.89c2.7-1.54,4.25-9.45,4.78-12.64a6.07,6.07,0,0,0,.44-.68l3.56,10.15c1.71-1.64-1.54-10.34-2.68-13.21a7.16,7.16,0,0,0-.18-2.06l32.29-46.69a18,18,0,0,0,9.18-7.18C250,210.94,250.18,203.29,245.94,200.35Z"/><path class="cls-11" d="M199.32,269.37,167.05,245.6a8.93,8.93,0,0,0-.83-4.17,8.84,8.84,0,0,0-1.69-2.45h0s-5.44-8.35-11.79-8.52a56.4,56.4,0,0,1,6.73,5.88,8.66,8.66,0,0,0-2.1-.07c-1.51-1.79-3.3-3.3-5.15-2.43a38.45,38.45,0,0,1,3.76,2.63,9.5,9.5,0,0,0-1.42.48c-1.79-1.27-4-2.43-5.38-.65,0,0,2.2.39,4.52,1.07a8.6,8.6,0,0,0-2.13,1.63c-1.63-.23-3.32-.13-3.76,1.08a10.43,10.43,0,0,1,2.56.47,9.11,9.11,0,0,0-1.24,3.57c-1.64,0-3.13.11-3.15,1a17.33,17.33,0,0,1,3.11.82,8.85,8.85,0,0,0,.81,3.1,9,9,0,0,0,9.56,5.09l33.39,24.6C198.74,283.07,205.23,273.72,199.32,269.37Z"/></g><g id="_2step" data-name="2step"><path class="cls-1" d="M439.22,215.56,479.3,215a8.86,8.86,0,0,0,3.18,2.82,9,9,0,0,0,2.82.93h0s9.38,3.38,14.56-.32a56,56,0,0,1-8.92-.62,9.14,9.14,0,0,0,1.71-1.21c2.29.51,4.62.63,5.58-1.18a37.59,37.59,0,0,1-4.59.17,8.88,8.88,0,0,0,.84-1.23c2.19-.07,4.63-.46,4.68-2.73a45.23,45.23,0,0,1-4.24,1.87,9.28,9.28,0,0,0,.71-2.58c1.44-.81,2.73-1.9,2.35-3.14a10.08,10.08,0,0,1-2.33,1.17,9,9,0,0,0-1.17-3.59c1.3-1,2.43-2,1.92-2.7a18.07,18.07,0,0,1-3,1.23,9,9,0,0,0-13.21-.27l-41.47.54C431.42,204.29,431.89,215.66,439.22,215.56Z"/><path class="cls-1" d="M412.87,293.22c4.94,1.47,10.76-3.49,13-11.08,1.69-5.71.86-11.28-1.76-14.31q7.74-26.22,15.47-52.44a7.09,7.09,0,0,0,.81-12.41,7.06,7.06,0,0,1,4.21-2.09c0-1.69-4.58.28-6.46,1.15a5.73,5.73,0,0,0-.7-.13l.91-5.42c-2.86.88-4.05,3.64-4.54,5.92a6.84,6.84,0,0,0-1,.54l-2.4-9.62c-2.08,2.31-1.09,10.3-.59,13.5a7.44,7.44,0,0,0-.2.78L423,199.09c-1.11,2.09,4.7,9.34,6.68,11.71a6.9,6.9,0,0,0,.82,1.89l-16.08,54.46a18,18,0,0,0-6.47,9.68C405.73,284.42,407.92,291.76,412.87,293.22Z"/><ellipse class="cls-2" cx="416.36" cy="280.26" rx="9.7" ry="6.11" transform="translate(2.51 564.2) rotate(-68.4)"/><path class="cls-1" d="M560.36,380l-25.63-31.72a5.2,5.2,0,1,0-4.21,3.83l25.42,31.46Z"/><path class="cls-1" d="M576,362.52s-16,3.53-17.84,14.08h0a4,4,0,1,0,2.22,5.25,4.25,4.25,0,0,0,.27-1.24Z"/><path class="cls-1" d="M532.4,343.41l-29.56-21.57a9.53,9.53,0,0,0-.4-4.62,9.36,9.36,0,0,0-1.72-3l.13-.13s-.58-8.14-6.53-9.37a35.81,35.81,0,0,1,3.89,7.39,10.86,10.86,0,0,0-1.63-.74c-.85-2.06-3-6.57-5.66-6.3,0,0,4.23,5.12,3.5,5.72s-2.16-5.59-5.69-3.9a43.73,43.73,0,0,1,3,4.12,10.67,10.67,0,0,0-1.32.34c-1.6-1.49-3.85-3.48-5.35-1.44a12.76,12.76,0,0,1,3.48,2.32,9.55,9.55,0,0,0-2.35,2,4.11,4.11,0,0,0-3.7,1.48s1.28.12,2.5.36a9.46,9.46,0,0,0-1,3.89,5,5,0,0,0-1.65,4.49,18.61,18.61,0,0,1,2.36-.56,9.46,9.46,0,0,0,11.86,5.37,9.11,9.11,0,0,0,1.24-.54l29.55,21.56Z"/><path class="cls-3" d="M541.84,82.51c-1-3.38-12.44-22-20.73-25.41s-16.58-3.38-17.61,2.55,2.07,17.78,8.29,20.32S541.84,82.51,541.84,82.51Z"/><path class="cls-4" d="M421.43,339a54.16,54.16,0,0,1-3.42,8.26c-7.26-6.21-25.46-7.71-7.26,6.22,7.63,2.44,18.48,3,17.33-5.84C425.7,344.25,421.43,339,421.43,339Z"/><path class="cls-5" d="M539.25,363.83c-16.56,1.05-57,13.76-70.47,10.37s-68.91-8.8-47.15-81.64,40.42-117.73,41.45-131.28,7.26-60.13,8.29-62.67S497.28,52,553.24,85.05c12.43,9.32,21.76,25.41,25.91,36.42s17.61,38.12,15.54,45.74-3.11,11.86-21.76,6.78-44.56-7.63-29,19.48,25.91,22,28,19.48,21.76-20.33,31.09-7.63,7.25,26.26,13.47,34.73c1.94,2.63,9.79,9.12,19.41,18.09,21.3,19.85,51.26,51.83,44.84,81C671.37,381.49,579.66,361.29,539.25,363.83Z"/><path class="cls-2" d="M619.1,281.33c-3.15,4.72-5.65,11.59-9.72,15.45S568.73,314,579.05,338.22,605,364,622.15,365.91c18.65,2.07,80.16-6.48,57.11-53.47s-48.35-46.14-50.84-44.64-6.95,1.93-8.14,7.73Z"/><ellipse cx="674.48" cy="335.76" rx="3.11" ry="5.93"/><ellipse cx="572.41" cy="120.2" rx="3.63" ry="6.35"/><path class="cls-6" d="M574,139.26c-5.18,6.78-8.29,15.25,0,13.55a31.81,31.81,0,0,1,5.18-.56c5.69-.22,9.23.4,5.19-6.21-5.18-8.47-4.15-11.86-7.26-9.32Z"/><path class="cls-6" d="M579.15,149.42c0,1.7,2.07,6.78,0,7.63s-5.19.84-6.22-.85"/><path class="cls-7" d="M584.33,178.22c-3.86,4.73-6.22,7.62-12.44,3.39S574,169.75,576,168.9,586.4,175.68,584.33,178.22Z"/><path class="cls-7" d="M561.53,166.36c3,2.47,1,10.17,0,11.86s-9.33,3.39-12.44,0-6.21-11.86-2.07-12.7S558.42,163.82,561.53,166.36Z"/><path class="cls-8" d="M592.62,205.32c-3.11-2.54-15.55-12.7-28-11.85S545,197.7,545,201.09s7.25,22.87,21.76,18.63S595.73,207.86,592.62,205.32Z"/><line class="cls-6" x1="564.64" y1="207.86" x2="572.93" y2="194.31"/><path class="cls-2" d="M546,151.12c-10.36,8.47-20.2,8.57-19.17,54.17.52,24.93,8.41,36.69,31.09,36.26,8.34-.15,20.21-5.18,28-9.32s27.46-11.66,22.28-19.28-10-10-14.33-10.95-21.94,11.79-27.12,11.79-40.44-28.21-26.94-40.65,44.86,8.66,45.75,3.06,10.21.33,9.17-9a65.57,65.57,0,0,0-3.19-13.7c-3-8.8-8.47-18.59-17.54-24.41-8.29,2.54-12.43,11.85-17.61,16.94S546,151.12,546,151.12Z"/><path class="cls-6" d="M589,155.54s.78,7.91-5.31-4.33"/><path d="M594.67,169.77s-.23,12-26.79,2.49-30.2,4.58-31,5.85c-1.81,2.3,20,36.5,29.28,34.43,17-4.18,17.17-9.85,22.83-10.88s8.84-.61,10.88.73-3.14,12.74-22.83,14.81-25.9,1-35.23-13.47-13.47-35.23-5.18-40.41,35.23,0,39.38,1,16.58,1,17.61,3.11S593.62,167.93,594.67,169.77Z"/><path class="cls-5" d="M489,112.16A280.43,280.43,0,0,1,468.26,91c-4.14-5.08-9.32-23.71,10.37-26.25S512.82,87.6,512.82,87.6Z"/><path class="cls-2" d="M503.5,88.44s-9.33-12.7-19.69-11-6.22,10.17-6.22,11S488,100.3,489,98.61,504.53,90.14,503.5,88.44Z"/><path class="cls-4" d="M558.8,110c-6.21-3.61-12.45,0-14.76-.7-2.61,1.43-7.53,3.66,3.18,4.63s10.41,3.1,13.3,2.49S561.4,111.54,558.8,110Z"/><path class="cls-4" d="M563.8,109.61c.51-2.79,3.89-3.32,4.34-4.16,1.39-.24,3.82-.86.86,2.3s-2,3.75-3.18,4.33S563.59,110.77,563.8,109.61Z"/><ellipse cx="558.94" cy="125.47" rx="6.53" ry="4.66" transform="translate(74.99 431.98) rotate(-45)"/><path d="M576.48,135.37c.6.43,7.13,5.15,9.4,11.08a10.26,10.26,0,0,1,.71,3.26c-.09,1.82-1.68.22-2.91,1.5-.82.85-.41,1.86-1.34,2.14-.17.05-1.64.49-2.92-1.39-1-1.41-1-2.87-2.19-7.56-1.54-5.93-3-9.05-2.3-9.68C575.12,134.55,575.44,134.61,576.48,135.37Z"/><path class="cls-6" d="M583.81,149.33a17.89,17.89,0,0,0,2.07,7.25c2.07,4.15-4.14,3.11-4.14,1"/><path class="cls-9" d="M462.37,300.19l-19.16-3.46,12,12.88-2.66,22.16,13.54-17.56-2.05,28.43,11.87-11.75s7.55.13,9.08,1.86-2.4-9-2.4-9"/><polyline class="cls-9" points="512.31 148.81 508.16 168.5 504.02 155.03 501.94 177.82 496.76 161.24 496.76 191.29 490.55 176.79"/><path class="cls-10" d="M508,226.05c7.66,0,7.67-11.91,0-11.91s-7.68,11.91,0,11.91Z"/><path class="cls-10" d="M518.11,329.7c7.66,0,7.67-11.91,0-11.91s-7.67,11.91,0,11.91Z"/><path class="cls-11" d="M472.17,401.36l22.89-33.75a5.16,5.16,0,0,0,4.31-2.58,5.21,5.21,0,1,0-9.2-.34l-22.71,33.47Z"/><path class="cls-11" d="M490.92,415.15S484.69,400,474,400v0a4,4,0,1,0-4.79,3.09,4.19,4.19,0,0,0,1.27.05Z"/><path class="cls-11" d="M498.8,364.71l18.43-31.62a9.41,9.41,0,0,0,4.55-.87,9.28,9.28,0,0,0,2.81-2l.14.11s8-1.42,8.65-7.46a35.85,35.85,0,0,1-7,4.63,10.29,10.29,0,0,0,.57-1.7c2-1.06,6.22-3.68,5.68-6.27,0,0-4.65,4.73-5.33,4.07s5.34-2.73,3.3-6.06a42.12,42.12,0,0,1-3.79,3.42,9.68,9.68,0,0,0-.47-1.27c1.32-1.75,3.06-4.19.88-5.48a12.7,12.7,0,0,1-1.95,3.7,9.46,9.46,0,0,0-2.25-2.13,4.09,4.09,0,0,0-1.85-3.52s0,1.28-.1,2.51a9.54,9.54,0,0,0-4-.58c-1.33-1-2.93-1.77-4.64-1.18a18.28,18.28,0,0,1,.8,2.28,9.46,9.46,0,0,0-4.13,12.35,8.55,8.55,0,0,0,.67,1.18l-18.42,31.6Z"/><path class="cls-11" d="M615.77,218.26c-2.24-4.64-9.83-5.62-16.95-2.17-5.36,2.59-8.93,6.94-9.41,10.92l-49.23,23.8a7,7,0,0,0-4.47-.33,7.12,7.12,0,0,0-5.26,8.08,7.08,7.08,0,0,1-4.37-1.72c-1.28,1.11,3.29,3.21,5.19,4,.12.2.24.4.38.6l-4.62,3c2.57,1.52,5.41.55,7.43-.62a6.9,6.9,0,0,0,1.1.41l-5.51,8.24c3.1,0,8.36-6.12,10.39-8.64a6.85,6.85,0,0,0,.71-.37L539.25,274c2.3-.58,3.76-9.76,4.18-12.82a7.12,7.12,0,0,0,.86-1.88l51.11-24.7a17.94,17.94,0,0,0,11.52-1.73C614.05,229.46,618,222.91,615.77,218.26Z"/><path class="cls-11" d="M540.55,255.27l-24-32.08a9,9,0,0,0,.41-4.23,9.21,9.21,0,0,0-.91-2.83h0s-2.8-9.57-8.84-11.57a55.69,55.69,0,0,1,4.75,7.58,8.91,8.91,0,0,0-2-.68c-.93-2.15-2.21-4.1-4.24-3.81a37.29,37.29,0,0,1,2.84,3.61,9.31,9.31,0,0,0-1.49,0c-1.35-1.73-3.1-3.46-5-2.17,0,0,2,1,4,2.33a8.73,8.73,0,0,0-2.5.94c-1.5-.68-3.15-1.08-3.92-.05a10.57,10.57,0,0,1,2.31,1.19,9.2,9.2,0,0,0-2.21,3.06c-1.57-.46-3-.79-3.31.05a18,18,0,0,1,2.74,1.68,9,9,0,0,0,7.57,10.84l24.86,33.19C536,268.22,545,261.14,540.55,255.27Z"/></g><g id="step3"><path class="cls-1" d="M791.69,240.31l38.9-9.64a9,9,0,0,0,6.7,2.29h0s9.9,1.15,14.1-3.63a56.2,56.2,0,0,1-8.83,1.42,8.74,8.74,0,0,0,1.4-1.57c2.34,0,4.64-.43,5.16-2.41a39.32,39.32,0,0,1-4.43,1.21,9.31,9.31,0,0,0,.54-1.39c2.12-.57,4.4-1.51,3.93-3.73,0,0-1.7,1.44-3.7,2.79a8.91,8.91,0,0,0,.1-2.67c1.22-1.12,2.23-2.48,1.57-3.59a10.31,10.31,0,0,1-2,1.67,9,9,0,0,0-2-3.23c1-1.27,1.92-2.49,1.25-3.07a17.9,17.9,0,0,1-2.62,1.87,9,9,0,0,0-12.92,2.75l-40.26,10C781.52,231.11,784.57,242.07,791.69,240.31Z"/><path class="cls-1" d="M808,320c5-1.15,7.67-8.32,5.91-16-1.32-5.81-4.77-10.26-8.54-11.62L793.22,239a7.1,7.1,0,0,0-5.37-11.22,7,7,0,0,1,2.65-3.88c-.8-1.5-3.87,2.49-5.08,4.16-.23.07-.45.15-.67.24l-1.86-5.17c-2.06,2.16-1.75,5.15-1.07,7.38a5.85,5.85,0,0,0-.63,1l-6.81-7.22c-.68,3,4.1,9.52,6.1,12.06a6.36,6.36,0,0,0,.2.78l-9.89-4.22c.06,2.37,8.67,5.85,11.56,7a7.42,7.42,0,0,0,1.64,1.25q6.33,27.67,12.65,55.35a17.93,17.93,0,0,0-.9,11.61C797.5,315.79,803,321.12,808,320Z"/><ellipse class="cls-2" cx="804.72" cy="306.96" rx="6.11" ry="9.7" transform="translate(-33.92 110.78) rotate(-7.71)"/><path class="cls-1" d="M900.73,403.35,878,369.48a5.2,5.2,0,1,0-4.54,3.44L896,406.51Z"/><path class="cls-1" d="M912.61,382.16s-15.05,6.55-14.8,17.26h0a4,4,0,1,0,3.18,4.72,3.88,3.88,0,0,0,0-1.27Z"/><path class="cls-1" d="M876.58,364.85l-24.37-27.3a9.48,9.48,0,0,0-.46-7.9l.15-.1s1.14-8.08-4.41-10.53a35.89,35.89,0,0,1,2.24,8,9.88,9.88,0,0,0-1.44-1.06c-.4-2.2-1.57-7.06-4.2-7.35,0,0,3.06,5.89,2.22,6.33s-.94-5.93-4.75-5a42.18,42.18,0,0,1,2.08,4.67,10.28,10.28,0,0,0-1.35.05c-1.25-1.79-3-4.21-4.93-2.53a12.75,12.75,0,0,1,2.91,3,9.31,9.31,0,0,0-2.72,1.48,4.1,4.1,0,0,0-3.92.67s1.22.39,2.36.87a9.52,9.52,0,0,0-1.79,3.6c-1.37,1-2.59,2.23-2.56,4a19.07,19.07,0,0,1,2.42-.05,9.48,9.48,0,0,0,10.47,7.75,11.18,11.18,0,0,0,1.33-.27l24.35,27.29Z"/><path class="cls-3" d="M891.84,96.51c-1-3.38-12.44-22-20.73-25.41s-16.58-3.38-17.61,2.55,2.07,17.78,8.29,20.32S891.84,96.51,891.84,96.51Z"/><path class="cls-4" d="M771.43,353a54.16,54.16,0,0,1-3.42,8.26c-7.26-6.21-25.46-7.71-7.26,6.22,7.63,2.44,18.48,3,17.33-5.84C775.7,358.25,771.43,353,771.43,353Z"/><path class="cls-5" d="M889.25,377.83c-16.56,1.05-57,13.76-70.47,10.37s-68.91-8.8-47.15-81.64,40.42-117.73,41.45-131.28,7.26-60.13,8.29-62.67S847.28,66,903.24,99.05c12.43,9.32,21.76,25.41,25.91,36.42s17.61,38.12,15.54,45.74-3.11,11.86-21.76,6.78-44.56-7.63-29,19.48,25.91,22,28,19.48,21.76-20.33,31.09-7.63,7.25,26.26,13.47,34.73c1.94,2.63,9.79,9.12,19.41,18.09,21.3,19.85,51.26,51.83,44.84,81C1021.37,395.49,929.66,375.29,889.25,377.83Z"/><path class="cls-2" d="M969.1,295.33c-3.15,4.72-5.65,11.59-9.72,15.45S918.73,328,929.05,352.22,955,378,972.15,379.91c18.65,2.07,80.16-6.48,57.11-53.47s-48.35-46.14-50.84-44.64-6.95,1.93-8.14,7.73Z"/><ellipse cx="1024.48" cy="349.76" rx="3.11" ry="5.93"/><ellipse cx="922.41" cy="134.2" rx="3.63" ry="6.35"/><path class="cls-6" d="M924,153.26c-5.18,6.78-8.29,15.25,0,13.55a31.81,31.81,0,0,1,5.18-.56c5.69-.22,9.23.4,5.19-6.21-5.18-8.47-4.15-11.86-7.26-9.32Z"/><path class="cls-6" d="M929.15,163.42c0,1.7,2.07,6.78,0,7.63s-5.19.84-6.22-.85"/><path class="cls-7" d="M934.33,192.22c-3.86,4.73-6.22,7.62-12.44,3.39S924,183.75,926,182.9,936.4,189.68,934.33,192.22Z"/><path class="cls-7" d="M911.53,180.36c3,2.47,1,10.17,0,11.86s-9.33,3.39-12.44,0-6.21-11.86-2.07-12.7S908.42,177.82,911.53,180.36Z"/><path class="cls-8" d="M942.62,219.32c-3.11-2.54-15.55-12.7-28-11.85S895,211.7,895,215.09s7.25,22.87,21.76,18.63S945.73,221.86,942.62,219.32Z"/><line class="cls-6" x1="914.64" y1="221.86" x2="922.93" y2="208.31"/><path class="cls-2" d="M896,165.12c-10.36,8.47-20.2,8.57-19.17,54.17.52,24.93,8.41,36.69,31.09,36.26,8.34-.15,20.21-5.18,28-9.32s27.46-11.66,22.28-19.28-10-10-14.33-10.95-21.94,11.79-27.12,11.79-40.44-28.21-26.94-40.65,44.86,8.66,45.75,3.06,10.21.33,9.17-9a65.57,65.57,0,0,0-3.19-13.7c-3-8.8-8.47-18.59-17.54-24.41-8.29,2.54-12.43,11.85-17.61,16.94S896,165.12,896,165.12Z"/><path class="cls-6" d="M939,169.54s.78,7.91-5.31-4.33"/><path d="M944.67,183.77s-.23,12-26.79,2.49-30.2,4.58-31,5.85c-1.81,2.3,20,36.5,29.28,34.43,17-4.18,17.17-9.85,22.83-10.88s8.84-.61,10.88.73-3.14,12.74-22.83,14.81-25.9,1-35.23-13.47-13.47-35.23-5.18-40.41,35.23,0,39.38,1,16.58,1,17.61,3.11S943.62,181.93,944.67,183.77Z"/><path class="cls-5" d="M839,126.16A280.43,280.43,0,0,1,818.26,105c-4.14-5.08-9.32-23.71,10.37-26.25s34.19,22.87,34.19,22.87Z"/><path class="cls-2" d="M853.5,102.44s-9.33-12.7-19.69-11-6.22,10.17-6.22,11S838,114.3,839,112.61,854.53,104.14,853.5,102.44Z"/><path class="cls-4" d="M908.8,124c-6.21-3.61-12.45,0-14.76-.7-2.61,1.43-7.53,3.66,3.18,4.63s10.41,3.1,13.3,2.49S911.4,125.54,908.8,124Z"/><path class="cls-4" d="M913.8,123.61c.51-2.79,3.89-3.32,4.34-4.16,1.39-.24,3.82-.86.86,2.3s-2,3.75-3.18,4.33S913.59,124.77,913.8,123.61Z"/><ellipse cx="908.94" cy="139.47" rx="6.53" ry="4.66" transform="translate(167.6 683.57) rotate(-45)"/><path d="M926.48,149.37c.6.43,7.13,5.15,9.4,11.08a10.26,10.26,0,0,1,.71,3.26c-.09,1.82-1.68.22-2.91,1.5-.82.85-.41,1.86-1.34,2.14-.17.05-1.64.49-2.92-1.39-1-1.41-1-2.87-2.19-7.56-1.54-5.93-3-9.05-2.3-9.68C925.12,148.55,925.44,148.61,926.48,149.37Z"/><path class="cls-6" d="M933.81,163.33a17.89,17.89,0,0,0,2.07,7.25c2.07,4.15-4.14,3.11-4.14,1"/><path class="cls-9" d="M812.37,314.19l-19.16-3.46,12,12.88-2.66,22.16,13.54-17.56-2.05,28.43,11.87-11.75s7.55.13,9.08,1.86-2.4-9-2.4-9"/><polyline class="cls-9" points="862.31 162.81 858.16 182.5 854.02 169.03 851.94 191.82 846.76 175.24 846.76 205.29 840.54 190.79"/><path class="cls-10" d="M858,240.05c7.66,0,7.67-11.91,0-11.91s-7.68,11.91,0,11.91Z"/><path class="cls-10" d="M868.11,343.7c7.66,0,7.67-11.91,0-11.91s-7.67,11.91,0,11.91Z"/><path class="cls-11" d="M812.72,393l40.11-7.31a5.21,5.21,0,1,0-1.34-5.54l-39.79,7.25Z"/><path class="cls-11" d="M809.28,416s10.19-12.87,4.92-22.2h0a4,4,0,1,0-5-2.67,4.08,4.08,0,0,0,.58,1.14Z"/><path class="cls-11" d="M861.36,382.37l8.5-35.59a9.41,9.41,0,0,0,6.22-4.9l.17.07s7.28-3.67,6.12-9.63a35.55,35.55,0,0,1-5.32,6.43,8.91,8.91,0,0,0,.06-1.79c1.57-1.58,4.89-5.32,3.63-7.64,0,0-3.09,5.87-3.93,5.43s4.33-4.15,1.41-6.76a42.15,42.15,0,0,1-2.65,4.38,9.32,9.32,0,0,0-.81-1.09c.76-2,1.72-4.89-.74-5.49a12.85,12.85,0,0,1-.8,4.1,9.33,9.33,0,0,0-2.77-1.38,4.08,4.08,0,0,0-2.79-2.84s.38,1.22.64,2.43a9.53,9.53,0,0,0-4,.59c-1.56-.58-3.31-.85-4.78.21a20,20,0,0,1,1.43,2,9.48,9.48,0,0,0-.39,13,10.82,10.82,0,0,0,1,.94l-8.5,35.57Z"/><path class="cls-11" d="M970.44,260.5c-.73-5.11-7.67-8.33-15.5-7.2-5.89.85-10.61,3.93-12.27,7.58l-54.11,7.81a7.1,7.1,0,0,0-11.62,4.45,7.07,7.07,0,0,1-3.65-3c-1.56.67,2.17,4.05,3.74,5.4a5.23,5.23,0,0,0,.18.68l-5.31,1.44c2,2.23,5,2.16,7.27,1.66a7.14,7.14,0,0,0,.93.71l-7.74,6.2c3,.93,9.81-3.31,12.51-5.1a6.86,6.86,0,0,0,.79-.14l-5,9.52c2.36.14,6.52-8.17,7.85-11a7.17,7.17,0,0,0,1.38-1.53l56.2-8.12a17.93,17.93,0,0,0,11.5,1.84C965.42,270.65,971.17,265.6,970.44,260.5Z"/><path class="cls-11" d="M887.34,272l-21.12-34.07a8.87,8.87,0,0,0,.77-4.18,9,9,0,0,0-.65-2.9h0s-2-9.77-7.79-12.3a55.89,55.89,0,0,1,4.07,8,8.91,8.91,0,0,0-1.92-.85c-.74-2.22-1.84-4.29-3.88-4.17a38.53,38.53,0,0,1,2.51,3.84,9.24,9.24,0,0,0-1.49-.08c-1.19-1.85-2.79-3.73-4.76-2.61,0,0,1.9,1.18,3.8,2.67a9.23,9.23,0,0,0-2.58.73c-1.43-.82-3-1.36-3.9-.4a10.55,10.55,0,0,1,2.2,1.39,9.26,9.26,0,0,0-2.47,2.85c-1.53-.59-3-1.06-3.3-.24a17,17,0,0,1,2.58,1.92A9,9,0,0,0,856,243l21.86,35.25C881.7,284.5,891.2,278.23,887.34,272Z"/></g><g id="step4"><path class="cls-1" d="M1157.64,272.74l27.87-28.8a8.93,8.93,0,0,0,6.89-1.62h0s9-4.27,10-10.55a56.06,56.06,0,0,1-6.73,5.89,9,9,0,0,0,.36-2.07c2-1.26,3.7-2.83,3.09-4.78a38.86,38.86,0,0,1-3.11,3.37,9.51,9.51,0,0,0-.28-1.47c1.49-1.6,2.93-3.61,1.36-5.24,0,0-.68,2.12-1.67,4.33a8.71,8.71,0,0,0-1.33-2.32c.44-1.59.58-3.28-.57-3.88a10,10,0,0,1-.81,2.47,9.25,9.25,0,0,0-3.37-1.7c.21-1.62.31-3.12-.57-3.26a17.77,17.77,0,0,1-1.22,3,8.95,8.95,0,0,0-9.5,9.18l-28.84,29.81C1144.13,270.34,1152.54,278,1157.64,272.74Z"/><path class="cls-1" d="M1226.44,315.34c2.69-4.4-.6-11.3-7.36-15.42-5.08-3.1-10.68-3.74-14.28-2l-46.69-28.46a7.09,7.09,0,0,0-11.78-4,7.11,7.11,0,0,1-.94-4.61c-1.62-.48-.91,4.5-.55,6.54-.11.21-.21.42-.3.64l-5-2.27c.11,3,2.47,4.85,4.54,5.91a6.28,6.28,0,0,0,.26,1.14l-9.92-.16c1.7,2.61,9.68,3.71,12.9,4.05a7.94,7.94,0,0,0,.7.4l-9.93,4.14c1.74,1.61,10.24-2.14,13-3.44a7,7,0,0,0,2-.3l48.48,29.55a18,18,0,0,0,7.7,8.75C1216.1,320,1223.75,319.74,1226.44,315.34Z"/><ellipse class="cls-2" cx="1214.81" cy="308.63" rx="6.11" ry="9.7" transform="translate(243.81 1101.2) rotate(-53.48)"/><path class="cls-1" d="M1252,411.72l-18.86-36.15a5.21,5.21,0,1,0-4.89,2.92L1247,414.35Z"/><path class="cls-1" d="M1274.89,414.45s-13.13-9.84-22.31-4.33v0a4.07,4.07,0,1,0-1.41,4.5Z"/><path class="cls-1" d="M1231.31,369.91,1202.79,347a9.47,9.47,0,0,0-1.75-7.72l.13-.12s-.2-8.15-6.08-9.66a35.93,35.93,0,0,1,3.53,7.56,9.94,9.94,0,0,0-1.59-.82c-.75-2.09-2.71-6.7-5.35-6.55,0,0,4,5.3,3.23,5.87s-1.91-5.68-5.51-4.16a41.88,41.88,0,0,1,2.82,4.26,9,9,0,0,0-1.33.28c-1.52-1.57-3.68-3.66-5.28-1.69a12.76,12.76,0,0,1,3.37,2.47,9.38,9.38,0,0,0-2.44,1.92,4.09,4.09,0,0,0-3.76,1.3s1.26.18,2.47.47a9.35,9.35,0,0,0-1.17,3.84c-1.2,1.16-2.19,2.63-1.86,4.41a20.43,20.43,0,0,1,2.38-.45,9.47,9.47,0,0,0,11.59,5.93,9.26,9.26,0,0,0,1.27-.49l28.5,22.93Z"/><path class="cls-3" d="M1241.84,107.51c-1-3.38-12.44-22-20.73-25.41s-16.58-3.38-17.61,2.55,2.07,17.78,8.29,20.32S1241.84,107.51,1241.84,107.51Z"/><path class="cls-4" d="M1121.43,364a54.16,54.16,0,0,1-3.42,8.26c-7.26-6.21-25.46-7.71-7.26,6.22,7.63,2.44,18.48,3,17.33-5.84C1125.7,369.25,1121.43,364,1121.43,364Z"/><path class="cls-5" d="M1239.25,388.83c-16.56,1.05-57,13.76-70.47,10.37s-68.91-8.8-47.15-81.64,40.42-117.73,41.45-131.28,7.26-60.13,8.29-62.67,25.91-46.59,81.87-13.56c12.43,9.32,21.76,25.41,25.91,36.42s17.61,38.12,15.54,45.74-3.11,11.86-21.76,6.78-44.56-7.63-29,19.48,25.91,22,28,19.48,21.76-20.33,31.09-7.63,7.25,26.26,13.47,34.73c1.94,2.63,9.79,9.12,19.41,18.09,21.3,19.85,51.26,51.83,44.84,81C1371.37,406.49,1279.66,386.29,1239.25,388.83Z"/><path class="cls-2" d="M1319.1,306.33c-3.15,4.72-5.65,11.59-9.72,15.45s-40.65,17.18-30.33,41.44,25.93,25.78,43.1,27.69c18.65,2.07,80.16-6.48,57.11-53.47s-48.35-46.14-50.84-44.64-7,1.93-8.14,7.73Z"/><ellipse cx="1374.48" cy="360.76" rx="3.11" ry="5.93"/><ellipse cx="1272.41" cy="145.2" rx="3.63" ry="6.35"/><path class="cls-6" d="M1274,164.26c-5.18,6.78-8.29,15.25,0,13.55a31.81,31.81,0,0,1,5.18-.56c5.69-.22,9.23.4,5.19-6.21-5.18-8.47-4.15-11.86-7.26-9.32Z"/><path class="cls-6" d="M1279.15,174.42c0,1.7,2.07,6.78,0,7.63s-5.19.84-6.22-.85"/><path class="cls-7" d="M1284.33,203.22c-3.86,4.73-6.22,7.62-12.44,3.39s2.07-11.86,4.15-12.71S1286.4,200.68,1284.33,203.22Z"/><path class="cls-7" d="M1261.53,191.36c3,2.47,1,10.17,0,11.86s-9.33,3.39-12.44,0-6.21-11.86-2.07-12.7S1258.42,188.82,1261.53,191.36Z"/><path class="cls-8" d="M1292.62,230.32c-3.11-2.54-15.55-12.7-28-11.85S1245,222.7,1245,226.09s7.25,22.87,21.76,18.63S1295.73,232.86,1292.62,230.32Z"/><line class="cls-6" x1="1264.64" y1="232.86" x2="1272.93" y2="219.31"/><path class="cls-2" d="M1246,176.12c-10.36,8.47-20.2,8.57-19.17,54.17.52,24.93,8.41,36.69,31.09,36.26,8.34-.15,20.21-5.18,28-9.32s27.46-11.66,22.28-19.28-10-10-14.33-10.95-21.94,11.79-27.12,11.79-40.44-28.21-26.94-40.65,44.86,8.66,45.75,3.06,10.21.33,9.17-9a65.57,65.57,0,0,0-3.19-13.7c-3-8.8-8.47-18.59-17.54-24.41-8.29,2.54-12.43,11.85-17.61,16.94S1246,176.12,1246,176.12Z"/><path class="cls-6" d="M1289,180.54s.78,7.91-5.31-4.33"/><path d="M1294.67,194.77s-.23,12-26.79,2.49-30.2,4.58-31,5.85c-1.81,2.3,20,36.5,29.28,34.43,17-4.18,17.17-9.85,22.83-10.88s8.84-.61,10.88.73-3.14,12.74-22.83,14.81-25.9,1-35.23-13.47-13.47-35.23-5.18-40.41,35.23,0,39.38,1,16.58,1,17.61,3.11S1293.62,192.93,1294.67,194.77Z"/><path class="cls-5" d="M1189,137.16A280.43,280.43,0,0,1,1168.26,116c-4.14-5.08-9.32-23.71,10.37-26.25s34.19,22.87,34.19,22.87Z"/><path class="cls-2" d="M1203.5,113.44s-9.33-12.7-19.69-11-6.22,10.17-6.22,11S1188,125.3,1189,123.61,1204.53,115.14,1203.5,113.44Z"/><path class="cls-4" d="M1258.8,135c-6.21-3.61-12.45,0-14.76-.7-2.61,1.43-7.53,3.66,3.18,4.63s10.41,3.1,13.3,2.49S1261.4,136.54,1258.8,135Z"/><path class="cls-4" d="M1263.8,134.61c.51-2.79,3.89-3.32,4.34-4.16,1.39-.24,3.82-.86.86,2.3s-2,3.75-3.18,4.33S1263.59,135.77,1263.8,134.61Z"/><ellipse cx="1258.94" cy="150.47" rx="6.53" ry="4.66" transform="translate(262.34 934.27) rotate(-45)"/><path d="M1276.48,160.37c.6.43,7.13,5.15,9.4,11.08a10.26,10.26,0,0,1,.71,3.26c-.09,1.82-1.68.22-2.91,1.5-.82.85-.41,1.86-1.34,2.14-.17.05-1.64.49-2.92-1.39-1-1.41-1-2.87-2.19-7.56-1.54-5.93-3-9.05-2.3-9.68C1275.12,159.55,1275.44,159.61,1276.48,160.37Z"/><path class="cls-6" d="M1283.81,174.33a17.89,17.89,0,0,0,2.07,7.25c2.07,4.15-4.14,3.11-4.14,1"/><path class="cls-9" d="M1162.37,325.19l-19.16-3.46,12,12.88-2.66,22.16,13.54-17.56-2,28.43,11.87-11.75s7.55.13,9.08,1.86-2.4-9-2.4-9"/><polyline class="cls-9" points="1212.31 173.81 1208.16 193.5 1204.02 180.03 1201.94 202.82 1196.76 186.24 1196.76 216.29 1190.55 201.79"/><path class="cls-10" d="M1208,251.05c7.66,0,7.67-11.91,0-11.91s-7.68,11.91,0,11.91Z"/><path class="cls-10" d="M1218.11,354.7c7.66,0,7.67-11.91,0-11.91s-7.67,11.91,0,11.91Z"/><path class="cls-11" d="M1181.12,389.2l40.18,7a5.2,5.2,0,1,0,.64-5.66l-39.84-6.91Z"/><path class="cls-11" d="M1168.83,408s14.61-7.47,13.69-18.14h0a4,4,0,1,0-3.48-4.52,3.84,3.84,0,0,0,.06,1.27Z"/><path class="cls-11" d="M1231.07,392.18l-7.14-35.89a9.44,9.44,0,0,0,3.6-7h.18s5.08-6.38,1.54-11.31a35.56,35.56,0,0,1-2.15,8.07,9.58,9.58,0,0,0-.69-1.65c.77-2.1,2.22-6.89.1-8.47,0,0-.35,6.63-1.29,6.58s2.19-5.58-1.55-6.73a41.8,41.8,0,0,1-.57,5.08,11.4,11.4,0,0,0-1.2-.64c-.16-2.18-.47-5.17-3-4.68a12.85,12.85,0,0,1,1,4.05,9.24,9.24,0,0,0-3.1-.09,4.09,4.09,0,0,0-3.72-1.42s.85,1,1.59,2a9.53,9.53,0,0,0-3.36,2.19c-1.66.12-3.37.61-4.26,2.19a19.58,19.58,0,0,1,2.11,1.18,9.48,9.48,0,0,0,5.09,12,10.19,10.19,0,0,0,1.28.44l7.14,35.87Z"/><path class="cls-11" d="M1299,288.83c-.15-5.16-6.67-9.15-14.58-8.92-6,.17-11,2.69-13,6.12l-54.66,1.59a7,7,0,0,0-4-2.13,7.1,7.1,0,0,0-8.09,5.22,7.09,7.09,0,0,1-3.3-3.36c-1.62.49,1.69,4.28,3.1,5.79,0,.24.06.47.1.71l-5.43.81c1.72,2.45,4.72,2.72,7,2.49a8,8,0,0,0,.84.81l-8.4,5.27c2.84,1.26,10.13-2.17,13-3.63.28,0,.54,0,.81-.05l-6.06,8.88c2.33.41,7.41-7.37,9.06-10a7.67,7.67,0,0,0,1.54-1.36l56.75-1.65a18,18,0,0,0,11.22,3.14C1292.88,298.34,1299.17,294,1299,288.83Z"/><path class="cls-11" d="M1215.41,292.45q-1-20-2.06-40a8.89,8.89,0,0,0,2.69-3.29,8.74,8.74,0,0,0,.82-2.85h0s3-9.5-.88-14.53a55.65,55.65,0,0,1-.28,8.94,8.94,8.94,0,0,0-1.27-1.68c.43-2.29.46-4.63-1.39-5.52a38.22,38.22,0,0,1,.34,4.58,8.1,8.1,0,0,0-1.26-.79c-.15-2.19-.64-4.61-2.91-4.58,0,0,1.1,2,2,4.17a9,9,0,0,0-2.61-.61c-.86-1.4-2-2.65-3.22-2.22a9.94,9.94,0,0,1,1.25,2.28,8.87,8.87,0,0,0-3.54,1.3c-1.05-1.26-2.07-2.35-2.77-1.81a18.25,18.25,0,0,1,1.34,2.93,8.83,8.83,0,0,0-1.89,2.59,9,9,0,0,0,2.12,10.62q1.07,20.71,2.14,41.42C1204.44,300.68,1215.78,299.77,1215.41,292.45Z"/></g><g id="step5"><path class="cls-1" d="M1550,269.63l-7-39.46a9,9,0,0,0,2.27-3.6,8.79,8.79,0,0,0,.46-2.93h0s1.81-9.8-2.68-14.31a55.34,55.34,0,0,1,.83,8.9,9.06,9.06,0,0,0-1.47-1.5c.14-2.33-.12-4.66-2.06-5.31a38.67,38.67,0,0,1,.91,4.5,9.22,9.22,0,0,0-1.35-.63c-.43-2.15-1.21-4.49-3.46-4.18,0,0,1.33,1.8,2.54,3.89a9,9,0,0,0-2.66-.29c-1-1.29-2.32-2.38-3.48-1.81a10.2,10.2,0,0,1,1.53,2.11,9,9,0,0,0-3.35,1.73c-1.2-1.12-2.35-2.08-3-1.45a17.73,17.73,0,0,1,1.69,2.74,8.82,8.82,0,0,0-1.55,2.81,9,9,0,0,0,3.42,10.27l7.23,40.84C1540.09,279.16,1551.23,276.85,1550,269.63Z"/><path class="cls-1" d="M1629.17,252.29c-1.19-5-8.39-7.6-16.09-5.77-5.79,1.37-10.21,4.86-11.53,8.64l-53.2,12.66a7.09,7.09,0,0,0-11.16,5.47,7.1,7.1,0,0,1-3.91-2.61c-1.49.8,2.52,3.84,4.21,5,.07.22.15.45.24.66l-5.15,1.91c2.18,2,5.17,1.7,7.39,1a7.12,7.12,0,0,0,1,.63l-7.15,6.87c3,.65,9.48-4.19,12-6.21a5,5,0,0,0,.78-.21l-4.13,9.93c2.37-.08,5.77-8.72,6.84-11.62a7.43,7.43,0,0,0,1.24-1.65l55.23-13.14a18,18,0,0,0,11.62.79C1625.08,262.85,1630.35,257.3,1629.17,252.29Z"/><ellipse class="cls-2" cx="1616.18" cy="255.71" rx="9.7" ry="6.11" transform="translate(-19.96 233.86) rotate(-8.23)"/><path class="cls-1" d="M1576.79,412.7,1575.07,372a5.21,5.21,0,1,0-5.67.57l1.71,40.41Z"/><path class="cls-1" d="M1600.27,415s-12.77-10.3-22.15-5.12v0a4,4,0,1,0-2.72,5,3.93,3.93,0,0,0,1.14-.57Z"/><path class="cls-1" d="M1575.31,365.29,1552.11,337a9.49,9.49,0,0,0-.13-7.91l.15-.1s1.48-8-4-10.7a36.06,36.06,0,0,1,1.91,8.13,9.41,9.41,0,0,0-1.39-1.13c-.31-2.21-1.28-7.12-3.9-7.51,0,0,2.82,6,2,6.41s-.7-6-4.53-5.21a42.49,42.49,0,0,1,1.88,4.75,8.69,8.69,0,0,0-1.35,0c-1.18-1.84-2.86-4.34-4.82-2.74a12.71,12.71,0,0,1,2.78,3.12,9.25,9.25,0,0,0-2.78,1.37,4.08,4.08,0,0,0-4,.5s1.2.44,2.32,1a9.47,9.47,0,0,0-1.93,3.52c-1.41.89-2.68,2.12-2.73,3.93a19.71,19.71,0,0,1,2.42.05,9.48,9.48,0,0,0,10.14,8.18,11.52,11.52,0,0,0,1.33-.21l23.19,28.28Z"/><path class="cls-3" d="M1591.84,95.51c-1-3.38-12.44-22-20.73-25.41s-16.58-3.38-17.61,2.55,2.07,17.78,8.29,20.32S1591.84,95.51,1591.84,95.51Z"/><path class="cls-4" d="M1471.43,352a54.16,54.16,0,0,1-3.42,8.26c-7.26-6.21-25.46-7.71-7.26,6.22,7.63,2.44,18.48,3,17.33-5.84C1475.7,357.25,1471.43,352,1471.43,352Z"/><path class="cls-5" d="M1589.25,376.83c-16.56,1.05-57,13.76-70.47,10.37s-68.91-8.8-47.15-81.64,40.42-117.73,41.45-131.28,7.26-60.13,8.29-62.67,25.91-46.59,81.87-13.56c12.43,9.32,21.76,25.41,25.91,36.42s17.61,38.12,15.54,45.74-3.11,11.86-21.76,6.78-44.56-7.63-29,19.48,25.91,22,28,19.48,21.76-20.33,31.09-7.63,7.25,26.26,13.47,34.73c1.94,2.63,9.79,9.12,19.41,18.09,21.3,19.85,51.26,51.83,44.84,81C1721.37,394.49,1629.66,374.29,1589.25,376.83Z"/><path class="cls-2" d="M1669.1,294.33c-3.15,4.72-5.65,11.59-9.72,15.45s-40.65,17.18-30.33,41.44,25.93,25.78,43.1,27.69c18.65,2.07,80.16-6.48,57.11-53.47s-48.35-46.14-50.84-44.64-7,1.93-8.14,7.73Z"/><ellipse cx="1724.48" cy="348.76" rx="3.11" ry="5.93"/><ellipse cx="1622.41" cy="133.2" rx="3.63" ry="6.35"/><path class="cls-6" d="M1624,152.26c-5.18,6.78-8.29,15.25,0,13.55a31.81,31.81,0,0,1,5.18-.56c5.69-.22,9.23.4,5.19-6.21-5.18-8.47-4.15-11.86-7.26-9.32Z"/><path class="cls-6" d="M1629.15,162.42c0,1.7,2.07,6.78,0,7.63s-5.19.84-6.22-.85"/><path class="cls-7" d="M1634.33,191.22c-3.86,4.73-6.22,7.62-12.44,3.39s2.07-11.86,4.15-12.71S1636.4,188.68,1634.33,191.22Z"/><path class="cls-7" d="M1611.53,179.36c3,2.47,1,10.17,0,11.86s-9.33,3.39-12.44,0-6.21-11.86-2.07-12.7S1608.42,176.82,1611.53,179.36Z"/><path class="cls-8" d="M1642.62,218.32c-3.11-2.54-15.55-12.7-28-11.85S1595,210.7,1595,214.09s7.25,22.87,21.76,18.63S1645.73,220.86,1642.62,218.32Z"/><line class="cls-6" x1="1614.64" y1="220.86" x2="1622.93" y2="207.31"/><path class="cls-2" d="M1596,164.12c-10.36,8.47-20.2,8.57-19.17,54.17.52,24.93,8.41,36.69,31.09,36.26,8.34-.15,20.21-5.18,28-9.32s27.46-11.66,22.28-19.28-10-10-14.33-10.95-21.94,11.79-27.12,11.79-40.44-28.21-26.94-40.65,44.86,8.66,45.75,3.06,10.21.33,9.17-9a65.57,65.57,0,0,0-3.19-13.7c-3-8.8-8.47-18.59-17.54-24.41-8.29,2.54-12.43,11.85-17.61,16.94S1596,164.12,1596,164.12Z"/><path class="cls-6" d="M1639,168.54s.78,7.91-5.31-4.33"/><path d="M1644.67,182.77s-.23,12-26.79,2.49-30.2,4.58-31,5.85c-1.81,2.3,20,36.5,29.28,34.43,17-4.18,17.17-9.85,22.83-10.88s8.84-.61,10.88.73-3.14,12.74-22.83,14.81-25.9,1-35.23-13.47-13.47-35.23-5.18-40.41,35.23,0,39.38,1,16.58,1,17.61,3.11S1643.62,180.93,1644.67,182.77Z"/><path class="cls-5" d="M1539,125.16A280.43,280.43,0,0,1,1518.26,104c-4.14-5.08-9.32-23.71,10.37-26.25s34.19,22.87,34.19,22.87Z"/><path class="cls-2" d="M1553.5,101.44s-9.33-12.7-19.69-11-6.22,10.17-6.22,11S1538,113.3,1539,111.61,1554.53,103.14,1553.5,101.44Z"/><path class="cls-4" d="M1608.8,123c-6.21-3.61-12.45,0-14.76-.7-2.61,1.43-7.53,3.66,3.18,4.63s10.41,3.1,13.3,2.49S1611.4,124.54,1608.8,123Z"/><path class="cls-4" d="M1613.8,122.61c.51-2.79,3.89-3.32,4.34-4.16,1.39-.24,3.82-.86.86,2.3s-2,3.75-3.18,4.33S1613.59,123.77,1613.8,122.61Z"/><ellipse cx="1608.94" cy="138.47" rx="6.53" ry="4.66" transform="translate(373.34 1178.25) rotate(-45)"/><path d="M1626.48,148.37c.6.43,7.13,5.15,9.4,11.08a10.26,10.26,0,0,1,.71,3.26c-.09,1.82-1.68.22-2.91,1.5-.82.85-.41,1.86-1.34,2.14-.17.05-1.64.49-2.92-1.39-1-1.41-1-2.87-2.19-7.56-1.54-5.93-3-9.05-2.3-9.68C1625.12,147.55,1625.44,147.61,1626.48,148.37Z"/><path class="cls-6" d="M1633.81,162.33a17.89,17.89,0,0,0,2.07,7.25c2.07,4.15-4.14,3.11-4.14,1"/><path class="cls-9" d="M1512.37,313.19l-19.16-3.46,12,12.88-2.66,22.16,13.54-17.56-2,28.43,11.87-11.75s7.55.13,9.08,1.86-2.4-9-2.4-9"/><polyline class="cls-9" points="1562.31 161.81 1558.16 181.5 1554.02 168.03 1551.94 190.82 1546.76 174.24 1546.76 204.29 1540.55 189.79"/><path class="cls-10" d="M1558,239.05c7.66,0,7.67-11.91,0-11.91s-7.68,11.91,0,11.91Z"/><path class="cls-10" d="M1568.11,342.7c7.66,0,7.67-11.91,0-11.91s-7.67,11.91,0,11.91Z"/><path class="cls-11" d="M1552.79,381.65l40.38-5.67a5.2,5.2,0,1,0-1.12-5.58L1552,376Z"/><path class="cls-11" d="M1560.84,403.41s4-15.93-4.7-22.24h0a4,4,0,1,0-5.69-.35,4.14,4.14,0,0,0,1,.79Z"/><path class="cls-11" d="M1600.64,368.3l-23.77-27.81a9.47,9.47,0,0,0-.29-7.91l.15-.1s1.31-8.05-4.19-10.62a35.85,35.85,0,0,1,2.07,8.09,8.89,8.89,0,0,0-1.41-1.1c-.35-2.2-1.42-7.09-4-7.43,0,0,2.94,5.95,2.09,6.37s-.82-5.94-4.64-5.11a41.44,41.44,0,0,1,2,4.71,10.19,10.19,0,0,0-1.35,0c-1.21-1.82-3-4.27-4.88-2.64a12.81,12.81,0,0,1,2.85,3.06,9.12,9.12,0,0,0-2.75,1.43,4.08,4.08,0,0,0-3.94.58s1.21.41,2.34.92a9.42,9.42,0,0,0-1.86,3.56c-1.39.92-2.64,2.18-2.65,4a18.3,18.3,0,0,1,2.42,0,9.48,9.48,0,0,0,10.3,8,11.17,11.17,0,0,0,1.33-.24l23.77,27.81Z"/><path class="cls-11" d="M1609.74,311.26c2.35-4.58-1.45-11.22-8.49-14.82-5.31-2.71-10.94-2.92-14.4-.9l-48.7-24.86a7.09,7.09,0,0,0-12-3.07,7.05,7.05,0,0,1-1.28-4.53c-1.66-.35-.57,4.56-.07,6.57-.09.22-.17.44-.25.66l-5.15-1.89c.33,3,2.83,4.65,5,5.55a6.07,6.07,0,0,0,.35,1.12l-9.9.59c1.88,2.47,9.93,3,13.16,3.06a7,7,0,0,0,.73.35l-9.59,4.88c1.85,1.47,10.05-2.9,12.75-4.41a7.42,7.42,0,0,0,2-.46l50.56,25.82a18,18,0,0,0,8.34,8.14C1599.78,316.66,1607.39,315.85,1609.74,311.26Z"/><path class="cls-11" d="M1534.36,274.79q11.64-16.32,23.27-32.63a8.94,8.94,0,0,0,6.58-2.63h0s8.26-5.57,8.34-11.93a56.13,56.13,0,0,1-5.78,6.83,8.66,8.66,0,0,0,0-2.1c1.77-1.54,3.24-3.35,2.35-5.19a38.34,38.34,0,0,1-2.58,3.8,9.43,9.43,0,0,0-.49-1.41c1.24-1.81,2.36-4,.56-5.39a45.26,45.26,0,0,1-1,4.53,8.74,8.74,0,0,0-1.66-2.09c.2-1.64.08-3.33-1.14-3.75a10.31,10.31,0,0,1-.43,2.56,9.11,9.11,0,0,0-3.59-1.18c0-1.63-.16-3.13-1-3.14a16.9,16.9,0,0,1-.77,3.13,9.15,9.15,0,0,0-3.09.85,9,9,0,0,0-4.94,9.64q-12,16.89-24.08,33.77C1520.65,274.42,1530.1,280.76,1534.36,274.79Z"/></g><g id="step6"><path class="cls-1" d="M1928.88,233.34,1895.57,211a8.87,8.87,0,0,0-1-4.12,9,9,0,0,0-1.79-2.37h0s-5.81-8.1-12.17-8a55.62,55.62,0,0,1,7,5.58,9.22,9.22,0,0,0-2.1,0c-1.59-1.71-3.44-3.14-5.26-2.19a38.16,38.16,0,0,1,3.88,2.46,9.75,9.75,0,0,0-1.39.54c-1.85-1.18-4.08-2.24-5.41-.4,0,0,2.21.29,4.56.86a8.8,8.8,0,0,0-2,1.73c-1.64-.16-3.33,0-3.71,1.25a10.3,10.3,0,0,1,2.58.35,9,9,0,0,0-1.08,3.62c-1.63.09-3.12.25-3.11,1.14a17.53,17.53,0,0,1,3.15.68,9,9,0,0,0,10.73,7.72L1922.83,243C1928.91,247.06,1935,237.42,1928.88,233.34Z"/><path class="cls-1" d="M2003.66,197.29c-2.48-4.52-10.11-5.1-17-1.29-5.22,2.87-8.55,7.41-8.82,11.41l-47.92,26.33a7.1,7.1,0,0,0-9.31,8.25,7.06,7.06,0,0,1-4.46-1.48c-1.22,1.17,3.45,3,5.4,3.73a4.67,4.67,0,0,0,.41.58l-4.47,3.21c2.65,1.39,5.44.27,7.39-1a6.29,6.29,0,0,0,1.12.34l-5.07,8.53c3.1-.18,8-6.56,9.92-9.17a6.82,6.82,0,0,0,.7-.42L1930.16,257c2.27-.7,3.25-9.94,3.51-13a6.91,6.91,0,0,0,.75-1.92l49.76-27.34a18.07,18.07,0,0,0,11.42-2.32C2002.53,208.57,2006.14,201.81,2003.66,197.29Z"/><ellipse class="cls-2" cx="1992.05" cy="204.04" rx="9.7" ry="6.11" transform="translate(85.33 815.84) rotate(-23.64)"/><path class="cls-1" d="M1883.93,410.53l8.66-39.84a5.2,5.2,0,1,0-5.63-.89l-8.59,39.52Z"/><path class="cls-1" d="M1907.41,415.17s-11.49-11.72-21.4-7.66v0a4,4,0,1,0-3.27,4.66,3.77,3.77,0,0,0,1.19-.43Z"/><path class="cls-1" d="M1895,366.24l1.19-36.57a9.51,9.51,0,0,0,3.59-2.93,9.77,9.77,0,0,0,1.52-3.11l.17,0s6.4-5.06,4.07-10.67a35.65,35.65,0,0,1-3.92,7.37,10.62,10.62,0,0,0-.3-1.76c1.22-1.87,3.72-6.2,2-8.22,0,0-1.85,6.37-2.76,6.11s3.4-4.94,0-6.9a41.53,41.53,0,0,1-1.71,4.81,9.59,9.59,0,0,0-1-.89c.33-2.16.7-5.14-1.83-5.24a12.85,12.85,0,0,1,0,4.18,9.35,9.35,0,0,0-3-.8,4.07,4.07,0,0,0-3.3-2.22s.61,1.12,1.1,2.26a9.44,9.44,0,0,0-3.77,1.37c-1.65-.26-3.41-.17-4.64,1.16a20.11,20.11,0,0,1,1.79,1.63,9.47,9.47,0,0,0,2.23,12.83,8.79,8.79,0,0,0,1.15.72L1886.44,366Z"/><path class="cls-3" d="M1941.84,82.51c-1-3.38-12.44-22-20.73-25.41s-16.58-3.38-17.61,2.55,2.07,17.78,8.29,20.32S1941.84,82.51,1941.84,82.51Z"/><path class="cls-4" d="M1821.43,339a54.16,54.16,0,0,1-3.42,8.26c-7.26-6.21-25.46-7.71-7.26,6.22,7.63,2.44,18.48,3,17.33-5.84C1825.7,344.25,1821.43,339,1821.43,339Z"/><path class="cls-5" d="M1939.25,363.83c-16.56,1.05-57,13.76-70.47,10.37s-68.91-8.8-47.15-81.64,40.42-117.73,41.45-131.28,7.26-60.13,8.29-62.67,25.91-46.59,81.87-13.56c12.43,9.32,21.76,25.41,25.91,36.42s17.61,38.12,15.54,45.74-3.11,11.86-21.76,6.78-44.56-7.63-29,19.48,25.91,22,28,19.48,21.76-20.33,31.09-7.63,7.25,26.26,13.47,34.73c1.94,2.63,9.79,9.12,19.41,18.09,21.3,19.85,51.26,51.83,44.84,81C2071.37,381.49,1979.66,361.29,1939.25,363.83Z"/><path class="cls-2" d="M2019.1,281.33c-3.15,4.72-5.65,11.59-9.72,15.45s-40.65,17.18-30.33,41.44,25.93,25.78,43.1,27.69c18.65,2.07,80.16-6.48,57.11-53.47s-48.35-46.14-50.84-44.64-7,1.93-8.14,7.73Z"/><ellipse cx="2074.48" cy="335.76" rx="3.11" ry="5.93"/><ellipse cx="1972.41" cy="120.2" rx="3.63" ry="6.35"/><path class="cls-6" d="M1974,139.26c-5.18,6.78-8.29,15.25,0,13.55a31.81,31.81,0,0,1,5.18-.56c5.69-.22,9.23.4,5.19-6.21-5.18-8.47-4.15-11.86-7.26-9.32Z"/><path class="cls-6" d="M1979.15,149.42c0,1.7,2.07,6.78,0,7.63s-5.19.84-6.22-.85"/><path class="cls-7" d="M1984.33,178.22c-3.86,4.73-6.22,7.62-12.44,3.39s2.07-11.86,4.15-12.71S1986.4,175.68,1984.33,178.22Z"/><path class="cls-7" d="M1961.53,166.36c3,2.47,1,10.17,0,11.86s-9.33,3.39-12.44,0-6.21-11.86-2.07-12.7S1958.42,163.82,1961.53,166.36Z"/><path class="cls-8" d="M1992.62,205.32c-3.11-2.54-15.55-12.7-28-11.85S1945,197.7,1945,201.09s7.25,22.87,21.76,18.63S1995.73,207.86,1992.62,205.32Z"/><line class="cls-6" x1="1964.64" y1="207.86" x2="1972.93" y2="194.31"/><path class="cls-2" d="M1946,151.12c-10.36,8.47-20.2,8.57-19.17,54.17.52,24.93,8.41,36.69,31.09,36.26,8.34-.15,20.21-5.18,28-9.32s27.46-11.66,22.28-19.28-10-10-14.33-10.95-21.94,11.79-27.12,11.79-40.44-28.21-26.94-40.65,44.86,8.66,45.75,3.06,10.21.33,9.17-9a65.57,65.57,0,0,0-3.19-13.7c-3-8.8-8.47-18.59-17.54-24.41-8.29,2.54-12.43,11.85-17.61,16.94S1946,151.12,1946,151.12Z"/><path class="cls-6" d="M1989,155.54s.78,7.91-5.31-4.33"/><path d="M1994.67,169.77s-.23,12-26.79,2.49-30.2,4.58-31,5.85c-1.81,2.3,20,36.5,29.28,34.43,17-4.18,17.17-9.85,22.83-10.88s8.84-.61,10.88.73-3.14,12.74-22.83,14.81-25.9,1-35.23-13.47-13.47-35.23-5.18-40.41,35.23,0,39.38,1,16.58,1,17.61,3.11S1993.62,167.93,1994.67,169.77Z"/><path class="cls-5" d="M1889,112.16A280.43,280.43,0,0,1,1868.26,91c-4.14-5.08-9.32-23.71,10.37-26.25s34.19,22.87,34.19,22.87Z"/><path class="cls-2" d="M1903.5,88.44s-9.33-12.7-19.69-11-6.22,10.17-6.22,11S1888,100.3,1889,98.61,1904.53,90.14,1903.5,88.44Z"/><path class="cls-4" d="M1958.8,110c-6.21-3.61-12.45,0-14.76-.7-2.61,1.43-7.53,3.66,3.18,4.63s10.41,3.1,13.3,2.49S1961.4,111.54,1958.8,110Z"/><path class="cls-4" d="M1963.8,109.61c.51-2.79,3.89-3.32,4.34-4.16,1.39-.24,3.82-.86.86,2.3s-2,3.75-3.18,4.33S1963.59,110.77,1963.8,109.61Z"/><ellipse cx="1958.94" cy="125.47" rx="6.53" ry="4.66" transform="translate(485.04 1421.93) rotate(-45)"/><path d="M1976.48,135.37c.6.43,7.13,5.15,9.4,11.08a10.26,10.26,0,0,1,.71,3.26c-.09,1.82-1.68.22-2.91,1.5-.82.85-.41,1.86-1.34,2.14-.17.05-1.64.49-2.92-1.39-1-1.41-1-2.87-2.19-7.56-1.54-5.93-3-9.05-2.3-9.68C1975.12,134.55,1975.44,134.61,1976.48,135.37Z"/><path class="cls-6" d="M1983.81,149.33a17.89,17.89,0,0,0,2.07,7.25c2.07,4.15-4.14,3.11-4.14,1"/><path class="cls-9" d="M1862.37,300.19l-19.16-3.46,12,12.88-2.66,22.16,13.54-17.56-2,28.43,11.87-11.75s7.55.13,9.08,1.86-2.4-9-2.4-9"/><polyline class="cls-9" points="1912.31 148.81 1908.16 168.5 1904.02 155.03 1901.94 177.82 1896.76 161.24 1896.76 191.29 1890.55 176.79"/><path class="cls-10" d="M1908,226.05c7.66,0,7.67-11.91,0-11.91s-7.68,11.91,0,11.91Z"/><path class="cls-10" d="M1918.11,329.7c7.66,0,7.67-11.91,0-11.91s-7.67,11.91,0,11.91Z"/><path class="cls-11" d="M1944.33,389.27l15.24-37.81a5.19,5.19,0,1,0-5.4-1.82l-15.12,37.51Z"/><path class="cls-11" d="M1967.66,389.15s-13.46-9.38-22.45-3.56v0a4,4,0,1,0-2.36,5.19,4.15,4.15,0,0,0,1.1-.65Z"/><path class="cls-11" d="M1959.75,341.64l-32.12-17.52a9.4,9.4,0,0,0-1-4.53,9.58,9.58,0,0,0-2.09-2.75l.1-.15s-1.64-8-7.69-8.43a35.91,35.91,0,0,1,4.82,6.82,9.46,9.46,0,0,0-1.72-.52c-1.11-1.94-3.85-6.12-6.43-5.51,0,0,4.87,4.52,4.22,5.21s-2.88-5.26-6.15-3.12a42,42,0,0,1,3.53,3.69,8.52,8.52,0,0,0-1.26.51c-1.78-1.27-4.27-2.95-5.5-.73a12.84,12.84,0,0,1,3.75,1.84,9.46,9.46,0,0,0-2.06,2.32,4.08,4.08,0,0,0-3.47,1.94s1.28,0,2.52,0a9.44,9.44,0,0,0-.48,4,5,5,0,0,0-1,4.67,17.93,17.93,0,0,1,2.26-.86,9.47,9.47,0,0,0,12.47,3.77,8.51,8.51,0,0,0,1.16-.7l32.1,17.52Z"/><path class="cls-11" d="M1852.88,319c5.12.59,10-5.31,10.88-13.17.67-5.92-1.11-11.26-4.22-13.79q3.06-27.16,6.13-54.33a7.09,7.09,0,0,0-1.36-12.36,7,7,0,0,1,3.78-2.79c-.25-1.67-4.47,1.07-6.16,2.25-.24,0-.48,0-.71,0l0-5.49c-2.66,1.36-3.36,4.29-3.45,6.61a6.93,6.93,0,0,0-.92.72l-4-9.06c-1.64,2.63.72,10.34,1.77,13.4a7,7,0,0,0-.07.8l-7.94-7.25c-.73,2.25,6.25,8.38,8.62,10.37a6.83,6.83,0,0,0,1.13,1.72q-3.18,28.22-6.37,56.42a18,18,0,0,0-4.69,10.67C1844.32,311.56,1847.76,318.41,1852.88,319Z"/><path class="cls-11" d="M1862.71,235.79l39-9.13a8.92,8.92,0,0,0,6.67,2.37h0s9.88,1.28,14.14-3.45a56,56,0,0,1-8.85,1.31,9.11,9.11,0,0,0,1.42-1.55c2.34,0,4.65-.37,5.19-2.35a36.6,36.6,0,0,1-4.44,1.15,8.82,8.82,0,0,0,.55-1.38c2.13-.54,4.42-1.45,4-3.67a46.26,46.26,0,0,1-3.75,2.74,8.62,8.62,0,0,0,.14-2.67c1.23-1.1,2.26-2.45,1.62-3.57a10.4,10.4,0,0,1-2,1.64,9,9,0,0,0-1.91-3.26c1-1.25,1.94-2.45,1.28-3.05a17.48,17.48,0,0,1-2.64,1.84,9.13,9.13,0,0,0-2.89-1.4,9,9,0,0,0-10.07,4l-40.38,9.46C1852.66,226.47,1855.57,237.46,1862.71,235.79Z"/></g><g id="step7"><path class="cls-1" d="M2284.08,230.14l-38.55-10.95a8.93,8.93,0,0,0-4.68-5.32h0s-8-5.91-14-3.84a55.94,55.94,0,0,1,8.37,3.14,9,9,0,0,0-2,.67c-2-1.15-4.24-1.93-5.68-.47a39.47,39.47,0,0,1,4.45,1.15,10.36,10.36,0,0,0-1.16.94c-2.12-.56-4.57-.88-5.27,1.28a46.27,46.27,0,0,1,4.6-.58,9.14,9.14,0,0,0-1.41,2.27c-1.61.36-3.16,1-3.15,2.33a10.49,10.49,0,0,1,2.56-.45,9.21,9.21,0,0,0,.09,3.77c-1.53.59-2.89,1.21-2.6,2a17.72,17.72,0,0,1,3.2-.33,9,9,0,0,0,12.58,4l39.9,11.33C2288.34,243.18,2291.14,232.15,2284.08,230.14Z"/><path class="cls-1" d="M2349.82,178.53c-3.41-3.87-11-2.77-16.91,2.46-4.47,3.94-6.73,9.1-6.12,13.06l-41,36.16a7.08,7.08,0,0,0-7.28,10.07,7,7,0,0,1-4.68-.47c-.94,1.41,4,2.21,6.08,2.47a6,6,0,0,0,.53.48l-3.66,4.1c2.89.78,5.37-.92,7-2.59a6.41,6.41,0,0,0,1.16.09l-3.09,9.43c3-.85,6.41-8.15,7.69-11.12.2-.17.4-.36.59-.55l1,10.71c2.05-1.18,1-10.41.58-13.48a7.35,7.35,0,0,0,.32-2l42.58-37.55a17.92,17.92,0,0,0,10.64-4.76C2351.17,189.78,2353.22,182.41,2349.82,178.53Z"/><ellipse class="cls-2" cx="2339.96" cy="187.65" rx="9.7" ry="6.11" transform="translate(341.8 1419.71) rotate(-36.24)"/><path class="cls-1" d="M2201.39,412.22l24.3-32.75a5.19,5.19,0,1,0-4.77-3.12l-24.09,32.48Z"/><path class="cls-1" d="M2226.38,415.52s-11.78-11.43-21.59-7.12v0a4,4,0,1,0-3.16,4.75,4.39,4.39,0,0,0,1.19-.46Z"/><path class="cls-1" d="M2229.83,376.06l12.75-34.29a9.48,9.48,0,0,0,4.33-1.64,9.34,9.34,0,0,0,2.43-2.47l.16.09s7.67-2.77,7.25-8.82a36.08,36.08,0,0,1-6.06,5.74,10.51,10.51,0,0,0,.27-1.77c1.75-1.38,5.5-4.69,4.53-7.15,0,0-3.78,5.46-4.56,4.92s4.8-3.6,2.22-6.54a41.35,41.35,0,0,1-3.16,4,8.58,8.58,0,0,0-.67-1.17c1-1.94,2.3-4.65-.07-5.54a12.86,12.86,0,0,1-1.29,4,9.5,9.5,0,0,0-2.58-1.71,4.12,4.12,0,0,0-2.43-3.16s.23,1.26.33,2.5a9.53,9.53,0,0,0-4,.1c-1.48-.77-3.18-1.24-4.77-.37a19.06,19.06,0,0,1,1.18,2.11,9.47,9.47,0,0,0-2,12.88,8.64,8.64,0,0,0,.86,1l-12.75,34.29Z"/><path class="cls-3" d="M2291.84,93.51c-1-3.38-12.44-22-20.73-25.41s-16.58-3.38-17.61,2.55,2.07,17.78,8.29,20.32S2291.84,93.51,2291.84,93.51Z"/><path class="cls-4" d="M2171.43,350a54.16,54.16,0,0,1-3.42,8.26c-7.26-6.21-25.46-7.71-7.26,6.22,7.63,2.44,18.48,3,17.33-5.84C2175.7,355.25,2171.43,350,2171.43,350Z"/><path class="cls-5" d="M2289.25,374.83c-16.56,1.05-57,13.76-70.47,10.37s-68.91-8.8-47.15-81.64,40.42-117.73,41.45-131.28,7.26-60.13,8.29-62.67,25.91-46.59,81.87-13.56c12.43,9.32,21.76,25.41,25.91,36.42s17.61,38.12,15.54,45.74-3.11,11.86-21.76,6.78-44.56-7.63-29,19.48,25.91,22,28,19.48,21.76-20.33,31.09-7.63,7.25,26.26,13.47,34.73c1.94,2.63,9.79,9.12,19.41,18.09,21.3,19.85,51.26,51.83,44.84,81C2421.37,392.49,2329.66,372.29,2289.25,374.83Z"/><path class="cls-2" d="M2369.1,292.33c-3.15,4.72-5.65,11.59-9.72,15.45s-40.65,17.18-30.33,41.44,25.93,25.78,43.1,27.69c18.65,2.07,80.16-6.48,57.11-53.47s-48.35-46.14-50.84-44.64-7,1.93-8.14,7.73Z"/><ellipse cx="2424.48" cy="346.76" rx="3.11" ry="5.93"/><ellipse cx="2322.41" cy="131.2" rx="3.63" ry="6.35"/><path class="cls-6" d="M2324,150.26c-5.18,6.78-8.29,15.25,0,13.55a31.81,31.81,0,0,1,5.18-.56c5.69-.22,9.23.4,5.19-6.21-5.18-8.47-4.15-11.86-7.26-9.32Z"/><path class="cls-6" d="M2329.15,160.42c0,1.7,2.07,6.78,0,7.63s-5.19.84-6.22-.85"/><path class="cls-7" d="M2334.33,189.22c-3.86,4.73-6.22,7.62-12.44,3.39s2.07-11.86,4.15-12.71S2336.4,186.68,2334.33,189.22Z"/><path class="cls-7" d="M2311.53,177.36c3,2.47,1,10.17,0,11.86s-9.33,3.39-12.44,0-6.21-11.86-2.07-12.7S2308.42,174.82,2311.53,177.36Z"/><path class="cls-8" d="M2342.62,216.32c-3.11-2.54-15.55-12.7-28-11.85S2295,208.7,2295,212.09s7.25,22.87,21.76,18.63S2345.73,218.86,2342.62,216.32Z"/><line class="cls-6" x1="2314.64" y1="218.86" x2="2322.93" y2="205.31"/><path class="cls-2" d="M2296,162.12c-10.36,8.47-20.2,8.57-19.17,54.17.52,24.93,8.41,36.69,31.09,36.26,8.34-.15,20.21-5.18,28-9.32s27.46-11.66,22.28-19.28-10-10-14.33-10.95-21.94,11.79-27.12,11.79-40.44-28.21-26.94-40.65,44.86,8.66,45.75,3.06,10.21.33,9.17-9a65.57,65.57,0,0,0-3.19-13.7c-3-8.8-8.47-18.59-17.54-24.41-8.29,2.54-12.43,11.85-17.61,16.94S2296,162.12,2296,162.12Z"/><path class="cls-6" d="M2339,166.54s.78,7.91-5.31-4.33"/><path d="M2344.67,180.77s-.23,12-26.79,2.49-30.2,4.58-31,5.85c-1.81,2.3,20,36.5,29.28,34.43,17-4.18,17.17-9.85,22.83-10.88s8.84-.61,10.88.73-3.14,12.74-22.83,14.81-25.9,1-35.23-13.47-13.47-35.23-5.18-40.41,35.23,0,39.38,1,16.58,1,17.61,3.11S2343.62,178.93,2344.67,180.77Z"/><path class="cls-5" d="M2239,123.16A280.43,280.43,0,0,1,2218.26,102c-4.14-5.08-9.32-23.71,10.37-26.25s34.19,22.87,34.19,22.87Z"/><path class="cls-2" d="M2253.5,99.44s-9.33-12.7-19.69-11-6.22,10.17-6.22,11S2238,111.3,2239,109.61,2254.53,101.14,2253.5,99.44Z"/><path class="cls-4" d="M2308.8,121c-6.21-3.61-12.45,0-14.76-.7-2.61,1.43-7.53,3.66,3.18,4.63s10.41,3.1,13.3,2.49S2311.4,122.54,2308.8,121Z"/><path class="cls-4" d="M2313.8,120.61c.51-2.79,3.89-3.32,4.34-4.16,1.39-.24,3.82-.86.86,2.3s-2,3.75-3.18,4.33S2313.59,121.77,2313.8,120.61Z"/><ellipse cx="2308.94" cy="136.47" rx="6.53" ry="4.66" transform="translate(579.78 1672.64) rotate(-45)"/><path d="M2326.48,146.37c.6.43,7.13,5.15,9.4,11.08a10.26,10.26,0,0,1,.71,3.26c-.09,1.82-1.68.22-2.91,1.5-.82.85-.41,1.86-1.34,2.14-.17.05-1.64.49-2.92-1.39-1-1.41-1-2.87-2.19-7.56-1.54-5.93-3-9.05-2.3-9.68C2325.12,145.55,2325.44,145.61,2326.48,146.37Z"/><path class="cls-6" d="M2333.81,160.33a17.89,17.89,0,0,0,2.07,7.25c2.07,4.15-4.14,3.11-4.14,1"/><path class="cls-9" d="M2212.37,311.19l-19.16-3.46,12,12.88-2.66,22.16,13.54-17.56-2.05,28.43,11.87-11.75s7.55.13,9.08,1.86-2.4-9-2.4-9"/><polyline class="cls-9" points="2262.31 159.81 2258.16 179.5 2254.02 166.03 2251.94 188.82 2246.76 172.24 2246.76 202.29 2240.55 187.79"/><path class="cls-10" d="M2258,237.05c7.66,0,7.67-11.91,0-11.91s-7.68,11.91,0,11.91Z"/><path class="cls-10" d="M2268.11,340.7c7.66,0,7.67-11.91,0-11.91s-7.67,11.91,0,11.91Z"/><path class="cls-11" d="M2311.79,400.81l-.53-40.77a5.2,5.2,0,1,0-5.68.4l.52,40.44Z"/><path class="cls-11" d="M2333.27,391.69s-16-3.46-22.09,5.38v0a4.09,4.09,0,1,0,.59,4.68Z"/><path class="cls-11" d="M2310.26,351.07l-32.75-16.31a9.49,9.49,0,0,0-1.17-4.49,9.6,9.6,0,0,0-2.2-2.68l.1-.14s-1.93-7.93-8-8.14a36,36,0,0,1,5.07,6.63,10.26,10.26,0,0,0-1.73-.46c-1.19-1.88-4.09-6-6.63-5.26,0,0,5,4.33,4.41,5s-3.08-5.15-6.27-2.89a43,43,0,0,1,3.67,3.56,9.75,9.75,0,0,0-1.24.55c-1.83-1.2-4.38-2.78-5.52-.52a13,13,0,0,1,3.81,1.7,9.55,9.55,0,0,0-2,2.39,4.11,4.11,0,0,0-3.4,2.08s1.28-.1,2.52-.07a9.64,9.64,0,0,0-.33,4c-.91,1.39-1.57,3-.87,4.71a20,20,0,0,1,2.23-.95,9.46,9.46,0,0,0,12.59,3.31,8.92,8.92,0,0,0,1.14-.74l32.74,16.3Z"/><path class="cls-11" d="M2162.48,305.64c4.29,2.86,11.32-.16,15.7-6.74,3.3-5,4.16-10.52,2.55-14.19L2211,239.18a7.09,7.09,0,0,0,4.44-11.61,7,7,0,0,1,4.64-.76c.54-1.6-4.46-1.08-6.51-.81l-.63-.33,2.47-4.9c-3,0-5,2.28-6.09,4.3a7.53,7.53,0,0,0-1.15.22l.55-9.9c-2.67,1.59-4.08,9.52-4.55,12.72a7,7,0,0,0-.43.68L2200,218.71c-1.68,1.67,1.72,10.31,2.92,13.17a6.76,6.76,0,0,0,.22,2.05q-15.74,23.63-31.45,47.27a18,18,0,0,0-9,7.34C2158.27,295.12,2158.19,302.78,2162.48,305.64Z"/><path class="cls-11" d="M2210.33,236.06h40.08a8.94,8.94,0,0,0,3.14,2.86,9.21,9.21,0,0,0,2.81,1h0s9.33,3.49,14.55-.14A56.08,56.08,0,0,1,2262,239a9.19,9.19,0,0,0,1.74-1.18c2.27.54,4.61.69,5.58-1.11a36.65,36.65,0,0,1-4.58.11,9.11,9.11,0,0,0,.85-1.22c2.2,0,4.64-.4,4.72-2.67,0,0-2,1-4.27,1.82a9,9,0,0,0,.74-2.57c1.45-.79,2.76-1.87,2.39-3.11a10.2,10.2,0,0,1-2.34,1.14,9.06,9.06,0,0,0-1.12-3.61c1.31-1,2.46-1.94,1.95-2.67a18.24,18.24,0,0,1-3,1.19,8.85,8.85,0,0,0-2.5-2,9,9,0,0,0-10.71,1.57H2210C2202.66,224.69,2203,236.06,2210.33,236.06Z"/></g><g id="step8"><path class="cls-1" d="M2629.79,216.64l-37.85,13.18a8.94,8.94,0,0,0-6.88-1.66h0s-10-.23-13.7,4.92a56.26,56.26,0,0,1,8.66-2.23,9.06,9.06,0,0,0-1.25,1.68c-2.33.24-4.58.86-4.91,2.88a38.35,38.35,0,0,1,4.29-1.61,9.54,9.54,0,0,0-.4,1.44c-2.06.76-4.25,1.9-3.58,4.07a45.45,45.45,0,0,1,3.43-3.12,9.13,9.13,0,0,0,.15,2.67c-1.11,1.22-2,2.67-1.24,3.72a10,10,0,0,1,1.84-1.84,9,9,0,0,0,2.24,3c-.91,1.36-1.67,2.65-1,3.17a17.55,17.55,0,0,1,2.43-2.11,8.8,8.8,0,0,0,3,1.09,9,9,0,0,0,9.6-5l39.16-13.64C2640.77,224.86,2636.72,214.23,2629.79,216.64Z"/><path class="cls-1" d="M2703,167.27c-3.18-4.06-10.8-3.38-17,1.51-4.68,3.69-7.22,8.71-6.84,12.7l-43,33.83a7,7,0,0,0-4.45.64,7.1,7.1,0,0,0-3.39,9,7,7,0,0,1-4.64-.73c-1,1.36,3.9,2.43,5.93,2.8.16.18.33.35.5.51l-3.87,3.89c2.83.94,5.4-.62,7.12-2.19a7.51,7.51,0,0,0,1.16.15l-3.61,9.24c3-.68,6.85-7.78,8.29-10.67a6.31,6.31,0,0,0,.62-.52l.42,10.75c2.12-1.07,1.57-10.34,1.33-13.42a7.36,7.36,0,0,0,.43-2l44.6-35.12a18.05,18.05,0,0,0,10.89-4.16C2703.76,178.58,2706.22,171.32,2703,167.27Z"/><ellipse class="cls-2" cx="2692.68" cy="175.82" rx="9.7" ry="6.11" transform="translate(340.02 1497.35) rotate(-33.06)"/><path class="cls-1" d="M2528.49,403.19l39.07-11.66a5.2,5.2,0,1,0-1.94-5.36l-38.76,11.56Z"/><path class="cls-1" d="M2550.42,416.19s-6.39-15.11-17.1-15v0a4,4,0,1,0-4.75,3.13,3.88,3.88,0,0,0,1.27,0Z"/><path class="cls-1" d="M2574.93,389.39,2592,357a9.45,9.45,0,0,0,7.23-3.2l.15.1s8-1.75,8.32-7.81a35.84,35.84,0,0,1-6.75,4.91,9.4,9.4,0,0,0,.5-1.72c1.91-1.14,6.06-3.94,5.41-6.51,0,0-4.45,4.93-5.15,4.3s5.22-3,3-6.2a43,43,0,0,1-3.65,3.58,8.93,8.93,0,0,0-.52-1.25c1.24-1.8,2.88-4.32.65-5.51a12.91,12.91,0,0,1-1.79,3.78,9.27,9.27,0,0,0-2.35-2,4.08,4.08,0,0,0-2-3.44s.06,1.27,0,2.52a9.48,9.48,0,0,0-4-.42c-1.37-.95-3-1.64-4.68-1a18.54,18.54,0,0,1,.89,2.24,9.48,9.48,0,0,0-3.59,12.52,8.86,8.86,0,0,0,.71,1.15l-17,32.36Z"/><path class="cls-3" d="M2641.84,108.45c-1-3.39-12.44-22-20.73-25.41s-16.58-3.39-17.61,2.54,2.07,17.79,8.29,20.33S2641.84,108.45,2641.84,108.45Z"/><path class="cls-4" d="M2521.43,364.92a53.86,53.86,0,0,1-3.42,8.27c-7.26-6.22-25.46-7.72-7.26,6.22,7.63,2.44,18.48,3,17.33-5.84C2525.7,370.18,2521.43,364.92,2521.43,364.92Z"/><path class="cls-5" d="M2639.25,389.77c-16.56,1-57,13.75-70.47,10.36s-68.91-8.8-47.15-81.63,40.42-117.73,41.45-131.28,7.26-60.14,8.29-62.68S2597.28,78,2653.24,111c12.43,9.32,21.76,25.41,25.91,36.42s17.61,38.11,15.54,45.73-3.11,11.86-21.76,6.78-44.56-7.62-29,19.48,25.91,22,28,19.48,21.76-20.33,31.09-7.62,7.25,26.25,13.47,34.72c1.94,2.64,9.79,9.13,19.41,18.09,21.3,19.85,51.26,51.84,44.84,81C2771.37,407.43,2679.66,387.23,2639.25,389.77Z"/><path class="cls-2" d="M2719.1,307.26c-3.15,4.72-5.65,11.59-9.72,15.46s-40.65,17.17-30.33,41.43,25.93,25.78,43.1,27.69c18.65,2.07,80.16-6.47,57.11-53.47s-48.35-46.14-50.84-44.63-7,1.93-8.14,7.72Z"/><ellipse cx="2774.48" cy="361.69" rx="3.11" ry="5.93"/><ellipse cx="2672.41" cy="146.14" rx="3.63" ry="6.35"/><path class="cls-6" d="M2674,165.19c-5.18,6.78-8.29,15.25,0,13.56a31.81,31.81,0,0,1,5.18-.56c5.69-.22,9.23.4,5.19-6.22-5.18-8.47-4.15-11.86-7.26-9.32Z"/><path class="cls-6" d="M2679.15,175.36c0,1.69,2.07,6.77,0,7.62s-5.19.85-6.22-.85"/><path class="cls-7" d="M2684.33,204.16c-3.86,4.72-6.22,7.62-12.44,3.38s2.07-11.85,4.15-12.7S2686.4,201.61,2684.33,204.16Z"/><path class="cls-7" d="M2661.53,192.3c3,2.47,1,10.16,0,11.86s-9.33,3.38-12.44,0-6.21-11.86-2.07-12.71S2658.42,189.76,2661.53,192.3Z"/><path class="cls-8" d="M2692.62,231.26c-3.11-2.54-15.55-12.71-28-11.86S2645,223.64,2645,227s7.25,22.87,21.76,18.64S2695.73,233.8,2692.62,231.26Z"/><line class="cls-6" x1="2664.64" y1="233.8" x2="2672.93" y2="220.25"/><path class="cls-2" d="M2646,177.05c-10.36,8.47-20.2,8.57-19.17,54.17.52,24.93,8.41,36.69,31.09,36.27,8.34-.16,20.21-5.18,28-9.33s27.46-11.66,22.28-19.28-10-10-14.33-10.94-21.94,11.79-27.12,11.79-40.44-28.21-26.94-40.66,44.86,8.66,45.75,3.06,10.21.33,9.17-9a65.5,65.5,0,0,0-3.19-13.69c-3-8.8-8.47-18.6-17.54-24.42-8.29,2.54-12.43,11.86-17.61,16.94S2646,177.05,2646,177.05Z"/><path class="cls-6" d="M2689,181.48s.78,7.91-5.31-4.34"/><path d="M2694.67,195.7s-.23,12-26.79,2.5-30.2,4.57-31,5.84c-1.81,2.31,20,36.51,29.28,34.43,17-4.18,17.17-9.84,22.83-10.88s8.84-.61,10.88.73-3.14,12.74-22.83,14.82-25.9,1-35.23-13.48-13.47-35.23-5.18-40.41,35.23,0,39.38,1,16.58,1,17.61,3.11S2693.62,193.87,2694.67,195.7Z"/><path class="cls-5" d="M2589,138.09a282,282,0,0,1-20.73-21.17c-4.14-5.08-9.32-23.72,10.37-26.26s34.19,22.87,34.19,22.87Z"/><path class="cls-2" d="M2603.5,114.38s-9.33-12.71-19.69-11-6.22,10.16-6.22,11,10.36,11.85,11.4,10.16S2604.53,116.07,2603.5,114.38Z"/><path class="cls-4" d="M2658.8,136c-6.21-3.6-12.45,0-14.76-.7-2.61,1.44-7.53,3.66,3.18,4.64s10.41,3.1,13.3,2.48S2661.4,137.48,2658.8,136Z"/><path class="cls-4" d="M2663.8,135.54c.51-2.78,3.89-3.32,4.34-4.15,1.39-.25,3.82-.86.86,2.3s-2,3.74-3.18,4.32S2663.59,136.71,2663.8,135.54Z"/><ellipse cx="2658.94" cy="151.4" rx="6.53" ry="4.66" transform="translate(671.73 1924.5) rotate(-45)"/><path d="M2676.48,161.3c.6.43,7.13,5.16,9.4,11.08a10.34,10.34,0,0,1,.71,3.26c-.09,1.82-1.68.23-2.91,1.5-.82.85-.41,1.87-1.34,2.14-.17.05-1.64.49-2.92-1.38-1-1.41-1-2.87-2.19-7.56-1.54-5.93-3-9.06-2.3-9.68C2675.12,160.48,2675.44,160.54,2676.48,161.3Z"/><path class="cls-6" d="M2683.81,175.26a17.89,17.89,0,0,0,2.07,7.25c2.07,4.15-4.14,3.11-4.14,1"/><path class="cls-9" d="M2562.37,326.12l-19.16-3.46,12,12.88-2.66,22.16,13.54-17.56-2.05,28.44,11.87-11.76s7.55.13,9.08,1.87-2.4-9-2.4-9"/><polyline class="cls-9" points="2612.31 174.74 2608.16 194.43 2604.02 180.96 2601.94 203.76 2596.76 187.18 2596.76 217.23 2590.55 202.72"/><path class="cls-10" d="M2608,252c7.66,0,7.67-11.91,0-11.91s-7.68,11.91,0,11.91Z"/><path class="cls-10" d="M2618.11,355.63c7.66,0,7.67-11.9,0-11.9s-7.67,11.9,0,11.9Z"/><path class="cls-11" d="M2668.5,412.57,2664,372.05a5.2,5.2,0,1,0-5.62,1l4.5,40.19Z"/><path class="cls-11" d="M2690.79,415.81s-12.68-10.42-22.1-5.32v0a4,4,0,1,0-2.76,5,3.79,3.79,0,0,0,1.14-.56Z"/><path class="cls-11" d="M2661.21,363.69l-33.57-14.56a9.37,9.37,0,0,0-1.4-4.42,9.55,9.55,0,0,0-2.33-2.56l.09-.15s-2.35-7.81-8.42-7.71a35.83,35.83,0,0,1,5.41,6.36,10.48,10.48,0,0,0-1.75-.37c-1.28-1.82-4.39-5.74-6.9-4.9,0,0,5.25,4.06,4.67,4.81s-3.34-5-6.41-2.56a42.36,42.36,0,0,1,3.85,3.37,8.57,8.57,0,0,0-1.21.61c-1.89-1.1-4.52-2.55-5.54-.23a12.74,12.74,0,0,1,3.9,1.5,9.24,9.24,0,0,0-1.84,2.49,4.09,4.09,0,0,0-3.29,2.25s1.27-.16,2.51-.2a9.55,9.55,0,0,0-.11,4,5,5,0,0,0-.63,4.74,19.59,19.59,0,0,1,2.18-1.06,9.47,9.47,0,0,0,12.75,2.64,8.73,8.73,0,0,0,1.09-.8l33.55,14.56Z"/><path class="cls-11" d="M2491.81,279.15c2.93,4.25,10.57,4.05,17.08-.44,4.91-3.38,7.76-8.24,7.63-12.24l45-31.06a7.09,7.09,0,0,0,8.43-9.14,7.06,7.06,0,0,1,4.59,1c1.09-1.28-3.74-2.66-5.75-3.17a5.93,5.93,0,0,0-.47-.53l4.12-3.64c-2.78-1.12-5.44.28-7.25,1.74a7.55,7.55,0,0,0-1.15-.23l4.18-9c-3.06.49-7.32,7.33-8.94,10.13a4.36,4.36,0,0,0-.65.48l.26-10.76c-2.18.93-2.22,10.22-2.17,13.31a7.19,7.19,0,0,0-.56,2l-46.73,32.24a18,18,0,0,0-11.12,3.47C2491.8,267.82,2488.89,274.9,2491.81,279.15Z"/><path class="cls-11" d="M2562.05,232.39l37,15.32a9,9,0,0,0,1.81,3.85,9.21,9.21,0,0,0,2.23,2h0s7.29,6.8,13.5,5.43a55.17,55.17,0,0,1-7.95-4.09,8.22,8.22,0,0,0,2.06-.43c1.89,1.38,4,2.41,5.58,1.12a38.59,38.59,0,0,1-4.28-1.65,9.89,9.89,0,0,0,1.26-.8c2,.8,4.43,1.39,5.38-.67,0,0-2.23.15-4.64.05a9.19,9.19,0,0,0,1.67-2.09c1.64-.18,3.26-.67,3.39-2a10.33,10.33,0,0,1-2.6.16,9,9,0,0,0,.35-3.76c1.58-.41,3-.86,2.82-1.73a18,18,0,0,1-3.22-.05,9,9,0,0,0-12-5.45l-38.33-15.86C2559.32,219,2555.27,229.59,2562.05,232.39Z"/></g><g id="step9"><path class="cls-1" d="M2900.37,250l32.75-23.11a8.91,8.91,0,0,0,7.07-.3h0s9.64-2.53,11.81-8.51a55.5,55.5,0,0,1-7.7,4.54,9,9,0,0,0,.73-2c2.17-.87,4.16-2.09,3.93-4.12a39.81,39.81,0,0,1-3.69,2.73,8.24,8.24,0,0,0,0-1.49c1.77-1.3,3.55-3,2.31-4.9,0,0-1.06,2-2.44,3.94a9,9,0,0,0-.87-2.53c.73-1.47,1.17-3.11.16-3.91a10.36,10.36,0,0,1-1.26,2.28,9,9,0,0,0-3-2.3c.5-1.56.88-3,0-3.31a17.59,17.59,0,0,1-1.75,2.7,9,9,0,0,0-11,7.25l-33.88,23.92C2887.56,245.16,2894.38,254.26,2900.37,250Z"/><path class="cls-1" d="M2911.3,331.84c5.06-1,7.92-8.08,6.39-15.84-1.15-5.85-4.46-10.4-8.19-11.87l-10.56-53.65a7.1,7.1,0,0,0-5-11.37,7.07,7.07,0,0,1,2.77-3.8c-.75-1.52-3.94,2.37-5.2,4-.23.06-.45.13-.68.21l-1.7-5.22c-2.13,2.1-1.9,5.1-1.29,7.34a6.29,6.29,0,0,0-.66,1l-6.59-7.41c-.77,3,3.81,9.63,5.73,12.23,0,.27.11.53.18.79l-9.76-4.52c0,2.37,8.49,6.11,11.35,7.29a7.13,7.13,0,0,0,1.6,1.3q5.49,27.86,11,55.71a18,18,0,0,0-1.25,11.58C2900.9,327.34,2906.24,332.83,2911.3,331.84Z"/><ellipse class="cls-2" cx="2908.39" cy="318.73" rx="6.11" ry="9.7" transform="translate(-17.38 304.94) rotate(-5.98)"/><path class="cls-1" d="M2921.59,404.05l33.56-23.15a5.21,5.21,0,1,0-3.49-4.49l-33.3,22.95Z"/><path class="cls-1" d="M2947.72,403.18s-13.43-9.42-22.44-3.62v0a4.09,4.09,0,1,0-1.27,4.54Z"/><path class="cls-1" d="M2961.3,374.2l-11.91-34.59a9.49,9.49,0,0,0,2.32-4,9.68,9.68,0,0,0,.31-3.45l.17,0s4.18-7,0-11.42a35.9,35.9,0,0,1-1,8.29,8.54,8.54,0,0,0-.91-1.54c.48-2.18,1.28-7.12-1-8.4,0,0,.54,6.61-.4,6.69s1.42-5.83-2.44-6.46a42.82,42.82,0,0,1,.12,5.11,10.72,10.72,0,0,0-1.27-.48c-.46-2.13-1.17-5-3.57-4.24a12.68,12.68,0,0,1,1.52,3.89,9.35,9.35,0,0,0-3.08.32,4.1,4.1,0,0,0-3.88-.9s1,.83,1.85,1.72a9.43,9.43,0,0,0-3,2.62c-1.63.35-3.25,1.06-3.93,2.74a19.41,19.41,0,0,1,2.25.89,9.47,9.47,0,0,0,6.66,11.19,9,9,0,0,0,1.33.27L2953.24,377Z"/><path class="cls-3" d="M2991.84,94.45c-1-3.39-12.44-22-20.73-25.41s-16.58-3.39-17.61,2.54,2.07,17.79,8.29,20.33S2991.84,94.45,2991.84,94.45Z"/><path class="cls-4" d="M2871.43,350.92a53.86,53.86,0,0,1-3.42,8.27c-7.26-6.22-25.46-7.72-7.26,6.22,7.63,2.44,18.48,3,17.33-5.84C2875.7,356.18,2871.43,350.92,2871.43,350.92Z"/><path class="cls-5" d="M2989.25,375.77c-16.56,1-57,13.75-70.47,10.36s-68.91-8.8-47.15-81.63,40.42-117.73,41.45-131.28,7.26-60.14,8.29-62.68S2947.28,64,3003.24,97c12.43,9.32,21.76,25.41,25.91,36.42s17.61,38.11,15.54,45.73-3.11,11.86-21.76,6.78-44.56-7.62-29,19.48,25.91,22,28,19.48,21.76-20.33,31.09-7.62,7.25,26.25,13.47,34.72c1.94,2.64,9.79,9.13,19.41,18.09,21.3,19.85,51.26,51.84,44.84,81C3121.37,393.43,3029.66,373.23,2989.25,375.77Z"/><path class="cls-2" d="M3069.1,293.26c-3.15,4.72-5.65,11.59-9.72,15.46s-40.65,17.17-30.33,41.43,25.93,25.78,43.1,27.69c18.65,2.07,80.16-6.47,57.11-53.47s-48.35-46.14-50.84-44.63-7,1.93-8.14,7.72Z"/><ellipse cx="3124.48" cy="347.69" rx="3.11" ry="5.93"/><ellipse cx="3022.41" cy="132.14" rx="3.63" ry="6.35"/><path class="cls-6" d="M3024,151.19c-5.18,6.78-8.29,15.25,0,13.56a31.81,31.81,0,0,1,5.18-.56c5.69-.22,9.23.4,5.19-6.22-5.18-8.47-4.15-11.86-7.26-9.32Z"/><path class="cls-6" d="M3029.15,161.36c0,1.69,2.07,6.77,0,7.62s-5.19.85-6.22-.85"/><path class="cls-7" d="M3034.33,190.16c-3.86,4.72-6.22,7.62-12.44,3.38s2.07-11.85,4.15-12.7S3036.4,187.61,3034.33,190.16Z"/><path class="cls-7" d="M3011.53,178.3c3,2.47,1,10.16,0,11.86s-9.33,3.38-12.44,0-6.21-11.86-2.07-12.71S3008.42,175.76,3011.53,178.3Z"/><path class="cls-8" d="M3042.62,217.26c-3.11-2.54-15.55-12.71-28-11.86S2995,209.64,2995,213s7.25,22.87,21.76,18.64S3045.73,219.8,3042.62,217.26Z"/><line class="cls-6" x1="3014.64" y1="219.8" x2="3022.93" y2="206.25"/><path class="cls-2" d="M2996,163.05c-10.36,8.47-20.2,8.57-19.17,54.17.52,24.93,8.41,36.69,31.09,36.27,8.34-.16,20.21-5.18,28-9.33s27.46-11.66,22.28-19.28-10-10-14.33-10.94-21.94,11.79-27.12,11.79-40.44-28.21-26.94-40.66,44.86,8.66,45.75,3.06,10.21.33,9.17-9a65.5,65.5,0,0,0-3.19-13.69c-3-8.8-8.47-18.6-17.54-24.42-8.29,2.54-12.43,11.86-17.61,16.94S2996,163.05,2996,163.05Z"/><path class="cls-6" d="M3039,167.48s.78,7.91-5.31-4.34"/><path d="M3044.67,181.7s-.23,12-26.79,2.5-30.2,4.57-31,5.84c-1.81,2.31,20,36.51,29.28,34.43,17-4.18,17.17-9.84,22.83-10.88s8.84-.61,10.88.73-3.14,12.74-22.83,14.82-25.9,1-35.23-13.48-13.47-35.23-5.18-40.41,35.23,0,39.38,1,16.58,1,17.61,3.11S3043.62,179.87,3044.67,181.7Z"/><path class="cls-5" d="M2939,124.09a282,282,0,0,1-20.73-21.17c-4.14-5.08-9.32-23.72,10.37-26.26s34.19,22.87,34.19,22.87Z"/><path class="cls-2" d="M2953.5,100.38s-9.33-12.71-19.69-11-6.22,10.16-6.22,11,10.36,11.85,11.4,10.16S2954.53,102.07,2953.5,100.38Z"/><path class="cls-4" d="M3008.8,122c-6.21-3.6-12.45,0-14.76-.7-2.61,1.44-7.53,3.66,3.18,4.64s10.41,3.1,13.3,2.48S3011.4,123.48,3008.8,122Z"/><path class="cls-4" d="M3013.8,121.54c.51-2.78,3.89-3.32,4.34-4.15,1.39-.25,3.82-.86.86,2.3s-2,3.74-3.18,4.32S3013.59,122.71,3013.8,121.54Z"/><ellipse cx="3008.94" cy="137.4" rx="6.53" ry="4.66" transform="translate(784.14 2167.88) rotate(-45)"/><path d="M3026.48,147.3c.6.43,7.13,5.16,9.4,11.08a10.34,10.34,0,0,1,.71,3.26c-.09,1.82-1.68.23-2.91,1.5-.82.85-.41,1.87-1.34,2.14-.17.05-1.64.49-2.92-1.38-1-1.41-1-2.87-2.19-7.56-1.54-5.93-3-9.06-2.3-9.68C3025.12,146.48,3025.44,146.54,3026.48,147.3Z"/><path class="cls-6" d="M3033.81,161.26a17.89,17.89,0,0,0,2.07,7.25c2.07,4.15-4.14,3.11-4.14,1"/><path class="cls-9" d="M2912.37,312.12l-19.16-3.46,12,12.88-2.66,22.16,13.54-17.56-2.05,28.44,11.87-11.76s7.55.13,9.08,1.87-2.4-9-2.4-9"/><polyline class="cls-9" points="2962.31 160.74 2958.16 180.43 2954.02 166.96 2951.94 189.76 2946.76 173.18 2946.76 203.23 2940.55 188.72"/><path class="cls-10" d="M2958,238c7.66,0,7.67-11.91,0-11.91s-7.68,11.91,0,11.91Z"/><path class="cls-10" d="M2968.11,341.63c7.66,0,7.67-11.9,0-11.9s-7.67,11.9,0,11.9Z"/><path class="cls-11" d="M2950.46,414.36l28.68-29a5.2,5.2,0,1,0-4.28-3.76l-28.44,28.75Z"/><path class="cls-11" d="M2975.53,415s-12.74-10.33-22.13-5.17v0a4,4,0,1,0-2.73,5,3.91,3.91,0,0,0,1.14-.56Z"/><path class="cls-11" d="M2984.17,378.06l-9.66-35.29a9.42,9.42,0,0,0,3.1-7.28l.18,0s4.61-6.72.73-11.39a35.68,35.68,0,0,1-1.57,8.2,9.51,9.51,0,0,0-.81-1.59c.62-2.15,1.73-7-.49-8.45,0,0,.12,6.63-.83,6.65s1.79-5.72-2-6.6a42.31,42.31,0,0,1-.21,5.11,9.22,9.22,0,0,0-1.24-.56c-.32-2.16-.84-5.12-3.29-4.46a12.75,12.75,0,0,1,1.28,4,9.45,9.45,0,0,0-3.1.13,4.09,4.09,0,0,0-3.81-1.15s.92.88,1.72,1.83a9.55,9.55,0,0,0-3.2,2.42c-1.65.24-3.31.85-4.09,2.49a17.62,17.62,0,0,1,2.19,1,9.47,9.47,0,0,0,5.93,11.59,9,9,0,0,0,1.3.35l9.66,35.28Z"/><path class="cls-11" d="M3007,308.83c2.39-4.57-1.36-11.24-8.38-14.9-5.28-2.75-10.9-3-14.38-1l-48.49-25.27a7.09,7.09,0,0,0-12-3.18,7.07,7.07,0,0,1-1.24-4.54c-1.65-.36-.61,4.56-.12,6.57-.09.22-.18.44-.25.66l-5.14-1.94c.31,3,2.79,4.68,4.92,5.6a7.24,7.24,0,0,0,.34,1.12l-9.9.51c1.86,2.48,9.9,3,13.13,3.17a7,7,0,0,0,.73.35l-9.63,4.8c1.84,1.49,10.07-2.82,12.78-4.3a7.37,7.37,0,0,0,2-.44l50.34,26.24a18,18,0,0,0,8.26,8.22C2997,314.14,3004.64,313.4,3007,308.83Z"/><path class="cls-11" d="M2932.25,272.45l24.92-31.39a8.9,8.9,0,0,0,4.19-.68,9,9,0,0,0,2.51-1.6h0s8.54-5.14,8.94-11.49a55.75,55.75,0,0,1-6.12,6.52,9.08,9.08,0,0,0,.15-2.09c1.84-1.44,3.41-3.18,2.61-5.06a37.74,37.74,0,0,1-2.77,3.66,8.32,8.32,0,0,0-.42-1.43c1.33-1.75,2.56-3.88.84-5.36,0,0-.47,2.19-1.23,4.48a9,9,0,0,0-1.55-2.18c.28-1.63.25-3.32-1-3.81a10.24,10.24,0,0,1-.56,2.55,9.15,9.15,0,0,0-3.52-1.37c.05-1.64,0-3.13-.89-3.19a17.77,17.77,0,0,1-.93,3.08,9.16,9.16,0,0,0-3.13.7,9,9,0,0,0-5.43,9.37l-25.78,32.48C2918.58,271.38,2927.69,278.19,2932.25,272.45Z"/></g></svg>
