<svg xmlns="http://www.w3.org/2000/svg" viewBox="0 0 1400.3 500"><defs><style>.cls-1{fill:#264c14;}.cls-2{fill:#93542a;}.cls-3{fill:#f7c6a4;}.cls-4{fill:#367c1d;}.cls-5{fill:#96a362;}.cls-6{fill:#a01227;}.cls-7{fill:none;stroke:#bfd8b4;stroke-miterlimit:10;}.cls-8{fill:#fff;}.cls-9{fill:#39440c;}.cls-10{fill:#2c5b18;}</style></defs><title>frogjump</title><g id="step1"><path class="cls-1" d="M1217.9,457a5,5,0,0,0-3.71,1.65c-10.45-4.75-36.83,7.66-36.83,7.66l38.36.18a5,5,0,0,0,7.16-4.47A5,5,0,0,0,1217.9,457Z"/><path class="cls-1" d="M1225.9,269.13c0-.41,0-.82,0-1.23,0-6.91-5.08-12.47-11.24-12.43s-11.13,5.67-11.08,12.58a13,13,0,0,0,4.22,9.69l-32.3,106.45,6.7,2,2-6.58c3-5.79,13.13-20.93,22-33.9,5.8-6.33,12-12.8,17.77-18.34C1240.52,311.62,1228,274.75,1225.9,269.13Z"/><path class="cls-1" d="M1187.44,381.84a8.75,8.75,0,1,0-6.37,13.37l35.6,70,4.45-2.27-6.91-13.58c-9.92-33-16-49.34-21.86-51.35-2.94-3.67-4.88-4.94-6.06-5.31A8.74,8.74,0,0,0,1187.44,381.84Z"/><path class="cls-1" d="M1238,143.2a8,8,0,0,0-5.12,9.48l-44.7,32.43,3.52,4.86,8.29-6c29-10.83,38.47-19.57,41.11-25.21a8,8,0,1,0-3.1-15.54Z"/><path class="cls-1" d="M1188.9,178.38a7,7,0,0,0-4.65,7.34l-.43,0c-10.44-2.14-38.51-2.86-52.75-3.09-.72-4.07-6.58-7.11-13.62-6.93-7.46.2-13.4,3.94-13.29,8.35s6.26,7.84,13.71,7.65c6-.16,11.07-2.64,12.72-5.92l8,.44c13.07,2.42,37.32,6.39,47,2.91a7,7,0,1,0,3.35-10.73Z"/><path class="cls-2" d="M1194.3,46.25s-13,10-2,13,52-12,78,8,43,17,34,2-5-15-3-20,6-7-10-10c-7-5-3-8-11-13s-6,2-28,10S1200.3,40.25,1194.3,46.25Z"/><path class="cls-3" d="M1261.78,32.22S1296.4,52.7,1299.35,53s0,5.28,0,6.28S1255.62,36.75,1258,34,1261.78,32.22,1261.78,32.22Z"/><path class="cls-4" d="M1138.8,235.75c-20-26.89-13-62-2-95s55-58,58-65,17-63,43-58,22,31,23,39,39,10,46,34,10,20,7,36-14,30-13,45,24.07,111.66-46,122C1193.8,302.75,1173.8,282.75,1138.8,235.75Z"/><ellipse cx="1167.51" cy="109.06" rx="6" ry="3.45" transform="translate(312.9 911.94) rotate(-48.55)"/><path class="cls-5" d="M1173.8,119.75c10-5,19-12,32-8s33,22,4,68c-13,19-25,54-26,67s3.45,41.58-7.28,31.79-57.69-49-49.71-96.38,11.88-46.56,14.44-51.48c4.55-.93,11.55-.93,16.55-2.93S1171.8,121.75,1173.8,119.75Z"/><path class="cls-6" d="M1144.8,142.75s7,2,18-5,31-22,33-9-25,29-33,30-27,3-29,0-.49-12.49,1.25-15.24S1139.8,139.75,1144.8,142.75Z"/><path class="cls-7" d="M1184.8,135.75c-2,1-20,18-51,13"/><path class="cls-8" d="M1223.8,33.75a48.31,48.31,0,0,0-12,17c-1.78,4.29-3.65,8.94-3,15,.25,2.37,1.26,11.14,8,15.07a15.24,15.24,0,0,0,15-.07c9-5,21-21,19-39S1228.8,27.75,1223.8,33.75Z"/><ellipse cx="1218.3" cy="52.75" rx="6" ry="6.5"/><path class="cls-9" d="M1213.42,47.25s32.13,1.64,37.25,3.57c0,0,3.4-21.07-12.24-22.07S1214.05,45.75,1213.42,47.25Z"/><path class="cls-10" d="M1287,104.2c7.66,0,7.68-11.9,0-11.9s-7.67,11.9,0,11.9Z"/><path class="cls-10" d="M1298.3,116.2c7.66,0,7.67-11.9,0-11.9s-7.68,11.9,0,11.9Z"/><path class="cls-10" d="M1283.63,120.87c7.66,0,7.67-11.91,0-11.91s-7.67,11.91,0,11.91Z"/><path class="cls-10" d="M1291.63,243.54c7.66,0,7.67-11.91,0-11.91s-7.67,11.91,0,11.91Z"/><path class="cls-10" d="M1273.63,254.87c7.66,0,7.67-11.91,0-11.91s-7.67,11.91,0,11.91Z"/><path class="cls-10" d="M1290.3,259.54c7.66,0,7.67-11.91,0-11.91s-7.68,11.91,0,11.91Z"/><path class="cls-10" d="M1239.46,456.62a5,5,0,0,0-3.68,1.74c-10.55-4.51-36.64,8.52-36.64,8.52l38.35-.72a5,5,0,1,0,2-9.54Z"/><path class="cls-10" d="M1230.27,268.54c0-.41,0-.82-.08-1.23-.75-6.86-6.32-11.88-12.45-11.21s-10.49,6.77-9.74,13.64a13.06,13.06,0,0,0,5.19,9.21l-21.26,109.2,6.87,1.33,1.32-6.75c2.4-6.06,10.93-22.16,18.42-36,5.13-6.89,10.62-14,15.81-20.06C1249.15,309.32,1232.88,273.93,1230.27,268.54Z"/><path class="cls-10" d="M1204.41,383.88a8.75,8.75,0,1,0-5.65,13.69l39.28,68,4.33-2.5-7.63-13.2c-11.67-32.42-18.6-48.41-24.57-50.11-3.13-3.51-5.14-4.67-6.34-5A8.73,8.73,0,0,0,1204.41,383.88Z"/><path class="cls-10" d="M1231.81,146.2a8,8,0,0,0,4,10l-3.77,55.1,6,.41.7-10.22c10.3-29.23,9.63-42.08,7-47.71a8.37,8.37,0,0,0,1.07-1.95,8,8,0,0,0-15-5.64Z"/><path class="cls-10" d="M1227.08,205.93a7,7,0,0,0-1.26,8.59l-.4.16c-10.4,2.3-36.33,13.08-49.43,18.67-2.31-3.42-8.91-3.82-15.26-.78-6.73,3.22-10.64,9.06-8.73,13s8.9,4.61,15.63,1.4c5.44-2.6,9-6.92,9.2-10.59l7.45-2.84c12.93-3.11,36.69-9.37,44.11-16.49a7,7,0,1,0-1.31-11.16Z"/></g><g id="step2"><path class="cls-1" d="M867.9,457a5,5,0,0,0-3.71,1.65c-10.45-4.75-36.83,7.66-36.83,7.66l38.36.18a5,5,0,0,0,7.16-4.47A5,5,0,0,0,867.9,457Z"/><path class="cls-1" d="M875.43,287.24a11.94,11.94,0,0,0,.19-1.22c.77-6.86-3.58-13-9.71-13.65s-11.71,4.32-12.47,11.18a13.08,13.08,0,0,0,3,10.13L811.94,395.61l6.42,2.81,2.75-6.31c3.67-5.39,15.5-19.24,25.82-31.08,6.51-5.61,13.41-11.31,19.8-16.13C885,331.15,876.81,293.07,875.43,287.24Z"/><path class="cls-1" d="M824.49,388.17a8.75,8.75,0,1,0-4,14.27l47.17,62.74,4-3L862.52,450c-15.47-30.78-24.28-45.82-30.41-46.78-3.53-3.11-5.66-4-6.89-4.18A8.75,8.75,0,0,0,824.49,388.17Z"/><path class="cls-1" d="M888,161.2a8,8,0,0,0-5.12,9.48l-44.7,32.43,3.52,4.86,8.29-6c29-10.83,38.47-19.57,41.11-25.21A8,8,0,1,0,888,161.2Z"/><path class="cls-1" d="M838.9,196.38a7,7,0,0,0-4.65,7.34l-.43,0c-10.44-2.14-38.51-2.86-52.75-3.09-.72-4.07-6.58-7.11-13.62-6.93-7.46.2-13.4,3.94-13.29,8.35s6.26,7.84,13.71,7.65c6-.16,11.07-2.64,12.72-5.92l8,.44c13.07,2.42,37.32,6.39,47,2.91a7,7,0,1,0,3.35-10.73Z"/><path class="cls-2" d="M844.3,64.25s-13,10-2,13,52-12,78,8,43,17,34,2-5-15-3-20,6-7-10-10c-7-5-3-8-11-13s-6,2-28,10S850.3,58.25,844.3,64.25Z"/><path class="cls-3" d="M911.78,50.22S946.4,70.7,949.35,71s0,5.28-.05,6.28S905.62,54.75,908,52,911.78,50.22,911.78,50.22Z"/><path class="cls-4" d="M788.8,253.75c-20-26.89-13-62-2-95s55-58,58-65,17-63,43-58,22,31,23,39,39,10,46,34,10,20,7,36-14,30-13,45,24.07,111.66-46,122C843.8,320.75,823.8,300.75,788.8,253.75Z"/><ellipse cx="817.51" cy="127.06" rx="6" ry="3.45" transform="translate(181.1 655.69) rotate(-48.55)"/><path class="cls-5" d="M823.8,137.75c10-5,19-12,32-8s33,22,4,68c-13,19-25,54-26,67s3.45,41.58-7.28,31.79-57.69-49-49.71-96.38,11.88-46.56,14.44-51.48c4.55-.93,11.55-.93,16.55-2.93S821.8,139.75,823.8,137.75Z"/><path class="cls-6" d="M794.8,160.75s7,2,18-5,31-22,33-9-25,29-33,30-27,3-29,0-.49-12.49,1.25-15.24S789.8,157.75,794.8,160.75Z"/><path class="cls-7" d="M834.8,153.75c-2,1-20,18-51,13"/><path class="cls-8" d="M873.8,51.75a48.31,48.31,0,0,0-12,17c-1.78,4.29-3.65,8.94-3,15,.25,2.37,1.26,11.14,8,15.07a15.24,15.24,0,0,0,15-.07c9-5,21-21,19-39S878.8,45.75,873.8,51.75Z"/><ellipse cx="868.3" cy="70.75" rx="6" ry="6.5"/><path class="cls-9" d="M863.42,65.25s32.13,1.64,37.25,3.57c0,0,3.4-21.07-12.24-22.07S864.05,63.75,863.42,65.25Z"/><path class="cls-10" d="M937,122.2c7.66,0,7.68-11.9,0-11.9s-7.67,11.9,0,11.9Z"/><path class="cls-10" d="M948.3,134.2c7.66,0,7.67-11.9,0-11.9s-7.68,11.9,0,11.9Z"/><path class="cls-10" d="M933.63,138.87c7.66,0,7.67-11.91,0-11.91s-7.67,11.91,0,11.91Z"/><path class="cls-10" d="M941.63,261.54c7.66,0,7.67-11.91,0-11.91s-7.67,11.91,0,11.91Z"/><path class="cls-10" d="M923.63,272.87c7.66,0,7.67-11.91,0-11.91s-7.67,11.91,0,11.91Z"/><path class="cls-10" d="M940.3,277.54c7.66,0,7.67-11.91,0-11.91s-7.68,11.91,0,11.91Z"/><path class="cls-10" d="M889.46,456.62a5,5,0,0,0-3.68,1.74c-10.55-4.51-36.64,8.52-36.64,8.52l38.35-.72a5,5,0,1,0,2-9.54Z"/><path class="cls-10" d="M879.63,287.8a12.29,12.29,0,0,0,.08-1.23c.12-6.9-4.77-12.58-10.94-12.69s-11.25,5.39-11.38,12.29a13,13,0,0,0,4,9.8L826.49,401.6l6.64,2.2,2.16-6.53c3.15-5.71,13.64-20.6,22.82-33.35,6-6.19,12.3-12.51,18.22-17.9C893.21,330.64,881.55,293.48,879.63,287.8Z"/><path class="cls-10" d="M837.32,394A8.75,8.75,0,1,0,835,408.64l53.93,57,3.64-3.44-10.48-11.08c-18.84-28.84-29.29-42.79-35.48-43.06-3.87-2.69-6.08-3.36-7.32-3.38A8.75,8.75,0,0,0,837.32,394Z"/><path class="cls-10" d="M881.81,164.2a8,8,0,0,0,4,10L882,229.31l6,.41.7-10.22c10.3-29.23,9.63-42.08,7-47.71a8.37,8.37,0,0,0,1.07-1.95,8,8,0,0,0-15-5.64Z"/><path class="cls-10" d="M877.08,223.93a7,7,0,0,0-1.26,8.59l-.4.16C865,235,839.09,245.76,826,251.35c-2.31-3.42-8.91-3.82-15.26-.78-6.73,3.22-10.64,9.06-8.73,13s8.9,4.61,15.63,1.4c5.44-2.6,9-6.92,9.2-10.59l7.45-2.84c12.93-3.11,36.69-9.37,44.11-16.49a7,7,0,1,0-1.31-11.16Z"/></g><g id="step3"><path class="cls-1" d="M518.06,457a5,5,0,0,0-3.71,1.65c-10.45-4.75-36.83,7.66-36.83,7.66l38.36.18a5,5,0,1,0,2.18-9.49Z"/><path class="cls-1" d="M526.06,269.13c0-.41.05-.82.05-1.23,0-6.91-5.08-12.47-11.24-12.43s-11.13,5.67-11.08,12.58a13.07,13.07,0,0,0,4.22,9.69l-32.3,106.45,6.7,2,2-6.58c3-5.79,13.13-20.93,22-33.9,5.8-6.33,12-12.8,17.77-18.34C540.68,311.62,528.11,274.75,526.06,269.13Z"/><path class="cls-1" d="M487.6,381.84a8.75,8.75,0,1,0-6.37,13.37l35.6,70,4.45-2.27-6.91-13.58c-9.92-33-16-49.34-21.86-51.35-2.94-3.67-4.88-4.94-6.06-5.31A8.74,8.74,0,0,0,487.6,381.84Z"/><path class="cls-1" d="M538.21,143.2a8,8,0,0,0-5.13,9.48l-44.7,32.43L491.9,190l8.29-6c29-10.83,38.47-19.57,41.11-25.21a8,8,0,1,0-3.09-15.54Z"/><path class="cls-1" d="M489.06,178.38a7,7,0,0,0-4.65,7.34l-.43,0c-10.44-2.14-38.51-2.86-52.75-3.09-.72-4.07-6.58-7.11-13.62-6.93-7.46.2-13.4,3.94-13.29,8.35s6.26,7.84,13.71,7.65c6-.16,11.07-2.64,12.72-5.92l8,.44c13.07,2.42,37.33,6.39,47,2.91a7,7,0,1,0,3.35-10.73Z"/><path class="cls-2" d="M494.46,46.25s-13,10-2,13,52-12,78,8,43,17,34,2-5-15-3-20,6-7-10-10c-7-5-3-8-11-13s-6,2-28,10S500.46,40.25,494.46,46.25Z"/><path class="cls-3" d="M561.94,32.22S596.56,52.7,599.51,53s0,5.28,0,6.28S555.79,36.75,558.12,34,561.94,32.22,561.94,32.22Z"/><path class="cls-4" d="M439,235.75c-20-26.89-13-62-2-95s55-58,58-65,17-63,43-58,22,31,23,39,39,10,46,34,10,20,7,36-14,30-13,45,24.07,111.66-46,122C494,302.75,474,282.75,439,235.75Z"/><ellipse cx="467.67" cy="109.06" rx="6" ry="3.45" transform="translate(76.34 387.39) rotate(-48.55)"/><path class="cls-5" d="M474,119.75c10-5,19-12,32-8s33,22,4,68c-13,19-25,54-26,67s3.46,41.58-7.27,31.79-57.7-49-49.72-96.38,11.89-46.56,14.44-51.48c4.55-.93,11.55-.93,16.55-2.93S472,121.75,474,119.75Z"/><path class="cls-6" d="M445,142.75s7,2,18-5,31-22,33-9-25,29-33,30-27,3-29,0-.49-12.49,1.25-15.24S440,139.75,445,142.75Z"/><path class="cls-7" d="M485,135.75c-2,1-20,18-51,13"/><path class="cls-8" d="M524,33.75a48.31,48.31,0,0,0-12,17c-1.78,4.29-3.64,8.94-3,15,.25,2.37,1.26,11.14,7.95,15.07A15.24,15.24,0,0,0,532,80.75c9-5,21-21,19-39S529,27.75,524,33.75Z"/><ellipse cx="518.46" cy="52.75" rx="6" ry="6.5"/><path class="cls-9" d="M513.59,47.25s32.12,1.64,37.24,3.57c0,0,3.4-21.07-12.24-22.07S514.21,45.75,513.59,47.25Z"/><path class="cls-10" d="M587.12,104.2c7.67,0,7.68-11.9,0-11.9s-7.67,11.9,0,11.9Z"/><path class="cls-10" d="M598.46,116.2c7.66,0,7.67-11.9,0-11.9s-7.68,11.9,0,11.9Z"/><path class="cls-10" d="M583.79,120.87c7.66,0,7.67-11.91,0-11.91s-7.67,11.91,0,11.91Z"/><path class="cls-10" d="M591.79,243.54c7.66,0,7.67-11.91,0-11.91s-7.67,11.91,0,11.91Z"/><path class="cls-10" d="M573.79,254.87c7.66,0,7.67-11.91,0-11.91s-7.67,11.91,0,11.91Z"/><path class="cls-10" d="M590.46,259.54c7.66,0,7.67-11.91,0-11.91s-7.68,11.91,0,11.91Z"/><path class="cls-10" d="M539.62,456.62a5,5,0,0,0-3.68,1.74c-10.55-4.51-36.64,8.52-36.64,8.52l38.35-.72a5,5,0,0,0,2.16.46,5,5,0,0,0-.19-10Z"/><path class="cls-10" d="M530.43,268.54c0-.41,0-.82-.08-1.23-.75-6.86-6.32-11.88-12.45-11.21s-10.49,6.77-9.74,13.64a13.09,13.09,0,0,0,5.19,9.21l-21.26,109.2,6.87,1.33,1.32-6.75c2.4-6.06,10.93-22.16,18.42-36,5.13-6.89,10.62-14,15.81-20.06C549.31,309.32,533.05,273.93,530.43,268.54Z"/><path class="cls-10" d="M504.57,383.88a8.75,8.75,0,1,0-5.65,13.69l39.28,68,4.33-2.5-7.63-13.2c-11.67-32.42-18.6-48.41-24.57-50.11-3.13-3.51-5.13-4.67-6.33-5A8.73,8.73,0,0,0,504.57,383.88Z"/><path class="cls-10" d="M532,146.2a8,8,0,0,0,4,10l-3.77,55.1,6,.41.7-10.22c10.3-29.23,9.64-42.08,7-47.71a8.37,8.37,0,0,0,1.07-1.95,8,8,0,1,0-15-5.64Z"/><path class="cls-10" d="M527.24,205.93a7,7,0,0,0-1.25,8.59l-.41.16c-10.4,2.3-36.33,13.08-49.43,18.67-2.31-3.42-8.9-3.82-15.26-.78-6.73,3.22-10.64,9.06-8.73,13s8.9,4.61,15.63,1.4c5.44-2.6,9-6.92,9.2-10.59l7.45-2.84c12.93-3.11,36.69-9.37,44.12-16.49a7,7,0,1,0-1.32-11.16Z"/></g><g id="step4"><path class="cls-1" d="M163.6,445.84a5,5,0,0,0-3.1,2.64c-11.36-1.59-33.14,17.79-33.14,17.79l36.83-10.71a4.85,4.85,0,0,0,2.2-.12,5,5,0,0,0-2.79-9.6Z"/><path class="cls-1" d="M175.74,259.91q.06-.6.06-1.23c0-6.9-5-12.51-11.13-12.53s-11.17,5.57-11.19,12.47a13.07,13.07,0,0,0,4.13,9.74L124.33,374.51,131,376.6l2.05-6.56c3.07-5.76,13.34-20.81,22.32-33.69,5.86-6.28,12.11-12.69,17.94-18.17C190,302.54,177.74,265.56,175.74,259.91Z"/><path class="cls-1" d="M137.32,368.62a8.75,8.75,0,1,0-7,13.06l32.23,71.57,4.56-2.05-6.26-13.9c-8.34-33.43-13.62-50-19.39-52.33-2.77-3.81-4.64-5.16-5.8-5.59A8.76,8.76,0,0,0,137.32,368.62Z"/><path class="cls-1" d="M188,127.77a8,8,0,0,0-5.12,9.48l-44.7,32.43,3.52,4.85,8.29-6c29-10.83,38.47-19.58,41.11-25.22a7.6,7.6,0,0,0,2.18-.43,8,8,0,1,0-5.28-15.1Z"/><path class="cls-1" d="M138.9,163a7,7,0,0,0-4.65,7.34l-.43,0c-10.44-2.13-38.51-2.86-52.75-3.09-.72-4.06-6.58-7.11-13.62-6.92-7.46.19-13.4,3.93-13.29,8.35s6.26,7.84,13.71,7.64c6-.16,11.07-2.64,12.72-5.92l8,.44c13.07,2.43,37.32,6.39,47,2.92A7,7,0,1,0,138.9,163Z"/><path class="cls-2" d="M144.3,30.82s-13,10-2,13,52-12,78,8,43,17,34,2-5-15-3-20,6-7-10-10c-7-5-3-8-11-13s-6,2-28,10S150.3,24.82,144.3,30.82Z"/><path class="cls-3" d="M211.78,16.78s34.62,20.48,37.57,20.76,0,5.28,0,6.28S205.62,21.31,208,18.56,211.78,16.78,211.78,16.78Z"/><path class="cls-4" d="M88.8,220.32c-20-26.89-13-62-2-95s55-58,58-65,17-63,43-58,22,31,23,39,39,10,46,34,10,20,7,36-14,30-13,45,24.07,111.66-46,122C143.8,287.32,123.8,267.32,88.8,220.32Z"/><ellipse cx="117.51" cy="93.62" rx="6" ry="3.45" transform="translate(-30.45 119.72) rotate(-48.55)"/><path class="cls-5" d="M123.8,104.32c10-5,19-12,32-8s33,22,4,68c-13,19-25,54-26,67s3.45,41.58-7.28,31.79-57.69-49-49.71-96.39,11.88-46.55,14.44-51.48c4.55-.92,11.55-.92,16.55-2.92S121.8,106.32,123.8,104.32Z"/><path class="cls-6" d="M94.8,127.32s7,2,18-5,31-22,33-9-25,29-33,30-27,3-29,0-.49-12.49,1.25-15.25S89.8,124.32,94.8,127.32Z"/><path class="cls-7" d="M134.8,120.32c-2,1-20,18-51,13"/><path class="cls-8" d="M173.8,18.32a48.13,48.13,0,0,0-12,17c-1.78,4.29-3.65,8.93-3,15,.25,2.36,1.26,11.14,7.95,15.06a15.24,15.24,0,0,0,15.05-.06c9-5,21-21,19-39S178.8,12.32,173.8,18.32Z"/><ellipse cx="168.3" cy="37.32" rx="6" ry="6.5"/><path class="cls-9" d="M163.42,31.82s32.13,1.64,37.25,3.57c0,0,3.4-21.07-12.24-22.07S164.05,30.32,163.42,31.82Z"/><path class="cls-10" d="M237,88.77c7.66,0,7.68-11.91,0-11.91s-7.67,11.91,0,11.91Z"/><path class="cls-10" d="M248.3,100.77c7.66,0,7.67-11.91,0-11.91s-7.68,11.91,0,11.91Z"/><path class="cls-10" d="M233.63,105.44c7.66,0,7.67-11.91,0-11.91s-7.67,11.91,0,11.91Z"/><path class="cls-10" d="M241.63,228.1c7.66,0,7.67-11.9,0-11.9s-7.67,11.9,0,11.9Z"/><path class="cls-10" d="M223.63,247c7.66,0,7.67-11.91,0-11.91S216,247,223.63,247Z"/><path class="cls-10" d="M240.3,251.7c7.66,0,7.67-11.9,0-11.9s-7.68,11.9,0,11.9Z"/><path class="cls-10" d="M186.3,448.17a5,5,0,0,0-3.21,2.5c-11.28-2.13-34,16.21-34,16.21l37.3-9a5,5,0,0,0,2.2,0,5,5,0,0,0-2.34-9.73Z"/><path class="cls-10" d="M179.82,260.09c0-.4-.06-.81-.12-1.22-1-6.83-6.81-11.61-12.91-10.69s-10.2,7.19-9.17,14a13.1,13.1,0,0,0,5.57,9l-16.78,110,6.92,1.05,1-6.79c2.16-6.16,10-22.59,16.94-36.69,4.84-7.1,10-14.39,15-20.69C200.35,300.07,182.66,265.37,179.82,260.09Z"/><path class="cls-10" d="M159.42,371.64a8.75,8.75,0,1,0-6.81,13.16l33.27,71.09,4.53-2.12L184,440c-8.83-33.3-14.35-49.83-20.15-52-2.83-3.77-4.72-5.1-5.89-5.51A8.74,8.74,0,0,0,159.42,371.64Z"/><path class="cls-10" d="M181.81,130.77a8,8,0,0,0,4,10L182,195.87l6,.41.7-10.22c10.3-29.23,9.63-42.07,7-47.71a8,8,0,1,0-13.91-7.58Z"/><path class="cls-10" d="M177.08,190.5a7,7,0,0,0-1.26,8.59l-.4.15c-10.4,2.31-36.33,13.08-49.43,18.67-2.31-3.42-8.91-3.81-15.26-.77-6.73,3.21-10.64,9.05-8.73,13s8.9,4.61,15.63,1.39c5.44-2.6,9-6.92,9.2-10.58l7.45-2.85c12.93-3.11,36.69-9.37,44.11-16.48a7,7,0,1,0-1.31-11.16Z"/></g></svg>
