<svg xmlns="http://www.w3.org/2000/svg" viewBox="0 0 2800 500"><defs><style>.cls-1{fill:#264c14;}.cls-2{fill:#93542a;}.cls-3{fill:#f7c6a4;}.cls-4{fill:#367c1d;}.cls-5{fill:#96a362;}.cls-6{fill:#a01227;}.cls-7{fill:none;}.cls-11,.cls-7{stroke:#bfd8b4;stroke-miterlimit:10;}.cls-8{fill:#fff;}.cls-9{fill:#39440c;}.cls-10{fill:#2c5b18;}.cls-11{fill:#6d3758;}</style></defs><title>frogtalk</title><g id="step2"><path class="cls-1" d="M2617.75,457a5,5,0,0,0-3.71,1.65c-10.45-4.75-36.83,7.66-36.83,7.66l38.36.18a5,5,0,1,0,2.18-9.49Z"/><path class="cls-1" d="M2625.28,287.24a11.94,11.94,0,0,0,.19-1.22c.77-6.86-3.58-13-9.71-13.65s-11.71,4.32-12.47,11.18a13.05,13.05,0,0,0,3.06,10.13l-44.56,101.93,6.42,2.81,2.75-6.31c3.67-5.39,15.5-19.24,25.82-31.08,6.51-5.61,13.41-11.31,19.8-16.13C2634.82,331.15,2626.66,293.07,2625.28,287.24Z"/><path class="cls-1" d="M2574.34,388.17a8.75,8.75,0,1,0-4,14.27l47.16,62.74,4-3L2612.38,450c-15.48-30.78-24.29-45.82-30.41-46.78-3.54-3.11-5.67-4-6.89-4.18A8.75,8.75,0,0,0,2574.34,388.17Z"/><path class="cls-1" d="M2637.9,161.2a8,8,0,0,0-5.13,9.48l-44.7,32.43,3.52,4.86,8.29-6c29-10.83,38.47-19.57,41.11-25.21a8,8,0,1,0-3.09-15.54Z"/><path class="cls-1" d="M2588.75,196.38a7,7,0,0,0-4.65,7.34l-.43,0c-10.44-2.14-38.51-2.86-52.75-3.09-.72-4.07-6.58-7.11-13.62-6.93-7.45.2-13.4,3.94-13.29,8.35s6.26,7.84,13.71,7.65c6-.16,11.07-2.64,12.72-5.92l8,.44c13.07,2.42,37.33,6.39,47,2.91a7,7,0,1,0,3.35-10.73Z"/><path class="cls-2" d="M2594.15,64.25s-13,10-2,13,52-12,78,8,43,17,34,2-5-15-3-20,6-7-10-10c-7-5-3-8-11-13s-6,2-28,10S2600.15,58.25,2594.15,64.25Z"/><path class="cls-3" d="M2661.63,50.22S2696.25,70.7,2699.2,71s0,5.28,0,6.28-43.67-22.5-41.34-25.25S2661.63,50.22,2661.63,50.22Z"/><path class="cls-4" d="M2538.65,253.75c-20-26.89-13-62-2-95s55-58,58-65,17-63,43-58,22,31,23,39,39,10,46,34,10,20,7,36-14,30-13,45,24.07,111.66-46,122C2593.65,320.75,2573.65,300.75,2538.65,253.75Z"/><ellipse cx="2567.36" cy="127.06" rx="6" ry="3.45" transform="translate(772.59 1967.24) rotate(-48.55)"/><path class="cls-5" d="M2573.65,137.75c10-5,19-12,32-8s33,22,4,68c-13,19-25,54-26,67s3.46,41.58-7.27,31.79-57.7-49-49.72-96.38,11.89-46.56,14.44-51.48c4.55-.93,11.55-.93,16.55-2.93S2571.65,139.75,2573.65,137.75Z"/><path class="cls-6" d="M2544.65,160.75s7,2,18-5,31-22,33-9-25,29-33,30-27,3-29,0-.49-12.49,1.26-15.24S2539.65,157.75,2544.65,160.75Z"/><path class="cls-7" d="M2584.65,153.75c-2,1-20,18-51,13"/><path class="cls-8" d="M2623.65,51.75a48.31,48.31,0,0,0-12,17c-1.78,4.29-3.64,8.94-3,15,.25,2.37,1.26,11.14,7.95,15.07a15.24,15.24,0,0,0,15.05-.07c9-5,21-21,19-39S2628.65,45.75,2623.65,51.75Z"/><ellipse cx="2618.15" cy="70.75" rx="6" ry="6.5"/><path class="cls-9" d="M2613.28,65.25s32.12,1.64,37.24,3.57c0,0,3.4-21.07-12.23-22.07S2613.9,63.75,2613.28,65.25Z"/><path class="cls-10" d="M2686.81,122.2c7.67,0,7.68-11.9,0-11.9s-7.67,11.9,0,11.9Z"/><path class="cls-10" d="M2698.15,134.2c7.66,0,7.67-11.9,0-11.9s-7.68,11.9,0,11.9Z"/><path class="cls-10" d="M2683.48,138.87c7.66,0,7.68-11.91,0-11.91s-7.67,11.91,0,11.91Z"/><path class="cls-10" d="M2691.48,261.54c7.66,0,7.68-11.91,0-11.91s-7.67,11.91,0,11.91Z"/><path class="cls-10" d="M2673.48,272.87c7.66,0,7.68-11.91,0-11.91s-7.67,11.91,0,11.91Z"/><path class="cls-10" d="M2690.15,277.54c7.66,0,7.67-11.91,0-11.91s-7.68,11.91,0,11.91Z"/><path class="cls-10" d="M2639.31,456.62a5,5,0,0,0-3.68,1.74c-10.55-4.51-36.64,8.52-36.64,8.52l38.35-.72a5,5,0,0,0,2.16.46,5,5,0,0,0-.19-10Z"/><path class="cls-10" d="M2629.49,287.8c0-.4.07-.81.07-1.23.13-6.9-4.77-12.58-10.93-12.69s-11.26,5.39-11.39,12.29a13.07,13.07,0,0,0,4,9.8L2576.34,401.6l6.65,2.2,2.15-6.53c3.15-5.71,13.65-20.6,22.83-33.35,6-6.19,12.29-12.51,18.21-17.9C2643.06,330.64,2631.4,293.48,2629.49,287.8Z"/><path class="cls-10" d="M2587.18,394a8.75,8.75,0,1,0-2.33,14.63l53.92,57,3.64-3.44-10.48-11.08c-18.84-28.84-29.28-42.79-35.48-43.06-3.87-2.69-6.08-3.36-7.32-3.38A8.76,8.76,0,0,0,2587.18,394Z"/><path class="cls-10" d="M2631.66,164.2a8,8,0,0,0,4,10l-3.77,55.1,6,.41.7-10.22c10.3-29.23,9.64-42.08,7-47.71a8.37,8.37,0,0,0,1.07-1.95,8,8,0,0,0-15-5.64Z"/><path class="cls-10" d="M2626.93,223.93a7,7,0,0,0-1.25,8.59l-.41.16c-10.4,2.3-36.33,13.08-49.43,18.67-2.31-3.42-8.9-3.82-15.26-.78-6.73,3.22-10.64,9.06-8.73,13s8.9,4.61,15.63,1.4c5.44-2.6,9-6.92,9.2-10.59l7.45-2.84c12.93-3.11,36.7-9.37,44.12-16.49a7,7,0,1,0-1.32-11.16Z"/></g><g id="Layer_4" data-name="Layer 4"><path class="cls-1" d="M2267.75,457a5,5,0,0,0-3.71,1.65c-10.45-4.75-36.83,7.66-36.83,7.66l38.36.18a5,5,0,1,0,2.18-9.49Z"/><path class="cls-1" d="M2275.28,287.24a11.94,11.94,0,0,0,.19-1.22c.77-6.86-3.58-13-9.71-13.65s-11.71,4.32-12.47,11.18a13.05,13.05,0,0,0,3.06,10.13l-44.56,101.93,6.42,2.81,2.75-6.31c3.67-5.39,15.5-19.24,25.82-31.08,6.51-5.61,13.41-11.31,19.8-16.13C2284.82,331.15,2276.66,293.07,2275.28,287.24Z"/><path class="cls-1" d="M2224.34,388.17a8.75,8.75,0,1,0-4,14.27l47.16,62.74,4-3L2262.38,450c-15.48-30.78-24.29-45.82-30.41-46.78-3.54-3.11-5.67-4-6.89-4.18A8.75,8.75,0,0,0,2224.34,388.17Z"/><path class="cls-1" d="M2290.29,161.6a8,8,0,0,0-8.72,6.32l-54.34,9.87,1.07,5.9,10.08-1.83c30.87,2.82,43.15-1,48-4.92a7.81,7.81,0,0,0,2.16.56,8,8,0,1,0,1.78-15.9Z"/><path class="cls-1" d="M2230.76,172a7,7,0,0,0-7.37,4.6l-.38-.21c-8.48-6.45-33.47-19.26-46.2-25.63,1.11-4-2.85-9.26-9.28-12.15-6.8-3-13.78-2.25-15.59,1.78s2.24,9.77,9,12.82c5.5,2.47,11.12,2.42,14,.18l7,3.84c10.73,7.85,30.88,21.93,41.1,23a7,7,0,1,0,7.67-8.22Z"/><path class="cls-2" d="M2244.15,64.25s-13,10-2,13,52-12,78,8,43,17,34,2-5-15-3-20,6-7-10-10c-7-5-3-8-11-13s-6,2-28,10S2250.15,58.25,2244.15,64.25Z"/><path class="cls-3" d="M2311.63,50.22S2346.25,70.7,2349.2,71s0,5.28,0,6.28-43.67-22.5-41.34-25.25S2311.63,50.22,2311.63,50.22Z"/><path class="cls-4" d="M2188.65,253.75c-20-26.89-13-62-2-95s55-58,58-65,17-63,43-58,22,31,23,39,39,10,46,34,10,20,7,36-14,30-13,45,24.07,111.66-46,122C2243.65,320.75,2223.65,300.75,2188.65,253.75Z"/><ellipse cx="2217.36" cy="127.06" rx="6" ry="3.45" transform="translate(654.28 1704.91) rotate(-48.55)"/><path class="cls-5" d="M2223.65,137.75c10-5,19-12,32-8s33,22,4,68c-13,19-25,54-26,67s3.46,41.58-7.27,31.79-57.7-49-49.72-96.38,11.89-46.56,14.44-51.48c4.55-.93,11.55-.93,16.55-2.93S2221.65,139.75,2223.65,137.75Z"/><path class="cls-6" d="M2194.65,160.75s7,2,18-5,31-22,33-9-22.5,50.5-30.5,51.5-29.5-18.5-31.5-21.5-.49-12.49,1.26-15.24S2189.65,157.75,2194.65,160.75Z"/><path class="cls-11" d="M2183.57,167.24l.16-1a70,70,0,0,0,12.47.9q3.09-.06,6.12-.41A63.44,63.44,0,0,0,2233,154.28a15.12,15.12,0,0,1,1.41-1l.45.9a12.85,12.85,0,0,0-1.26.89c-9,6.66-14.14,31.59-24.46,33.16C2206,188.73,2187.42,167.86,2183.57,167.24Z"/><path class="cls-8" d="M2273.65,51.75a48.31,48.31,0,0,0-12,17c-1.78,4.29-3.64,8.94-3,15,.25,2.37,1.26,11.14,7.95,15.07a15.24,15.24,0,0,0,15.05-.07c9-5,21-21,19-39S2278.65,45.75,2273.65,51.75Z"/><ellipse cx="2268.15" cy="70.75" rx="6" ry="6.5"/><path class="cls-9" d="M2268.15,57.25s26.87.07,32,2c0,0,3.77-11.5-11.86-12.5S2268.78,55.75,2268.15,57.25Z"/><path class="cls-10" d="M2336.81,122.2c7.67,0,7.68-11.9,0-11.9s-7.67,11.9,0,11.9Z"/><path class="cls-10" d="M2348.15,134.2c7.66,0,7.67-11.9,0-11.9s-7.68,11.9,0,11.9Z"/><path class="cls-10" d="M2333.48,138.87c7.66,0,7.68-11.91,0-11.91s-7.67,11.91,0,11.91Z"/><path class="cls-10" d="M2341.48,261.54c7.66,0,7.68-11.91,0-11.91s-7.67,11.91,0,11.91Z"/><path class="cls-10" d="M2323.48,272.87c7.66,0,7.68-11.91,0-11.91s-7.67,11.91,0,11.91Z"/><path class="cls-10" d="M2340.15,277.54c7.66,0,7.67-11.91,0-11.91s-7.68,11.91,0,11.91Z"/><path class="cls-10" d="M2289.31,456.62a5,5,0,0,0-3.68,1.74c-10.55-4.51-36.64,8.52-36.64,8.52l38.35-.72a5,5,0,0,0,2.16.46,5,5,0,0,0-.19-10Z"/><path class="cls-10" d="M2279.49,287.8c0-.4.07-.81.07-1.23.13-6.9-4.77-12.58-10.93-12.69s-11.26,5.39-11.39,12.29a13.07,13.07,0,0,0,4,9.8L2226.34,401.6l6.65,2.2,2.15-6.53c3.15-5.71,13.65-20.6,22.83-33.35,6-6.19,12.29-12.51,18.21-17.9C2293.06,330.64,2281.4,293.48,2279.49,287.8Z"/><path class="cls-10" d="M2237.18,394a8.75,8.75,0,1,0-2.33,14.63l53.92,57,3.64-3.44-10.48-11.08c-18.84-28.84-29.28-42.79-35.48-43.06-3.87-2.69-6.08-3.36-7.32-3.38A8.76,8.76,0,0,0,2237.18,394Z"/><path class="cls-10" d="M2285.38,159.87a8,8,0,0,0-3,10.34l-36.89,41.1,4.46,4,6.85-7.63c26.11-16.69,33.49-27.22,34.88-33.29a7.84,7.84,0,0,0,2-.88,8,8,0,1,0-8.34-13.65Z"/><path class="cls-10" d="M2244.89,204a7,7,0,0,0-6.28,6l-.42-.12c-9.61-4.59-36.68-12.06-50.44-15.72.28-4.12-4.67-8.49-11.55-10-7.29-1.61-14,.59-14.91,4.9s4.18,9.11,11.46,10.72c5.89,1.3,11.38.11,13.77-2.68l7.62,2.35c12.1,5.5,34.68,15.2,44.91,14.16a7,7,0,1,0,5.84-9.61Z"/><polygon class="cls-8" points="2202.15 172.25 2195.15 172.25 2195.15 167.17 2201.8 166.8 2202.15 172.25"/><polygon class="cls-8" points="2211.55 170.63 2204.65 171.79 2203.81 166.78 2210.3 165.32 2211.55 170.63"/></g><g id="Layer_5" data-name="Layer 5"><path class="cls-1" d="M1917.75,457a5,5,0,0,0-3.71,1.65c-10.45-4.75-36.83,7.66-36.83,7.66l38.36.18a5,5,0,1,0,2.18-9.49Z"/><path class="cls-1" d="M1925.28,287.24a11.94,11.94,0,0,0,.19-1.22c.77-6.86-3.58-13-9.71-13.65s-11.71,4.32-12.47,11.18a13.05,13.05,0,0,0,3.06,10.13l-44.56,101.93,6.42,2.81,2.75-6.31c3.67-5.39,15.5-19.24,25.82-31.08,6.51-5.61,13.41-11.31,19.8-16.13C1934.82,331.15,1926.66,293.07,1925.28,287.24Z"/><path class="cls-1" d="M1874.34,388.17a8.75,8.75,0,1,0-4,14.27l47.16,62.74,4-3L1912.38,450c-15.48-30.78-24.29-45.82-30.41-46.78-3.54-3.11-5.67-4-6.89-4.18A8.75,8.75,0,0,0,1874.34,388.17Z"/><path class="cls-1" d="M1943,162.07a8,8,0,0,0-10.61,1.86L1879.24,149l-1.62,5.78,9.86,2.77c26.51,16,39.22,18,45.28,16.58a7.89,7.89,0,0,0,1.69,1.45,8,8,0,0,0,8.57-13.51Z"/><path class="cls-1" d="M1884.94,145.36a7,7,0,0,0-8.64.91l-.25-.35c-4.81-9.51-21.66-32-30.31-43.28,2.74-3.09,1.49-9.57-3-15-4.78-5.73-11.4-8.07-14.79-5.24s-2.27,9.77,2.51,15.49c3.87,4.63,8.94,7,12.54,6.3l4.59,6.52c6.21,11.75,18.15,33.23,26.88,38.66a7,7,0,1,0,10.5-4Z"/><path class="cls-2" d="M1894.15,64.25s-13,10-2,13,52-12,78,8,43,17,34,2-5-15-3-20,6-7-10-10c-7-5-3-8-11-13s-6,2-28,10S1900.15,58.25,1894.15,64.25Z"/><path class="cls-3" d="M1961.63,50.22S1996.25,70.7,1999.2,71s0,5.28,0,6.28-43.67-22.5-41.34-25.25S1961.63,50.22,1961.63,50.22Z"/><path class="cls-4" d="M1838.65,253.75c-20-26.89-13-62-2-95s55-58,58-65,17-63,43-58,22,31,23,39,39,10,46,34,10,20,7,36-14,30-13,45,24.07,111.66-46,122C1893.65,320.75,1873.65,300.75,1838.65,253.75Z"/><ellipse cx="1867.36" cy="127.06" rx="6" ry="3.45" transform="translate(535.97 1442.57) rotate(-48.55)"/><path class="cls-5" d="M1873.65,137.75c10-5,19-12,32-8s33,22,4,68c-13,19-25,54-26,67s3.46,41.58-7.27,31.79-57.7-49-49.72-96.38,11.89-46.56,14.44-51.48c4.55-.93,11.55-.93,16.55-2.93S1871.65,139.75,1873.65,137.75Z"/><path class="cls-6" d="M1844.65,160.75s7,2,18-5,31-22,33-9-25,29-33,30-27,3-29,0-.49-12.49,1.26-15.24S1839.65,157.75,1844.65,160.75Z"/><path class="cls-7" d="M1884.65,153.75c-2,1-20,18-51,13"/><path class="cls-8" d="M1923.65,51.75a48.31,48.31,0,0,0-12,17c-1.78,4.29-3.64,8.94-3,15,.25,2.37,1.26,11.14,7.95,15.07a15.24,15.24,0,0,0,15.05-.07c9-5,21-21,19-39S1928.65,45.75,1923.65,51.75Z"/><ellipse cx="1918.15" cy="70.75" rx="6" ry="6.5"/><path class="cls-9" d="M1925.15,50.25s18.87,3.07,24,5c0,0,0-6-10.86-8.5C1933.15,46.25,1925.78,48.75,1925.15,50.25Z"/><path class="cls-10" d="M1986.81,122.2c7.67,0,7.68-11.9,0-11.9s-7.67,11.9,0,11.9Z"/><path class="cls-10" d="M1998.15,134.2c7.66,0,7.67-11.9,0-11.9s-7.68,11.9,0,11.9Z"/><path class="cls-10" d="M1983.48,138.87c7.66,0,7.68-11.91,0-11.91s-7.67,11.91,0,11.91Z"/><path class="cls-10" d="M1991.48,261.54c7.66,0,7.68-11.91,0-11.91s-7.67,11.91,0,11.91Z"/><path class="cls-10" d="M1973.48,272.87c7.66,0,7.68-11.91,0-11.91s-7.67,11.91,0,11.91Z"/><path class="cls-10" d="M1990.15,277.54c7.66,0,7.67-11.91,0-11.91s-7.68,11.91,0,11.91Z"/><path class="cls-10" d="M1939.31,456.62a5,5,0,0,0-3.68,1.74c-10.55-4.51-36.64,8.52-36.64,8.52l38.35-.72a5,5,0,0,0,2.16.46,5,5,0,0,0-.19-10Z"/><path class="cls-10" d="M1929.49,287.8c0-.4.07-.81.07-1.23.13-6.9-4.77-12.58-10.93-12.69s-11.26,5.39-11.39,12.29a13.07,13.07,0,0,0,4,9.8L1876.34,401.6l6.65,2.2,2.15-6.53c3.15-5.71,13.65-20.6,22.83-33.35,6-6.19,12.29-12.51,18.21-17.9C1943.06,330.64,1931.4,293.48,1929.49,287.8Z"/><path class="cls-10" d="M1887.18,394a8.75,8.75,0,1,0-2.33,14.63l53.92,57,3.64-3.44-10.48-11.08c-18.84-28.84-29.28-42.79-35.48-43.06-3.87-2.69-6.08-3.36-7.32-3.38A8.76,8.76,0,0,0,1887.18,394Z"/><path class="cls-10" d="M1944.69,159.67a8,8,0,0,0-9.58,4.93l-55.2,1.56.16,6,10.25-.29c30.08,7.45,42.8,5.54,48.16,2.38a8.17,8.17,0,0,0,2,.87,8,8,0,0,0,4.16-15.44Z"/><path class="cls-10" d="M1882.6,159.36a7,7,0,0,0-8.29,2.6l-.31-.29c-6.6-8.37-27.57-27-38.3-36.41,2.08-3.57-.43-9.68-5.93-14.08-5.82-4.66-12.78-5.65-15.54-2.2s-.28,10,5.54,14.69c4.7,3.77,10.16,5.13,13.53,3.68l5.8,5.48c8.42,10.29,24.38,29,34,32.56a7,7,0,1,0,9.48-6Z"/></g><g id="Layer_6" data-name="Layer 6"><path class="cls-1" d="M1567.75,457a5,5,0,0,0-3.71,1.65c-10.45-4.75-36.83,7.66-36.83,7.66l38.36.18a5,5,0,1,0,2.18-9.49Z"/><path class="cls-1" d="M1575.28,287.24a11.94,11.94,0,0,0,.19-1.22c.77-6.86-3.58-13-9.71-13.65s-11.71,4.32-12.47,11.18a13.05,13.05,0,0,0,3.06,10.13l-44.56,101.93,6.42,2.81,2.75-6.31c3.67-5.39,15.5-19.24,25.82-31.08,6.51-5.61,13.41-11.31,19.8-16.13C1584.82,331.15,1576.66,293.07,1575.28,287.24Z"/><path class="cls-1" d="M1524.34,388.17a8.75,8.75,0,1,0-4,14.27l47.16,62.74,4-3L1562.38,450c-15.48-30.78-24.29-45.82-30.41-46.78-3.54-3.11-5.67-4-6.89-4.18A8.75,8.75,0,0,0,1524.34,388.17Z"/><path class="cls-1" d="M1595.6,163.84a8,8,0,0,0-10.64-1.69l-45.41-31.43-3.42,4.94,8.43,5.83c19.84,23.81,31.22,29.8,37.41,30.42a8,8,0,1,0,13.63-8.07Z"/><path class="cls-1" d="M1546.12,129.14a7,7,0,0,0-8.46-2l-.12-.41c-1.45-10.56-10.07-37.28-14.57-50.79,3.59-2,4.52-8.57,2-15.15-2.65-7-8.15-11.34-12.28-9.77s-5.32,8.5-2.67,15.47c2.15,5.64,6.16,9.57,9.8,10l2.23,7.65c2,13.14,6.34,37.34,12.83,45.31a7,7,0,1,0,11.23-.39Z"/><path class="cls-2" d="M1544.15,64.25s-13,10-2,13,52-12,78,8,43,17,34,2-5-15-3-20,6-7-10-10c-7-5-3-8-11-13s-6,2-28,10S1550.15,58.25,1544.15,64.25Z"/><path class="cls-3" d="M1611.63,50.22S1646.25,70.7,1649.2,71s0,5.28,0,6.28-43.67-22.5-41.34-25.25S1611.63,50.22,1611.63,50.22Z"/><path class="cls-4" d="M1488.65,253.75c-20-26.89-13-62-2-95s55-58,58-65,17-63,43-58,22,31,23,39,39,10,46,34,10,20,7,36-14,30-13,45,24.07,111.66-46,122C1543.65,320.75,1523.65,300.75,1488.65,253.75Z"/><ellipse cx="1517.36" cy="127.06" rx="6" ry="3.45" transform="translate(417.67 1180.24) rotate(-48.55)"/><path class="cls-5" d="M1523.65,137.75c10-5,19-12,32-8s33,22,4,68c-13,19-25,54-26,67s3.46,41.58-7.27,31.79-57.7-49-49.72-96.38,11.89-46.56,14.44-51.48c4.55-.93,11.55-.93,16.55-2.93S1521.65,139.75,1523.65,137.75Z"/><path class="cls-6" d="M1494.65,160.75s7,2,18-5,31-22,33-9-25,29-33,30-27,3-29,0-.49-12.49,1.26-15.24S1489.65,157.75,1494.65,160.75Z"/><path class="cls-7" d="M1534.65,153.75c-2,1-20,18-51,13"/><path class="cls-8" d="M1573.65,51.75a48.31,48.31,0,0,0-12,17c-1.78,4.29-3.64,8.94-3,15,.25,2.37,1.26,11.14,7.95,15.07a15.24,15.24,0,0,0,15.05-.07c9-5,21-21,19-39S1578.65,45.75,1573.65,51.75Z"/><ellipse cx="1568.15" cy="70.75" rx="6" ry="6.5"/><path class="cls-9" d="M1563.28,65.25s32.12,1.64,37.24,3.57c0,0,3.4-21.07-12.23-22.07S1563.9,63.75,1563.28,65.25Z"/><path class="cls-10" d="M1636.81,122.2c7.67,0,7.68-11.9,0-11.9s-7.67,11.9,0,11.9Z"/><path class="cls-10" d="M1648.15,134.2c7.66,0,7.67-11.9,0-11.9s-7.68,11.9,0,11.9Z"/><path class="cls-10" d="M1633.48,138.87c7.66,0,7.68-11.91,0-11.91s-7.67,11.91,0,11.91Z"/><path class="cls-10" d="M1641.48,261.54c7.66,0,7.68-11.91,0-11.91s-7.67,11.91,0,11.91Z"/><path class="cls-10" d="M1623.48,272.87c7.66,0,7.68-11.91,0-11.91s-7.67,11.91,0,11.91Z"/><path class="cls-10" d="M1640.15,277.54c7.66,0,7.67-11.91,0-11.91s-7.68,11.91,0,11.91Z"/><path class="cls-10" d="M1589.31,456.62a5,5,0,0,0-3.68,1.74c-10.55-4.51-36.64,8.52-36.64,8.52l38.35-.72a5,5,0,0,0,2.16.46,5,5,0,0,0-.19-10Z"/><path class="cls-10" d="M1579.49,287.8c0-.4.07-.81.07-1.23.13-6.9-4.77-12.58-10.93-12.69s-11.26,5.39-11.39,12.29a13.07,13.07,0,0,0,4,9.8L1526.34,401.6l6.65,2.2,2.15-6.53c3.15-5.71,13.65-20.6,22.83-33.35,6-6.19,12.29-12.51,18.21-17.9C1593.06,330.64,1581.4,293.48,1579.49,287.8Z"/><path class="cls-10" d="M1537.18,394a8.75,8.75,0,1,0-2.33,14.63l53.92,57,3.64-3.44-10.48-11.08c-18.84-28.84-29.28-42.79-35.48-43.06-3.87-2.69-6.08-3.36-7.32-3.38A8.76,8.76,0,0,0,1537.18,394Z"/><path class="cls-10" d="M1603.21,168.42a8,8,0,0,0-10.24-3.35l-39.89-38.2-4.15,4.34,7.4,7.08c15.84,26.64,26.13,34.36,32.15,36a8.24,8.24,0,0,0,.81,2.07,8,8,0,0,0,13.92-7.89Z"/><path class="cls-10" d="M1559,122.54a7,7,0,0,0-8.41-2.19l-.11-.42c-1.14-10.59-9-37.55-13.11-51.18,3.66-1.93,4.77-8.44,2.45-15.09-2.45-7-7.82-11.57-12-10.11s-5.56,8.34-3.1,15.38c2,5.7,5.88,9.74,9.51,10.31l2,7.72c1.67,13.19,5.27,37.5,11.53,45.66a7,7,0,1,0,11.24-.08Z"/><path class="cls-6" d="M1493.58,159.74s7.28,2,18.73-5,32.25-22,34.33-9-23.41,50.46-31.73,51.46-30.69-18.48-32.77-21.48-.51-12.48,1.3-15.24S1488.38,156.74,1493.58,159.74Z"/><path class="cls-11" d="M1482.05,166.23l.17-1a74.73,74.73,0,0,0,13,.9c2.14,0,4.27-.17,6.36-.41a67.48,67.48,0,0,0,31.94-12.46,12.49,12.49,0,0,1,1.47-1l.46.89c-.2.1-.69.45-1.31.89-9.37,6.66-14.71,31.57-25.45,33.14C1505.38,187.7,1486.06,166.85,1482.05,166.23Z"/><polygon class="cls-8" points="1501.38 171.23 1494.1 171.23 1494.1 166.16 1501.02 165.79 1501.38 171.23"/><polygon class="cls-8" points="1511.17 169.61 1503.98 170.77 1503.11 165.77 1509.87 164.31 1511.17 169.61"/></g><g id="Layer_7" data-name="Layer 7"><path class="cls-1" d="M1217.75,457a5,5,0,0,0-3.71,1.65c-10.45-4.75-36.83,7.66-36.83,7.66l38.36.18a5,5,0,1,0,2.18-9.49Z"/><path class="cls-1" d="M1225.28,287.24a11.94,11.94,0,0,0,.19-1.22c.77-6.86-3.58-13-9.71-13.65s-11.71,4.32-12.47,11.18a13.05,13.05,0,0,0,3.06,10.13l-44.56,101.93,6.42,2.81,2.75-6.31c3.67-5.39,15.5-19.24,25.82-31.08,6.51-5.61,13.41-11.31,19.8-16.13C1234.82,331.15,1226.66,293.07,1225.28,287.24Z"/><path class="cls-1" d="M1174.34,388.17a8.75,8.75,0,1,0-4,14.27l47.16,62.74,4-3L1212.38,450c-15.48-30.78-24.29-45.82-30.41-46.78-3.54-3.11-5.67-4-6.89-4.18A8.75,8.75,0,0,0,1174.34,388.17Z"/><path class="cls-1" d="M1248,171.25a8,8,0,0,0-7.16-8.06l-15.2-53.09-5.77,1.65,2.82,9.85c.26,31,5.25,42.84,9.65,47.25a8,8,0,1,0,15.66,2.4Z"/><path class="cls-1" d="M1231.76,113a7,7,0,0,0-5.31-6.88l.17-.39c5.58-9.09,15.84-35.22,20.93-48.52,4.06.71,8.93-3.76,11.16-10.44,2.36-7.07.88-13.94-3.31-15.34s-9.5,3.2-11.86,10.27c-1.92,5.72-1.31,11.31,1.21,14l-3.13,7.33c-6.75,11.45-18.76,32.89-18.8,43.18a7,7,0,1,0,8.94,6.81Z"/><path class="cls-2" d="M1194.15,64.25s-13,10-2,13,52-12,78,8,43,17,34,2-5-15-3-20,6-7-10-10c-7-5-3-8-11-13s-6,2-28,10S1200.15,58.25,1194.15,64.25Z"/><path class="cls-3" d="M1261.63,50.22S1296.25,70.7,1299.2,71s0,5.28,0,6.28-43.67-22.5-41.34-25.25S1261.63,50.22,1261.63,50.22Z"/><path class="cls-4" d="M1138.65,253.75c-20-26.89-13-62-2-95s55-58,58-65,17-63,43-58,22,31,23,39,39,10,46,34,10,20,7,36-14,30-13,45,24.07,111.66-46,122C1193.65,320.75,1173.65,300.75,1138.65,253.75Z"/><ellipse cx="1167.36" cy="127.06" rx="6" ry="3.45" transform="translate(299.36 917.91) rotate(-48.55)"/><path class="cls-5" d="M1173.65,137.75c10-5,19-12,32-8s33,22,4,68c-13,19-25,54-26,67s3.46,41.58-7.27,31.79-57.7-49-49.72-96.38,11.89-46.56,14.44-51.48c4.55-.93,11.55-.93,16.55-2.93S1171.65,139.75,1173.65,137.75Z"/><path class="cls-6" d="M1144.65,160.75s7,2,18-5,31-22,33-9-25,29-33,30-27,3-29,0-.49-12.49,1.26-15.24S1139.65,157.75,1144.65,160.75Z"/><path class="cls-7" d="M1184.65,153.75c-2,1-20,18-51,13"/><path class="cls-8" d="M1223.65,51.75a48.31,48.31,0,0,0-12,17c-1.78,4.29-3.64,8.94-3,15,.25,2.37,1.26,11.14,7.95,15.07a15.24,15.24,0,0,0,15.05-.07c9-5,21-21,19-39S1228.65,45.75,1223.65,51.75Z"/><ellipse cx="1218.15" cy="70.75" rx="6" ry="6.5"/><path class="cls-10" d="M1286.81,122.2c7.67,0,7.68-11.9,0-11.9s-7.67,11.9,0,11.9Z"/><path class="cls-10" d="M1298.15,134.2c7.66,0,7.67-11.9,0-11.9s-7.68,11.9,0,11.9Z"/><path class="cls-10" d="M1283.48,138.87c7.66,0,7.68-11.91,0-11.91s-7.67,11.91,0,11.91Z"/><path class="cls-10" d="M1291.48,261.54c7.66,0,7.68-11.91,0-11.91s-7.67,11.91,0,11.91Z"/><path class="cls-10" d="M1273.48,272.87c7.66,0,7.68-11.91,0-11.91s-7.67,11.91,0,11.91Z"/><path class="cls-10" d="M1290.15,277.54c7.66,0,7.67-11.91,0-11.91s-7.68,11.91,0,11.91Z"/><path class="cls-10" d="M1239.31,456.62a5,5,0,0,0-3.68,1.74c-10.55-4.51-36.64,8.52-36.64,8.52l38.35-.72a5,5,0,0,0,2.16.46,5,5,0,0,0-.19-10Z"/><path class="cls-10" d="M1229.49,287.8c0-.4.07-.81.07-1.23.13-6.9-4.77-12.58-10.93-12.69s-11.26,5.39-11.39,12.29a13.07,13.07,0,0,0,4,9.8L1176.34,401.6l6.65,2.2,2.15-6.53c3.15-5.71,13.65-20.6,22.83-33.35,6-6.19,12.29-12.51,18.21-17.9C1243.06,330.64,1231.4,293.48,1229.49,287.8Z"/><path class="cls-10" d="M1187.18,394a8.75,8.75,0,1,0-2.33,14.63l53.92,57,3.64-3.44-10.48-11.08c-18.84-28.84-29.28-42.79-35.48-43.06-3.87-2.69-6.08-3.36-7.32-3.38A8.76,8.76,0,0,0,1187.18,394Z"/><path class="cls-10" d="M1248.67,171.88a8,8,0,0,0-5-9.57l-1.61-55.2-6,.17.3,10.24c-7.41,30.1-5.49,42.82-2.32,48.17a7.49,7.49,0,0,0-.87,2.05,8,8,0,1,0,15.45,4.14Z"/><path class="cls-10" d="M1247.56,112a7,7,0,0,0,.41-8.68l.39-.19c10.13-3.3,34.89-16.55,47.38-23.39,2.63,3.18,9.24,2.93,15.27-.72,6.38-3.85,9.7-10,7.41-13.82s-9.31-3.73-15.69.13c-5.16,3.12-8.32,7.77-8.13,11.43l-7.14,3.56c-12.56,4.35-35.6,12.89-42.29,20.7a7,7,0,1,0,2.39,11Z"/></g><g id="Layer_8" data-name="Layer 8"><path class="cls-1" d="M867.75,457a5,5,0,0,0-3.71,1.65c-10.45-4.75-36.83,7.66-36.83,7.66l38.36.18a5,5,0,1,0,2.18-9.49Z"/><path class="cls-1" d="M875.28,287.24a11.94,11.94,0,0,0,.19-1.22c.77-6.86-3.58-13-9.71-13.65s-11.71,4.32-12.47,11.18a13.05,13.05,0,0,0,3.06,10.13L811.79,395.61l6.42,2.81,2.75-6.31c3.67-5.39,15.5-19.24,25.82-31.08,6.51-5.61,13.41-11.31,19.8-16.13C884.82,331.15,876.66,293.07,875.28,287.24Z"/><path class="cls-1" d="M824.34,388.17a8.75,8.75,0,1,0-4,14.27l47.16,62.74,4-3L862.38,450c-15.48-30.78-24.29-45.82-30.41-46.78-3.54-3.11-5.67-4-6.89-4.18A8.75,8.75,0,0,0,824.34,388.17Z"/><path class="cls-1" d="M894.7,165.38A8,8,0,0,0,884.46,162l-39.91-38.18-4.15,4.34,7.4,7.08C863.66,161.91,874,169.62,880,171.21a8,8,0,1,0,14.73-5.83Z"/><path class="cls-1" d="M851.29,123.33a7,7,0,0,0-8-3.26l-.06-.43c.24-10.65-4.08-38.4-6.4-52.44,3.87-1.44,5.81-7.75,4.37-14.65-1.53-7.3-6.27-12.48-10.6-11.57s-6.59,7.55-5.06,14.85c1.24,5.9,4.58,10.42,8.1,11.45l1,7.91c0,13.3.4,37.87,5.55,46.77a7,7,0,1,0,11.16,1.37Z"/><path class="cls-2" d="M844.15,64.25s-13,10-2,13,52-12,78,8,43,17,34,2-5-15-3-20,6-7-10-10c-7-5-3-8-11-13s-6,2-28,10S850.15,58.25,844.15,64.25Z"/><path class="cls-3" d="M911.63,50.22S946.25,70.7,949.2,71s0,5.28-.05,6.28S905.48,54.75,907.81,52,911.63,50.22,911.63,50.22Z"/><path class="cls-4" d="M788.65,253.75c-20-26.89-13-62-2-95s55-58,58-65,17-63,43-58,22,31,23,39,39,10,46,34,10,20,7,36-14,30-13,45,24.07,111.66-46,122C843.65,320.75,823.65,300.75,788.65,253.75Z"/><ellipse cx="817.36" cy="127.06" rx="6" ry="3.45" transform="translate(181.05 655.58) rotate(-48.55)"/><path class="cls-5" d="M823.65,137.75c10-5,19-12,32-8s33,22,4,68c-13,19-25,54-26,67s3.46,41.58-7.27,31.79-57.7-49-49.72-96.38,11.89-46.56,14.44-51.48c4.55-.93,11.55-.93,16.55-2.93S821.65,139.75,823.65,137.75Z"/><path class="cls-6" d="M794.65,160.75s7,2,18-5,31-22,33-9-25,29-33,30-27,3-29,0-.49-12.49,1.26-15.24S789.65,157.75,794.65,160.75Z"/><path class="cls-7" d="M834.65,153.75c-2,1-20,18-51,13"/><path class="cls-8" d="M873.65,51.75a48.31,48.31,0,0,0-12,17c-1.78,4.29-3.64,8.94-3,15,.25,2.37,1.26,11.14,8,15.07a15.24,15.24,0,0,0,15-.07c9-5,21-21,19-39S878.65,45.75,873.65,51.75Z"/><ellipse cx="868.15" cy="70.75" rx="6" ry="6.5"/><path class="cls-10" d="M936.81,122.2c7.67,0,7.68-11.9,0-11.9s-7.67,11.9,0,11.9Z"/><path class="cls-10" d="M948.15,134.2c7.66,0,7.67-11.9,0-11.9s-7.68,11.9,0,11.9Z"/><path class="cls-10" d="M933.48,138.87c7.66,0,7.68-11.91,0-11.91s-7.67,11.91,0,11.91Z"/><path class="cls-10" d="M941.48,261.54c7.66,0,7.68-11.91,0-11.91s-7.67,11.91,0,11.91Z"/><path class="cls-10" d="M923.48,272.87c7.66,0,7.68-11.91,0-11.91s-7.67,11.91,0,11.91Z"/><path class="cls-10" d="M940.15,277.54c7.66,0,7.67-11.91,0-11.91s-7.68,11.91,0,11.91Z"/><path class="cls-10" d="M889.31,456.62a5,5,0,0,0-3.68,1.74c-10.55-4.51-36.64,8.52-36.64,8.52l38.35-.72a5,5,0,0,0,2.16.46,5,5,0,0,0-.19-10Z"/><path class="cls-10" d="M879.49,287.8c0-.4.07-.81.07-1.23.13-6.9-4.77-12.58-10.93-12.69s-11.26,5.39-11.39,12.29a13.07,13.07,0,0,0,4,9.8L826.34,401.6l6.65,2.2,2.15-6.53c3.15-5.71,13.65-20.6,22.83-33.35,5.95-6.19,12.29-12.51,18.21-17.9C893.06,330.64,881.4,293.48,879.49,287.8Z"/><path class="cls-10" d="M837.18,394a8.75,8.75,0,1,0-2.33,14.63l53.92,57,3.64-3.44-10.48-11.08c-18.84-28.84-29.28-42.79-35.48-43.06-3.87-2.69-6.08-3.36-7.32-3.38A8.76,8.76,0,0,0,837.18,394Z"/><path class="cls-10" d="M894.82,161.91a8,8,0,0,0-10.48-2.49l-42.92-34.77-3.77,4.66,8,6.45c18,25.24,28.88,32.08,35,33.17a7.89,7.89,0,0,0,1,2,8,8,0,0,0,13.22-9Z"/><path class="cls-10" d="M848.67,123.69a7,7,0,0,0-6.31-6l.11-.42c4.1-9.84,10.19-37.25,13.15-51.18,4.13.08,8.24-5.09,9.41-12,1.24-7.35-1.29-13.91-5.65-14.64s-8.89,4.63-10.13,12c-1,6,.47,11.38,3.37,13.62l-2,7.73c-4.88,12.36-13.43,35.41-11.88,45.57a7,7,0,1,0,9.89,5.34Z"/><path class="cls-6" d="M794.73,160.5s7,2,18.12-5,31.2-22.15,33.21-9.06-22.64,50.83-30.7,51.84-29.69-18.62-31.71-21.64-.48-12.57,1.27-15.35S789.69,157.48,794.73,160.5Z"/><path class="cls-11" d="M783.57,167l.16-1a71,71,0,0,0,12.56.91c2.08-.05,4.13-.18,6.16-.42A64,64,0,0,0,833.35,154a11,11,0,0,1,1.42-1l.45.9a13.14,13.14,0,0,0-1.27.89c-9.06,6.71-14.23,31.8-24.63,33.38C806.14,188.67,787.45,167.66,783.57,167Z"/><polygon class="cls-8" points="802.28 172.08 795.23 172.08 795.23 166.97 801.92 166.6 802.28 172.08"/><polygon class="cls-8" points="811.74 170.45 804.79 171.62 803.95 166.58 810.48 165.1 811.74 170.45"/></g><g id="Layer_9" data-name="Layer 9"><path class="cls-1" d="M517.75,457a5,5,0,0,0-3.71,1.65c-10.45-4.75-36.83,7.66-36.83,7.66l38.36.18a5,5,0,1,0,2.18-9.49Z"/><path class="cls-1" d="M525.28,287.24a11.94,11.94,0,0,0,.19-1.22c.77-6.86-3.58-13-9.71-13.65s-11.71,4.32-12.47,11.18a13.05,13.05,0,0,0,3.06,10.13L461.79,395.61l6.42,2.81,2.75-6.31c3.67-5.39,15.5-19.24,25.82-31.08,6.51-5.61,13.41-11.31,19.8-16.13C534.82,331.15,526.66,293.07,525.28,287.24Z"/><path class="cls-1" d="M474.34,388.17a8.75,8.75,0,1,0-4,14.27l47.16,62.74,4-3L512.38,450c-15.48-30.78-24.29-45.82-30.41-46.78-3.54-3.11-5.67-4-6.89-4.18A8.75,8.75,0,0,0,474.34,388.17Z"/><path class="cls-1" d="M543.83,164.71a8,8,0,0,0-10.77.17l-50.17-23.1-2.51,5.45,9.31,4.29c23.66,20,35.91,23.95,42.11,23.49a7.47,7.47,0,0,0,1.45,1.69,8,8,0,1,0,10.58-12Z"/><path class="cls-1" d="M489.09,139.08a7,7,0,0,0-8.67-.46l-.19-.39c-3.25-10.14-16.37-35-23.14-47.5,3.19-2.62,3-9.22-.63-15.27-3.82-6.4-10-9.75-13.79-7.49s-3.77,9.29.05,15.69c3.09,5.18,7.72,8.36,11.39,8.19L457.62,99c4.29,12.58,12.71,35.67,20.48,42.41a7,7,0,1,0,11-2.34Z"/><path class="cls-2" d="M494.15,64.25s-13,10-2,13,52-12,78,8,43,17,34,2-5-15-3-20,6-7-10-10c-7-5-3-8-11-13s-6,2-28,10S500.15,58.25,494.15,64.25Z"/><path class="cls-3" d="M561.63,50.22S596.25,70.7,599.2,71s0,5.28-.05,6.28S555.48,54.75,557.81,52,561.63,50.22,561.63,50.22Z"/><path class="cls-4" d="M438.65,253.75c-20-26.89-13-62-2-95s55-58,58-65,17-63,43-58,22,31,23,39,39,10,46,34,10,20,7,36-14,30-13,45,24.07,111.66-46,122C493.65,320.75,473.65,300.75,438.65,253.75Z"/><ellipse cx="467.36" cy="127.06" rx="6" ry="3.45" transform="translate(62.75 393.25) rotate(-48.55)"/><path class="cls-5" d="M473.65,137.75c10-5,19-12,32-8s33,22,4,68c-13,19-25,54-26,67s3.46,41.58-7.27,31.79-57.7-49-49.72-96.38,11.89-46.56,14.44-51.48c4.55-.93,11.55-.93,16.55-2.93S471.65,139.75,473.65,137.75Z"/><path class="cls-6" d="M444.65,160.75s7,2,18-5,31-22,33-9-25,29-33,30-27,3-29,0-.49-12.49,1.26-15.24S439.65,157.75,444.65,160.75Z"/><path class="cls-7" d="M484.65,153.75c-2,1-20,18-51,13"/><path class="cls-8" d="M523.65,51.75a48.31,48.31,0,0,0-12,17c-1.78,4.29-3.64,8.94-3,15,.25,2.37,1.26,11.14,8,15.07a15.24,15.24,0,0,0,15-.07c9-5,21-21,19-39S528.65,45.75,523.65,51.75Z"/><ellipse cx="518.15" cy="70.75" rx="6" ry="6.5"/><path class="cls-9" d="M520.15,56.25s24.87,2.07,30,4c0,0,.51-9.69-11.86-13.5C530.15,44.25,520.78,54.75,520.15,56.25Z"/><path class="cls-10" d="M586.81,122.2c7.67,0,7.68-11.9,0-11.9s-7.67,11.9,0,11.9Z"/><path class="cls-10" d="M598.15,134.2c7.66,0,7.67-11.9,0-11.9s-7.68,11.9,0,11.9Z"/><path class="cls-10" d="M583.48,138.87c7.66,0,7.68-11.91,0-11.91s-7.67,11.91,0,11.91Z"/><path class="cls-10" d="M591.48,261.54c7.66,0,7.68-11.91,0-11.91s-7.67,11.91,0,11.91Z"/><path class="cls-10" d="M573.48,272.87c7.66,0,7.68-11.91,0-11.91s-7.67,11.91,0,11.91Z"/><path class="cls-10" d="M590.15,277.54c7.66,0,7.67-11.91,0-11.91s-7.68,11.91,0,11.91Z"/><path class="cls-10" d="M539.31,456.62a5,5,0,0,0-3.68,1.74c-10.55-4.51-36.64,8.52-36.64,8.52l38.35-.72a5,5,0,0,0,2.16.46,5,5,0,0,0-.19-10Z"/><path class="cls-10" d="M529.49,287.8c0-.4.07-.81.07-1.23.13-6.9-4.77-12.58-10.93-12.69s-11.26,5.39-11.39,12.29a13.07,13.07,0,0,0,4,9.8L476.34,401.6l6.65,2.2,2.15-6.53c3.15-5.71,13.65-20.6,22.83-33.35,5.95-6.19,12.29-12.51,18.21-17.9C543.06,330.64,531.4,293.48,529.49,287.8Z"/><path class="cls-10" d="M487.18,394a8.75,8.75,0,1,0-2.33,14.63l53.92,57,3.64-3.44-10.48-11.08c-18.84-28.84-29.28-42.79-35.48-43.06-3.87-2.69-6.08-3.36-7.32-3.38A8.76,8.76,0,0,0,487.18,394Z"/><path class="cls-10" d="M541.71,159a8,8,0,0,0-9.71,4.66l-55.23,0v6H487c29.87,8.3,42.64,6.76,48.08,3.75a8.26,8.26,0,0,0,2,.93,8,8,0,0,0,4.6-15.32Z"/><path class="cls-10" d="M481.8,158.35a7,7,0,0,0-8.66-.66l-.18-.4c-3-10.22-15.51-35.36-22-48,3.25-2.55,3.2-9.15-.26-15.29-3.67-6.49-9.76-10-13.61-7.82s-4,9.2-.33,15.69c3,5.25,7.52,8.55,11.19,8.46l3.34,7.24c4,12.69,11.84,36,19.44,42.89a7,7,0,1,0,11.05-2.07Z"/></g><g id="Layer_10" data-name="Layer 10"><path class="cls-1" d="M167.75,457a5,5,0,0,0-3.71,1.65c-10.45-4.75-36.83,7.66-36.83,7.66l38.36.18a5,5,0,1,0,2.18-9.49Z"/><path class="cls-1" d="M175.28,287.24a11.94,11.94,0,0,0,.19-1.22c.77-6.86-3.58-13-9.71-13.65s-11.71,4.32-12.47,11.18a13.05,13.05,0,0,0,3.06,10.13L111.79,395.61l6.42,2.81,2.75-6.31c3.67-5.39,15.5-19.24,25.82-31.08,6.51-5.61,13.41-11.31,19.8-16.13C184.82,331.15,176.66,293.07,175.28,287.24Z"/><path class="cls-1" d="M124.34,388.17a8.75,8.75,0,1,0-4,14.27l47.16,62.74,4-3L162.38,450c-15.48-30.78-24.29-45.82-30.41-46.78-3.54-3.11-5.67-4-6.89-4.18A8.75,8.75,0,0,0,124.34,388.17Z"/><path class="cls-1" d="M191.23,161.83a8,8,0,0,0-9.53,5l-55.19,2.07.22,6,10.24-.39c30.16,7.16,42.86,5.14,48.19,1.93a7.77,7.77,0,0,0,2.05.85,8,8,0,1,0,4-15.48Z"/><path class="cls-1" d="M130.82,163.71a7,7,0,0,0-7.94,3.51l-.35-.26C115,159.38,92.12,143.16,80.42,135c1.66-3.77-1.51-9.57-7.47-13.33-6.3-4-13.32-4.19-15.68-.45s.83,10,7.13,14c5.1,3.23,10.67,4,13.87,2.16l6.37,4.8c9.51,9.28,27.45,26.08,37.43,28.57a7,7,0,1,0,8.75-7Z"/><path class="cls-2" d="M144.15,64.25s-13,10-2,13,52-12,78,8,43,17,34,2-5-15-3-20,6-7-10-10c-7-5-3-8-11-13s-6,2-28,10S150.15,58.25,144.15,64.25Z"/><path class="cls-3" d="M211.63,50.22S246.25,70.7,249.2,71s0,5.28,0,6.28S205.48,54.75,207.81,52,211.63,50.22,211.63,50.22Z"/><path class="cls-4" d="M88.65,253.75c-20-26.89-13-62-2-95s55-58,58-65,17-63,43-58,22,31,23,39,39,10,46,34,10,20,7,36-14,30-13,45,24.07,111.66-46,122C143.65,320.75,123.65,300.75,88.65,253.75Z"/><ellipse cx="117.36" cy="127.06" rx="6" ry="3.45" transform="translate(-55.56 130.91) rotate(-48.55)"/><path class="cls-5" d="M123.65,137.75c10-5,19-12,32-8s33,22,4,68c-13,19-25,54-26,67s3.46,41.58-7.27,31.79-57.7-49-49.72-96.38S88.55,153.6,91.1,148.68c4.55-.93,11.55-.93,16.55-2.93S121.65,139.75,123.65,137.75Z"/><path class="cls-6" d="M94.65,160.75s7,2,18-5,31-22,33-9-25,29-33,30-27,3-29,0-.49-12.49,1.26-15.24S89.65,157.75,94.65,160.75Z"/><path class="cls-7" d="M134.65,153.75c-2,1-20,18-51,13"/><path class="cls-8" d="M173.65,51.75a48.31,48.31,0,0,0-12,17c-1.78,4.29-3.64,8.94-3,15,.25,2.37,1.26,11.14,7.95,15.07a15.24,15.24,0,0,0,15.05-.07c9-5,21-21,19-39S178.65,45.75,173.65,51.75Z"/><ellipse cx="168.15" cy="70.75" rx="6" ry="6.5"/><path class="cls-9" d="M166.15,60.25s28.87,2.07,34,4c0,0,3.77-16.5-11.86-17.5S166.78,58.75,166.15,60.25Z"/><path class="cls-10" d="M236.81,122.2c7.67,0,7.68-11.9,0-11.9s-7.67,11.9,0,11.9Z"/><path class="cls-10" d="M248.15,134.2c7.66,0,7.67-11.9,0-11.9s-7.68,11.9,0,11.9Z"/><path class="cls-10" d="M233.48,138.87c7.66,0,7.68-11.91,0-11.91s-7.67,11.91,0,11.91Z"/><path class="cls-10" d="M241.48,261.54c7.66,0,7.68-11.91,0-11.91s-7.67,11.91,0,11.91Z"/><path class="cls-10" d="M223.48,272.87c7.66,0,7.68-11.91,0-11.91s-7.67,11.91,0,11.91Z"/><path class="cls-10" d="M240.15,277.54c7.66,0,7.67-11.91,0-11.91s-7.68,11.91,0,11.91Z"/><path class="cls-10" d="M189.31,456.62a5,5,0,0,0-3.68,1.74c-10.55-4.51-36.64,8.52-36.64,8.52l38.35-.72a5,5,0,0,0,2.16.46,5,5,0,0,0-.19-10Z"/><path class="cls-10" d="M179.49,287.8c0-.4.07-.81.07-1.23.13-6.9-4.77-12.58-10.93-12.69s-11.26,5.39-11.39,12.29a13.07,13.07,0,0,0,4,9.8L126.34,401.6l6.65,2.2,2.15-6.53c3.15-5.71,13.65-20.6,22.83-33.35,5.95-6.19,12.29-12.51,18.21-17.9C193.06,330.64,181.4,293.48,179.49,287.8Z"/><path class="cls-10" d="M137.18,394a8.75,8.75,0,1,0-2.33,14.63l53.92,57,3.64-3.44-10.48-11.08c-18.84-28.84-29.28-42.79-35.48-43.06-3.87-2.69-6.08-3.36-7.32-3.38A8.76,8.76,0,0,0,137.18,394Z"/><path class="cls-6" d="M93.65,159.75s7,2,18-5,31-22,33-9-22.5,50.5-30.5,51.5-29.5-18.5-31.5-21.5-.49-12.49,1.26-15.24S88.65,156.75,93.65,159.75Z"/><path class="cls-11" d="M82.57,166.24l.16-1a70,70,0,0,0,12.47.9q3.09-.06,6.12-.41A63.44,63.44,0,0,0,132,153.28a15.12,15.12,0,0,1,1.41-1l.45.9a12.85,12.85,0,0,0-1.26.89c-9,6.66-14.14,31.59-24.46,33.16C105,187.73,86.42,166.86,82.57,166.24Z"/><polygon class="cls-8" points="101.15 171.25 94.15 171.25 94.15 166.17 100.8 165.8 101.15 171.25"/><polygon class="cls-8" points="110.55 169.63 103.65 170.79 102.81 165.78 109.3 164.32 110.55 169.63"/><path class="cls-10" d="M188.38,158.12a8,8,0,0,0-8.14,7.06L127,179.78l1.59,5.79,9.88-2.71c31,.1,42.9-4.77,47.35-9.11a8,8,0,1,0,2.58-15.63Z"/><path class="cls-10" d="M130.43,173.33A7,7,0,0,0,121.9,175l-.28-.33c-5.6-9.07-24.32-30-33.91-40.52,2.46-3.31.66-9.67-4.3-14.67-5.25-5.29-12-7-15.19-3.94s-1.42,9.92,3.83,15.22c4.25,4.28,9.52,6.25,13,5.2l5.14,6.1c7.2,11.17,20.94,31.55,30.1,36.21a7,7,0,1,0,10.11-4.92Z"/></g></svg>
