<svg xmlns="http://www.w3.org/2000/svg" viewBox="0 0 2800.16 500"><defs><style>.cls-1{fill:#264c14;}.cls-2{fill:#93542a;}.cls-3{fill:#f7c6a4;}.cls-4{fill:#367c1d;}.cls-5{fill:#96a362;}.cls-6{fill:#a01227;}.cls-7{fill:none;stroke:#bfd8b4;stroke-miterlimit:10;}.cls-8{fill:#fff;}.cls-9{fill:#39440c;}.cls-10{fill:#2c5b18;}</style></defs><title>frogwalk2</title><g id="step1"><path class="cls-1" d="M2568.1,445a4.93,4.93,0,0,0-3.94,1c-9.47-6.48-37.6,1.21-37.6,1.21l37.76,6.77a5,5,0,1,0,3.78-9Z"/><path class="cls-1" d="M2623.72,272.78c.16-.37.31-.75.44-1.15,2.17-6.55-.81-13.44-6.66-15.38s-12.35,1.81-14.53,8.36a13.12,13.12,0,0,0,.89,10.54l-64.75,90.45,5.69,4.08,4-5.59c4.71-4.52,19.16-15.61,31.72-25,7.52-4.14,15.46-8.29,22.71-11.67C2623.93,317.72,2623.86,278.77,2623.72,272.78Z"/><path class="cls-1" d="M2551,365.79a8.75,8.75,0,1,0-8.58,12.08l23,75,4.78-1.46-4.47-14.58c-4.1-34.2-7.26-51.34-12.7-54.33-2.27-4.13-4-5.71-5.06-6.28A8.74,8.74,0,0,0,2551,365.79Z"/><path class="cls-1" d="M2637.46,153a8,8,0,0,0,10.63,1.74l45.27,31.63,3.44-4.91-8.4-5.87c-19.74-23.9-31.09-29.95-37.28-30.59A7.52,7.52,0,0,0,2650,143a8,8,0,0,0-12.54,9.93Z"/><path class="cls-1" d="M2686.78,187.9a7,7,0,0,0,8.46,2l.11.42c1.4,10.56,9.91,37.32,14.35,50.85-3.61,2-4.57,8.55-2.09,15.14,2.63,7,8.11,11.38,12.24,9.82s5.36-8.47,2.74-15.45c-2.13-5.65-6.12-9.6-9.76-10.08l-2.19-7.67c-2-13.14-6.17-37.36-12.62-45.37a7,7,0,1,0-11.24.35Z"/><path class="cls-2" d="M2594.16,46.25s-13,10-2,13,52-12,78,8,43,17,34,2-5-15-3-20,6-7-10-10c-7-5-3-8-11-13s-6,2-28,10S2600.16,40.25,2594.16,46.25Z"/><path class="cls-3" d="M2661.65,32.22S2696.26,52.7,2699.21,53s0,5.28,0,6.28-43.68-22.5-41.34-25.25S2661.65,32.22,2661.65,32.22Z"/><path class="cls-4" d="M2538.66,235.75c-20-26.89-13-62-2-95s55-58,58-65,17-63,43-58,22,31,23,39,39,10,46,34,10,20,7,36-14,30-13,45,24.07,111.66-46,122C2593.66,302.75,2573.66,282.75,2538.66,235.75Z"/><ellipse cx="2567.38" cy="109.06" rx="6" ry="3.45" transform="translate(786.08 1961.16) rotate(-48.55)"/><path class="cls-5" d="M2573.66,119.75c10-5,19-12,32-8s33,22,4,68c-13,19-25,54-26,67s3.46,41.58-7.27,31.79-57.7-49-49.71-96.38,11.88-46.56,14.43-51.48c4.55-.93,11.55-.93,16.55-2.93S2571.66,121.75,2573.66,119.75Z"/><path class="cls-6" d="M2544.66,142.75s7,2,18-5,31-22,33-9-25,29-33,30-27,3-29,0-.48-12.49,1.26-15.24S2539.66,139.75,2544.66,142.75Z"/><path class="cls-7" d="M2584.66,135.75c-2,1-20,18-51,13"/><path class="cls-8" d="M2623.66,33.75a48.31,48.31,0,0,0-12,17c-1.78,4.29-3.64,8.94-3,15,.25,2.37,1.26,11.14,8,15.07a15.24,15.24,0,0,0,15-.07c9-5,21-21,19-39S2628.66,27.75,2623.66,33.75Z"/><ellipse cx="2618.16" cy="52.75" rx="6" ry="6.5"/><path class="cls-9" d="M2613.29,47.25s32.12,1.64,37.25,3.57c0,0,3.4-21.07-12.24-22.07S2613.92,45.75,2613.29,47.25Z"/><path class="cls-10" d="M2686.83,104.2c7.66,0,7.67-11.9,0-11.9s-7.68,11.9,0,11.9Z"/><path class="cls-10" d="M2698.16,116.2c7.66,0,7.68-11.9,0-11.9s-7.67,11.9,0,11.9Z"/><path class="cls-10" d="M2683.49,120.87c7.67,0,7.68-11.91,0-11.91s-7.67,11.91,0,11.91Z"/><path class="cls-10" d="M2691.49,243.54c7.67,0,7.68-11.91,0-11.91s-7.67,11.91,0,11.91Z"/><path class="cls-10" d="M2673.49,254.87c7.67,0,7.68-11.91,0-11.91s-7.67,11.91,0,11.91Z"/><path class="cls-10" d="M2690.16,259.54c7.66,0,7.68-11.91,0-11.91s-7.67,11.91,0,11.91Z"/><path class="cls-10" d="M2670.39,456.4a5,5,0,0,0-3.73,1.62c-10.4-4.85-36.9,7.33-36.9,7.33l38.36.52a4.89,4.89,0,0,0,2.13.53,5,5,0,0,0,.14-10Z"/><path class="cls-10" d="M2630.06,265.79c-.11-.39-.22-.79-.36-1.18-2.31-6.51-8.88-10.11-14.69-8.06s-8.66,9-6.35,15.51a13.05,13.05,0,0,0,7.16,7.78L2620.16,391l7-.27-.27-6.87c1-6.46,5.56-24.08,9.69-39.23,3.41-7.89,7.13-16,10.79-23.15C2657.78,301.15,2633.84,270.43,2630.06,265.79Z"/><path class="cls-10" d="M2632.25,385.08a8.75,8.75,0,1,0-5.12,13.9l41.86,66.4,4.23-2.67-8.13-12.89c-12.9-31.95-20.44-47.66-26.47-49.13-3.27-3.38-5.31-4.47-6.53-4.73A8.73,8.73,0,0,0,2632.25,385.08Z"/><path class="cls-10" d="M2635.75,142.49a8,8,0,0,0-3.54,10.17l-38.95,39.17,4.26,4.23,7.22-7.27c26.94-15.33,34.84-25.47,36.55-31.46a8.18,8.18,0,0,0,2.08-.77,8,8,0,0,0-7.62-14.07Z"/><path class="cls-10" d="M2589.29,185.69a7,7,0,0,0-2.69,8.26l-.42.08c-10.65.52-38,6.77-51.87,10.07-1.71-3.76-8.14-5.26-14.92-3.33-7.17,2-12,7.13-10.8,11.38s8,6,15.17,4c5.81-1.65,10.08-5.3,10.86-8.88l7.82-1.55c13.27-.89,37.75-3,46.26-8.82a7,7,0,1,0,.59-11.22Z"/></g><g id="step2"><path class="cls-1" d="M2176.5,434.87a5,5,0,0,0-4.05-.38c-6.77-9.26-35.85-11.38-35.85-11.38l33.34,19a4.87,4.87,0,0,0,1.62,1.5,5,5,0,0,0,4.94-8.7Z"/><path class="cls-1" d="M2274,256c.1-.4.19-.8.25-1.21,1.08-6.82-3-13.13-9.07-14.09s-11.89,3.78-13,10.59a13.08,13.08,0,0,0,2.59,10.26l-49.23,99.76,6.27,3.1,3-6.17c3.91-5.22,16.37-18.51,27.23-29.85,6.76-5.3,13.92-10.68,20.53-15.2C2281.48,300.35,2275.1,261.92,2274,256Z"/><path class="cls-1" d="M2218.36,365.9a8.75,8.75,0,1,0-14.47,3.18l-33.39,71,4.52,2.13,6.49-13.8c20-28.07,29.14-42.89,27.12-48.76,1.1-4.58.91-6.88.47-8.05A8.74,8.74,0,0,0,2218.36,365.9Z"/><path class="cls-1" d="M2287.74,139a8,8,0,0,0,10.75.65l48.25,26.87,2.92-5.24-8.95-5c-22.06-21.77-34-26.63-40.19-26.65a8,8,0,1,0-12.78,9.36Z"/><path class="cls-1" d="M2340.35,168.74a7,7,0,0,0,8.62,1.12l.16.4c2.46,10.37,13.64,36.13,19.43,49.13-3.38,2.37-3.68,9-.54,15.28,3.32,6.67,9.22,10.49,13.18,8.52s4.47-9,1.15-15.65c-2.69-5.4-7.06-8.92-10.73-9l-3-7.41c-3.31-12.87-9.94-36.54-17.17-43.85a7,7,0,1,0-11.14,1.49Z"/><path class="cls-2" d="M2244.16,31.25s-13,10-2,13,52-12,78,8,43,17,34,2-5-15-3-20,6-7-10-10c-7-5-3-8-11-13s-6,2-28,10S2250.16,25.25,2244.16,31.25Z"/><path class="cls-3" d="M2311.65,17.22S2346.26,37.7,2349.21,38s0,5.28,0,6.28-43.68-22.5-41.34-25.25S2311.65,17.22,2311.65,17.22Z"/><path class="cls-4" d="M2188.66,220.75c-20-26.89-13-62-2-95s55-58,58-65,17-63,43-58,22,31,23,39,39,10,46,34,10,20,7,36-14,30-13,45,24.07,111.66-46,122C2243.66,287.75,2223.66,267.75,2188.66,220.75Z"/><ellipse cx="2217.38" cy="94.06" rx="6" ry="3.45" transform="translate(679.02 1693.76) rotate(-48.55)"/><path class="cls-5" d="M2223.66,104.75c10-5,19-12,32-8s33,22,4,68c-13,19-25,54-26,67s3.46,41.58-7.27,31.79-57.7-49-49.71-96.38,11.88-46.56,14.43-51.48c4.55-.93,11.55-.93,16.55-2.93S2221.66,106.75,2223.66,104.75Z"/><path class="cls-6" d="M2194.66,127.75s7,2,18-5,31-22,33-9-25,29-33,30-27,3-29,0-.48-12.49,1.26-15.24S2189.66,124.75,2194.66,127.75Z"/><path class="cls-7" d="M2234.66,120.75c-2,1-20,18-51,13"/><path class="cls-8" d="M2273.66,18.75a48.31,48.31,0,0,0-12,17c-1.78,4.29-3.64,8.94-3,15,.25,2.37,1.26,11.14,8,15.07a15.24,15.24,0,0,0,15-.07c9-5,21-21,19-39S2278.66,12.75,2273.66,18.75Z"/><ellipse cx="2268.16" cy="37.75" rx="6" ry="6.5"/><path class="cls-9" d="M2263.29,32.25s32.12,1.64,37.25,3.57c0,0,3.4-21.07-12.24-22.07S2263.92,30.75,2263.29,32.25Z"/><path class="cls-10" d="M2336.83,89.2c7.66,0,7.67-11.9,0-11.9s-7.68,11.9,0,11.9Z"/><path class="cls-10" d="M2348.16,101.2c7.66,0,7.68-11.9,0-11.9s-7.67,11.9,0,11.9Z"/><path class="cls-10" d="M2333.49,105.87c7.67,0,7.68-11.91,0-11.91s-7.67,11.91,0,11.91Z"/><path class="cls-10" d="M2341.49,228.54c7.67,0,7.68-11.91,0-11.91s-7.67,11.91,0,11.91Z"/><path class="cls-10" d="M2323.49,239.87c7.67,0,7.68-11.91,0-11.91s-7.67,11.91,0,11.91Z"/><path class="cls-10" d="M2340.16,244.54c7.66,0,7.68-11.91,0-11.91s-7.67,11.91,0,11.91Z"/><path class="cls-10" d="M2341.9,442.9a5,5,0,0,0-2.9,2.85c-11.45-.81-31.84,20-31.84,20l36-13.22a4.85,4.85,0,0,0,2.18-.27,5,5,0,1,0-3.45-9.39Z"/><path class="cls-10" d="M2279,247.56c-.2-.35-.42-.7-.65-1-3.93-5.68-11.22-7.44-16.29-3.93s-6,10.95-2.07,16.63a13.05,13.05,0,0,0,8.95,5.63L2302.25,371l6.68-2.09-2.06-6.57c-.77-6.47-.93-24.69-.91-40.39,1.22-8.5,2.69-17.34,4.35-25.17C2315.05,274.44,2283.89,251.06,2279,247.56Z"/><path class="cls-10" d="M2314.64,364.52a8.75,8.75,0,1,0-6.85,13.14l33.11,71.17,4.53-2.11L2339,432.89c-8.75-33.32-14.23-49.86-20-52.08-2.81-3.77-4.7-5.11-5.87-5.52A8.75,8.75,0,0,0,2314.64,364.52Z"/><path class="cls-10" d="M2284.39,128.37a8,8,0,0,0-1.3,10.7l-29.73,46.54,5.06,3.23,5.52-8.63c23-20.71,28.63-32.3,29-38.52a7.82,7.82,0,0,0,1.87-1.2,8,8,0,0,0-10.44-12.12Z"/><path class="cls-10" d="M2248.18,180.46a7,7,0,0,0-.87,8.64l-.4.18c-10.29,2.76-35.71,14.69-48.54,20.86-2.46-3.31-9.07-3.4-15.28-.08-6.58,3.51-10.22,9.52-8.14,13.42s9.11,4.2,15.68.69c5.32-2.85,8.72-7.32,8.72-11l7.32-3.18c12.77-3.68,36.23-11,43.32-18.45a7,7,0,1,0-1.81-11.09Z"/></g><g id="step3"><path class="cls-1" d="M1838.82,456.32a5,5,0,0,0-3.74,1.61c-10.38-4.9-36.93,7.16-36.93,7.16l38.35.69a4.84,4.84,0,0,0,2.14.54,5,5,0,1,0,.18-10Z"/><path class="cls-1" d="M1924.17,271.44c.08-.4.15-.8.2-1.22.77-6.86-3.56-13-9.69-13.67s-11.72,4.3-12.49,11.16a13,13,0,0,0,3,10.13l-44.75,101.84,6.4,2.82,2.77-6.3c3.68-5.38,15.54-19.21,25.89-31,6.51-5.59,13.43-11.28,19.83-16.09C1933.62,315.37,1925.54,277.27,1924.17,271.44Z"/><path class="cls-1" d="M1873.75,383a8.75,8.75,0,1,0-14,4.92l-24.44,74.59,4.75,1.56,4.74-14.49c16.38-30.31,23.67-46.14,21-51.72.52-4.68,0-6.95-.52-8.05A8.73,8.73,0,0,0,1873.75,383Z"/><path class="cls-1" d="M1937.74,156.39a8,8,0,0,0,10.75-.74l51.31,20.44,2.22-5.57-9.52-3.8c-24.68-18.75-37.11-22-43.29-21.25a7.8,7.8,0,0,0-1.53-1.62,8,8,0,1,0-9.94,12.54Z"/><path class="cls-1" d="M1993.75,179.11a7,7,0,0,0,8.68,0l.21.37c3.78,10,18.18,34.08,25.59,46.23-3,2.78-2.49,9.36,1.43,15.22,4.15,6.19,10.49,9.22,14.16,6.76s3.28-9.48-.87-15.67c-3.35-5-8.15-7.95-11.8-7.58l-3.88-7c-4.94-12.34-14.56-35-22.67-41.28a7,7,0,1,0-10.85,2.91Z"/><path class="cls-2" d="M1894.16,47.25s-13,10-2,13,52-12,78,8,43,17,34,2-5-15-3-20,6-7-10-10c-7-5-3-8-11-13s-6,2-28,10S1900.16,41.25,1894.16,47.25Z"/><path class="cls-3" d="M1961.65,33.22S1996.26,53.7,1999.21,54s0,5.28,0,6.28-43.68-22.5-41.34-25.25S1961.65,33.22,1961.65,33.22Z"/><path class="cls-4" d="M1838.66,236.75c-20-26.89-13-62-2-95s55-58,58-65,17-63,43-58,22,31,23,39,39,10,46,34,10,20,7,36-14,30-13,45,24.07,111.66-46,122C1893.66,303.75,1873.66,283.75,1838.66,236.75Z"/><ellipse cx="1867.38" cy="110.06" rx="6" ry="3.45" transform="translate(548.72 1436.84) rotate(-48.55)"/><path class="cls-5" d="M1873.66,120.75c10-5,19-12,32-8s33,22,4,68c-13,19-25,54-26,67s3.46,41.58-7.27,31.79-57.7-49-49.71-96.38,11.88-46.56,14.43-51.48c4.55-.93,11.55-.93,16.55-2.93S1871.66,122.75,1873.66,120.75Z"/><path class="cls-6" d="M1844.66,143.75s7,2,18-5,31-22,33-9-25,29-33,30-27,3-29,0-.48-12.49,1.26-15.24S1839.66,140.75,1844.66,143.75Z"/><path class="cls-7" d="M1884.66,136.75c-2,1-20,18-51,13"/><path class="cls-8" d="M1923.66,34.75a48.31,48.31,0,0,0-12,17c-1.78,4.29-3.64,8.94-3,15,.25,2.37,1.26,11.14,7.95,15.07a15.24,15.24,0,0,0,15.05-.07c9-5,21-21,19-39S1928.66,28.75,1923.66,34.75Z"/><ellipse cx="1918.16" cy="53.75" rx="6" ry="6.5"/><path class="cls-9" d="M1913.29,48.25s32.12,1.64,37.25,3.57c0,0,3.4-21.07-12.24-22.07S1913.92,46.75,1913.29,48.25Z"/><path class="cls-10" d="M1986.83,105.2c7.66,0,7.67-11.9,0-11.9s-7.68,11.9,0,11.9Z"/><path class="cls-10" d="M1998.16,117.2c7.66,0,7.68-11.9,0-11.9s-7.67,11.9,0,11.9Z"/><path class="cls-10" d="M1983.49,121.87c7.67,0,7.68-11.91,0-11.91s-7.67,11.91,0,11.91Z"/><path class="cls-10" d="M1991.49,244.54c7.67,0,7.68-11.91,0-11.91s-7.67,11.91,0,11.91Z"/><path class="cls-10" d="M1973.49,255.87c7.67,0,7.68-11.91,0-11.91s-7.67,11.91,0,11.91Z"/><path class="cls-10" d="M1990.16,260.54c7.66,0,7.68-11.91,0-11.91s-7.67,11.91,0,11.91Z"/><path class="cls-10" d="M2040.26,418.5a5,5,0,0,0,1.13,3.9c-6.12,9.71,2.61,37.53,2.61,37.53l5.36-38a5,5,0,1,0-9.1-3.45Z"/><path class="cls-10" d="M1928.85,262.21c-.23-.33-.48-.66-.75-1-4.44-5.28-11.87-6.34-16.59-2.37s-4.93,11.47-.48,16.75a13.06,13.06,0,0,0,9.44,4.76l43.19,102.52,6.45-2.72-2.67-6.33c-1.38-6.38-3.27-24.5-4.74-40.14.42-8.57,1-17.51,2-25.46C1967.25,285.55,1934,265.23,1928.85,262.21Z"/><path class="cls-10" d="M1971.42,372.42a8.75,8.75,0,1,0,2.91,14.53l70.4,34.7,2.21-4.48-13.67-6.74c-27.7-20.48-42.35-29.93-48.25-28-4.56-1.18-6.87-1-8-.62A8.76,8.76,0,0,0,1971.42,372.42Z"/><path class="cls-10" d="M1932.16,146.1a8,8,0,0,0,.62,10.76l-21,51.08,5.55,2.28,3.89-9.47c19-24.48,22.45-36.87,21.73-43.06a8,8,0,1,0-10.8-11.59Z"/><path class="cls-10" d="M1905.77,203.8a7,7,0,0,0,.68,8.65l-.36.24c-9.63,4.56-32.53,20.81-44.06,29.16-3-2.82-9.53-1.74-15.06,2.63-5.84,4.63-8.36,11.19-5.62,14.65s9.7,2.52,15.55-2.1c4.73-3.75,7.28-8.76,6.63-12.37l6.64-4.42c11.91-5.9,33.7-17.27,39.36-25.85a7,7,0,1,0-3.76-10.59Z"/></g><g id="step4"><path class="cls-1" d="M1554.86,456.84a5,5,0,0,0-3.63,1.83c-10.66-4.26-36.43,9.37-36.43,9.37l38.32-1.62a5,5,0,1,0,1.74-9.58Z"/><path class="cls-1" d="M1573.9,289.68c.11-.39.2-.79.28-1.2,1.28-6.78-2.6-13.2-8.66-14.34s-12,3.43-13.28,10.22a13.14,13.14,0,0,0,2.29,10.33L1502.47,393l6.18,3.28,3.22-6.08c4.06-5.11,16.9-18,28.08-29.06,6.91-5.1,14.22-10.28,21-14.6C1580.12,334.19,1574.84,295.6,1573.9,289.68Z"/><path class="cls-1" d="M1515.45,388.21a8.75,8.75,0,1,0-4.5,14.11l44.73,64.5,4.11-2.85-8.69-12.52c-14.29-31.35-22.51-46.72-28.6-47.92-3.42-3.24-5.51-4.23-6.73-4.44A8.74,8.74,0,0,0,1515.45,388.21Z"/><path class="cls-1" d="M1585.28,173.4a8,8,0,0,0,10.65,1.61l45.66,31.07,3.37-5-8.47-5.76c-20-23.66-31.45-29.56-37.65-30.13a7.79,7.79,0,0,0-1.14-1.91,8,8,0,1,0-12.42,10.08Z"/><path class="cls-1" d="M1635,207.72a7,7,0,0,0,8.47,1.88l.13.42c1.53,10.55,10.36,37.2,15,50.67-3.58,2.06-4.46,8.6-1.9,15.17,2.71,6.94,8.24,11.27,12.36,9.67s5.25-8.54,2.54-15.49c-2.19-5.62-6.23-9.52-9.88-10l-2.28-7.64c-2.15-13.12-6.63-37.28-13.18-45.21a7,7,0,1,0-11.23.49Z"/><path class="cls-2" d="M1544.16,64.25s-13,10-2,13,52-12,78,8,43,17,34,2-5-15-3-20,6-7-10-10c-7-5-3-8-11-13s-6,2-28,10S1550.16,58.25,1544.16,64.25Z"/><path class="cls-3" d="M1611.65,50.22S1646.26,70.7,1649.21,71s0,5.28,0,6.28-43.68-22.5-41.34-25.25S1611.65,50.22,1611.65,50.22Z"/><path class="cls-4" d="M1488.66,253.75c-20-26.89-13-62-2-95s55-58,58-65,17-63,43-58,22,31,23,39,39,10,46,34,10,20,7,36-14,30-13,45,24.07,111.66-46,122C1543.66,320.75,1523.66,300.75,1488.66,253.75Z"/><ellipse cx="1517.38" cy="127.06" rx="6" ry="3.45" transform="translate(417.67 1180.25) rotate(-48.55)"/><path class="cls-5" d="M1523.66,137.75c10-5,19-12,32-8s33,22,4,68c-13,19-25,54-26,67s3.46,41.58-7.27,31.79-57.7-49-49.71-96.38,11.88-46.56,14.43-51.48c4.55-.93,11.55-.93,16.55-2.93S1521.66,139.75,1523.66,137.75Z"/><path class="cls-6" d="M1494.66,160.75s7,2,18-5,31-22,33-9-25,29-33,30-27,3-29,0-.48-12.49,1.26-15.24S1489.66,157.75,1494.66,160.75Z"/><path class="cls-7" d="M1534.66,153.75c-2,1-20,18-51,13"/><path class="cls-8" d="M1573.66,51.75a48.31,48.31,0,0,0-12,17c-1.78,4.29-3.64,8.94-3,15,.25,2.37,1.26,11.14,7.95,15.07a15.24,15.24,0,0,0,15.05-.07c9-5,21-21,19-39S1578.66,45.75,1573.66,51.75Z"/><ellipse cx="1568.16" cy="70.75" rx="6" ry="6.5"/><path class="cls-9" d="M1563.29,65.25s32.12,1.64,37.25,3.57c0,0,3.4-21.07-12.24-22.07S1563.92,63.75,1563.29,65.25Z"/><path class="cls-10" d="M1636.83,122.2c7.66,0,7.67-11.9,0-11.9s-7.68,11.9,0,11.9Z"/><path class="cls-10" d="M1648.16,134.2c7.66,0,7.68-11.9,0-11.9s-7.67,11.9,0,11.9Z"/><path class="cls-10" d="M1633.49,138.87c7.67,0,7.68-11.91,0-11.91s-7.67,11.91,0,11.91Z"/><path class="cls-10" d="M1641.49,261.54c7.67,0,7.68-11.91,0-11.91s-7.67,11.91,0,11.91Z"/><path class="cls-10" d="M1623.49,272.87c7.67,0,7.68-11.91,0-11.91s-7.67,11.91,0,11.91Z"/><path class="cls-10" d="M1640.16,277.54c7.66,0,7.68-11.91,0-11.91s-7.67,11.91,0,11.91Z"/><path class="cls-10" d="M1650.56,437.43a5,5,0,0,0-2.77,3c-11.47-.26-30.86,21.52-30.86,21.52L1652.27,447a5,5,0,1,0-1.71-9.59Z"/><path class="cls-10" d="M1582,281.68a12.29,12.29,0,0,0-.32-1.19c-2.11-6.57-8.58-10.38-14.45-8.49s-8.91,8.73-6.8,15.31a13.07,13.07,0,0,0,6.93,8l1,111.24,7-.07-.07-6.87c1.14-6.43,6.28-23.9,10.86-38.93,3.64-7.78,7.61-15.81,11.47-22.82C1608.69,317.85,1585.66,286.43,1582,281.68Z"/><path class="cls-10" d="M1576.33,398a8.75,8.75,0,1,0,3.61,14.37l72,31.22,2-4.58L1640,433c-28.67-19.1-43.76-27.83-49.56-25.64-4.61-.95-6.91-.69-8.06-.23A8.74,8.74,0,0,0,1576.33,398Z"/><path class="cls-10" d="M1577.42,164.52a8,8,0,0,0,5.36,9.34l4,55.08,6-.44-.75-10.22c6.08-30.39,3.6-43,.2-48.22A8.5,8.5,0,0,0,1593,168a8,8,0,1,0-15.62-3.46Z"/><path class="cls-10" d="M1580.55,225.19a7,7,0,0,0,1.24,8.59l-.34.27c-9.32,5.16-31.12,22.86-42.09,31.94-3.19-2.62-9.62-1.12-14.85,3.6-5.54,5-7.63,11.7-4.67,15s9.85,1.89,15.38-3.1c4.48-4.05,6.7-9.21,5.82-12.77l6.34-4.84c11.5-6.66,32.51-19.41,37.61-28.34a7,7,0,1,0-4.44-10.33Z"/></g><g id="step5"><path class="cls-1" d="M1197.62,454.9a5,5,0,0,0-3.65,1.8c-10.63-4.34-36.5,9.08-36.5,9.08l38.33-1.31a4.88,4.88,0,0,0,2.16.42,5,5,0,0,0-.34-10Z"/><path class="cls-1" d="M1224.62,270.34a9.9,9.9,0,0,0,.14-1.22c.49-6.89-4.1-12.82-10.25-13.26s-11.53,4.8-12,11.69a13.08,13.08,0,0,0,3.46,10l-40.4,103.65,6.52,2.54,2.5-6.41c3.45-5.54,14.71-19.85,24.55-32.09,6.27-5.87,12.94-11.85,19.13-16.92C1235.93,313.84,1226.23,276.11,1224.62,270.34Z"/><path class="cls-1" d="M1180.9,378a8.75,8.75,0,1,0-8.34,12.24l24.5,74.57,4.75-1.56-4.76-14.48c-4.77-34.12-8.27-51.2-13.76-54.08-2.35-4.08-4.07-5.63-5.19-6.17A8.75,8.75,0,0,0,1180.9,378Z"/><path class="cls-1" d="M1232.35,154.7a8,8,0,0,0,9.85,4.35l35.87,42,4.56-3.89-6.65-7.79c-13.1-28.1-22.56-36.8-28.39-39a8,8,0,1,0-15.24,4.32Z"/><path class="cls-1" d="M1271.31,200.91A7,7,0,0,0,1279,205v.43c-1.31,10.58.19,38.62,1.09,52.83-4,1-6.57,7.12-5.83,14.13.78,7.41,5,13,9.38,12.58s7.31-6.85,6.53-14.27c-.64-6-3.51-10.83-6.91-12.21l-.19-8c1.39-13.22,3.43-37.71-.8-47.08a7,7,0,1,0-11-2.49Z"/><path class="cls-2" d="M1194.16,46.25s-13,10-2,13,52-12,78,8,43,17,34,2-5-15-3-20,6-7-10-10c-7-5-3-8-11-13s-6,2-28,10S1200.16,40.25,1194.16,46.25Z"/><path class="cls-3" d="M1261.65,32.22S1296.26,52.7,1299.21,53s0,5.28,0,6.28-43.68-22.5-41.34-25.25S1261.65,32.22,1261.65,32.22Z"/><path class="cls-4" d="M1138.66,235.75c-20-26.89-13-62-2-95s55-58,58-65,17-63,43-58,22,31,23,39,39,10,46,34,10,20,7,36-14,30-13,45,24.07,111.66-46,122C1193.66,302.75,1173.66,282.75,1138.66,235.75Z"/><ellipse cx="1167.38" cy="109.06" rx="6" ry="3.45" transform="translate(312.85 911.84) rotate(-48.55)"/><path class="cls-5" d="M1173.66,119.75c10-5,19-12,32-8s33,22,4,68c-13,19-25,54-26,67s3.46,41.58-7.27,31.79-57.7-49-49.71-96.38,11.88-46.56,14.43-51.48c4.55-.93,11.55-.93,16.55-2.93S1171.66,121.75,1173.66,119.75Z"/><path class="cls-6" d="M1144.66,142.75s7,2,18-5,31-22,33-9-25,29-33,30-27,3-29,0-.48-12.49,1.26-15.24S1139.66,139.75,1144.66,142.75Z"/><path class="cls-7" d="M1184.66,135.75c-2,1-20,18-51,13"/><path class="cls-8" d="M1223.66,33.75a48.31,48.31,0,0,0-12,17c-1.78,4.29-3.64,8.94-3,15,.25,2.37,1.26,11.14,7.95,15.07a15.24,15.24,0,0,0,15.05-.07c9-5,21-21,19-39S1228.66,27.75,1223.66,33.75Z"/><ellipse cx="1218.16" cy="52.75" rx="6" ry="6.5"/><path class="cls-9" d="M1213.29,47.25s32.12,1.64,37.25,3.57c0,0,3.4-21.07-12.24-22.07S1213.92,45.75,1213.29,47.25Z"/><path class="cls-10" d="M1286.83,104.2c7.66,0,7.67-11.9,0-11.9s-7.68,11.9,0,11.9Z"/><path class="cls-10" d="M1298.16,116.2c7.66,0,7.68-11.9,0-11.9s-7.67,11.9,0,11.9Z"/><path class="cls-10" d="M1283.49,120.87c7.67,0,7.68-11.91,0-11.91s-7.67,11.91,0,11.91Z"/><path class="cls-10" d="M1291.49,243.54c7.67,0,7.68-11.91,0-11.91s-7.67,11.91,0,11.91Z"/><path class="cls-10" d="M1273.49,254.87c7.67,0,7.68-11.91,0-11.91s-7.67,11.91,0,11.91Z"/><path class="cls-10" d="M1290.16,259.54c7.66,0,7.68-11.91,0-11.91s-7.67,11.91,0,11.91Z"/><path class="cls-10" d="M1253.61,417.38a5,5,0,0,0-.41,4.05c-9.32,6.7-11.67,35.76-11.67,35.76L1260.76,424a4.94,4.94,0,0,0,1.5-1.61,5,5,0,1,0-8.65-5Z"/><path class="cls-10" d="M1226.79,270.57c0-.4.07-.81.07-1.23.1-6.9-4.83-12.56-11-12.64s-11.23,5.44-11.33,12.34a13.12,13.12,0,0,0,4,9.79l-34.42,105.78,6.66,2.17,2.12-6.54c3.13-5.73,13.56-20.67,22.68-33.45,5.93-6.22,12.24-12.57,18.13-18C1240.56,313.35,1228.73,276.24,1226.79,270.57Z"/><path class="cls-10" d="M1181.69,377.83a8.75,8.75,0,1,0,4,14.27l72.79,29.38,1.87-4.64-14.14-5.7c-29.15-18.37-44.45-26.7-50.2-24.37-4.63-.83-6.92-.52-8.06,0A8.76,8.76,0,0,0,1181.69,377.83Z"/><path class="cls-10" d="M1227.93,149.42a8,8,0,0,0,8.64,6.43l25.67,48.9,5.31-2.79-4.76-9.07c-6.55-30.29-13.85-40.88-19-44.3a7.59,7.59,0,0,0-.11-2.22,8,8,0,1,0-15.7,3Z"/><path class="cls-10" d="M1255.39,202.2a7,7,0,0,0,2.77,8.23l-.29.32c-8.24,6.76-26.48,28.1-35.63,39-3.61-2-9.67.63-14,6.22-4.54,5.91-5.38,12.89-1.88,15.58s10,.08,14.57-5.83c3.68-4.78,4.93-10.26,3.42-13.61l5.36-5.9c10.11-8.62,28.48-25,31.87-34.66a7,7,0,1,0-6.22-9.36Z"/></g><g id="step6"><path class="cls-1" d="M884.38,445.74a5,5,0,0,0-3.13,2.6c-11.34-1.74-33.38,17.35-33.38,17.35l37-10.22a4.84,4.84,0,0,0,2.2-.09,5,5,0,1,0-2.66-9.64Z"/><path class="cls-1" d="M875.3,251.37c-.06-.41-.13-.81-.22-1.21-1.56-6.73-7.69-11.06-13.69-9.67s-9.62,8-8.06,14.69a13,13,0,0,0,6.24,8.54l-8.25,110.94,7,.52.51-6.86c1.67-6.31,8.25-23.3,14.06-37.89,4.28-7.44,8.9-15.11,13.33-21.78C898.85,289.64,878.53,256.41,875.3,251.37Z"/><path class="cls-1" d="M866.5,368.81a8.75,8.75,0,1,0-8,12.47l26.58,73.86,4.71-1.69-5.16-14.35c-5.73-34-9.71-50.94-15.28-53.67-2.46-4-4.22-5.51-5.35-6A8.75,8.75,0,0,0,866.5,368.81Z"/><path class="cls-1" d="M886.92,123.08a8,8,0,0,0-4.91,9.58l-44,33.41,3.62,4.78,8.16-6.2c28.8-11.47,38-20.42,40.55-26.11a8,8,0,1,0-3.44-15.46Z"/><path class="cls-1" d="M838,159.86a7,7,0,0,0-3.69,7.86l-.43,0c-10.63-.8-38.57,2-52.72,3.58-1.22-3.94-7.42-6.23-14.39-5.16-7.37,1.14-12.8,5.59-12.12,10s7.19,7,14.56,5.86c6-.92,10.65-4,11.87-7.48l8-.56c13.27.76,37.83,1.64,47-3a7,7,0,1,0,2-11.07Z"/><path class="cls-2" d="M844.16,30.25s-13,10-2,13,52-12,78,8,43,17,34,2-5-15-3-20,6-7-10-10c-7-5-3-8-11-13s-6,2-28,10S850.16,24.25,844.16,30.25Z"/><path class="cls-3" d="M911.65,16.22S946.26,36.7,949.21,37s0,5.28,0,6.28S905.49,20.75,907.83,18,911.65,16.22,911.65,16.22Z"/><path class="cls-4" d="M788.66,219.75c-20-26.89-13-62-2-95s55-58,58-65,17-63,43-58,22,31,23,39,39,10,46,34,10,20,7,36-14,30-13,45,24.07,111.66-46,122C843.66,286.75,823.66,266.75,788.66,219.75Z"/><ellipse cx="817.38" cy="93.06" rx="6" ry="3.45" transform="translate(206.54 644.09) rotate(-48.55)"/><path class="cls-5" d="M823.66,103.75c10-5,19-12,32-8s33,22,4,68c-13,19-25,54-26,67s3.46,41.58-7.27,31.79-57.7-49-49.71-96.38,11.88-46.56,14.43-51.48c4.55-.93,11.55-.93,16.55-2.93S821.66,105.75,823.66,103.75Z"/><path class="cls-6" d="M794.66,126.75s7,2,18-5,31-22,33-9-25,29-33,30-27,3-29,0-.48-12.49,1.26-15.24S789.66,123.75,794.66,126.75Z"/><path class="cls-7" d="M834.66,119.75c-2,1-20,18-51,13"/><path class="cls-8" d="M873.66,17.75a48.31,48.31,0,0,0-12,17c-1.78,4.29-3.64,8.94-3,15,.25,2.37,1.26,11.14,8,15.07a15.24,15.24,0,0,0,15-.07c9-5,21-21,19-39S878.66,11.75,873.66,17.75Z"/><ellipse cx="868.16" cy="36.75" rx="6" ry="6.5"/><path class="cls-9" d="M863.29,31.25s32.12,1.64,37.25,3.57c0,0,3.4-21.07-12.24-22.07S863.92,29.75,863.29,31.25Z"/><path class="cls-10" d="M936.83,88.2c7.66,0,7.67-11.9,0-11.9s-7.68,11.9,0,11.9Z"/><path class="cls-10" d="M948.16,100.2c7.66,0,7.68-11.9,0-11.9s-7.67,11.9,0,11.9Z"/><path class="cls-10" d="M933.49,104.87c7.67,0,7.68-11.91,0-11.91s-7.67,11.91,0,11.91Z"/><path class="cls-10" d="M941.49,227.54c7.67,0,7.68-11.91,0-11.91s-7.67,11.91,0,11.91Z"/><path class="cls-10" d="M923.49,238.87c7.67,0,7.68-11.91,0-11.91s-7.67,11.91,0,11.91Z"/><path class="cls-10" d="M940.16,243.54c7.66,0,7.68-11.91,0-11.91s-7.67,11.91,0,11.91Z"/><path class="cls-10" d="M784.4,417.69a5,5,0,0,0-4.06-.08c-7.43-8.75-36.58-8.76-36.58-8.76l34.62,16.5a5,5,0,1,0,6-7.66Z"/><path class="cls-10" d="M875.23,259.81c.24-.33.46-.68.67-1,3.51-5.95,2.05-13.31-3.26-16.44s-12.46-.85-16,5.1a13.1,13.1,0,0,0-1.35,10.49l-82.39,74.74,4.7,5.19,5.09-4.62c5.56-3.42,22-11.21,36.29-17.78,8.23-2.46,16.86-4.83,24.67-6.61C865.94,303.78,874.1,265.69,875.23,259.81Z"/><path class="cls-10" d="M786.05,334.71A8.75,8.75,0,1,0,775,344.57l5.72,78.28,5-.36-1.11-15.2c3.64-34.26,4.38-51.68-.25-55.81-1.3-4.52-2.59-6.44-3.54-7.24A8.75,8.75,0,0,0,786.05,334.71Z"/><path class="cls-10" d="M876,138a8,8,0,0,0,10.61,1.87l44.87,32.2,3.5-4.87-8.33-6c-19.43-24.15-30.7-30.34-36.88-31.06a7.81,7.81,0,0,0-1.1-1.94A8,8,0,1,0,876,138Z"/><path class="cls-10" d="M924.74,174.86a7,7,0,0,0,7.88,3.63l0,.43c-.73,10.63,2.28,38.55,3.94,52.69-3.93,1.26-6.17,7.47-5.05,14.43,1.18,7.36,5.68,12.75,10,12s6.94-7.24,5.76-14.6c-1-6-4.09-10.62-7.56-11.82l-.62-7.95c.67-13.27,1.37-37.84-3.36-47a7,7,0,1,0-11.07-1.89Z"/></g><g id="step7"><path class="cls-1" d="M601.83,419.7a5,5,0,0,0,1.15,3.9c-6.09,9.73,2.73,37.52,2.73,37.52l5.24-38a4.92,4.92,0,0,0,.79-2.06,5,5,0,0,0-9.91-1.37Z"/><path class="cls-1" d="M525,266.06c-.13-.39-.27-.77-.43-1.15-2.68-6.36-9.46-9.58-15.14-7.19s-8.11,9.5-5.43,15.86a13.12,13.12,0,0,0,7.61,7.35l10.85,110.71,7-.69-.67-6.84c.57-6.5,4.14-24.36,7.37-39.73,2.94-8.07,6.18-16.42,9.41-23.74C554.75,299.74,529,270.48,525,266.06Z"/><path class="cls-1" d="M532.27,380.47a8.75,8.75,0,1,0,4.05,14.25l72.94,29,1.85-4.64-14.17-5.64c-29.24-18.21-44.59-26.46-50.33-24.1-4.64-.81-6.93-.48-8.06,0A8.74,8.74,0,0,0,532.27,380.47Z"/><path class="cls-1" d="M536.87,144.26a8,8,0,0,0-.11,10.77l-24.42,49.54,5.38,2.65,4.53-9.19c20.64-23.12,24.9-35.25,24.6-41.47a8,8,0,0,0,1.33-12.7A8,8,0,0,0,536.87,144.26Z"/><path class="cls-1" d="M508.75,200.36a7,7,0,0,0,2.5,8.32l-.3.31c-8.46,6.49-27.41,27.21-36.92,37.81-3.54-2.12-9.68.31-14.16,5.75-4.74,5.75-5.81,12.7-2.4,15.5s10,.42,14.76-5.34c3.83-4.65,5.26-10.09,3.86-13.48l5.56-5.72c10.4-8.28,29.29-24,33-33.58a7,7,0,1,0-5.91-9.57Z"/><path class="cls-2" d="M494.16,46.25s-13,10-2,13,52-12,78,8,43,17,34,2-5-15-3-20,6-7-10-10c-7-5-3-8-11-13s-6,2-28,10S500.16,40.25,494.16,46.25Z"/><path class="cls-3" d="M561.65,32.22S596.26,52.7,599.21,53s0,5.28,0,6.28S555.49,36.75,557.83,34,561.65,32.22,561.65,32.22Z"/><path class="cls-4" d="M438.66,235.75c-20-26.89-13-62-2-95s55-58,58-65,17-63,43-58,22,31,23,39,39,10,46,34,10,20,7,36-14,30-13,45,24.07,111.66-46,122C493.66,302.75,473.66,282.75,438.66,235.75Z"/><ellipse cx="467.38" cy="109.06" rx="6" ry="3.45" transform="translate(76.24 387.17) rotate(-48.55)"/><path class="cls-5" d="M473.66,119.75c10-5,19-12,32-8s33,22,4,68c-13,19-25,54-26,67s3.46,41.58-7.27,31.79-57.7-49-49.71-96.38,11.88-46.56,14.43-51.48c4.55-.93,11.55-.93,16.55-2.93S471.66,121.75,473.66,119.75Z"/><path class="cls-6" d="M444.66,142.75s7,2,18-5,31-22,33-9-25,29-33,30-27,3-29,0-.48-12.49,1.26-15.24S439.66,139.75,444.66,142.75Z"/><path class="cls-7" d="M484.66,135.75c-2,1-20,18-51,13"/><path class="cls-8" d="M523.66,33.75a48.31,48.31,0,0,0-12,17c-1.78,4.29-3.64,8.94-3,15,.25,2.37,1.26,11.14,7.95,15.07a15.24,15.24,0,0,0,15-.07c9-5,21-21,19-39S528.66,27.75,523.66,33.75Z"/><ellipse cx="518.16" cy="52.75" rx="6" ry="6.5"/><path class="cls-9" d="M513.29,47.25s32.12,1.64,37.25,3.57c0,0,3.4-21.07-12.24-22.07S513.92,45.75,513.29,47.25Z"/><path class="cls-10" d="M586.83,104.2c7.66,0,7.67-11.9,0-11.9s-7.68,11.9,0,11.9Z"/><path class="cls-10" d="M598.16,116.2c7.66,0,7.68-11.9,0-11.9s-7.67,11.9,0,11.9Z"/><path class="cls-10" d="M583.49,120.87c7.67,0,7.68-11.91,0-11.91s-7.67,11.91,0,11.91Z"/><path class="cls-10" d="M591.49,243.54c7.67,0,7.68-11.91,0-11.91s-7.67,11.91,0,11.91Z"/><path class="cls-10" d="M573.49,254.87c7.67,0,7.68-11.91,0-11.91s-7.67,11.91,0,11.91Z"/><path class="cls-10" d="M590.16,259.54c7.66,0,7.68-11.91,0-11.91s-7.67,11.91,0,11.91Z"/><path class="cls-10" d="M448.57,457.84a5,5,0,0,0-4,.68c-8.93-7.22-37.58-1.81-37.58-1.81l37.09,9.78a4.92,4.92,0,0,0,1.95,1,5,5,0,1,0,2.55-9.67Z"/><path class="cls-10" d="M527.12,272.38a12.18,12.18,0,0,0,.3-1.19c1.38-6.77-2.39-13.25-8.43-14.48s-12.06,3.25-13.44,10a13.12,13.12,0,0,0,2.13,10.36l-53.57,97.49,6.14,3.37,3.31-6c4.14-5.05,17.17-17.77,28.52-28.63,7-5,14.38-10.06,21.18-14.28C532.66,317,528,278.31,527.12,272.38Z"/><path class="cls-10" d="M468.48,376.93a8.75,8.75,0,1,0-12.77,7.52l-9.64,77.9,5,.61,1.87-15.13c10.24-32.89,14.36-49.83,10.62-54.78-.39-4.69-1.28-6.83-2-7.8A8.74,8.74,0,0,0,468.48,376.93Z"/><path class="cls-10" d="M525.74,148.77a8,8,0,0,0,7.91,7.31L554,207.45l5.58-2.21-3.77-9.52c-3.27-30.83-9.4-42.13-14.2-46.09a8.17,8.17,0,0,0,.13-2.22,8,8,0,0,0-16,1.36Z"/><path class="cls-10" d="M547.21,204.72a7,7,0,0,0,3,8.13l-.28.33c-8,7-25.53,29-34.31,40.18-3.68-1.88-9.64.95-13.75,6.68-4.34,6.06-5,13-1.37,15.63s10-.25,14.37-6.31c3.52-4.9,4.59-10.42,3-13.71l5.17-6.08c9.82-9,27.63-25.89,30.7-35.71a7,7,0,1,0-6.53-9.14Z"/></g><g id="step8"><path class="cls-1" d="M188.46,432.79a5,5,0,0,0,3.29,2.39c1.1,11.42,25,28.07,25,28.07l-19-33.31a5,5,0,1,0-9.31,2.85Z"/><path class="cls-1" d="M175.54,287.67a12.23,12.23,0,0,0,.21-1.21c.91-6.85-3.32-13-9.43-13.86s-11.79,4.09-12.7,10.94a13.1,13.1,0,0,0,2.85,10.18l-46.61,101,6.35,2.93,2.89-6.24c3.77-5.32,15.88-18.93,26.44-30.55,6.62-5.48,13.64-11,20.13-15.73C184.18,331.77,176.8,293.52,175.54,287.67Z"/><path class="cls-1" d="M120.64,387.5a8.75,8.75,0,1,0,3.51,14.39l71.77,31.77,2-4.57L184,422.92c-28.53-19.32-43.55-28.16-49.37-26-4.61-1-6.91-.75-8.06-.29A8.74,8.74,0,0,0,120.64,387.5Z"/><path class="cls-1" d="M181.4,170.06a8,8,0,0,0,8.38,6.77L213.5,226.7l5.42-2.58-4.4-9.25c-5.34-30.53-12.22-41.4-17.28-45a8.26,8.26,0,0,0,0-2.22,8,8,0,0,0-15.82,2.43Z"/><path class="cls-1" d="M208,226.9a7,7,0,0,0,8.07,3.21l.06.43c-.16,10.65,4.35,38.36,6.77,52.39-3.86,1.47-5.76,7.79-4.27,14.68,1.58,7.29,6.36,12.44,10.68,11.5s6.54-7.6,5-14.89c-1.28-5.89-4.65-10.39-8.18-11.39L225,274.92c-.05-13.29-.66-37.86-5.88-46.72A7,7,0,1,0,208,226.9Z"/><path class="cls-2" d="M144.16,62.25s-13,10-2,13,52-12,78,8,43,17,34,2-5-15-3-20,6-7-10-10c-7-5-3-8-11-13s-6,2-28,10S150.16,56.25,144.16,62.25Z"/><path class="cls-3" d="M211.65,48.22S246.26,68.7,249.21,69s0,5.28,0,6.28S205.49,52.75,207.83,50,211.65,48.22,211.65,48.22Z"/><path class="cls-4" d="M88.66,251.75c-20-26.89-13-62-2-95s55-58,58-65,17-63,43-58,22,31,23,39,39,10,46,34,10,20,7,36-14,30-13,45,24.07,111.66-46,122C143.66,318.75,123.66,298.75,88.66,251.75Z"/><ellipse cx="117.38" cy="125.06" rx="6" ry="3.45" transform="translate(-54.06 130.25) rotate(-48.55)"/><path class="cls-5" d="M123.66,135.75c10-5,19-12,32-8s33,22,4,68c-13,19-25,54-26,67s3.46,41.58-7.27,31.79-57.7-49-49.71-96.38,11.88-46.56,14.43-51.48c4.55-.93,11.55-.93,16.55-2.93S121.66,137.75,123.66,135.75Z"/><path class="cls-6" d="M94.66,158.75s7,2,18-5,31-22,33-9-25,29-33,30-27,3-29,0-.48-12.49,1.26-15.24S89.66,155.75,94.66,158.75Z"/><path class="cls-7" d="M134.66,151.75c-2,1-20,18-51,13"/><path class="cls-8" d="M173.66,49.75a48.31,48.31,0,0,0-12,17c-1.78,4.29-3.64,8.94-3,15,.25,2.37,1.26,11.14,8,15.07a15.24,15.24,0,0,0,15-.07c9-5,21-21,19-39S178.66,43.75,173.66,49.75Z"/><ellipse cx="168.16" cy="68.75" rx="6" ry="6.5"/><path class="cls-9" d="M163.29,63.25s32.12,1.64,37.25,3.57c0,0,3.4-21.07-12.24-22.07S163.92,61.75,163.29,63.25Z"/><path class="cls-10" d="M236.83,120.2c7.66,0,7.67-11.9,0-11.9s-7.68,11.9,0,11.9Z"/><path class="cls-10" d="M248.16,132.2c7.66,0,7.68-11.9,0-11.9s-7.67,11.9,0,11.9Z"/><path class="cls-10" d="M233.49,136.87c7.67,0,7.68-11.91,0-11.91s-7.67,11.91,0,11.91Z"/><path class="cls-10" d="M241.49,259.54c7.67,0,7.68-11.91,0-11.91s-7.67,11.91,0,11.91Z"/><path class="cls-10" d="M223.49,270.87c7.67,0,7.68-11.91,0-11.91s-7.67,11.91,0,11.91Z"/><path class="cls-10" d="M240.16,275.54c7.66,0,7.68-11.91,0-11.91s-7.67,11.91,0,11.91Z"/><path class="cls-10" d="M134.13,456.31a5,5,0,0,0-3.69,1.69c-10.51-4.62-36.74,8.1-36.74,8.1l38.36-.28a4.8,4.8,0,0,0,2.14.48,5,5,0,1,0-.07-10Z"/><path class="cls-10" d="M176.78,289.28c.17-.37.32-.75.46-1.15,2.25-6.52-.64-13.44-6.46-15.46s-12.38,1.64-14.64,8.17a13.13,13.13,0,0,0,.75,10.55L91,381l5.64,4.15,4.07-5.54c4.77-4.45,19.36-15.35,32-24.62,7.58-4,15.57-8.08,22.87-11.38C176.41,334.21,176.84,295.27,176.78,289.28Z"/><path class="cls-10" d="M103.33,378.76a8.75,8.75,0,1,0-6.28,13.41l36,69.73,4.45-2.3-7-13.54c-10.14-32.93-16.31-49.23-22.19-51.2-3-3.65-4.92-4.91-6.1-5.27A8.74,8.74,0,0,0,103.33,378.76Z"/><path class="cls-10" d="M179.32,159.45a8,8,0,0,0,.93,10.73l-19.49,51.68,5.62,2.11,3.61-9.58c18.29-25,21.36-37.52,20.46-43.67a8.33,8.33,0,0,0,1.58-1.56,8,8,0,1,0-12.71-9.71Z"/><path class="cls-10" d="M154.73,217.8a7,7,0,0,0,1.31,8.59l-.34.26c-9.27,5.25-30.92,23.13-41.81,32.3-3.22-2.59-9.64-1-14.83,3.72-5.49,5-7.52,11.77-4.54,15s9.87,1.81,15.36-3.23c4.44-4.08,6.62-9.26,5.71-12.81l6.29-4.9c11.45-6.75,32.35-19.68,37.37-28.65a7,7,0,1,0-4.52-10.3Z"/></g></svg>
