<?xml version="1.0" encoding="utf-8"?>
<!-- Generator: Adobe Illustrator 22.0.1, SVG Export Plug-In . SVG Version: 6.00 Build 0)  -->
<svg version="1.1" id="Layer_1" xmlns="http://www.w3.org/2000/svg" xmlns:xlink="http://www.w3.org/1999/xlink" x="0px" y="0px"
	 width="384px" height="398px" viewBox="0 0 384 398" style="enable-background:new 0 0 384 398;" xml:space="preserve">
<style type="text/css">
	.st0{fill:#30190A;}
	.st1{fill:#77421B;}
	.st2{fill:#602315;}
	.st3{fill:#3F3F3F;stroke:#000000;stroke-miterlimit:10;}
	.st4{fill:#FFFFFF;stroke:#381810;stroke-miterlimit:10;}
	.st5{fill:#381810;}
	.st6{fill:#723322;}
	.st7{fill:#4C2306;}
	.st8{fill:#605553;}
</style>
<g>
	<path class="st0" d="M313.8,147.8"/>
	<path class="st1" d="M41.8,261.6l1.6,86.2c0,0,265.6,3.5,273.6,5c8,1.5,2.6-88.2,6.4-93C327.2,255.1,45,257.3,41.8,261.6z"/>
	<path class="st2" d="M126.2,259.4c0,0-1,23.5,0.9,40.8c1.9,17.3,2,23.4,0.5,28.7s-0.9,12.4,0.5,17c1.5,4.7,17.4,4.1,17.4,4.1
		s-0.5-86.1,0.8-91.3c1.4-5.3-3.6-13.8-10.7-9.2c-7.1,4.6-10.1,13.4-10.1,13.4"/>
	<path class="st2" d="M228.3,260.2c0,0-1,23.5,0.9,40.8s2,23.4,0.5,28.7c-1.5,5.3-0.9,12.4,0.5,17c1.5,4.7,17.4,4.1,17.4,4.1
		s-0.5-86.1,0.8-91.3c1.4-5.3-3.6-13.8-10.7-9.2c-7.1,4.6-10.1,13.4-10.1,13.4"/>
	<path class="st3" d="M151.4,298.5l0.6,30.9l31.3-1.1c0,0-2.4-8-0.3-17.1s-0.8-43.9-0.8-43.9s-24.8-7.3-20.3,30L151.4,298.5z"/>
	<path class="st3" d="M220.7,296.1l0.6,30.9l-31.3,1.1c0,0,2.1-8.2-0.3-17.1c-2.4-8.9-0.8-43.9-0.8-43.9s24.4-9,21.4,28.5
		L220.7,296.1z"/>
	<path class="st4" d="M54.4,273.6c0.1,4.3,0.2,12.2,0.3,14.8c0,2.6,14.3-0.5,17.6,1.1s2.1-16.6-0.3-16.5S54.4,273.6,54.4,273.6z"/>
	<path class="st4" d="M84.8,320.4c0.1,4.3,0.2,12.2,0.3,14.8s14.3-0.5,17.6,1.1c3.2,1.6,2.1-16.6-0.3-16.5
		C99.9,319.9,84.8,320.4,84.8,320.4z"/>
	<path class="st4" d="M57.2,295.3c0,0,1,13,0.3,15.6s13.5-1.3,14.3-0.5s-1.9-13.8-0.3-15.6C73.1,293,58.8,293.5,57.2,295.3z"/>
	<path class="st4" d="M81.5,272.7c0,0,0.2,11.3,0.3,14.8c0.1,3.5,10.3-3,22.3-3.4c0,0,3-10.5-0.2-12.2
		C100.6,270.3,81.5,272.7,81.5,272.7z"/>
	<path class="st4" d="M84.3,295.2c0,0,1.1,13.9,0.3,15.6s14.3-2.2,17.5-2.3c3.2-0.1,1.3-14-0.3-13.9
		C100.3,294.6,84.3,295.2,84.3,295.2z"/>
	<path class="st4" d="M55.2,318.8c0,0,1.1,13.9,0.3,15.6c-0.8,1.8,14.3-2.2,17.5-2.3c3.2-0.1,1.3-14-0.3-13.9
		C71.2,318.3,55.2,318.8,55.2,318.8z"/>
	<path class="st4" d="M259.4,272.6c0.1,4.3,0.2,12.2,0.3,14.8c0,2.6,14.3-0.5,17.6,1.1c3.2,1.6,2.1-16.6-0.3-16.5
		S259.4,272.6,259.4,272.6z"/>
	<path class="st4" d="M289.8,319.3c0.1,4.3,0.2,12.2,0.3,14.8c0,2.6,14.3-0.5,17.6,1.1c3.2,1.6,2.1-16.6-0.3-16.5
		C304.9,318.8,289.8,319.3,289.8,319.3z"/>
	<path class="st4" d="M262.2,294.2c0,0,1,13,0.3,15.6s13.5-1.3,14.3-0.5s-1.9-13.8-0.3-15.6C278.1,291.9,263.8,292.4,262.2,294.2z"
		/>
	<path class="st4" d="M286.5,271.6c0,0,0.2,11.3,0.3,14.8c0.1,3.5,10.3-3,22.3-3.4c0,0,3-10.5-0.2-12.2
		C305.6,269.2,286.5,271.6,286.5,271.6z"/>
	<path class="st4" d="M289.3,294.1c0,0,1.1,13.9,0.3,15.6c-0.8,1.8,14.3-2.2,17.5-2.3c3.2-0.1,1.3-14-0.3-13.9
		C305.3,293.6,289.3,294.1,289.3,294.1z"/>
	<path class="st4" d="M260.2,317.8c0,0,1.1,13.9,0.3,15.6s14.3-2.2,17.5-2.3c3.2-0.1,1.3-14-0.3-13.9
		C276.2,317.2,260.2,317.8,260.2,317.8z"/>
	<path class="st5" d="M16.1,378c0,0,76.4-10.5,92.4-9.3c16,1.2,85.3-0.3,101.3,0.8c16,1.2,122-0.7,130,0.7c8,1.5,34.3,2.3,38.3,2.2
		c4-0.1,0.4-21.7,1.1-27c0.7-5.2-8.8,0.3-18.3,0.6c-9.6,0.3-92.5,1.5-102.9,0.9c-10.4-0.5-76.6-0.8-89.4-2.1
		c-12.8-1.3-71.7,3.3-86.1,3s-67.8-0.3-70.2,1.6s-7.4,32.4-1.8,30.5S16.1,378,16.1,378z"/>
	<path class="st1" d="M81.4,159.2c0,0-0.7,91.3,1.7,92.1c2.4,0.8,227.2-7,232-4.5c4.8,2.4-6.3-80.6,2.3-88.8
		c8.6-8.1-41.5-0.3-41.5-0.3S74.1,152.5,75.7,156C77.4,159.4,81.4,159.2,81.4,159.2z"/>
	<path class="st4" d="M91.6,174.2c0.1,3,0.2,8.5,0.2,10.4c0,1.8,10.1-0.3,12.3,0.8s1.5-11.6-0.2-11.6
		C102.3,173.8,91.6,174.2,91.6,174.2z"/>
	<path class="st4" d="M113,207c0.1,3,0.2,8.5,0.2,10.4c0,1.8,10.1-0.3,12.3,0.8c2.3,1.1,1.5-11.6-0.2-11.6S113,207,113,207z"/>
	<path class="st4" d="M93.6,189.4c0,0,0.7,9.1,0.2,11c-0.5,1.8,9.5-0.9,10.1-0.3c0.6,0.6-1.3-9.7-0.2-11
		C104.8,187.8,94.7,188.1,93.6,189.4z"/>
	<path class="st4" d="M110.7,173.5c0,0,0.1,7.9,0.2,10.4c0,2.4,7.2-2.1,15.6-2.4c0,0,2.1-7.4-0.2-8.5
		C124.1,171.9,110.7,173.5,110.7,173.5z"/>
	<path class="st4" d="M112.6,189.3c0,0,0.7,9.7,0.2,11s10-1.6,12.3-1.6c2.2-0.1,0.9-9.8-0.2-9.8
		C123.8,188.9,112.6,189.3,112.6,189.3z"/>
	<path class="st4" d="M92.2,205.9c0,0,0.7,9.7,0.2,11s10-1.6,12.3-1.6c2.2-0.1,0.9-9.8-0.2-9.8S92.2,205.9,92.2,205.9z"/>
	<path class="st4" d="M147.5,175.7c0.1,3,0.2,8.5,0.2,10.4s10.1-0.3,12.3,0.8c2.3,1.1,1.5-11.6-0.2-11.6
		C158.1,175.4,147.5,175.7,147.5,175.7z"/>
	<path class="st4" d="M168.8,208.6c0.1,3,0.2,8.5,0.2,10.4s10.1-0.3,12.3,0.8s1.5-11.6-0.2-11.6
		C179.5,208.2,168.8,208.6,168.8,208.6z"/>
	<path class="st4" d="M149.5,190.9c0,0,0.7,9.1,0.2,11c-0.5,1.8,9.5-0.9,10.1-0.3s-1.3-9.7-0.2-11
		C160.6,189.3,150.6,189.7,149.5,190.9z"/>
	<path class="st4" d="M166.5,175.1c0,0,0.1,7.9,0.2,10.4c0,2.4,7.2-2.1,15.6-2.4c0,0,2.1-7.4-0.2-8.5
		C179.9,173.4,166.5,175.1,166.5,175.1z"/>
	<path class="st4" d="M168.5,190.9c0,0,0.7,9.7,0.2,11s10-1.6,12.3-1.6s0.9-9.8-0.2-9.8C179.7,190.5,168.5,190.9,168.5,190.9z"/>
	<path class="st4" d="M148.1,207.4c0,0,0.7,9.7,0.2,11s10-1.6,12.3-1.6s0.9-9.8-0.2-9.8C159.3,207.1,148.1,207.4,148.1,207.4z"/>
	<path class="st4" d="M203.3,174.7c0.1,3,0.2,8.5,0.2,10.4c0,1.8,10.1-0.3,12.3,0.8c2.3,1.1,1.5-11.6-0.2-11.6
		C214,174.3,203.3,174.7,203.3,174.7z"/>
	<path class="st4" d="M224.6,207.5c0.1,3,0.2,8.5,0.2,10.4c0,1.8,10.1-0.3,12.3,0.8c2.3,1.1,1.5-11.6-0.2-11.6
		C235.3,207.1,224.6,207.5,224.6,207.5z"/>
	<path class="st4" d="M205.3,189.9c0,0,0.7,9.1,0.2,11c-0.5,1.8,9.5-0.9,10.1-0.3s-1.3-9.7-0.2-11
		C216.5,188.3,206.4,188.6,205.3,189.9z"/>
	<path class="st4" d="M222.3,174c0,0,0.1,7.9,0.2,10.4c0,2.4,7.2-2.1,15.6-2.4c0,0,2.1-7.4-0.2-8.5C235.7,172.3,222.3,174,222.3,174
		z"/>
	<path class="st4" d="M224.3,189.8c0,0,0.7,9.7,0.2,11s10-1.6,12.3-1.6c2.2-0.1,0.9-9.8-0.2-9.8S224.3,189.8,224.3,189.8z"/>
	<path class="st4" d="M203.9,206.4c0,0,0.7,9.7,0.2,11c-0.5,1.2,10-1.6,12.3-1.6c2.2-0.1,0.9-9.8-0.2-9.8S203.9,206.4,203.9,206.4z"
		/>
	<path class="st4" d="M259.1,173.6c0.1,3,0.2,8.5,0.2,10.4s10.1-0.3,12.3,0.8s1.5-11.6-0.2-11.6
		C269.8,173.3,259.1,173.6,259.1,173.6z"/>
	<path class="st4" d="M280.5,206.4c0.1,3,0.2,8.5,0.2,10.4s10.1-0.3,12.3,0.8c2.3,1.1,1.5-11.6-0.2-11.6S280.5,206.4,280.5,206.4z"
		/>
	<path class="st4" d="M261.1,188.8c0,0,0.7,9.1,0.2,11c-0.5,1.8,9.5-0.9,10.1-0.3c0.6,0.6-1.3-9.7-0.2-11
		C272.3,187.2,262.2,187.5,261.1,188.8z"/>
	<path class="st4" d="M278.2,173c0,0,0.1,7.9,0.2,10.4c0,2.4,7.2-2.1,15.6-2.4c0,0,2.1-7.4-0.2-8.5C291.6,171.3,278.2,173,278.2,173
		z"/>
	<path class="st4" d="M280.1,188.8c0,0,0.7,9.7,0.2,11c-0.5,1.2,10-1.6,12.3-1.6c2.2-0.1,0.9-9.8-0.2-9.8
		C291.3,188.4,280.1,188.8,280.1,188.8z"/>
	<path class="st4" d="M259.7,205.3c0,0,0.7,9.7,0.2,11c-0.5,1.2,10-1.6,12.3-1.6c2.2-0.1,0.9-9.8-0.2-9.8
		C270.9,204.9,259.7,205.3,259.7,205.3z"/>
	<path class="st2" d="M47.5,202.6c0,0,1.1,25.2,0.6,31.3s8.1,4.1,8.1,4.1l-0.7-35.6L47.5,202.6z"/>
	<path class="st2" d="M62.6,202.1c0,0,1.1,25.2,0.6,31.3c-0.5,6.1,8.1,4.1,8.1,4.1l-0.7-35.6L62.6,202.1z"/>
	<path class="st2" d="M84.2,203.9c0,0,1.1,25.2,0.6,31.3s8.1,4.1,8.1,4.1l-0.7-35.6L84.2,203.9z"/>
	<path class="st2" d="M106.5,203.1c0,0,1.1,25.2,0.6,31.3s8.1,4.1,8.1,4.1l-0.7-35.6L106.5,203.1z"/>
	<path class="st2" d="M127.2,202.4c0,0,1.1,25.2,0.6,31.3c-0.5,6.1,8.1,4.1,8.1,4.1l-0.7-35.6L127.2,202.4z"/>
	<path class="st2" d="M155.9,201.4c0,0,1.1,25.2,0.6,31.3s8.1,4.1,8.1,4.1l-0.7-35.6L155.9,201.4z"/>
	<path class="st2" d="M192.6,200.2c0,0,1.1,25.2,0.6,31.3s8.1,4.1,8.1,4.1l-0.7-35.6L192.6,200.2z"/>
	<path class="st2" d="M233.3,201.4c0,0,1.1,25.2,0.6,31.3s8.1,4.1,8.1,4.1l-0.7-35.6L233.3,201.4z"/>
	<path class="st2" d="M260.5,203.9c0,0,1.1,25.2,0.6,31.3c-0.5,6.1,8.1,4.1,8.1,4.1l-0.7-35.6L260.5,203.9z"/>
	<path class="st2" d="M295.5,202.7c0,0,1.1,25.2,0.6,31.3c-0.5,6.1,8.1,4.1,8.1,4.1l-0.7-35.6L295.5,202.7z"/>
	<path class="st5" d="M30.6,197.1c0,0,0.8,0.8,0.1,6.1c-0.7,5.2,75,2.6,94.2,2.8c19.1,0.2,59.8-1.2,76.5-2.6s54.3,0.7,63.1,2.2
		c8.8,1.4,28.7-1.9,43-1.5c14.4,0.4,16,4.7,17.6,0.3c1.5-4.4-1.6-1.7,2.2-7.9c3.9-6.2-16.1-5.5-18.4-4.6s-76.5,3.5-84.5,2.9
		s-47,1.6-56.6,2c-9.6,0.3-32.7,2-44.6,2.4s-24.7,0.9-37.5-0.4c-12.8-1.3-18.4-2-25.6-2.6C52.9,195.4,33.8,194.4,30.6,197.1z"/>
	<path class="st5" d="M23,236.9c0,0,4.5,25.1,3.7,26.8c-0.8,1.8,27.8-4.4,43.8-2.4s67.8-2.3,81.3-1.9s59-2,75,0.9
		c16,2.9,43.9,0.2,52.6-1.8s27.9,1.6,35.9,2.2c8,0.6,29.6,2.5,32.7-1.1c3.1-3.6,3.6-22.7-0.5-24.3c-4-1.6-32.7,2-39.9,1.4
		s-47.8,1.7-55,0.2c-7.2-1.5-32.8-3.2-42.3-2c-9.5,1.2-16-0.3-28.7-1.6c-9.8-1-43.1-0.2-51.8,0.1c-2.9,0.1-21.5,3.4-36.7,2.1
		C78,234.1,26.9,233.3,23,236.9z"/>
	<path class="st5" d="M54.7,140.2c0,0,273.5-6,275.2,0.9c1.7,6.9,6,20.7,0.4,21.7c-5.6,1.1-279.8,10.5-279.1,4.4
		S47.5,140.4,54.7,140.2z"/>
	<path class="st6" d="M41.6,121.5c0,0-1.6-0.8-1.3,14c0,0-2.3,3.6,1.7,5.2c4,1.6,11.4-0.3,16.1-0.5c4.6-0.2,274.3,0.9,286.2-0.4
		c3.9-5.4,1.4-11.4-0.3-13.9c-1.6-2.6-47.2-7.9-55.9-5.9s-101.3,0.9-113.3-0.4c-12-1.3-75-1.8-91.7,0.6c-16.7,2.3-39.1-0.4-36.7,0.4
		S41.6,121.5,41.6,121.5z"/>
	<path class="st7" d="M67.6,82.2c0,0,14-17.2,37.6-16.8s31.3-0.3,41.4,0.7c10.1,1-6.6-60.5,62.6-51.6s56.3,48.8,57,57.5
		s37.4-7.2,43,5.9c5.6,13.1,15,44.6,4.7,48.8c-10.3,4.2-136.8-8.4-168.1-7.2s-80.7,15.2-84.5-3.2S60.3,87.7,67.6,82.2z"/>
	<path class="st8" d="M69.1,105.3c0,0-6.4-16.6,15.9-26.7s42.4-6.2,52.6-6.1c10.1,0.2,20.3-0.5,22.2-9.2s1.5-26.9,7.6-32
		c6-5.1,85.3-29.9,91.3,36.3c0,0-6.3,13.8,6.4,14s34-8.1,36.4-0.3s13.7,28.9,4.3,32.2c-9.4,3.3-79.5,1.3-109.9-1.8
		S146,109.2,118,113C90,116.9,67,121.8,69.1,105.3z"/>
	<g>
		<g>
			<path class="st8" d="M118.8,84.8c-0.3-3.3-2-5.8-5-7.4c-3.9-2-8.4-1-12.3,0.1c-1.9,0.5-1.1,3.4,0.8,2.9
				c4.6-1.2,12.8-2.5,13.5,4.4C116,86.7,119,86.8,118.8,84.8L118.8,84.8z"/>
		</g>
	</g>
	<path class="st3" d="M181,300.4l-3.1,0.1c-0.5,0-1-0.6-1-1.3l0-0.4c0-0.7,0.4-1.4,1-1.4l3.1-0.1c0.5,0,1,0.6,1,1.3l0,0.4
		C182,299.8,181.5,300.4,181,300.4z"/>
</g>
</svg>
