<?xml version="1.0" encoding="utf-8"?>
<!-- Generator: Adobe Illustrator 22.0.1, SVG Export Plug-In . SVG Version: 6.00 Build 0)  -->
<svg version="1.1" id="Layer_1" xmlns="http://www.w3.org/2000/svg" xmlns:xlink="http://www.w3.org/1999/xlink" x="0px" y="0px"
	 width="384px" height="658px" viewBox="0 0 384 658" style="enable-background:new 0 0 384 658;" xml:space="preserve">
<style type="text/css">
	.st0{fill:#492B16;}
	.st1{fill:#30190A;}
	.st2{fill:#C9C4C1;stroke:#000000;stroke-miterlimit:10;}
	.st3{fill:#2D190B;}
	.st4{fill:#3F3F3F;stroke:#000000;stroke-miterlimit:10;}
	.st5{fill:#77421B;}
	.st6{fill:#4F2A11;}
	.st7{fill:#E26E17;}
	.st8{fill:#CCAE1B;}
	.st9{fill:none;stroke:#30190A;stroke-miterlimit:10;}
	.st10{fill:#3F3F3F;}
	.st11{fill:#EDE4BC;}
</style>
<g>
	<path class="st0" d="M107.2,384.9c0,0,6.8,27.7,5.4,59.1s9.5,83.1,9.5,92.3s5.4,55.4,5.4,62.8c0,7.4,149.2-14.8,149.2-14.8
		s-6.1-82.2-0.7-121s9.5-85,5.4-92.3c-4.1-7.4-176.3-3.7-174.9,5.5s0,9.2,0,9.2L107.2,384.9z"/>
	<path class="st1" d="M161.4,442.1c0,0,6.8,145.9,6.8,149.6c0,3.7,13.6,0,13.6,0s-10.8-145.9-6.8-149.6
		C179.1,438.4,161.4,442.1,161.4,442.1z"/>
	<path class="st1" d="M231.9,438.4c0,0,6.8,145.9,6.8,149.6c0,3.7,13.6,0,13.6,0s-10.8-145.9-6.8-149.6
		C249.6,434.7,231.9,438.4,231.9,438.4z"/>
	<path class="st2" d="M126.9,418.1c-4.3,28.4-3.2,47.1-3.2,47.1l7.6,57.1l9.5,64.1c0,0,12.1-2.9,13.5-1.8c1.4,1-4.3-118.1-4.4-125.4
		S141,408.3,136,409S128,411.3,126.9,418.1z"/>
	<line class="st2" x1="132.6" y1="409.5" x2="132.3" y2="409.5"/>
	<line class="st2" x1="147.9" y1="585.4" x2="132.3" y2="409.5"/>
	<line class="st2" x1="143.2" y1="530.4" x2="152.3" y2="509.7"/>
	<line class="st2" x1="137.6" y1="468.1" x2="146.2" y2="436.7"/>
	<line class="st2" x1="140" y1="495.7" x2="124.7" y2="437.2"/>
	<line class="st2" x1="144.1" y1="542.4" x2="128.4" y2="500.9"/>
	<path class="st2" d="M253,402c-5.9,27.9-6.1,46.7-6.1,46.7l3.1,58.2l4.4,65.5c0,0,11.3-1.2,12.5,0c1.3,1.2,4.1-118.8,4.4-126.1
		c0.3-7.3-4.7-52.1-9.4-52.1C257.2,394.1,254.4,395.3,253,402z"/>
	<line class="st2" x1="258.7" y1="394.1" x2="258.4" y2="394.1"/>
	<line class="st2" x1="260.9" y1="572.3" x2="258.4" y2="394.1"/>
	<line class="st2" x1="260.3" y1="516.6" x2="270" y2="497.2"/>
	<line class="st2" x1="259.4" y1="453.5" x2="269.4" y2="423.2"/>
	<line class="st2" x1="259.7" y1="481.4" x2="249.7" y2="420.8"/>
	<line class="st2" x1="260.3" y1="528.7" x2="248.7" y2="485"/>
	<path class="st3" d="M186.5,392.3c0,0-38,36.9-44.8,53.6c0,0,105.8,0,119.3,0c13.6,0-33.9-55.4-39.3-53.6
		C216.4,394.1,186.5,392.3,186.5,392.3z"/>
	<path class="st4" d="M186.4,463.4c5.6-1.2,13.8-4.1,21.4-7.1c10.7-4.2,20.3-8.6,20.3-8.6l1.1,130.5l-42.8,17.2V463.4z"/>
	<line class="st4" x1="205" y1="457" x2="203.9" y2="589"/>
	<line class="st4" x1="205" y1="505.8" x2="228.7" y2="495.7"/>
	<line class="st4" x1="187" y1="502.9" x2="205" y2="505.8"/>
	<line class="st4" x1="185.8" y1="545.9" x2="203.9" y2="548.8"/>
	<line class="st4" x1="203.9" y1="550.2" x2="228.7" y2="538.8"/>
	<line class="st4" x1="185.8" y1="544.5" x2="203.9" y2="550.2"/>
	<ellipse class="st5" cx="214" cy="524.4" rx="2.8" ry="3.6"/>
	<path class="st6" d="M107.9,594.5c0,0,177.6-25.9,187.1-18.5c0,0,4.1,27.7,0,29.5c-4.1,1.8-177.6,12.9-181.7,16.6
		C109.2,625.9,101.1,594.5,107.9,594.5z"/>
	<polygon class="st5" points="161.2,600.5 161.4,617.7 249.6,607.6 249.4,591.9 	"/>
	<path class="st1" d="M138.8,616.6c0,0,121.4-11.1,125.3-9.2s0,14.8,0,14.8l-125.3,5.5C138.8,627.7,134.8,616.6,138.8,616.6z"/>
	<path class="st5" d="M124.8,642.5v-14.8c0,0,3.4-0.3,9.2-0.7c31.8-2.4,135.4-10.1,144.6-8.5c0,0,1.8,5.5,0,11.1
		C276.8,635.1,130.2,638.8,124.8,642.5z"/>
	<path class="st1" d="M174,169.7c5.5,22.9,21.9,81.6,13.9,36.1s-16.5-68.7-15.6-51.2"/>
	<path class="st1" d="M216,166.7c-5.2,23-16.5,83.9-3.8,40.5c12.7-43.5,15.5-69.1,8.8-54.1"/>
	<path class="st7" d="M194,181.7c-1.4,5.5,6.8,14.8,6.8,1.8S194,181.7,194,181.7z"/>
	<path class="st8" d="M199.4,157.8c0,0-1.8-3.8-6.1-0.8c-0.7,3.8,0.4,11.5-0.4,13.8c-2.2,1.5-2.9,3.8-3.2,6.1s-0.7,7.7-0.7,7.7
		s14.4,1.5,15.5,0c1.1-1.5,0-11.5-1.8-13.1c-1.8-1.5-3.2,1.5-3.2-6.1S200.1,158.6,199.4,157.8z"/>
	<path class="st6" d="M183.5,199.4c0,0,25.4-10.1,31.8,0c1.8,40.5-3.6,35.5-5.5,35.5c-1.8,0-27.3-5.1-29.1,0
		C179,239.9,177.1,199.4,183.5,199.4z"/>
	<path class="st4" d="M101.8,368.3c-1.4-1.8-6.8-12.9-6.8-12.9l77.3-109l27.1-27.7l90.9,125.6l4.1,27.7l-94.8-8.2l-79.6,5
		L101.8,368.3z"/>
	<path class="st6" d="M93.6,366.4c0,0,1.4,12.9,0,20.3c-1.4,7.4,25.8-18.5,101.7-11.1c75.9,7.4,96.3,5.5,101.7,12.9
		c5.4,7.4,8.1-33.2,2.7-31.4c-5.4,1.8-127.5,3.7-151.9,0C123.5,353.5,93.6,355.3,93.6,366.4z"/>
	<path class="st1" d="M76,366.4c0,0,1.4,11.1,12.2,5.5s65.1-96,86.8-120c21.7-24,17.6-27.7,25.8-20.3c8.1,7.4,82.7,125.6,92.2,134.8
		s24.4,36.9,20.3,18.5c-1.2-5.5-7.9-24.8-21.7-46.2c-32.3-50-88-121.1-90.9-123.7c-4.1-3.7-39.3,33.2-71.9,85
		C114,320.2,100.4,351.6,76,366.4z"/>
	<path class="st2" d="M244.2,334.1c0,21.7-98.1,21.7-98.1,0s22-39.2,49.1-39.2S244.2,312.5,244.2,334.1z"/>
	<line class="st9" x1="195.1" y1="350.7" x2="192.7" y2="294.4"/>
	<line class="st9" x1="200.8" y1="350.7" x2="232.4" y2="308.7"/>
	<line class="st9" x1="186.2" y1="349.6" x2="164.3" y2="303.2"/>
	<path class="st9" d="M162.6,346.7c0,0,46.3-76.3,58.9,1.4"/>
	<path class="st10" d="M170.5,163.5c19.9,0,56.2,3.7,57.3,0s-21.1-92.6-30.4-75.9C188,104.2,158.8,163.5,170.5,163.5z"/>
	<path class="st2" d="M184.4,157.6c18.2-6.5,30.8,4.8,25.4-17s-10.8-43.5-17.5-17.4S181.3,158.7,184.4,157.6z"/>
	<line class="st9" x1="195.4" y1="155.7" x2="201.5" y2="114"/>
	<line class="st9" x1="199.1" y1="130.7" x2="190.2" y2="128"/>
	<line class="st9" x1="197.9" y1="139" x2="211.6" y2="147.9"/>
	<line class="st9" x1="197.7" y1="145" x2="185.6" y2="149.3"/>
	<path class="st11" d="M194.6,31.3c-4.6,0-9,1.5-9.6,3.8s-4,6.2,0,6.2s7.3-3.8,11.3-1.5c0,6.2,0.6,16.9,0,23.8
		c-0.6,6.9-0.6,10.8,0,15.4c0.6,4.6,5.6,2.3,5.6-3.1c0-5.4-0.6-30.8,0-33.1c0.6-2.3-1.7-3.8,2.3-3.1s8.5,3.1,9.6,0.8
		c1.1-2.3,2.8-10-3.4-9.2s-8.5,3.8-9,0s1.1-20.8-1.7-19.2s-4.5,2.3-4.5,9.2S196.3,31.3,194.6,31.3z"/>
	<path class="st1" d="M161.4,154c-5.4,20.3-1.4,27.7,8.1,5.5c9.5-22.2,28.5-81.3,29.8-70.2c1.4,11.1,29.8,81.3,35.3,83.1
		s-9.5-40.6-13.6-53.6s-13.6-38.8-21.7-44.3s-25.8,55.4-31.2,64.6S161.4,154,161.4,154z"/>
</g>
</svg>
