<?xml version="1.0" encoding="utf-8"?>
<!-- Generator: Adobe Illustrator 22.0.1, SVG Export Plug-In . SVG Version: 6.00 Build 0)  -->
<svg version="1.1" id="Layer_1" xmlns="http://www.w3.org/2000/svg" xmlns:xlink="http://www.w3.org/1999/xlink" x="0px" y="0px"
	 width="384px" height="658px" viewBox="0 0 384 658" style="enable-background:new 0 0 384 658;" xml:space="preserve">
<style type="text/css">
	.st0{fill:#3A260A;}
	.st1{fill:#A5A5A5;stroke:#000000;stroke-miterlimit:10;}
	.st2{fill:none;stroke:#000000;stroke-miterlimit:10;}
	.st3{fill:#D8C623;stroke:#000000;stroke-miterlimit:10;}
	.st4{fill:#9E9C9A;}
	.st5{fill:#301B0C;}
	.st6{fill:#603A20;}
	.st7{fill:#996C44;}
	.st8{fill:#140B05;}
	.st9{fill:#604326;}
	.st10{fill:#CCB244;stroke:#000000;stroke-miterlimit:10;}
</style>
<g>
	<path class="st0" d="M88.3,356.2c0,0,3.8,187.2-14.4,207.2s249,3.6,257.3,6.8c8.3,3.2,14.8,4.9,13.3-9.6
		c-1.5-14.5-6.8-112.5-3.8-131.5c3-18.9-74.4-83.6-86.5-84.7C242,343.4,92.5,344.5,88.3,356.2z"/>
	<g>
		<path class="st1" d="M181.8,404.8c6.1-28.9,71,0,71,0s-26.5,106.6-4.6,130.7c4.1,24.4-41.2,10.2-53.7,14.8
			c-12.4,4.6-28.1,0-28.1,0S191.7,455.9,181.8,404.8z"/>
		<polyline class="st2" points="217,393.2 205.9,472.4 202.7,549 		"/>
		<line class="st2" x1="183.8" y1="434.8" x2="183.8" y2="434.8"/>
		<polyline class="st2" points="245.1,440.7 211.9,428.2 183.8,434.8 		"/>
		<polyline class="st2" points="175.1,512 204.6,507.4 240,513.3 		"/>
		<polygon class="st3" points="217.2,479.4 214.6,477.1 211.8,478.9 212.4,474.6 210.3,471.3 213.4,470.9 214.9,467.1 216.2,471.2
			219.2,472 216.9,474.9 		"/>
		<polygon class="st3" points="200.6,478 198,475.8 195.2,477.6 195.9,473.3 193.8,470 196.8,469.6 198.4,465.8 199.6,469.8
			202.6,470.7 200.3,473.6 		"/>
	</g>
	<polygon class="st4" points="275.6,408.3 296.9,408.6 296.9,446.2 272.8,448.5 	"/>
	<polygon class="st4" points="107.8,400.6 135.3,401.1 135.3,448.8 104.2,451.7 	"/>
	<path class="st5" d="M108.8,401.7c0,9.8-0.8,51.1,0,53.2s-6.1,0-6.1,0s2.3-42.4,0.8-50C102,397.4,108.8,399.6,108.8,401.7z"/>
	<path class="st5" d="M139.9,401.7c0,9.8-0.8,51.1,0,53.2s-6.1,0-6.1,0s2.3-42.4,0.8-50C133.1,397.4,139.9,399.6,139.9,401.7z"/>
	<path class="st6" d="M100.4,393c12.9,0,36.4,3.3,40.2,3.3s4.6,7.6,2.3,8.7c-2.3,1.1-41-2.2-42.5,0C98.9,407.2,97.4,393,100.4,393z"
		/>
	<path class="st6" d="M95.9,448.5c7.6,0,24.3,2.9,33.4,1.4c9.1-1.4,15.9-1.4,14.4,1.4c-1.5,2.9-0.8,5.8-9.9,5.8s-28.1,0-34.9-0.7
		C92.1,455.7,92.9,448.5,95.9,448.5z"/>
	<path class="st5" d="M275.6,410.4c0,7.3-0.6,38.1,0,39.7s-4.5,0-4.5,0s1.7-31.6,0.6-37.3C270.5,407.2,275.6,408.8,275.6,410.4z"/>
	<path class="st5" d="M298.8,410.4c0,7.3-0.6,38.1,0,39.7s-4.5,0-4.5,0s1.7-31.6,0.6-37.3C293.7,407.2,298.8,408.8,298.8,410.4z"/>
	<path class="st6" d="M269.4,403.9c9.6,0,27.2,2.4,30,2.4c2.8,0,3.4,5.7,1.7,6.5c-1.7,0.8-30.5-1.6-31.7,0S267.1,403.9,269.4,403.9z
		"/>
	<path class="st6" d="M266,445.2c5.7,0,18.1,2.2,24.9,1.1c6.8-1.1,11.9-1.1,10.7,1.1c-1.1,2.2-0.6,4.3-7.4,4.3c-6.8,0-20.9,0-26-0.5
		S263.7,445.2,266,445.2z"/>
	<path class="st5" d="M68.6,512.6c0.8,5.7,4.8,37.4,2.8,44.2c-2,6.8,9.4,5.7,9.4,5.7s-6.1-46.7-3-50
		C80.7,509.3,67.8,507.1,68.6,512.6z"/>
	<path class="st5" d="M95.9,509.3c0,0,8.6,38.5,2.8,48.1c-5.8,9.5,6.3,10.6,7.8,8.4c1.5-2.2-9.1-50,0-53.2
		C115.6,509.3,95.9,509.3,95.9,509.3z"/>
	<path class="st5" d="M130.8,509.3c0,0-4.6,50-6.1,57.6c-1.5,7.6,10.6,0,10.6,0s-6.1-42.4,10.6-54.3S130.8,509.3,130.8,509.3z"/>
	<path class="st5" d="M271.1,510.4c0.8,5.7,4.8,37.4,2.8,44.2c-2,6.8,9.4,5.7,9.4,5.7s-6.1-46.7-3-50S270.4,505,271.1,510.4z"/>
	<path class="st5" d="M298.4,507.1c0,0,8.6,38.5,2.8,48.1s6.3,10.6,7.8,8.4c1.5-2.2-9.1-50,0-53.2S298.4,507.1,298.4,507.1z"/>
	<path class="st5" d="M333.3,507.1c0,0-4.6,50-6.1,57.6c-1.5,7.6,10.6,0,10.6,0s-6.1-42.4,10.6-54.3
		C365.2,498.4,333.3,507.1,333.3,507.1z"/>
	<path class="st6" d="M62.9,556.6c0,0,70.5,2.2,90.3,0c19.7-2.2,137.3-2.2,143.4,0c6.1,2.2,47.8,0,50.1-2.2
		c2.3-2.2,18.2,39.1,3.8,39.1s-58.4-5.4-79.7-4.3c-21.2,1.1-91,2.2-122.1,4.3c-31.1,2.2-18.2,2.2-52.3,0
		c-34.1-2.2-28.8,2.2-36.4,1.1C52.3,593.5,55.3,556.6,62.9,556.6z"/>
	<path class="st6" d="M54.2,491.9c0,0-2.3,18.5,0,23.9c2.3,5.4,77.4-3.3,91.8-1.1c14.4,2.2,12.1-2.2,12.1-2.2s4.6-22.8,0-20.6
		s-66,4.3-72.8,4.3C78.4,496.3,54.9,486.5,54.2,491.9z"/>
	<path class="st6" d="M255.2,489.8c0,10.9-2.3,18.5,0,19.6c2.3,1.1,65.2-1.1,73.6,0c8.3,1.1,20.5,4.3,27.3,3.3s7.6-13,6.8-16.3
		c-0.8-3.3-7.6,0-16.7,0s-47.8-3.3-62.2-6.5C269.6,486.5,255.2,485.4,255.2,489.8z"/>
	<path class="st7" d="M287.1,192c0,0-47.7,136.6-35.7,150c13.7,15.2-179,7.6-179,7.6s23.5-133.7,6.1-164.1
		c6.1-23.9,208.6,8.7,208.6,8.7"/>
	<polygon class="st4" points="224.6,209.4 252.2,209.9 252.1,257.6 221.1,260.5 	"/>
	<path class="st5" d="M224.1,209.4c0,9.8-0.8,51.1,0,53.2s-6.1,0-6.1,0s2.3-42.4,0.8-50S224.1,207.2,224.1,209.4z"/>
	<path class="st5" d="M255.2,209.4c0,9.8-0.8,51.1,0,53.2s-6.1,0-6.1,0s2.3-42.4,0.8-50S255.2,207.2,255.2,209.4z"/>
	<path class="st6" d="M215.8,200.7c12.9,0,36.4,3.3,40.2,3.3s4.6,7.6,2.3,8.7c-2.3,1.1-41-2.2-42.5,0S212.7,200.7,215.8,200.7z"/>
	<path class="st6" d="M211.2,256.1c7.6,0,24.3,2.9,33.4,1.4c9.1-1.4,15.9-1.4,14.4,1.4c-1.5,2.9-0.8,5.8-9.9,5.8
		c-9.1,0-28.1,0-34.9-0.7C207.4,263.4,208.2,256.1,211.2,256.1z"/>
	<polygon class="st4" points="165.5,209.4 193,209.9 193,257.6 161.9,260.5 	"/>
	<path class="st5" d="M197.5,208.3c0,9.8-0.8,51.1,0,53.2s-6.1,0-6.1,0s2.3-42.4,0.8-50S197.5,206.1,197.5,208.3z"/>
	<path class="st5" d="M164.9,209.4c0,9.8-0.8,51.1,0,53.2s-6.1,0-6.1,0s2.3-42.4,0.8-50S164.9,207.2,164.9,209.4z"/>
	<path class="st6" d="M156.6,200.7c12.9,0,36.4,3.3,40.2,3.3s4.6,7.6,2.3,8.7s-41-2.2-42.5,0S153.5,200.7,156.6,200.7z"/>
	<path class="st6" d="M152,256.1c7.6,0,24.3,2.9,33.4,1.4c9.1-1.4,15.9-1.4,14.4,1.4s-0.8,5.8-9.9,5.8c-9.1,0-28.1,0-34.9-0.7
		C148.2,263.4,149,256.1,152,256.1z"/>
	<g>
		<path class="st1" d="M109.7,200.4c11.2-4,21.8-4.5,34.7,5.9c13,10.4,7.8,96.6,4.1,108.5c-3.6,11.9-46.2,8.2-46.2,5.2
			C102.5,317,99.4,204.1,109.7,200.4z"/>
		<line class="st2" x1="125.8" y1="198.2" x2="122.2" y2="323"/>
		<line class="st2" x1="124.8" y1="239.8" x2="152.3" y2="239.8"/>
		<line class="st2" x1="103" y1="239.8" x2="124.8" y2="239.8"/>
		<line class="st2" x1="102" y1="273.9" x2="152.3" y2="281.4"/>
		<ellipse class="st2" cx="131.8" cy="263.2" rx="1.8" ry="2.6"/>
		<ellipse class="st2" cx="119.3" cy="263.2" rx="1.8" ry="2.6"/>
	</g>
	<path class="st5" d="M61,292c0.8,5.7,4.8,37.4,2.8,44.2c-2,6.8,9.4,5.7,9.4,5.7s-6.1-46.7-3-50C73.1,288.7,60.2,286.6,61,292z"/>
	<path class="st5" d="M88.3,288.7c0,0,8.6,38.5,2.8,48.1s6.3,10.6,7.8,8.4s-9.1-50,0-53.2C108,288.7,88.3,288.7,88.3,288.7z"/>
	<path class="st5" d="M123.2,288.7c0,0-4.6,50-6.1,57.6c-1.5,7.6,10.6,0,10.6,0s-6.1-42.4,10.6-54.3S123.2,288.7,123.2,288.7z"/>
	<path class="st5" d="M166.4,295.2c0.8,5.7,4.8,37.4,2.8,44.2c-2,6.8,9.4,5.7,9.4,5.7s-6.1-46.7-3-50
		C178.6,292,165.7,289.8,166.4,295.2z"/>
	<path class="st5" d="M259.8,294.5c1.1,6.3,6.6,41.2,3.8,48.7c-2.8,7.5,12.9,6.3,12.9,6.3s-8.3-51.4-4.2-55
		C276.4,290.9,258.7,288.5,259.8,294.5z"/>
	<path class="st5" d="M193.8,292c0,0,8.6,38.5,2.8,48.1s6.3,10.6,7.8,8.4c1.5-2.2-9.1-50,0-53.2C213.5,292,193.8,292,193.8,292z"/>
	<path class="st5" d="M228.6,292c0,0-4.6,50-6.1,57.6s10.6,0,10.6,0s-6.1-42.4,10.6-54.3S228.6,292,228.6,292z"/>
	<path class="st8" d="M55.7,336.5c0,0,198-3.3,207.1,0c9.1,3.3,97.1,78.2,103.9,91.3c6.8,13-3.8,22.8-3.8,22.8s-70.2-87.5-114.2-94
		c-44-6.5-187.4-1.1-195.7,12C44.7,381.6,47,336,55.7,336.5z"/>
	<path class="st5" d="M39,168.1"/>
	<path class="st8" d="M44.3,174.6c-2,7.3-0.8,22.8,0,26.1s8.3-22.8,97.9-13s140.3,9.8,145.6,13c5.3,3.3,20.5-22.8,0-20.6
		c-16.6,1.8-124.7-4.2-174.5-7.6c-11.5-0.8-21.8-1.2-25-2.2c-10.6,1.1-23.4-0.2-32.9,0.5C49.3,171.2,44.9,172.5,44.3,174.6z"/>
	<path class="st6" d="M53.1,281.6c0,0-5,12.1,0,15.7c5,3.6,169.2-2.1,200.7-0.7s26.5-1.4,26.5-1.4s10-15,0-13.5
		s-144.3,2.8-159.3,2.8S54.8,278.1,53.1,281.6z"/>
	<path class="st8" d="M133.4,61.1c-21.4,39.5-32.1,116.2-32.1,116.2s163.2,18.6,172,14.8c8.8-3.9-12.5-161.4-74.7-152.7
		S138.8,51.3,133.4,61.1z"/>
	<path class="st9" d="M140.3,74.1c-6.1,17.4-29.6,72.8-28.1,85.8c1.5,13,109.2,17.4,128.2,16.3s26.6,1.1,15.2-35.9
		c-11.4-36.9-14.4-65.2-31.1-66.3s-47.8-26.1-66-13S140.3,74.1,140.3,74.1z"/>
	<path class="st10" d="M228.3,115.3c-2,0.1-3.6,2-4.1,4.6l-20.3-8c-3-1.2-5.6-3.9-7.2-7.7c0-0.1,0-0.1-0.1-0.2
		c-1.9-4.6-2-10.2-0.6-15.1l7.2-25.3c0.5,0.2,1,0.4,1.6,0.3c2.5-0.1,4.4-3.1,4.3-6.6c-0.1-3.5-2.1-6.3-4.6-6.1
		c-2.5,0.1-4.4,3.1-4.3,6.6c0,1.5,0.4,2.9,1.1,3.9l-10.6,11.9c-5.2,5.8-7.2,25.1-13.5,22.2l-19-21.9c0.9-1.2,1.5-3,1.5-5
		c-0.1-3.5-2.1-6.3-4.6-6.1c-2.5,0.1-4.4,3.1-4.3,6.6c0.1,3.5,2.1,6.3,4.6,6.1c0.3,0,0.6-0.1,0.9-0.2l4.9,19.4
		c2.2,8.8,12.8,16.8,9,24.4l-18.1,18.6c-0.8-2.1-2.3-3.6-4.1-3.5c-2.5,0.1-4.4,3.1-4.3,6.6c0.1,3.5,2.1,6.3,4.6,6.1
		c2.1-0.1,3.8-2.3,4.2-5.2l16.6-0.7c2.9-0.1,7.6-6.4,11.4-9.8c2.3-2.1,5.4-0.3,6,3.5l0.2,32.6c-2.1,0.6-3.6,3.3-3.5,6.5
		c0.1,3.5,2.1,6.3,4.6,6.1c2.5-0.1,4.4-3.1,4.3-6.6c-0.1-2.8-1.4-5.1-3.2-5.9l6.5-22.6c1.7-8.5,9.7-12.2,15.6-14.9l13.3-6.3
		c0.6,2.6,2.4,4.4,4.4,4.3c2.5-0.1,4.4-3.1,4.3-6.6C232.8,117.9,230.8,115.1,228.3,115.3z"/>
</g>
</svg>
