<?xml version="1.0" encoding="utf-8"?>
<!-- Generator: Adobe Illustrator 22.0.1, SVG Export Plug-In . SVG Version: 6.00 Build 0)  -->
<svg version="1.1" xmlns="http://www.w3.org/2000/svg" xmlns:xlink="http://www.w3.org/1999/xlink" x="0px" y="0px" width="1600px"
	 height="900px" viewBox="0 0 1600 900" style="enable-background:new 0 0 1600 900;" xml:space="preserve">
<style type="text/css">
	.st0{display:none;}
	.st1{display:inline;fill:#6F7C8C;stroke:#000000;stroke-miterlimit:10;}
	.st2{display:inline;fill:url(#SVGID_1_);stroke:#000000;stroke-miterlimit:10;}
	.st3{fill:#E5BF23;stroke:#000000;stroke-miterlimit:10;}
	.st4{fill:url(#SVGID_2_);}
	.st5{fill:#545352;}
	.st6{fill:#3A3938;}
	.st7{fill:#4C4443;}
	.st8{fill:#3A3232;}
	.st9{fill:#563A2E;}
	.st10{fill:#9E633B;}
	.st11{fill:#179926;}
	.st12{fill:#000200;}
	.st13{fill:#774D2F;}
	.st14{display:inline;}
	.st15{fill:#EDF4F3;}
	.st16{fill:#E1E5E4;}
	.st17{display:inline;opacity:0.6;fill:#2A4C59;}
	.st18{fill:#936B30;}
	.st19{fill:#755832;}
	.st20{fill:#AF8034;}
	.st21{fill:#977037;}
	.st22{fill:#D99E37;}
	.st23{fill:#B78439;}
	.st24{fill:#C28F42;}
	.st25{fill:#9E7130;}
	.st26{fill:#996D2E;}
	.st27{display:inline;fill:none;}
	.st28{display:inline;fill:#66472B;}
	.st29{font-family:'BernardMT-Condensed';}
	.st30{font-size:72px;}
	.st31{display:inline;fill:#775332;}
</style>
<g id="Layer_3" class="st0">
	<rect x="4.5" y="-4.7" class="st1" width="1610" height="506.8"/>
	<linearGradient id="SVGID_1_" gradientUnits="userSpaceOnUse" x1="805.5" y1="500.6135" x2="805.5" y2="-1.4467">
		<stop  offset="0" style="stop-color:#001A7F"/>
		<stop  offset="0.216" style="stop-color:#3D318A;stop-opacity:0.784"/>
		<stop  offset="0.6041" style="stop-color:#A4589C;stop-opacity:0.3959"/>
		<stop  offset="0.8737" style="stop-color:#E671A8;stop-opacity:0.1263"/>
		<stop  offset="1" style="stop-color:#FF7BAC;stop-opacity:0"/>
	</linearGradient>
	<rect x="-0.5" y="-1.4" class="st2" width="1612" height="502.1"/>
</g>
<g id="Layer_1">
	<rect x="3.5" y="445.5" class="st3" width="1599" height="450"/>
	<linearGradient id="SVGID_2_" gradientUnits="userSpaceOnUse" x1="803.5" y1="894.5" x2="803.5" y2="318.5">
		<stop  offset="0" style="stop-color:#FF8215"/>
		<stop  offset="0.3716" style="stop-color:#FF7F52;stop-opacity:0.6284"/>
		<stop  offset="0.7983" style="stop-color:#FF7C93;stop-opacity:0.2017"/>
		<stop  offset="1" style="stop-color:#FF7BAC;stop-opacity:0"/>
	</linearGradient>
	<rect x="1.5" y="318.5" class="st4" width="1604" height="576"/>
	<g>
		<path class="st5" d="M695.8,493c0,0-62.6-185.6-82.5-198.1s-16.7-5.7-29.4-18.8c-12.7-13.2,1-20.6-17.3-26.9
			c-18.3-6.3-76.8-30.3-76.8-30.3l-39.4-40.2l-21.6-24.2l-29.6,26.4l-27.4,11.3l-2.8,12.3l-20.6,29.9c0,0-23.8,29.2-23.8,27.8
			c0-1.4-28.7,14.7-28.7,14.7l-182,219.8L695.8,493z"/>
		<path class="st6" d="M1576.3,155.6c0,0-111.8,15.8-127.6,26.5c-15.9,10.7-59.1,35.9-59.1,35.9s-5.4,37.9-9.2,47
			s-47,59.7-65.8,49.7c-18.8-10-96-63.1-114.5-68.7c-18.5-5.6-83.5,58.7-83.5,58.7s-44.6,51.9-113.5,60.3s-69.7,25.7-70.2,44.2
			s0.5,62.9,14.6,59.6c14.1-3.2,287.2-3.5,350.3,3.6c63,7,167.5,17.7,167.5,17.7s130,13.3,136.2-0.9c6.2-14.2,41.3-168.1,31.3-181.9
			C1622.8,293.4,1576.3,155.6,1576.3,155.6z"/>
		<path class="st7" d="M-32.6,223.7c0,0,116.5,4.4,145.6,24.4s44.5,77,55.8,67.4s104.4,12.6,104.4,12.6s21,19.2,21,34.8
			c0,15.5,122.2,56.3,123,56.3s63.9,40.7,63.9,40.7l12.9,21.5c0,0-56.6-6.7-74.4,0c-17.8,6.7-132.7,0-132.7,0l-164.2,3l-87.4,12.6
			L-52,485.7L-32.6,223.7z"/>
		<path class="st8" d="M774.9,482.7c0,0,68.4-137.9,89.2-147.1c20.8-9.2,17.4-4.1,30.8-13.8c13.4-9.7-0.7-15.4,18.4-19.9
			c19.1-4.6,80.1-21.9,80.1-21.9l41.6-29.6l22.8-17.9l30.2,19.9l28.2,8.7l2.7,9.2l20.8,22.5c0,0,24.1,22,24.1,20.9
			s29.5,11.2,29.5,11.2l184.4,165.5L774.9,482.7z"/>
		<path class="st7" d="M371.1,467.7l72.8-53l72.8-81.2l32.4-56.5l51.8,38.8c0,0,48.5,24.7,64.7,24.7c16.2,0,38.8-3.5,48.5-17.7
			c9.7-14.1-1.6-56.5,20.2-45.9c21.8,10.6,79.3-1.8,79.3-1.8l29.9,54.7v41.5l110,78.6l17.8,17.7l14.6,49.4
			c0,0-307.5-38.8-372.2-42.4s-200.7,42.4-200.7,42.4L371.1,467.7z"/>
		<path class="st9" d="M0.6,558.6c0,0-8-66.6,3.1-70.9c11.1-4.2,26.7-29.6,26.7-29.6S40.2,442,46.6,421s2.8-63.8,2.8-63.8l4.4-44.8
			c0,0,5.8-21,24.9-1.3c19.1,19.8,14.8,33.8,6.5,59.5s3.3,62.5,3.3,62.5l22.9,1l1.3-29.1l2.4-54.3c0,0,3.4,4.9,23.7-1.3
			c20.2-6.2,32.5,3.8,38.8-14.9c6.3-18.7,14.8-6.4,25.5-1.2c10.7,5.2,6.9,35.8,6.9,35.8l-26.7,29.6c0,0-24.6-5.8-28.5,1.1
			c-3.9,6.9,0.2,36.3,0.2,36.3l26.6,1.2c0,0,21.9-16.4,26.1-16.2s9.2,9.9,20.9-8.5c11.7-18.4,31-43.6,22.3-53.5
			c-8.6-9.8-38-15.9,3.1-16.4s40.1-17.2,41.2-0.6c1.1,16.6-21.2,70.1-4,89.8s31.6,25.1,31.6,25.1l24.9,10.6c0,0-8,16.2-1,23.6
			c6.9,7.4-1.2,28.3-1.2,28.3s6.8,24,1.7,30.8S0.6,558.6,0.6,558.6z"/>
		<path class="st9" d="M1606.5,549.6c0,0,26.9-55.3-2.6-57.9c-29.5-2.6-69.5-22.1-69.5-22.1s-25-12.4-40.5-29.2s-2.3-52.1-2.3-52.1
			l-8.1-36.4c0,0-13.8-16.8-66.9,1c-53.1,17.8-42.8,29-22.3,49.3s-14.1,51.5-14.1,51.5l-61.9,2.7l-1-23.8l-2-44.4
			c0,0-9.6,4.3-63.6,0.9c-54-3.4-87.9,5.8-103.2-9c-15.3-14.8-39.4-4.1-68.5,1.1c-29.2,5.2-21.5,30-21.5,30l69.5,22.1
			c0,0,66.6-6.8,76.7-1.4c10,5.4-3.6,29.8-3.6,29.8l-71.7,3.2c0,0-57.6-11.6-69-11.1s-25.7,8.9-55.7-5.3s-79.8-33.2-55.7-42
			c24.1-8.8,103.8-16.2-7.1-13.2s-106.6-10.8-110.9,3c-4.3,13.7,51.4,55.7,3.2,73.3C786,487.1,747,492.7,747,492.7L679,503.4
			c0,0,20.1,12.6,0.9,19.3c-19.3,6.7,1,23.2,1,23.2s-20.3,20.2-7,25.4C687.1,576.6,1606.5,549.6,1606.5,549.6z"/>
		<path class="st9" d="M113.9,528.7v-30.4l62.4-33.2h38.3l46.6,12.9l0-44.6l24.5-34.5h54.5l35.5,10.8l41.8-10.8l-19.1-34.5
			l19.1-42.6c0,0,34.5,0,42.7,0c8.2,0,46.4,0,46.4,0L490.2,344c0,0-30,14.2-27.3,20.3c2.7,6.1,13.6,16.9,13.6,16.9h30
			c0,0,5.5,0.7,13.6,0s24.5,0,24.5,0l37.3-29.3l47.2,0.3c2.7,10.1,0,32.2,0,32.2l32.7-3.1L678,344l5.9-8.1v-33.2l60,0h13.6v18.9
			c0,0-13.6,23.7-13.6,29.1s13.6,30.4,13.6,30.4h40.9v-10.8l47.3-56.8c15.5,8.1,56.4,22.3,56.4,22.3v30.4c0,0-2.7,20.3,0,28.4
			s-5.5,15.6,0,21c5.5,5.4-0.2,11.2,16.2,23.6c16.5,12.3,0.1,12.4,24.7,12.3c24.5,0,48.9-4.4,57.2-12.3c8.3-8,16.5-48.6,16.5-48.6
			l13.6-9.5c0,0,36.4-14.9,48.2-16.9c11.8-2,6.4-18.3,11.8-2c5.5,16.2-3.6,58,0,69.9c3.6,11.9-2.7,92.4-68.2,96.5
			c-65.5,4.1-433.6,46.7-433.6,46.7L113.9,528.7z"/>
	</g>
	<g>
		<g>
			<g>
				<path class="st10" d="M1550.8,590.6c0.2-0.3,0.3-0.4,0.7-0.5c0.3,0,0.5,0,0.8,0c0.1,0,0.2,0,0.3,0c0.5,0.1,0.5,0,0-0.4
					c0-0.3,0-0.5,0-0.8c0,0.1,0,0.1-0.1,0.2c-0.6,1.8,2.3,2.6,2.9,0.8c0.3-0.8,0-1.6-0.6-2.2c-0.7-0.6-1.7-0.6-2.5-0.7
					c-1.6,0-3.3,0.5-4.1,2C1547.3,590.9,1549.9,592.4,1550.8,590.6L1550.8,590.6z"/>
			</g>
		</g>
		<g>
			<g>
				<path class="st10" d="M1550.4,591.3c0.4-0.6,1.1-1,1.9-1.2c0.3-0.1,2.1-0.2,2.2-0.3c-0.7,1.8,2.2,2.6,2.9,0.8
					c1-2.6-1.9-3.8-3.9-3.7c-2.2,0.2-4.3,1-5.6,2.9C1546.7,591.4,1549.3,592.9,1550.4,591.3L1550.4,591.3z"/>
			</g>
		</g>
		<path class="st11" d="M1596.3,494.8c-7.5-1.6-7,5.4-7.5,7c-0.5,1.6-3.2,18.2-4.8,27.9c-1,6.2-5.4,8.4-8.4,9.2
			c1.3-12.6,2.8-25.7,3.6-29c1.6-6.4,3.2-30-1.6-32.7c-4.8-2.7-15.5-5.4-20.4,15.5c-1.5,6.6-1.7,18.6-1.1,31.8
			c-4.7,0.9-14,0.9-14.4-13.1c-0.5-18.8,2.7-22,2.7-24.1c0-2.1-17.7-15-15,7.5c2.7,22.5,12.9,31.6,18.2,33.2c3,0.9,5.9,1.6,8.8,1.6
			c1.4,27.6,5.2,58.4,5.2,58.4s9.1,2.1,8,0c-1.1-2.1,2.1-17.1,3.2-23.6c0.4-2.2,1-8.3,1.8-15.7c5.8,0.7,17.4-14.8,21.2-18.6
			c4.3-4.3,5.9-20.9,7.5-24.6C1604.8,501.8,1603.8,496.4,1596.3,494.8z"/>
		<g>
			<g>
				<path class="st12" d="M1563.6,483.3c-0.3,1.1-0.5,2.1-0.6,3.2c-0.1,1,1.4,1,1.5,0c0.1-1,0.3-1.9,0.5-2.8
					C1565.4,482.7,1563.9,482.3,1563.6,483.3L1563.6,483.3z"/>
			</g>
		</g>
		<g>
			<g>
				<path class="st12" d="M1570.7,479c-0.3,2-0.4,4.1-0.3,6.1c0,1,1.5,1,1.5,0c-0.1-1.9,0-3.8,0.3-5.7
					C1572.3,478.4,1570.9,478,1570.7,479L1570.7,479z"/>
			</g>
		</g>
		<g>
			<g>
				<path class="st12" d="M1576.4,490.6c-0.2,1-0.5,2-0.7,3.1c-0.2,0.9,1.2,1.3,1.4,0.4c0.2-1,0.5-2,0.7-3.1
					C1578.1,490,1576.6,489.6,1576.4,490.6L1576.4,490.6z"/>
			</g>
		</g>
		<g>
			<g>
				<path class="st12" d="M1566.7,490.6c-0.2,1.1-0.4,2.3-0.6,3.4c-0.2,0.9,1.3,1.4,1.4,0.4c0.2-1.1,0.4-2.3,0.6-3.4
					C1568.3,490,1566.8,489.6,1566.7,490.6L1566.7,490.6z"/>
			</g>
		</g>
		<g>
			<g>
				<path class="st12" d="M1561.7,496.7c0.1,0.8,0.2,1.5,0.1,2.3c0,0.4,0.4,0.8,0.8,0.8c0.4,0,0.7-0.3,0.8-0.8
					c0.1-0.9,0-1.8-0.1-2.7C1563,495.3,1561.6,495.7,1561.7,496.7L1561.7,496.7z"/>
			</g>
		</g>
		<g>
			<g>
				<path class="st12" d="M1563.1,506c0,1.4,0,2.7,0,4.1c0,1,1.5,1,1.5,0c0-1.4,0-2.7,0-4.1C1564.6,505,1563.1,505,1563.1,506
					L1563.1,506z"/>
			</g>
		</g>
		<g>
			<g>
				<path class="st12" d="M1559.5,512.4c0,1,0,2,0,3c0,1,1.5,1,1.5,0c0-1,0-2,0-3C1561,511.4,1559.5,511.4,1559.5,512.4
					L1559.5,512.4z"/>
			</g>
		</g>
		<g>
			<g>
				<path class="st12" d="M1570.7,499.8c-0.7,2.2-0.9,4.5-0.6,6.8c0.1,1,1.6,0.5,1.4-0.4c-0.3-2.1-0.1-4.1,0.6-6
					C1572.5,499.3,1571,498.9,1570.7,499.8L1570.7,499.8z"/>
			</g>
		</g>
		<g>
			<g>
				<path class="st12" d="M1573.3,504.9c-0.1,1.2-0.2,2.4-0.2,3.6c-0.1,1,1.4,1,1.5,0c0.1-1.2,0.2-2.4,0.2-3.6
					C1574.9,503.9,1573.4,503.9,1573.3,504.9L1573.3,504.9z"/>
			</g>
		</g>
		<g>
			<g>
				<path class="st12" d="M1568.6,520.2c-0.2,1.5-0.5,3-0.7,4.5c-0.2,0.9,1.3,1.4,1.4,0.4c0.2-1.5,0.5-3,0.7-4.5
					C1570.2,519.7,1568.8,519.3,1568.6,520.2L1568.6,520.2z"/>
			</g>
		</g>
		<g>
			<g>
				<path class="st12" d="M1564.7,514.5c-0.1,1.5-0.1,3-0.2,4.5c0,1,1.5,1,1.5,0c0.1-1.5,0.1-3,0.2-4.5
					C1566.3,513.6,1564.8,513.6,1564.7,514.5L1564.7,514.5z"/>
			</g>
		</g>
		<g>
			<g>
				<path class="st12" d="M1560.9,523.5c0,1.4,0,2.7,0,4.1c0,1,1.5,1,1.5,0c0-1.4,0-2.7,0-4.1
					C1562.4,522.5,1560.9,522.5,1560.9,523.5L1560.9,523.5z"/>
			</g>
		</g>
		<g>
			<g>
				<path class="st12" d="M1572.8,514c-0.2,0.9-0.3,1.8-0.2,2.7c0.1,1,1.6,1,1.5,0c-0.1-0.8,0-1.5,0.1-2.3
					C1574.4,513.4,1573,513,1572.8,514L1572.8,514z"/>
			</g>
		</g>
		<g>
			<g>
				<path class="st12" d="M1573.2,528.5c-0.6,2.2-1,4.5-1.3,6.8c-0.1,1,1.4,1,1.5,0c0.2-2.2,0.6-4.3,1.2-6.4
					C1574.9,527.9,1573.4,527.5,1573.2,528.5L1573.2,528.5z"/>
			</g>
		</g>
		<g>
			<g>
				<path class="st12" d="M1565.2,533.6c0,1.6-0.2,3.2-0.5,4.8c-0.2,0.9,1.2,1.3,1.4,0.4c0.4-1.7,0.5-3.4,0.6-5.2
					C1566.8,532.7,1565.3,532.7,1565.2,533.6L1565.2,533.6z"/>
			</g>
		</g>
		<g>
			<g>
				<path class="st12" d="M1561.1,542c-0.1,2.4-0.1,4.8,0,7.1c0.1,1,1.6,1,1.5,0c-0.1-2.4-0.2-4.8,0-7.1
					C1562.7,541.1,1561.2,541.1,1561.1,542L1561.1,542z"/>
			</g>
		</g>
		<g>
			<g>
				<path class="st12" d="M1567.5,545.6c-0.4,1.6-0.7,3.3-0.7,5c0,1,1.5,1,1.5,0c0.1-1.6,0.3-3.1,0.7-4.6
					C1569.2,545,1567.8,544.6,1567.5,545.6L1567.5,545.6z"/>
			</g>
		</g>
		<g>
			<g>
				<path class="st12" d="M1569.7,549.9c0.1,3.3,0.2,6.7,0.3,10c0,1,1.5,1,1.5,0c-0.1-3.3-0.2-6.7-0.3-10
					C1571.2,548.9,1569.7,548.9,1569.7,549.9L1569.7,549.9z"/>
			</g>
		</g>
		<g>
			<g>
				<path class="st12" d="M1561.6,554c0,2.2,0.2,4.3,0.6,6.4c0.2,0.9,1.6,0.5,1.4-0.4c-0.4-2-0.6-4-0.6-6
					C1563.2,553,1561.7,553,1561.6,554L1561.6,554z"/>
			</g>
		</g>
		<g>
			<g>
				<path class="st12" d="M1567.2,560.1c-0.1,1.8-0.1,3.7,0,5.5c0.1,1,1.6,1,1.5,0c-0.1-1.8-0.1-3.7,0-5.5
					C1568.7,559.1,1567.2,559.1,1567.2,560.1L1567.2,560.1z"/>
			</g>
		</g>
		<g>
			<g>
				<path class="st12" d="M1564,568.1c-0.2,1.4-0.4,2.8-0.7,4.3c-0.1,0.9,1.3,1.4,1.4,0.4c0.2-1.4,0.4-2.8,0.7-4.3
					C1565.6,567.6,1564.2,567.1,1564,568.1L1564,568.1z"/>
			</g>
		</g>
		<g>
			<g>
				<path class="st12" d="M1566.1,571.7c-0.3,2.4-0.6,4.8-0.8,7.2c-0.1,1,1.4,0.9,1.5,0c0.3-2.4,0.6-4.8,0.8-7.2
					C1567.7,570.7,1566.2,570.7,1566.1,571.7L1566.1,571.7z"/>
			</g>
		</g>
		<g>
			<g>
				<path class="st12" d="M1576.8,539.9c-0.5,2-0.8,4-0.7,6.1c0,1,1.5,1,1.5,0c-0.1-1.9,0.2-3.8,0.7-5.7
					C1578.5,539.4,1577,539,1576.8,539.9L1576.8,539.9z"/>
			</g>
		</g>
		<g>
			<g>
				<path class="st12" d="M1583,537.4c-0.6,0.7-1,1.6-1.2,2.5c-0.2,0.9,1.2,1.3,1.4,0.4c0.2-0.8,0.5-1.5,1-2.1c0.2-0.3,0-0.8-0.3-1
					C1583.7,536.9,1583.3,537.1,1583,537.4L1583,537.4z"/>
			</g>
		</g>
		<g>
			<g>
				<path class="st12" d="M1586.3,521.9c-0.1,2.1-0.3,4.2-0.4,6.2c-0.1,1,1.4,1,1.5,0c0.1-2.1,0.3-4.2,0.4-6.2
					C1587.9,520.9,1586.4,520.9,1586.3,521.9L1586.3,521.9z"/>
			</g>
		</g>
		<g>
			<g>
				<path class="st12" d="M1588.6,517c0.7,1,0.8,2.2,0.3,3.3c-0.3,0.9,1.1,1.3,1.4,0.4c0.6-1.5,0.4-3.1-0.5-4.5
					C1589.4,515.5,1588.1,516.2,1588.6,517L1588.6,517z"/>
			</g>
		</g>
		<g>
			<g>
				<path class="st12" d="M1590.5,506.7c0.6,0.9,0.9,1.9,0.8,3c0,1,1.5,1,1.5,0c0-1.3-0.3-2.6-1-3.8
					C1591.3,505.1,1590,505.9,1590.5,506.7L1590.5,506.7z"/>
			</g>
		</g>
		<g>
			<g>
				<path class="st12" d="M1594,496.7c-0.1,1.9-0.3,3.8-0.4,5.7c-0.1,1,1.4,1,1.5,0c0.1-1.9,0.3-3.8,0.4-5.7
					C1595.6,495.7,1594.1,495.7,1594,496.7L1594,496.7z"/>
			</g>
		</g>
		<g>
			<g>
				<path class="st12" d="M1598.1,499.5c-1,1.9-1.8,3.8-2.4,5.9c-0.3,0.9,1.2,1.3,1.4,0.4c0.6-1.9,1.3-3.8,2.3-5.5
					C1599.8,499.4,1598.5,498.7,1598.1,499.5L1598.1,499.5z"/>
			</g>
		</g>
		<g>
			<g>
				<path class="st12" d="M1596,514.6c1.4-1.2,2.7-2.5,3.7-4.1c0.5-0.8-0.8-1.6-1.3-0.8c-1,1.4-2.1,2.7-3.5,3.8
					C1594.2,514.1,1595.3,515.2,1596,514.6L1596,514.6z"/>
			</g>
		</g>
		<g>
			<g>
				<path class="st12" d="M1592.7,525c1.6-1.8,2.8-3.9,3.7-6.1c0.4-0.9-1.1-1.3-1.4-0.4c-0.8,2-1.9,3.9-3.3,5.5
					C1591,524.7,1592.1,525.7,1592.7,525L1592.7,525z"/>
			</g>
		</g>
		<g>
			<g>
				<path class="st12" d="M1587.9,534.7c0.4-1.6,1.3-2.9,2.6-3.9c0.8-0.6-0.3-1.6-1.1-1.1c-1.5,1.1-2.5,2.8-3,4.6
					C1586.2,535.3,1587.6,535.7,1587.9,534.7L1587.9,534.7z"/>
			</g>
		</g>
		<g>
			<g>
				<path class="st12" d="M1534.1,491c0.3-2.2,0.9-4.2,1.8-6.2c0.4-0.9-0.9-1.6-1.3-0.8c-1,2.1-1.6,4.3-2,6.6
					C1532.6,491.5,1534,491.9,1534.1,491L1534.1,491z"/>
			</g>
		</g>
		<g>
			<g>
				<path class="st12" d="M1538,488.8c0.8-1.6,2-2.9,3.3-4.1c0.7-0.6-0.3-1.7-1.1-1.1c-1.5,1.2-2.7,2.7-3.6,4.4
					C1536.3,488.9,1537.5,489.7,1538,488.8L1538,488.8z"/>
			</g>
		</g>
		<g>
			<g>
				<path class="st12" d="M1536.9,502.7c-0.4-1.2-1-2.3-1.6-3.4c-0.2-0.3-2.1-2.7-2.2-2.7c0.6-0.8-0.7-1.5-1.3-0.8
					c-0.7,1,0.3,1.9,0.9,2.6c1.2,1.4,2.1,2.9,2.7,4.6C1535.8,504,1537.2,503.6,1536.9,502.7L1536.9,502.7z"/>
			</g>
		</g>
		<g>
			<g>
				<path class="st12" d="M1538.4,498.1c0.5-2.4,1.4-4.6,2.9-6.6c0.6-0.8-0.7-1.5-1.3-0.8c-1.5,2.1-2.5,4.4-3,7
					C1536.7,498.6,1538.2,499.1,1538.4,498.1L1538.4,498.1z"/>
			</g>
		</g>
		<g>
			<g>
				<path class="st12" d="M1538.9,515.6c0.1-2.2,0.2-4.4,0.3-6.6c0.1-1-1.4-1-1.5,0c-0.1,2.2-0.2,4.4-0.3,6.6
					C1537.3,516.6,1538.8,516.6,1538.9,515.6L1538.9,515.6z"/>
			</g>
		</g>
		<g>
			<g>
				<path class="st12" d="M1542,520.8c0-1.4,0.2-2.8,0.5-4.2c0.2-0.9-1.2-1.3-1.4-0.4c-0.4,1.5-0.6,3.1-0.6,4.6
					C1540.5,521.8,1542,521.8,1542,520.8L1542,520.8z"/>
			</g>
		</g>
		<g>
			<g>
				<path class="st12" d="M1551.5,526.1c-2.4-1.6-4.9-3.2-7.3-4.9c-0.8-0.5-1.6,0.8-0.8,1.3c2.4,1.6,4.9,3.2,7.3,4.9
					C1551.5,527.9,1552.3,526.6,1551.5,526.1L1551.5,526.1z"/>
			</g>
		</g>
		<g>
			<g>
				<path class="st12" d="M1554.8,526.7c0-0.4,0-0.7,0-1.1c0-1-1.5-1-1.5,0c0,0.4,0,0.7,0,1.1
					C1553.3,527.6,1554.8,527.6,1554.8,526.7L1554.8,526.7z"/>
			</g>
		</g>
		<path class="st13" d="M1543.7,592.3c0,0,7.5-15,14.5-1.6c0,0-1.1-13.9,3.8-8.6s4.3,5.9,4.3,5.9s5.4-13.4,9.6-6.4
			c4.3,7,5.9-1.1,6.4,1.6c0.5,2.7,9.6,4.3,3.2,7.5C1579.1,593.9,1545.4,593.9,1543.7,592.3z"/>
		<g>
			<g>
				<path class="st10" d="M1550.4,590.6c0-0.1,0.3-1.3,0.2-1.4c-0.6,0.2-0.7,0.3-0.2,0.4c0.2,0.1,0.4,0.2,0.6,0.2
					c1,0.4,2.1,0.8,3.1,1.2c1.8,0.7,2.6-2.2,0.8-2.9c-0.9-0.3-1.8-0.7-2.7-1c-0.7-0.3-1.5-0.7-2.4-0.6c-1.9,0.1-2.1,1.8-2.4,3.3
					C1547.1,591.7,1550,592.5,1550.4,590.6L1550.4,590.6z"/>
			</g>
		</g>
		<g>
			<g>
				<path class="st10" d="M1561.9,591.9c0.7-0.8,2.4-2,3.5-1.2c0.7,0.5,1.7,0.1,2.1-0.5c0.5-0.8,0.1-1.6-0.5-2.1
					c-2.2-1.6-5.5-0.1-7.1,1.7C1558.5,591.2,1560.6,593.3,1561.9,591.9L1561.9,591.9z"/>
			</g>
		</g>
		<g>
			<g>
				<path class="st10" d="M1574.9,588.1c0.2-1.4,2-1.3,2.4-0.1c0.6,1.8,3.5,1.1,2.9-0.8c-0.6-2-2.4-3.4-4.5-3.1
					c-2.1,0.2-3.5,2-3.8,4c-0.1,0.8,0.8,1.5,1.5,1.5C1574.2,589.6,1574.8,588.9,1574.9,588.1L1574.9,588.1z"/>
			</g>
		</g>
	</g>
	<g>
		<g>
			<g>
				<path class="st10" d="M69.8,639.6c0.2-0.3,0.3-0.4,0.7-0.5c0.3,0,0.5,0,0.8,0c0.1,0,0.2,0,0.3,0c0.5,0.1,0.5,0,0-0.4
					c0-0.3,0-0.5,0-0.8c0,0.1,0,0.1-0.1,0.2c-0.6,1.8,2.3,2.6,2.9,0.8c0.3-0.8,0-1.6-0.6-2.2c-0.7-0.6-1.7-0.6-2.5-0.7
					c-1.6,0-3.3,0.5-4.1,2C66.3,639.9,68.9,641.4,69.8,639.6L69.8,639.6z"/>
			</g>
		</g>
		<g>
			<g>
				<path class="st10" d="M69.4,640.3c0.4-0.6,1.1-1,1.9-1.2c0.3-0.1,2.1-0.2,2.2-0.3c-0.7,1.8,2.2,2.6,2.9,0.8
					c1-2.6-1.9-3.8-3.9-3.7c-2.2,0.2-4.3,1-5.6,2.9C65.7,640.4,68.3,641.9,69.4,640.3L69.4,640.3z"/>
			</g>
		</g>
		<path class="st11" d="M115.3,543.8c-7.5-1.6-7,5.4-7.5,7c-0.5,1.6-3.2,18.2-4.8,27.9c-1,6.2-5.4,8.4-8.4,9.2
			c1.3-12.6,2.8-25.7,3.6-29c1.6-6.4,3.2-30-1.6-32.7c-4.8-2.7-15.5-5.4-20.4,15.5c-1.5,6.6-1.7,18.6-1.1,31.8
			c-4.7,0.9-14,0.9-14.4-13.1c-0.5-18.8,2.7-22,2.7-24.1s-17.7-15-15,7.5s12.9,31.6,18.2,33.2c3,0.9,5.9,1.6,8.8,1.6
			c1.4,27.6,5.2,58.4,5.2,58.4s9.1,2.1,8,0c-1.1-2.1,2.1-17.1,3.2-23.6c0.4-2.2,1-8.3,1.8-15.7c5.8,0.7,17.4-14.8,21.2-18.6
			c4.3-4.3,5.9-20.9,7.5-24.6C123.8,550.8,122.8,545.4,115.3,543.8z"/>
		<g>
			<g>
				<path class="st12" d="M82.6,532.3c-0.3,1.1-0.5,2.1-0.6,3.2c-0.1,1,1.4,1,1.5,0c0.1-1,0.3-1.9,0.5-2.8
					C84.4,531.7,82.9,531.3,82.6,532.3L82.6,532.3z"/>
			</g>
		</g>
		<g>
			<g>
				<path class="st12" d="M89.7,528c-0.3,2-0.4,4.1-0.3,6.1c0,1,1.5,1,1.5,0c-0.1-1.9,0-3.8,0.3-5.7C91.3,527.4,89.9,527,89.7,528
					L89.7,528z"/>
			</g>
		</g>
		<g>
			<g>
				<path class="st12" d="M95.4,539.6c-0.2,1-0.5,2-0.7,3.1c-0.2,0.9,1.2,1.3,1.4,0.4c0.2-1,0.5-2,0.7-3.1
					C97.1,539,95.6,538.6,95.4,539.6L95.4,539.6z"/>
			</g>
		</g>
		<g>
			<g>
				<path class="st12" d="M85.7,539.6c-0.2,1.1-0.4,2.3-0.6,3.4c-0.2,0.9,1.3,1.4,1.4,0.4c0.2-1.1,0.4-2.3,0.6-3.4
					C87.3,539,85.8,538.6,85.7,539.6L85.7,539.6z"/>
			</g>
		</g>
		<g>
			<g>
				<path class="st12" d="M80.7,545.7c0.1,0.8,0.2,1.5,0.1,2.3c0,0.4,0.4,0.8,0.8,0.8c0.4,0,0.7-0.3,0.8-0.8c0.1-0.9,0-1.8-0.1-2.7
					C82,544.3,80.6,544.7,80.7,545.7L80.7,545.7z"/>
			</g>
		</g>
		<g>
			<g>
				<path class="st12" d="M82.1,555c0,1.4,0,2.7,0,4.1c0,1,1.5,1,1.5,0c0-1.4,0-2.7,0-4.1C83.6,554,82.1,554,82.1,555L82.1,555z"/>
			</g>
		</g>
		<g>
			<g>
				<path class="st12" d="M78.5,561.4c0,1,0,2,0,3c0,1,1.5,1,1.5,0c0-1,0-2,0-3C80,560.4,78.5,560.4,78.5,561.4L78.5,561.4z"/>
			</g>
		</g>
		<g>
			<g>
				<path class="st12" d="M89.7,548.8c-0.7,2.2-0.9,4.5-0.6,6.8c0.1,1,1.6,0.5,1.4-0.4c-0.3-2.1-0.1-4.1,0.6-6
					C91.5,548.3,90,547.9,89.7,548.8L89.7,548.8z"/>
			</g>
		</g>
		<g>
			<g>
				<path class="st12" d="M92.3,553.9c-0.1,1.2-0.2,2.4-0.2,3.6c-0.1,1,1.4,1,1.5,0c0.1-1.2,0.2-2.4,0.2-3.6
					C93.9,552.9,92.4,552.9,92.3,553.9L92.3,553.9z"/>
			</g>
		</g>
		<g>
			<g>
				<path class="st12" d="M87.6,569.2c-0.2,1.5-0.5,3-0.7,4.5c-0.2,0.9,1.3,1.4,1.4,0.4c0.2-1.5,0.5-3,0.7-4.5
					C89.2,568.7,87.8,568.3,87.6,569.2L87.6,569.2z"/>
			</g>
		</g>
		<g>
			<g>
				<path class="st12" d="M83.7,563.5c-0.1,1.5-0.1,3-0.2,4.5c0,1,1.5,1,1.5,0c0.1-1.5,0.1-3,0.2-4.5
					C85.3,562.6,83.8,562.6,83.7,563.5L83.7,563.5z"/>
			</g>
		</g>
		<g>
			<g>
				<path class="st12" d="M79.9,572.5c0,1.4,0,2.7,0,4.1c0,1,1.5,1,1.5,0c0-1.4,0-2.7,0-4.1C81.4,571.5,79.9,571.5,79.9,572.5
					L79.9,572.5z"/>
			</g>
		</g>
		<g>
			<g>
				<path class="st12" d="M91.8,563c-0.2,0.9-0.3,1.8-0.2,2.7c0.1,1,1.6,1,1.5,0c-0.1-0.8,0-1.5,0.1-2.3C93.4,562.4,92,562,91.8,563
					L91.8,563z"/>
			</g>
		</g>
		<g>
			<g>
				<path class="st12" d="M92.2,577.5c-0.6,2.2-1,4.5-1.3,6.8c-0.1,1,1.4,1,1.5,0c0.2-2.2,0.6-4.3,1.2-6.4
					C93.9,576.9,92.4,576.5,92.2,577.5L92.2,577.5z"/>
			</g>
		</g>
		<g>
			<g>
				<path class="st12" d="M84.2,582.6c0,1.6-0.2,3.2-0.5,4.8c-0.2,0.9,1.2,1.3,1.4,0.4c0.4-1.7,0.5-3.4,0.6-5.2
					C85.8,581.7,84.3,581.7,84.2,582.6L84.2,582.6z"/>
			</g>
		</g>
		<g>
			<g>
				<path class="st12" d="M80.1,591c-0.1,2.4-0.1,4.8,0,7.1c0.1,1,1.6,1,1.5,0c-0.1-2.4-0.2-4.8,0-7.1
					C81.7,590.1,80.2,590.1,80.1,591L80.1,591z"/>
			</g>
		</g>
		<g>
			<g>
				<path class="st12" d="M86.5,594.6c-0.4,1.6-0.7,3.3-0.7,5c0,1,1.5,1,1.5,0c0.1-1.6,0.3-3.1,0.7-4.6
					C88.2,594,86.8,593.6,86.5,594.6L86.5,594.6z"/>
			</g>
		</g>
		<g>
			<g>
				<path class="st12" d="M88.7,598.9c0.1,3.3,0.2,6.7,0.3,10c0,1,1.5,1,1.5,0c-0.1-3.3-0.2-6.7-0.3-10
					C90.2,597.9,88.7,597.9,88.7,598.9L88.7,598.9z"/>
			</g>
		</g>
		<g>
			<g>
				<path class="st12" d="M80.6,603c0,2.2,0.2,4.3,0.6,6.4c0.2,0.9,1.6,0.5,1.4-0.4c-0.4-2-0.6-4-0.6-6C82.2,602,80.7,602,80.6,603
					L80.6,603z"/>
			</g>
		</g>
		<g>
			<g>
				<path class="st12" d="M86.2,609.1c-0.1,1.8-0.1,3.7,0,5.5c0.1,1,1.6,1,1.5,0c-0.1-1.8-0.1-3.7,0-5.5
					C87.7,608.1,86.2,608.1,86.2,609.1L86.2,609.1z"/>
			</g>
		</g>
		<g>
			<g>
				<path class="st12" d="M83,617.1c-0.2,1.4-0.4,2.8-0.7,4.3c-0.1,0.9,1.3,1.4,1.4,0.4c0.2-1.4,0.4-2.8,0.7-4.3
					C84.6,616.6,83.2,616.1,83,617.1L83,617.1z"/>
			</g>
		</g>
		<g>
			<g>
				<path class="st12" d="M85.1,620.7c-0.3,2.4-0.6,4.8-0.8,7.2c-0.1,1,1.4,0.9,1.5,0c0.3-2.4,0.6-4.8,0.8-7.2
					C86.7,619.7,85.2,619.7,85.1,620.7L85.1,620.7z"/>
			</g>
		</g>
		<g>
			<g>
				<path class="st12" d="M95.8,588.9c-0.5,2-0.8,4-0.7,6.1c0,1,1.5,1,1.5,0c-0.1-1.9,0.2-3.8,0.7-5.7C97.5,588.4,96,588,95.8,588.9
					L95.8,588.9z"/>
			</g>
		</g>
		<g>
			<g>
				<path class="st12" d="M102,586.4c-0.6,0.7-1,1.6-1.2,2.5c-0.2,0.9,1.2,1.3,1.4,0.4c0.2-0.8,0.5-1.5,1-2.1c0.2-0.3,0-0.8-0.3-1
					C102.7,585.9,102.3,586.1,102,586.4L102,586.4z"/>
			</g>
		</g>
		<g>
			<g>
				<path class="st12" d="M105.3,570.9c-0.1,2.1-0.3,4.2-0.4,6.2c-0.1,1,1.4,1,1.5,0c0.1-2.1,0.3-4.2,0.4-6.2
					C106.9,569.9,105.4,569.9,105.3,570.9L105.3,570.9z"/>
			</g>
		</g>
		<g>
			<g>
				<path class="st12" d="M107.6,566c0.7,1,0.8,2.2,0.3,3.3c-0.3,0.9,1.1,1.3,1.4,0.4c0.6-1.5,0.4-3.1-0.5-4.5
					C108.4,564.5,107.1,565.2,107.6,566L107.6,566z"/>
			</g>
		</g>
		<g>
			<g>
				<path class="st12" d="M109.5,555.7c0.6,0.9,0.9,1.9,0.8,3c0,1,1.5,1,1.5,0c0-1.3-0.3-2.6-1-3.8
					C110.3,554.1,109,554.9,109.5,555.7L109.5,555.7z"/>
			</g>
		</g>
		<g>
			<g>
				<path class="st12" d="M113,545.7c-0.1,1.9-0.3,3.8-0.4,5.7c-0.1,1,1.4,1,1.5,0c0.1-1.9,0.3-3.8,0.4-5.7
					C114.6,544.7,113.1,544.7,113,545.7L113,545.7z"/>
			</g>
		</g>
		<g>
			<g>
				<path class="st12" d="M117.1,548.5c-1,1.9-1.8,3.8-2.4,5.9c-0.3,0.9,1.2,1.3,1.4,0.4c0.6-1.9,1.3-3.8,2.3-5.5
					C118.8,548.4,117.5,547.7,117.1,548.5L117.1,548.5z"/>
			</g>
		</g>
		<g>
			<g>
				<path class="st12" d="M115,563.6c1.4-1.2,2.7-2.5,3.7-4.1c0.5-0.8-0.8-1.6-1.3-0.8c-1,1.4-2.1,2.7-3.5,3.8
					C113.2,563.1,114.3,564.2,115,563.6L115,563.6z"/>
			</g>
		</g>
		<g>
			<g>
				<path class="st12" d="M111.7,574c1.6-1.8,2.8-3.9,3.7-6.1c0.4-0.9-1.1-1.3-1.4-0.4c-0.8,2-1.9,3.9-3.3,5.5
					C110,573.7,111.1,574.7,111.7,574L111.7,574z"/>
			</g>
		</g>
		<g>
			<g>
				<path class="st12" d="M106.9,583.7c0.4-1.6,1.3-2.9,2.6-3.9c0.8-0.6-0.3-1.6-1.1-1.1c-1.5,1.1-2.5,2.8-3,4.6
					C105.2,584.3,106.6,584.7,106.9,583.7L106.9,583.7z"/>
			</g>
		</g>
		<g>
			<g>
				<path class="st12" d="M53.1,540c0.3-2.2,0.9-4.2,1.8-6.2c0.4-0.9-0.9-1.6-1.3-0.8c-1,2.1-1.6,4.3-2,6.6
					C51.6,540.5,53,540.9,53.1,540L53.1,540z"/>
			</g>
		</g>
		<g>
			<g>
				<path class="st12" d="M57,537.8c0.8-1.6,2-2.9,3.3-4.1c0.7-0.6-0.3-1.7-1.1-1.1c-1.5,1.2-2.7,2.7-3.6,4.4
					C55.3,537.9,56.5,538.7,57,537.8L57,537.8z"/>
			</g>
		</g>
		<g>
			<g>
				<path class="st12" d="M55.9,551.7c-0.4-1.2-1-2.3-1.6-3.4c-0.2-0.3-2.1-2.7-2.2-2.7c0.6-0.8-0.7-1.5-1.3-0.8
					c-0.7,1,0.3,1.9,0.9,2.6c1.2,1.4,2.1,2.9,2.7,4.6C54.8,553,56.2,552.6,55.9,551.7L55.9,551.7z"/>
			</g>
		</g>
		<g>
			<g>
				<path class="st12" d="M57.4,547.1c0.5-2.4,1.4-4.6,2.9-6.6c0.6-0.8-0.7-1.5-1.3-0.8c-1.5,2.1-2.5,4.4-3,7
					C55.7,547.6,57.2,548.1,57.4,547.1L57.4,547.1z"/>
			</g>
		</g>
		<g>
			<g>
				<path class="st12" d="M57.9,564.6c0.1-2.2,0.2-4.4,0.3-6.6c0.1-1-1.4-1-1.5,0c-0.1,2.2-0.2,4.4-0.3,6.6
					C56.3,565.6,57.8,565.6,57.9,564.6L57.9,564.6z"/>
			</g>
		</g>
		<g>
			<g>
				<path class="st12" d="M61,569.8c0-1.4,0.2-2.8,0.5-4.2c0.2-0.9-1.2-1.3-1.4-0.4c-0.4,1.5-0.6,3.1-0.6,4.6
					C59.5,570.8,61,570.8,61,569.8L61,569.8z"/>
			</g>
		</g>
		<g>
			<g>
				<path class="st12" d="M70.5,575.1c-2.4-1.6-4.9-3.2-7.3-4.9c-0.8-0.5-1.6,0.8-0.8,1.3c2.4,1.6,4.9,3.2,7.3,4.9
					C70.5,576.9,71.3,575.6,70.5,575.1L70.5,575.1z"/>
			</g>
		</g>
		<g>
			<g>
				<path class="st12" d="M73.8,575.7c0-0.4,0-0.7,0-1.1c0-1-1.5-1-1.5,0c0,0.4,0,0.7,0,1.1C72.3,576.6,73.8,576.6,73.8,575.7
					L73.8,575.7z"/>
			</g>
		</g>
		<path class="st13" d="M62.7,641.3c0,0,7.5-15,14.5-1.6c0,0-1.1-13.9,3.8-8.6c4.8,5.4,4.3,5.9,4.3,5.9s5.4-13.4,9.6-6.4
			s5.9-1.1,6.4,1.6c0.5,2.7,9.6,4.3,3.2,7.5S64.4,642.9,62.7,641.3z"/>
		<g>
			<g>
				<path class="st10" d="M69.4,639.6c0-0.1,0.3-1.3,0.2-1.4c-0.6,0.2-0.7,0.3-0.2,0.4c0.2,0.1,0.4,0.2,0.6,0.2
					c1,0.4,2.1,0.8,3.1,1.2c1.8,0.7,2.6-2.2,0.8-2.9c-0.9-0.3-1.8-0.7-2.7-1c-0.7-0.3-1.5-0.7-2.4-0.6c-1.9,0.1-2.1,1.8-2.4,3.3
					C66.1,640.7,69,641.5,69.4,639.6L69.4,639.6z"/>
			</g>
		</g>
		<g>
			<g>
				<path class="st10" d="M80.9,640.9c0.7-0.8,2.4-2,3.5-1.2c0.7,0.5,1.7,0.1,2.1-0.5c0.5-0.8,0.1-1.6-0.5-2.1
					c-2.2-1.6-5.5-0.1-7.1,1.7C77.5,640.2,79.6,642.3,80.9,640.9L80.9,640.9z"/>
			</g>
		</g>
		<g>
			<g>
				<path class="st10" d="M93.9,637.1c0.2-1.4,2-1.3,2.4-0.1c0.6,1.8,3.5,1.1,2.9-0.8c-0.6-2-2.4-3.4-4.5-3.1c-2.1,0.2-3.5,2-3.8,4
					c-0.1,0.8,0.8,1.5,1.5,1.5C93.2,638.6,93.8,637.9,93.9,637.1L93.9,637.1z"/>
			</g>
		</g>
	</g>
	<g>
		<g>
			<g>
				<path class="st10" d="M982.8,612.6c0.2-0.3,0.3-0.4,0.7-0.5c0.3,0,0.5,0,0.8,0c0.1,0,0.2,0,0.3,0c0.5,0.1,0.5,0,0-0.4
					c0-0.3,0-0.5,0-0.8c0,0.1,0,0.1-0.1,0.2c-0.6,1.8,2.3,2.6,2.9,0.8c0.3-0.8,0-1.6-0.6-2.2c-0.7-0.6-1.7-0.6-2.5-0.7
					c-1.6,0-3.3,0.5-4.1,2C979.3,612.9,981.9,614.4,982.8,612.6L982.8,612.6z"/>
			</g>
		</g>
		<g>
			<g>
				<path class="st10" d="M982.4,613.3c0.4-0.6,1.1-1,1.9-1.2c0.3-0.1,2.1-0.2,2.2-0.3c-0.7,1.8,2.2,2.6,2.9,0.8
					c1-2.6-1.9-3.8-3.9-3.7c-2.2,0.2-4.3,1-5.6,2.9C978.7,613.4,981.3,614.9,982.4,613.3L982.4,613.3z"/>
			</g>
		</g>
		<path class="st11" d="M1028.3,516.8c-7.5-1.6-7,5.4-7.5,7s-3.2,18.2-4.8,27.9c-1,6.2-5.4,8.4-8.4,9.2c1.3-12.6,2.8-25.7,3.6-29
			c1.6-6.4,3.2-30-1.6-32.7c-4.8-2.7-15.5-5.4-20.4,15.5c-1.5,6.6-1.7,18.6-1.1,31.8c-4.7,0.9-14,0.9-14.4-13.1
			c-0.5-18.8,2.7-22,2.7-24.1c0-2.1-17.7-15-15,7.5c2.7,22.5,12.9,31.6,18.2,33.2c3,0.9,5.9,1.6,8.8,1.6c1.4,27.6,5.2,58.4,5.2,58.4
			s9.1,2.1,8,0c-1.1-2.1,2.1-17.1,3.2-23.6c0.4-2.2,1-8.3,1.8-15.7c5.8,0.7,17.4-14.8,21.2-18.6c4.3-4.3,5.9-20.9,7.5-24.6
			C1036.8,523.8,1035.8,518.4,1028.3,516.8z"/>
		<g>
			<g>
				<path class="st12" d="M995.6,505.3c-0.3,1.1-0.5,2.1-0.6,3.2c-0.1,1,1.4,1,1.5,0c0.1-1,0.3-1.9,0.5-2.8
					C997.4,504.7,995.9,504.3,995.6,505.3L995.6,505.3z"/>
			</g>
		</g>
		<g>
			<g>
				<path class="st12" d="M1002.7,501c-0.3,2-0.4,4.1-0.3,6.1c0,1,1.5,1,1.5,0c-0.1-1.9,0-3.8,0.3-5.7
					C1004.3,500.4,1002.9,500,1002.7,501L1002.7,501z"/>
			</g>
		</g>
		<g>
			<g>
				<path class="st12" d="M1008.4,512.6c-0.2,1-0.5,2-0.7,3.1c-0.2,0.9,1.2,1.3,1.4,0.4c0.2-1,0.5-2,0.7-3.1
					C1010.1,512,1008.6,511.6,1008.4,512.6L1008.4,512.6z"/>
			</g>
		</g>
		<g>
			<g>
				<path class="st12" d="M998.7,512.6c-0.2,1.1-0.4,2.3-0.6,3.4c-0.2,0.9,1.3,1.4,1.4,0.4c0.2-1.1,0.4-2.3,0.6-3.4
					C1000.3,512,998.8,511.6,998.7,512.6L998.7,512.6z"/>
			</g>
		</g>
		<g>
			<g>
				<path class="st12" d="M993.7,518.7c0.1,0.8,0.2,1.5,0.1,2.3c0,0.4,0.4,0.8,0.8,0.8c0.4,0,0.7-0.3,0.8-0.8c0.1-0.9,0-1.8-0.1-2.7
					C995,517.3,993.6,517.7,993.7,518.7L993.7,518.7z"/>
			</g>
		</g>
		<g>
			<g>
				<path class="st12" d="M995.1,528c0,1.4,0,2.7,0,4.1c0,1,1.5,1,1.5,0c0-1.4,0-2.7,0-4.1C996.6,527,995.1,527,995.1,528L995.1,528
					z"/>
			</g>
		</g>
		<g>
			<g>
				<path class="st12" d="M991.5,534.4c0,1,0,2,0,3c0,1,1.5,1,1.5,0c0-1,0-2,0-3C993,533.4,991.5,533.4,991.5,534.4L991.5,534.4z"/>
			</g>
		</g>
		<g>
			<g>
				<path class="st12" d="M1002.7,521.8c-0.7,2.2-0.9,4.5-0.6,6.8c0.1,1,1.6,0.5,1.4-0.4c-0.3-2.1-0.1-4.1,0.6-6
					C1004.5,521.3,1003,520.9,1002.7,521.8L1002.7,521.8z"/>
			</g>
		</g>
		<g>
			<g>
				<path class="st12" d="M1005.3,526.9c-0.1,1.2-0.2,2.4-0.2,3.6c-0.1,1,1.4,1,1.5,0c0.1-1.2,0.2-2.4,0.2-3.6
					C1006.9,525.9,1005.4,525.9,1005.3,526.9L1005.3,526.9z"/>
			</g>
		</g>
		<g>
			<g>
				<path class="st12" d="M1000.6,542.2c-0.2,1.5-0.5,3-0.7,4.5c-0.2,0.9,1.3,1.4,1.4,0.4c0.2-1.5,0.5-3,0.7-4.5
					C1002.2,541.7,1000.8,541.3,1000.6,542.2L1000.6,542.2z"/>
			</g>
		</g>
		<g>
			<g>
				<path class="st12" d="M996.7,536.5c-0.1,1.5-0.1,3-0.2,4.5c0,1,1.5,1,1.5,0c0.1-1.5,0.1-3,0.2-4.5
					C998.3,535.6,996.8,535.6,996.7,536.5L996.7,536.5z"/>
			</g>
		</g>
		<g>
			<g>
				<path class="st12" d="M992.9,545.5c0,1.4,0,2.7,0,4.1c0,1,1.5,1,1.5,0c0-1.4,0-2.7,0-4.1C994.4,544.5,992.9,544.5,992.9,545.5
					L992.9,545.5z"/>
			</g>
		</g>
		<g>
			<g>
				<path class="st12" d="M1004.8,536c-0.2,0.9-0.3,1.8-0.2,2.7c0.1,1,1.6,1,1.5,0c-0.1-0.8,0-1.5,0.1-2.3
					C1006.4,535.4,1005,535,1004.8,536L1004.8,536z"/>
			</g>
		</g>
		<g>
			<g>
				<path class="st12" d="M1005.2,550.5c-0.6,2.2-1,4.5-1.3,6.8c-0.1,1,1.4,1,1.5,0c0.2-2.2,0.6-4.3,1.2-6.4
					C1006.9,549.9,1005.4,549.5,1005.2,550.5L1005.2,550.5z"/>
			</g>
		</g>
		<g>
			<g>
				<path class="st12" d="M997.2,555.6c0,1.6-0.2,3.2-0.5,4.8c-0.2,0.9,1.2,1.3,1.4,0.4c0.4-1.7,0.5-3.4,0.6-5.2
					C998.8,554.7,997.3,554.7,997.2,555.6L997.2,555.6z"/>
			</g>
		</g>
		<g>
			<g>
				<path class="st12" d="M993.1,564c-0.1,2.4-0.1,4.8,0,7.1c0.1,1,1.6,1,1.5,0c-0.1-2.4-0.2-4.8,0-7.1
					C994.7,563.1,993.2,563.1,993.1,564L993.1,564z"/>
			</g>
		</g>
		<g>
			<g>
				<path class="st12" d="M999.5,567.6c-0.4,1.6-0.7,3.3-0.7,5c0,1,1.5,1,1.5,0c0.1-1.6,0.3-3.1,0.7-4.6
					C1001.2,567,999.8,566.6,999.5,567.6L999.5,567.6z"/>
			</g>
		</g>
		<g>
			<g>
				<path class="st12" d="M1001.7,571.9c0.1,3.3,0.2,6.7,0.3,10c0,1,1.5,1,1.5,0c-0.1-3.3-0.2-6.7-0.3-10
					C1003.2,570.9,1001.7,570.9,1001.7,571.9L1001.7,571.9z"/>
			</g>
		</g>
		<g>
			<g>
				<path class="st12" d="M993.6,576c0,2.2,0.2,4.3,0.6,6.4c0.2,0.9,1.6,0.5,1.4-0.4c-0.4-2-0.6-4-0.6-6
					C995.2,575,993.7,575,993.6,576L993.6,576z"/>
			</g>
		</g>
		<g>
			<g>
				<path class="st12" d="M999.2,582.1c-0.1,1.8-0.1,3.7,0,5.5c0.1,1,1.6,1,1.5,0c-0.1-1.8-0.1-3.7,0-5.5
					C1000.7,581.1,999.2,581.1,999.2,582.1L999.2,582.1z"/>
			</g>
		</g>
		<g>
			<g>
				<path class="st12" d="M996,590.1c-0.2,1.4-0.4,2.8-0.7,4.3c-0.1,0.9,1.3,1.4,1.4,0.4c0.2-1.4,0.4-2.8,0.7-4.3
					C997.6,589.6,996.2,589.1,996,590.1L996,590.1z"/>
			</g>
		</g>
		<g>
			<g>
				<path class="st12" d="M998.1,593.7c-0.3,2.4-0.6,4.8-0.8,7.2c-0.1,1,1.4,0.9,1.5,0c0.3-2.4,0.6-4.8,0.8-7.2
					C999.7,592.7,998.2,592.7,998.1,593.7L998.1,593.7z"/>
			</g>
		</g>
		<g>
			<g>
				<path class="st12" d="M1008.8,561.9c-0.5,2-0.8,4-0.7,6.1c0,1,1.5,1,1.5,0c-0.1-1.9,0.2-3.8,0.7-5.7
					C1010.5,561.4,1009,561,1008.8,561.9L1008.8,561.9z"/>
			</g>
		</g>
		<g>
			<g>
				<path class="st12" d="M1015,559.4c-0.6,0.7-1,1.6-1.2,2.5c-0.2,0.9,1.2,1.3,1.4,0.4c0.2-0.8,0.5-1.5,1-2.1c0.2-0.3,0-0.8-0.3-1
					C1015.7,558.9,1015.3,559.1,1015,559.4L1015,559.4z"/>
			</g>
		</g>
		<g>
			<g>
				<path class="st12" d="M1018.3,543.9c-0.1,2.1-0.3,4.2-0.4,6.2c-0.1,1,1.4,1,1.5,0c0.1-2.1,0.3-4.2,0.4-6.2
					C1019.9,542.9,1018.4,542.9,1018.3,543.9L1018.3,543.9z"/>
			</g>
		</g>
		<g>
			<g>
				<path class="st12" d="M1020.6,539c0.7,1,0.8,2.2,0.3,3.3c-0.3,0.9,1.1,1.3,1.4,0.4c0.6-1.5,0.4-3.1-0.5-4.5
					C1021.4,537.5,1020.1,538.2,1020.6,539L1020.6,539z"/>
			</g>
		</g>
		<g>
			<g>
				<path class="st12" d="M1022.5,528.7c0.6,0.9,0.9,1.9,0.8,3c0,1,1.5,1,1.5,0c0-1.3-0.3-2.6-1-3.8
					C1023.3,527.1,1022,527.9,1022.5,528.7L1022.5,528.7z"/>
			</g>
		</g>
		<g>
			<g>
				<path class="st12" d="M1026,518.7c-0.1,1.9-0.3,3.8-0.4,5.7c-0.1,1,1.4,1,1.5,0c0.1-1.9,0.3-3.8,0.4-5.7
					C1027.6,517.7,1026.1,517.7,1026,518.7L1026,518.7z"/>
			</g>
		</g>
		<g>
			<g>
				<path class="st12" d="M1030.1,521.5c-1,1.9-1.8,3.8-2.4,5.9c-0.3,0.9,1.2,1.3,1.4,0.4c0.6-1.9,1.3-3.8,2.3-5.5
					C1031.8,521.4,1030.5,520.7,1030.1,521.5L1030.1,521.5z"/>
			</g>
		</g>
		<g>
			<g>
				<path class="st12" d="M1028,536.6c1.4-1.2,2.7-2.5,3.7-4.1c0.5-0.8-0.8-1.6-1.3-0.8c-1,1.4-2.1,2.7-3.5,3.8
					C1026.2,536.1,1027.3,537.2,1028,536.6L1028,536.6z"/>
			</g>
		</g>
		<g>
			<g>
				<path class="st12" d="M1024.7,547c1.6-1.8,2.8-3.9,3.7-6.1c0.4-0.9-1.1-1.3-1.4-0.4c-0.8,2-1.9,3.9-3.3,5.5
					C1023,546.7,1024.1,547.7,1024.7,547L1024.7,547z"/>
			</g>
		</g>
		<g>
			<g>
				<path class="st12" d="M1019.9,556.7c0.4-1.6,1.3-2.9,2.6-3.9c0.8-0.6-0.3-1.6-1.1-1.1c-1.5,1.1-2.5,2.8-3,4.6
					C1018.2,557.3,1019.6,557.7,1019.9,556.7L1019.9,556.7z"/>
			</g>
		</g>
		<g>
			<g>
				<path class="st12" d="M966.1,513c0.3-2.2,0.9-4.2,1.8-6.2c0.4-0.9-0.9-1.6-1.3-0.8c-1,2.1-1.6,4.3-2,6.6
					C964.6,513.5,966,513.9,966.1,513L966.1,513z"/>
			</g>
		</g>
		<g>
			<g>
				<path class="st12" d="M970,510.8c0.8-1.6,2-2.9,3.3-4.1c0.7-0.6-0.3-1.7-1.1-1.1c-1.5,1.2-2.7,2.7-3.6,4.4
					C968.3,510.9,969.5,511.7,970,510.8L970,510.8z"/>
			</g>
		</g>
		<g>
			<g>
				<path class="st12" d="M968.9,524.7c-0.4-1.2-1-2.3-1.6-3.4c-0.2-0.3-2.1-2.7-2.2-2.7c0.6-0.8-0.7-1.5-1.3-0.8
					c-0.7,1,0.3,1.9,0.9,2.6c1.2,1.4,2.1,2.9,2.7,4.6C967.8,526,969.2,525.6,968.9,524.7L968.9,524.7z"/>
			</g>
		</g>
		<g>
			<g>
				<path class="st12" d="M970.4,520.1c0.5-2.4,1.4-4.6,2.9-6.6c0.6-0.8-0.7-1.5-1.3-0.8c-1.5,2.1-2.5,4.4-3,7
					C968.7,520.6,970.2,521.1,970.4,520.1L970.4,520.1z"/>
			</g>
		</g>
		<g>
			<g>
				<path class="st12" d="M970.9,537.6c0.1-2.2,0.2-4.4,0.3-6.6c0.1-1-1.4-1-1.5,0c-0.1,2.2-0.2,4.4-0.3,6.6
					C969.3,538.6,970.8,538.6,970.9,537.6L970.9,537.6z"/>
			</g>
		</g>
		<g>
			<g>
				<path class="st12" d="M974,542.8c0-1.4,0.2-2.8,0.5-4.2c0.2-0.9-1.2-1.3-1.4-0.4c-0.4,1.5-0.6,3.1-0.6,4.6
					C972.5,543.8,974,543.8,974,542.8L974,542.8z"/>
			</g>
		</g>
		<g>
			<g>
				<path class="st12" d="M983.5,548.1c-2.4-1.6-4.9-3.2-7.3-4.9c-0.8-0.5-1.6,0.8-0.8,1.3c2.4,1.6,4.9,3.2,7.3,4.9
					C983.5,549.9,984.3,548.6,983.5,548.1L983.5,548.1z"/>
			</g>
		</g>
		<g>
			<g>
				<path class="st12" d="M986.8,548.7c0-0.4,0-0.7,0-1.1c0-1-1.5-1-1.5,0c0,0.4,0,0.7,0,1.1C985.3,549.6,986.8,549.6,986.8,548.7
					L986.8,548.7z"/>
			</g>
		</g>
		<path class="st13" d="M975.7,614.3c0,0,7.5-15,14.5-1.6c0,0-1.1-13.9,3.8-8.6c4.8,5.4,4.3,5.9,4.3,5.9s5.4-13.4,9.6-6.4
			c4.3,7,5.9-1.1,6.4,1.6s9.6,4.3,3.2,7.5S977.4,615.9,975.7,614.3z"/>
		<g>
			<g>
				<path class="st10" d="M982.4,612.6c0-0.1,0.3-1.3,0.2-1.4c-0.6,0.2-0.7,0.3-0.2,0.4c0.2,0.1,0.4,0.2,0.6,0.2
					c1,0.4,2.1,0.8,3.1,1.2c1.8,0.7,2.6-2.2,0.8-2.9c-0.9-0.3-1.8-0.7-2.7-1c-0.7-0.3-1.5-0.7-2.4-0.6c-1.9,0.1-2.1,1.8-2.4,3.3
					C979.1,613.7,982,614.5,982.4,612.6L982.4,612.6z"/>
			</g>
		</g>
		<g>
			<g>
				<path class="st10" d="M993.9,613.9c0.7-0.8,2.4-2,3.5-1.2c0.7,0.5,1.7,0.1,2.1-0.5c0.5-0.8,0.1-1.6-0.5-2.1
					c-2.2-1.6-5.5-0.1-7.1,1.7C990.5,613.2,992.6,615.3,993.9,613.9L993.9,613.9z"/>
			</g>
		</g>
		<g>
			<g>
				<path class="st10" d="M1006.9,610.1c0.2-1.4,2-1.3,2.4-0.1c0.6,1.8,3.5,1.1,2.9-0.8c-0.6-2-2.4-3.4-4.5-3.1
					c-2.1,0.2-3.5,2-3.8,4c-0.1,0.8,0.8,1.5,1.5,1.5C1006.2,611.6,1006.8,610.9,1006.9,610.1L1006.9,610.1z"/>
			</g>
		</g>
	</g>
	<g>
		<g>
			<g>
				<path class="st10" d="M647.3,574.6c0,0-0.3,0.2-0.3,0.2c0.1,0,0.2,0,0.3,0c0.4,0,0.2,0-0.5-0.3c-0.1-0.2-0.3-0.4-0.4-0.7
					c0,0,0,0.1,0,0.1c0-0.3,0-0.5,0-0.8c0,0,0,0.1,0,0.1c-0.2,0.8,0.2,1.7,1,1.8c0.8,0.2,1.6-0.2,1.8-1c0.2-0.7,0-1.3-0.5-1.8
					c-0.4-0.4-1-0.5-1.6-0.5c-1.1,0-2.1,0.3-2.6,1.3c-0.4,0.7-0.2,1.6,0.5,2.1C645.9,575.5,646.9,575.3,647.3,574.6L647.3,574.6z"/>
			</g>
		</g>
		<g>
			<g>
				<path class="st10" d="M647.1,574.9C647,575,647.3,574.8,647.1,574.9c0.5-0.2-0.2,0,0.3-0.1c0,0,0.5-0.1,0.3-0.1
					c0.1,0,0.1,0,0.2,0c0.6,0,0.4-0.3-0.5-1.1c-0.3,0.8,0.3,1.6,1,1.8c0.8,0.2,1.6-0.3,1.8-1c0.3-0.7,0-1.5-0.5-2.1
					c-0.5-0.5-1.3-0.7-2-0.6c-1.3,0.1-2.4,0.6-3.2,1.7c-0.5,0.7-0.1,1.7,0.5,2.1C645.8,575.9,646.7,575.6,647.1,574.9L647.1,574.9z"
					/>
			</g>
		</g>
		<path class="st11" d="M666.5,532.1c-3.3-0.7-3.1,2.4-3.3,3.1c-0.2,0.7-1.4,8-2.1,12.2c-0.5,2.7-2.4,3.7-3.7,4
			c0.6-5.5,1.2-11.3,1.6-12.7c0.7-2.8,1.4-13.2-0.7-14.3c-2.1-1.2-6.8-2.4-8.9,6.8c-0.7,2.9-0.7,8.1-0.5,14
			c-2.1,0.4-6.2,0.4-6.3-5.7c-0.2-8.2,1.2-9.6,1.2-10.6c0-0.9-7.8-6.6-6.6,3.3c1.2,9.9,5.6,13.9,8,14.6c1.3,0.4,2.6,0.7,3.8,0.7
			c0.6,12.1,2.3,25.6,2.3,25.6s4,0.9,3.5,0c-0.5-0.9,0.9-7.5,1.4-10.3c0.2-0.9,0.4-3.6,0.8-6.9c2.6,0.3,7.6-6.5,9.3-8.2
			c1.9-1.9,2.6-9.2,3.3-10.8C670.3,535.2,669.8,532.8,666.5,532.1z"/>
		<g>
			<g>
				<path class="st12" d="M651.8,526.9c-0.1,0.5-0.2,1-0.3,1.5c-0.1,1,1.4,1,1.5,0c0-0.4,0.1-0.8,0.2-1.1
					C653.5,526.4,652.1,526,651.8,526.9L651.8,526.9z"/>
			</g>
		</g>
		<g>
			<g>
				<path class="st12" d="M654.9,525c-0.1,0.9-0.2,1.9-0.2,2.8c0,1,1.5,1,1.5,0c0-0.8,0-1.6,0.1-2.4c0.1-0.4-0.1-0.8-0.5-0.9
					C655.5,524.4,655,524.6,654.9,525L654.9,525z"/>
			</g>
		</g>
		<g>
			<g>
				<path class="st12" d="M657.4,530.1c-0.1,0.4-0.2,0.9-0.3,1.3c-0.2,0.9,1.2,1.3,1.4,0.4c0.1-0.4,0.2-0.9,0.3-1.3
					C659.1,529.6,657.6,529.2,657.4,530.1L657.4,530.1z"/>
			</g>
		</g>
		<g>
			<g>
				<path class="st12" d="M653.1,530.1c-0.1,0.5-0.2,1-0.3,1.5c-0.2,0.9,1.3,1.4,1.4,0.4c0.1-0.5,0.2-1,0.3-1.5
					C654.7,529.6,653.3,529.2,653.1,530.1L653.1,530.1z"/>
			</g>
		</g>
		<g>
			<g>
				<path class="st12" d="M651,533c0.1,0.3,0,0.6,0,0.9c-0.1,1,1.4,1,1.5,0c0-0.4,0-0.9-0.1-1.3C652.2,531.7,650.8,532.1,651,533
					L651,533z"/>
			</g>
		</g>
		<g>
			<g>
				<path class="st12" d="M651.5,537c0,0.6,0,1.2,0,1.8c0,1,1.5,1,1.5,0c0-0.6,0-1.2,0-1.8C653,536,651.5,536,651.5,537L651.5,537z"
					/>
			</g>
		</g>
		<g>
			<g>
				<path class="st12" d="M650,539.8c0,0.4,0,0.9,0,1.3c0,1,1.5,1,1.5,0c0-0.4,0-0.9,0-1.3C651.5,538.9,650,538.9,650,539.8
					L650,539.8z"/>
			</g>
		</g>
		<g>
			<g>
				<path class="st12" d="M654.9,534.2c-0.4,1.1-0.4,2.1-0.3,3.2c0.1,0.4,0.6,0.6,0.9,0.5c0.4-0.1,0.6-0.5,0.5-0.9
					c-0.1-0.8,0-1.6,0.3-2.4C656.7,533.7,655.2,533.3,654.9,534.2L654.9,534.2z"/>
			</g>
		</g>
		<g>
			<g>
				<path class="st12" d="M656,536.5c0,0.5-0.1,1-0.1,1.6c-0.1,1,1.4,1,1.5,0c0-0.5,0.1-1,0.1-1.6
					C657.6,535.6,656.1,535.6,656,536.5L656,536.5z"/>
			</g>
		</g>
		<g>
			<g>
				<path class="st12" d="M654,543.1c-0.1,0.7-0.2,1.3-0.3,2c-0.1,0.4,0.1,0.8,0.5,0.9c0.4,0.1,0.9-0.1,0.9-0.5
					c0.1-0.7,0.2-1.3,0.3-2c0.1-0.4-0.1-0.8-0.5-0.9C654.5,542.5,654,542.7,654,543.1L654,543.1z"/>
			</g>
		</g>
		<g>
			<g>
				<path class="st12" d="M652.3,540.8c0,0.7-0.1,1.3-0.1,2c0,1,1.5,1,1.5,0c0-0.7,0.1-1.3,0.1-2
					C653.8,539.8,652.3,539.8,652.3,540.8L652.3,540.8z"/>
			</g>
		</g>
		<g>
			<g>
				<path class="st12" d="M650.6,544.7c0,0.6,0,1.2,0,1.8c0,1,1.5,1,1.5,0c0-0.6,0-1.2,0-1.8C652.1,543.7,650.6,543.7,650.6,544.7
					L650.6,544.7z"/>
			</g>
		</g>
		<g>
			<g>
				<path class="st12" d="M655.8,540.4c-0.1,0.4-0.1,0.9-0.1,1.3c0.1,1,1.6,1,1.5,0c0-0.3,0-0.6,0-0.9
					C657.4,539.9,656,539.5,655.8,540.4L655.8,540.4z"/>
			</g>
		</g>
		<g>
			<g>
				<path class="st12" d="M656,546.8c-0.3,1-0.5,2-0.6,3.1c-0.1,1,1.4,1,1.5,0c0.1-0.9,0.3-1.8,0.5-2.7
					C657.7,546.2,656.3,545.8,656,546.8L656,546.8z"/>
			</g>
		</g>
		<g>
			<g>
				<path class="st12" d="M652.5,549.2c0,0.7-0.1,1.3-0.2,2c-0.2,0.9,1.2,1.3,1.4,0.4c0.2-0.8,0.3-1.6,0.3-2.4
					C654,548.2,652.5,548.2,652.5,549.2L652.5,549.2z"/>
			</g>
		</g>
		<g>
			<g>
				<path class="st12" d="M650.7,552.8c-0.1,1,0,2.1,0,3.1c0.1,1,1.6,1,1.5,0c-0.1-1-0.1-2.1,0-3.1
					C652.2,551.9,650.7,551.9,650.7,552.8L650.7,552.8z"/>
			</g>
		</g>
		<g>
			<g>
				<path class="st12" d="M653.5,554.3c-0.2,0.8-0.3,1.5-0.3,2.3c0,1,1.5,1,1.5,0c0-0.7,0.1-1.3,0.3-1.9
					C655.2,553.7,653.8,553.3,653.5,554.3L653.5,554.3z"/>
			</g>
		</g>
		<g>
			<g>
				<path class="st12" d="M654.5,556.3c0,1.5,0.1,2.9,0.1,4.4c0,1,1.5,1,1.5,0c0-1.5-0.1-2.9-0.1-4.4
					C655.9,555.3,654.4,555.3,654.5,556.3L654.5,556.3z"/>
			</g>
		</g>
		<g>
			<g>
				<path class="st12" d="M650.9,558.1c0,1,0.1,2,0.3,2.9c0.2,0.9,1.6,0.5,1.4-0.4c-0.2-0.8-0.2-1.7-0.2-2.5
					C652.4,557.1,650.9,557.1,650.9,558.1L650.9,558.1z"/>
			</g>
		</g>
		<g>
			<g>
				<path class="st12" d="M653.3,560.8c0,0.8,0,1.6,0,2.4c0.1,1,1.6,1,1.5,0c0-0.8,0-1.6,0-2.4C654.9,559.8,653.4,559.8,653.3,560.8
					L653.3,560.8z"/>
			</g>
		</g>
		<g>
			<g>
				<path class="st12" d="M652,564.2c-0.1,0.6-0.2,1.2-0.3,1.9c-0.1,0.4,0.1,0.8,0.5,0.9c0.4,0.1,0.9-0.1,0.9-0.5
					c0.1-0.6,0.2-1.2,0.3-1.9c0.1-0.4-0.1-0.8-0.5-0.9C652.5,563.5,652,563.8,652,564.2L652,564.2z"/>
			</g>
		</g>
		<g>
			<g>
				<path class="st12" d="M652.9,565.9c-0.1,1-0.2,2.1-0.4,3.1c-0.1,1,1.4,0.9,1.5,0c0.1-1,0.2-2.1,0.4-3.1
					C654.5,564.9,653,564.9,652.9,565.9L652.9,565.9z"/>
			</g>
		</g>
		<g>
			<g>
				<path class="st12" d="M657.6,551.8c-0.2,0.9-0.4,1.8-0.3,2.8c0,1,1.5,1,1.5,0c0-0.8,0.1-1.6,0.3-2.4
					C659.3,551.3,657.8,550.9,657.6,551.8L657.6,551.8z"/>
			</g>
		</g>
		<g>
			<g>
				<path class="st12" d="M660.4,550.6c-0.3,0.4-0.4,0.8-0.6,1.2c-0.2,0.9,1.2,1.3,1.4,0.4c0.1-0.3,0.2-0.6,0.4-0.8
					c0.2-0.3,0.1-0.8-0.3-1C661,550.1,660.6,550.3,660.4,550.6L660.4,550.6z"/>
			</g>
		</g>
		<g>
			<g>
				<path class="st12" d="M661.8,544c-0.1,0.9-0.1,1.8-0.2,2.7c-0.1,1,1.4,1,1.5,0c0.1-0.9,0.1-1.8,0.2-2.7
					C663.3,543,661.8,543,661.8,544L661.8,544z"/>
			</g>
		</g>
		<g>
			<g>
				<path class="st12" d="M662.8,542.1c0.2,0.4,0.3,0.7,0.1,1.1c-0.3,0.9,1.1,1.3,1.4,0.4c0.3-0.8,0.2-1.6-0.3-2.3
					C663.6,540.5,662.3,541.3,662.8,542.1L662.8,542.1z"/>
			</g>
		</g>
		<g>
			<g>
				<path class="st12" d="M663.6,537.5c0.2,0.4,0.3,0.7,0.3,1.1c0,1,1.5,1,1.5,0c0-0.7-0.2-1.3-0.5-1.9
					C664.4,536,663.1,536.7,663.6,537.5L663.6,537.5z"/>
			</g>
		</g>
		<g>
			<g>
				<path class="st12" d="M665.1,532.9c-0.1,0.8-0.1,1.7-0.2,2.5c-0.1,1,1.4,1,1.5,0c0.1-0.8,0.1-1.7,0.2-2.5
					C666.7,532,665.2,532,665.1,532.9L665.1,532.9z"/>
			</g>
		</g>
		<g>
			<g>
				<path class="st12" d="M667,534c-0.5,0.9-0.8,1.8-1.1,2.7c-0.3,0.9,1.2,1.3,1.4,0.4c0.2-0.8,0.6-1.6,1-2.3
					C668.7,533.9,667.4,533.1,667,534L667,534z"/>
			</g>
		</g>
		<g>
			<g>
				<path class="st12" d="M666.7,541.1c0.7-0.5,1.2-1.2,1.7-1.9c0.5-0.8-0.8-1.6-1.3-0.8c-0.4,0.6-0.9,1.1-1.5,1.6
					C664.9,540.6,666,541.7,666.7,541.1L666.7,541.1z"/>
			</g>
		</g>
		<g>
			<g>
				<path class="st12" d="M665.3,545.7c0.8-0.9,1.3-1.8,1.7-2.9c0.1-0.4-0.2-0.8-0.5-0.9c-0.4-0.1-0.8,0.1-0.9,0.5
					c-0.3,0.8-0.8,1.6-1.4,2.2C663.6,545.3,664.6,546.4,665.3,545.7L665.3,545.7z"/>
			</g>
		</g>
		<g>
			<g>
				<path class="st12" d="M663.3,549.7c0.2-0.6,0.5-1.1,1-1.5c0.3-0.3,0.3-0.8,0-1.1c-0.3-0.3-0.7-0.2-1.1,0
					c-0.7,0.6-1.2,1.3-1.4,2.2C661.6,550.3,663,550.7,663.3,549.7L663.3,549.7z"/>
			</g>
		</g>
		<g>
			<g>
				<path class="st12" d="M639.7,530.5c0.1-0.9,0.4-1.8,0.7-2.6c0.4-0.9-0.9-1.6-1.3-0.8c-0.4,1-0.8,1.9-0.9,3
					c-0.1,0.4,0.1,0.8,0.5,0.9C639.1,531.2,639.6,530.9,639.7,530.5L639.7,530.5z"/>
			</g>
		</g>
		<g>
			<g>
				<path class="st12" d="M641.3,529.7c0.4-0.7,0.8-1.2,1.4-1.7c0.7-0.6-0.3-1.7-1.1-1.1c-0.7,0.6-1.2,1.2-1.6,2
					C639.6,529.8,640.9,530.5,641.3,529.7L641.3,529.7z"/>
			</g>
		</g>
		<g>
			<g>
				<path class="st12" d="M640.9,535.5c-0.2-0.6-0.4-1.1-0.8-1.6c-0.1-0.2-0.3-0.4-0.5-0.6c-0.1-0.1-0.2-0.3-0.3-0.4
					c0,0-0.1-0.1-0.1-0.1c-0.2-0.2-0.2-0.1,0,0.4c0.6-0.8-0.7-1.5-1.3-0.8c-0.5,0.6,0.1,1.2,0.5,1.6c0.5,0.5,0.8,1.2,1.1,1.9
					C639.7,536.8,641.2,536.4,640.9,535.5L640.9,535.5z"/>
			</g>
		</g>
		<g>
			<g>
				<path class="st12" d="M641.5,533.7c0.2-1,0.6-1.9,1.2-2.8c0.6-0.8-0.7-1.5-1.3-0.8c-0.7,0.9-1.1,2-1.4,3.2
					C639.9,534.2,641.3,534.6,641.5,533.7L641.5,533.7z"/>
			</g>
		</g>
		<g>
			<g>
				<path class="st12" d="M641.7,541.2c0.1-1,0.1-1.9,0.2-2.9c0.1-1-1.4-1-1.5,0c-0.1,1-0.1,1.9-0.2,2.9
					C640.2,542.2,641.7,542.2,641.7,541.2L641.7,541.2z"/>
			</g>
		</g>
		<g>
			<g>
				<path class="st12" d="M643.1,543.5c0-0.6,0.1-1.2,0.2-1.8c0.2-0.9-1.2-1.3-1.4-0.4c-0.2,0.7-0.3,1.4-0.3,2.2
					C641.6,544.5,643.1,544.5,643.1,543.5L643.1,543.5z"/>
			</g>
		</g>
		<g>
			<g>
				<path class="st12" d="M647.1,545.5c-1.1-0.7-2.1-1.4-3.2-2.1c-0.8-0.5-1.6,0.8-0.8,1.3c1.1,0.7,2.1,1.4,3.2,2.1
					C647.1,547.3,647.9,546,647.1,545.5L647.1,545.5z"/>
			</g>
		</g>
		<g>
			<g>
				<path class="st12" d="M648.7,546.1c0-0.2,0-0.3,0-0.5c0-1-1.5-1-1.5,0c0,0.2,0,0.3,0,0.5C647.2,547.1,648.7,547.1,648.7,546.1
					L648.7,546.1z"/>
			</g>
		</g>
		<path class="st13" d="M643.5,574.9c0,0,3.3-6.6,6.4-0.7c0,0-0.5-6.1,1.6-3.8c2.1,2.4,1.9,2.6,1.9,2.6s2.4-5.9,4.2-2.8
			s2.6-0.5,2.8,0.7c0.2,1.2,4.2,1.9,1.4,3.3S644.2,575.6,643.5,574.9z"/>
		<g>
			<g>
				<path class="st10" d="M647.2,574.4c0-0.1,0-0.3,0.1-0.4c0.1-0.4,0.1-0.1-0.2,0.1c-0.2,0.1-0.4,0.3-0.7,0.4c-0.4,0-0.5,0-0.3,0
					c0.1,0,0.2,0.1,0.2,0.1c0.2,0.1,0.3,0.1,0.5,0.2c0.3,0.1,0.7,0.2,1,0.4c0.7,0.3,1.7-0.3,1.8-1c0.2-0.8-0.3-1.6-1-1.8
					c-0.8-0.3-1.6-0.8-2.4-0.7c-0.6,0-1.2,0.3-1.5,0.9c-0.2,0.4-0.3,0.8-0.3,1.2c-0.1,0.8,0.2,1.7,1,1.8
					C646.1,575.6,647,575.2,647.2,574.4L647.2,574.4z"/>
			</g>
		</g>
		<g>
			<g>
				<path class="st10" d="M652,575.3c0.1-0.1,0.2-0.2,0.3-0.3c-0.3,0.2,0.3-0.1,0.1-0.1c-0.2,0.1,0.4-0.1,0.2,0c-0.1,0-0.1,0,0.1,0
					c-0.4-0.1-0.4-0.1-0.2,0c0.7,0.5,1.7,0.1,2.1-0.5c0.4-0.8,0.1-1.6-0.5-2.1c-1.3-0.9-3.2-0.2-4.2,0.9c-0.5,0.6-0.6,1.5,0,2.1
					C650.5,575.9,651.5,575.9,652,575.3L652,575.3z"/>
			</g>
		</g>
		<g>
			<g>
				<path class="st10" d="M658,573.1c0,0.1,0,0.2-0.1,0.3c-0.1,0.1-0.1,0.1,0,0c0,0-0.1,0.1-0.2,0.1c-0.1,0-0.2,0-0.3-0.1
					c-0.1-0.1,0,0,0.1,0.1c-0.1,0-0.1-0.1-0.1-0.2c0.2,0.8,1,1.3,1.8,1c0.8-0.2,1.3-1.1,1-1.8c-0.4-1.2-1.6-2.2-2.9-2
					c-1.4,0.2-2.2,1.3-2.4,2.6c-0.1,0.8,0.8,1.5,1.5,1.5C657.4,574.5,657.9,573.9,658,573.1L658,573.1z"/>
			</g>
		</g>
	</g>
</g>
<g id="Layer_2" class="st0">
	<g class="st14">
		<g>
			<path class="st15" d="M1224.8,119.5c0-20.8-23.6-37.6-52.7-37.6c-17.1,0-32.2,5.8-41.9,14.8c-6.9-10.3-18.3-17-31.1-17
				c-17.7,0-32.6,12.8-37,30.3c-6.4-4.2-14.4-6.8-23-6.8c-21.1,0-38.3,15-38.3,33.5s17.1,33.5,38.3,33.5c7.4,0,14.3-1.9,20.2-5
				c3.9,15.3,20.9,26.8,41.3,26.8c17.7,0,32.9-8.7,39.1-21c6.8,9.3,18.7,15.5,32.3,15.5c21.1,0,38.3-15,38.3-33.5
				c0-2.4-0.3-4.8-0.9-7.1C1219,139.2,1224.8,129.8,1224.8,119.5z"/>
		</g>
		<g>
			<path class="st16" d="M1212.2,123.7c0-18.1-20.9-32.8-46.7-32.8c-15.1,0-28.6,5.1-37.1,12.9c-6.2-9-16.2-14.8-27.6-14.8
				c-15.7,0-28.9,11.2-32.8,26.4c-5.7-3.7-12.8-5.9-20.4-5.9c-18.7,0-33.9,13.1-33.9,29.2s15.2,29.2,33.9,29.2
				c6.6,0,12.7-1.6,17.9-4.4c3.5,13.3,18.6,23.4,36.7,23.4c15.7,0,29.2-7.6,34.7-18.3c6,8.1,16.6,13.5,28.6,13.5
				c18.7,0,33.9-13.1,33.9-29.2c0-2.1-0.3-4.2-0.8-6.2C1207.1,140.8,1212.2,132.7,1212.2,123.7z"/>
		</g>
		<g>
			<path class="st15" d="M1192.4,134.6c0-4.2-17.1-7.5-38.3-7.5c-12.4,0-23.4,1.2-30.4,3c-5-2.1-13.3-3.4-22.6-3.4
				c-12.9,0-23.7,2.6-26.9,6.1c-4.7-0.9-10.5-1.4-16.7-1.4c-15.4,0-27.8,3-27.8,6.7c0,3.7,12.4,6.7,27.8,6.7c5.4,0,10.4-0.4,14.7-1
				c2.8,3.1,15.2,5.4,30,5.4c12.9,0,23.9-1.7,28.4-4.2c4.9,1.9,13.6,3.1,23.5,3.1c15.4,0,27.8-3,27.8-6.7c0-0.5-0.2-1-0.6-1.4
				C1188.2,138.5,1192.4,136.7,1192.4,134.6z"/>
		</g>
	</g>
	<g class="st14">
		<g>
			<path class="st15" d="M608.8,52.5c0-20.8-23.6-37.6-52.7-37.6c-17.1,0-32.2,5.8-41.9,14.8c-6.9-10.3-18.3-17-31.1-17
				c-17.7,0-32.6,12.8-37,30.3c-6.4-4.2-14.4-6.8-23-6.8c-21.1,0-38.3,15-38.3,33.5s17.1,33.5,38.3,33.5c7.4,0,14.3-1.9,20.2-5
				c3.9,15.3,20.9,26.8,41.3,26.8c17.7,0,32.9-8.7,39.1-21c6.8,9.3,18.7,15.5,32.3,15.5c21.1,0,38.3-15,38.3-33.5
				c0-2.4-0.3-4.8-0.9-7.1C603,72.2,608.8,62.8,608.8,52.5z"/>
		</g>
		<g>
			<path class="st16" d="M596.2,56.7c0-18.1-20.9-32.8-46.7-32.8c-15.1,0-28.6,5.1-37.1,12.9c-6.2-9-16.2-14.8-27.6-14.8
				c-15.7,0-28.9,11.2-32.8,26.4c-5.7-3.7-12.8-5.9-20.4-5.9c-18.7,0-33.9,13.1-33.9,29.2s15.2,29.2,33.9,29.2
				c6.6,0,12.7-1.6,17.9-4.4c3.5,13.3,18.6,23.4,36.7,23.4c15.7,0,29.2-7.6,34.7-18.3c6,8.1,16.6,13.5,28.6,13.5
				c18.7,0,33.9-13.1,33.9-29.2c0-2.1-0.3-4.2-0.8-6.2C591.1,73.8,596.2,65.7,596.2,56.7z"/>
		</g>
		<g>
			<path class="st15" d="M576.4,67.6c0-4.2-17.1-7.5-38.3-7.5c-12.4,0-23.4,1.2-30.4,3c-5-2.1-13.3-3.4-22.6-3.4
				c-12.9,0-23.7,2.6-26.9,6.1c-4.7-0.9-10.5-1.4-16.7-1.4c-15.4,0-27.8,3-27.8,6.7s12.4,6.7,27.8,6.7c5.4,0,10.4-0.4,14.7-1
				c2.8,3.1,15.2,5.4,30,5.4c12.9,0,23.9-1.7,28.4-4.2c4.9,1.9,13.6,3.1,23.5,3.1c15.4,0,27.8-3,27.8-6.7c0-0.5-0.2-1-0.6-1.4
				C572.2,71.5,576.4,69.7,576.4,67.6z"/>
		</g>
	</g>
</g>
<g id="Layer_6" class="st0">
	<path class="st17" d="M1601,895H14c-6.6,0-12-5.4-12-12V7C2,0.4,7.4-5,14-5h1587c6.6,0,12,5.4,12,12v876
		C1613,889.6,1607.6,895,1601,895z"/>
</g>
<g id="Layer_4" class="st0">
	<g class="st14">
		<path class="st18" d="M1195.4,369.7c0,0,7.9,0.6,5.1,7.9s-3.7,9.1-9.9,7.4s-8.2-10.2-5.4-12.2s4.4-3.1,7.3-3.1"/>
		<path class="st19" d="M1190.5,372.2c0,0,3.1-2.9,5.3,1.1c2.2,4.1,2.7,5.1-0.3,6.9c-3,1.8-7.4-0.8-7.3-2.7s0.2-3,1.3-4.2"/>
		<path class="st20" d="M1084.2,1063.3c0,0,11.9,18.3,25.3,3.2s102.3-800.2,102.3-800.2s-3.7-10-11.3-9.2s-16.5,3.1-16.7,7.4
			c-0.2,4.3-95.2,788.6-99.1,795C1080.8,1065.8,1084.2,1063.3,1084.2,1063.3z"/>
		<path class="st18" d="M1084.5,1058.5c0,0,4.9,17.2,12.7,1.6c7.7-15.6,101-791.4,101-791.4l-5.5-3.9c0,0-8.6-3.4-8.9,0.8
			s-96.4,782.7-98.7,789.2C1082.6,1061.3,1084.5,1058.5,1084.5,1058.5z"/>
		<path class="st21" d="M955.8,354.9c0,0,220.2,1.7,235.5,0c15.3-1.7,31.5,6.8,31.5,6.8s16.2,1.7,23,0s17,10.2,24.7,8.5
			s39.1-5.2,44.2-7.7c5.1-2.5,34-3.4,49.3-4.3s41.7,0,50.2,0s15.3-5.1,12.8,0s0.5,12.1,0.5,12.1h5.4c0,0,0.9,4.1,0,8.3
			s-7.7,11.9-9.4,15.3s12.8-7.7,18.7-8.5c6-0.9,1.7,28.9,0,32.3s-49.3,11.9-53.6,13.6s43.4,3.4,46.8,4.3s-0.9,19.6-0.9,19.6
			l-23,16.2l5.1,4.3l-17,12.8h32.3l-6,17.9l-37.4,23c0,0-196.4-8.5-206.6-6c-10.2,2.6-7.7,8.5-31.5,6s-75.7-2.6-91-4.3
			s-37.4,5.5-43.4,4.9s-8.5-12.5-8.5-12.5l-9.4-0.9l-3.4-15.3c0,0-18.7-4.3-29.8-7.7c-11.1-3.4-22.1-28.1-22.1-28.1l18.7-2.6
			l-18.7-10.2c0,0,2.6-11.1,4.3-14.5s58.7-2.6,58.7-2.6l-57-8.5l2.6-20.4l32.3-1.7L949,391.5C949,391.5,943.1,354.8,955.8,354.9z"/>
		<path class="st22" d="M965.8,347.8c0,0,208.8,1.8,223.3,0s29.8,7.1,29.8,7.1s15.3,1.8,21.8,0c6.4-1.8,16.1,10.6,23.4,8.9
			c7.3-1.8,37.1-5.4,41.9-8c4.8-2.6,32.2-3.6,46.8-4.4c14.5-0.9,39.5,0,47.6,0s14.5-5.3,12.1,0c-2.4,5.3,0.5,12.6,0.5,12.6h5.1
			c0,0,0.8,4.3,0,8.7c-0.8,4.4-7.3,12.4-8.9,15.9c-1.6,3.5,12.1-8,17.7-8.9c5.6-0.9,1.6,30.1,0,33.6c-1.6,3.5-46.8,12.4-50.8,14.2
			c-4,1.8,41.1,3.5,44.3,4.4c3.2,0.9-0.8,20.4-0.8,20.4l-21.8,16.8l4.8,4.4l-16.1,13.3h30.6l-5.6,18.6l-35.5,23.9
			c0,0-186.2-8.9-195.9-6.2c-9.7,2.7-7.3,8.9-29.8,6.2c-22.6-2.7-71.7-2.7-86.2-4.4c-14.5-1.8-35.5,5.7-41.1,5.1s-8.1-13-8.1-13
			l-8.9-0.9l-3.2-15.9c0,0-17.7-4.4-28.2-8c-10.5-3.5-21-29.2-21-29.2l17.7-2.7l-17.7-10.6c0,0,2.4-11.5,4-15s55.6-2.7,55.6-2.7
			l-54-8.9l2.4-21.2l30.6-1.8l-33-14.2C959.3,385.8,953.7,347.7,965.8,347.8z"/>
		<path class="st23" d="M952.4,358.3c0,0,220.2,1.7,235.5,0c15.3-1.7,31.5,6.8,31.5,6.8s16.2,1.7,23,0s17,10.2,24.7,8.5
			s39.1-5.2,44.2-7.7c5.1-2.5,34-3.4,49.3-4.3s41.7,0,50.2,0s15.3-5.1,12.8,0s0.5,12.1,0.5,12.1h5.4c0,0,0.9,4.1,0,8.3
			c-0.9,4.3-7.7,11.9-9.4,15.3s12.8-7.7,18.7-8.5s1.7,28.9,0,32.3c-1.7,3.4-49.3,11.9-53.6,13.6s43.4,3.4,46.8,4.3
			s-0.9,19.6-0.9,19.6l-23,16.2l5.1,4.3l-17,12.8h32.3l-6,17.9l-37.4,23c0,0-196.4-8.5-206.6-6c-10.2,2.6-7.7,8.5-31.5,6
			s-75.7-2.6-91-4.3s-37.4,5.5-43.4,4.9s-8.5-12.5-8.5-12.5l-9.4-0.9l-3.4-15.3c0,0-18.7-4.3-29.8-7.7
			c-11.1-3.4-22.1-28.1-22.1-28.1l18.7-2.6l-18.7-10.2c0,0,2.6-11.1,4.3-14.5s58.7-2.6,58.7-2.6l-57-8.5l2.6-20.4l32.3-1.7
			l-34.9-13.6C945.6,394.9,939.7,358.2,952.4,358.3z"/>
		<polygon class="st24" points="1017.9,482.4 1128.5,482.4 1220.7,495.6 1344.9,495.6 1211.8,504.6 1119.6,488.8 		"/>
		<polygon class="st24" points="1035.8,385.1 1173.6,404.2 1209.3,394.7 1338.5,398.3 1203.7,385.1 1181.4,391.5 		"/>
		<path class="st24" d="M1017.9,435.3c0,0,349.1-34.9,352.5-33.6S1177.5,452.3,1017.9,435.3z"/>
		<polygon class="st24" points="1023,504.6 1110.6,513.1 1032.4,517.7 		"/>
		<path class="st25" d="M1195.4,363.2c0,0-6.5-4.3-11.3,0c-4.8,4.3-2.8,15.3,2.3,15.6s10.8-0.6,11.9-5.1S1199.3,364.8,1195.4,363.2z
			"/>
		<path class="st26" d="M1193,366.9c0,0-3.6-1.7-6.2,0s-1.6,6.3,1.2,6.4c2.8,0.1,5.9-0.2,6.5-2.1
			C1195.1,369.3,1195.1,367.5,1193,366.9z"/>
	</g>
	<g class="st14">
		<path class="st18" d="M448.6,373.7c0,0-7.9,0.6-5.1,7.9s3.7,9.1,9.9,7.4s8.2-10.2,5.4-12.2s-4.4-3.1-7.3-3.1"/>
		<path class="st19" d="M453.5,376.2c0,0-3.1-2.9-5.3,1.1c-2.2,4.1-2.7,5.1,0.3,6.9c3,1.8,7.4-0.8,7.3-2.7s-0.2-3-1.3-4.2"/>
		<path class="st20" d="M559.7,1067.3c0,0-11.9,18.3-25.3,3.2S432.1,270.2,432.1,270.2s3.7-10,11.3-9.2s16.5,3.1,16.7,7.4
			s95.2,788.6,99.1,795C563.2,1069.8,559.7,1067.3,559.7,1067.3z"/>
		<path class="st18" d="M559.5,1062.5c0,0-4.9,17.2-12.7,1.6c-7.7-15.6-101-791.4-101-791.4l5.5-3.9c0,0,8.6-3.4,8.9,0.8
			s96.4,782.7,98.7,789.2C561.4,1065.3,559.5,1062.5,559.5,1062.5z"/>
		<path class="st21" d="M688.1,358.9c0,0-220.2,1.7-235.5,0c-15.3-1.7-31.5,6.8-31.5,6.8s-16.2,1.7-23,0c-6.8-1.7-17,10.2-24.7,8.5
			s-39.1-5.2-44.2-7.7c-5.1-2.5-34-3.4-49.3-4.3c-15.3-0.8-41.7,0-50.2,0c-8.5,0-15.3-5.1-12.8,0s-0.5,12.1-0.5,12.1h-5.4
			c0,0-0.9,4.1,0,8.3s7.7,11.9,9.4,15.3c1.7,3.4-12.8-7.7-18.7-8.5c-6-0.9-1.7,28.9,0,32.3s49.3,11.9,53.6,13.6
			c4.3,1.7-43.4,3.4-46.8,4.3s0.9,19.6,0.9,19.6l23,16.2l-5.1,4.3l17,12.8H212l6,17.9l37.4,23c0,0,196.4-8.5,206.6-6
			c10.2,2.6,7.7,8.5,31.5,6c23.8-2.6,75.7-2.6,91-4.3s37.4,5.5,43.4,4.9c6-0.6,8.5-12.5,8.5-12.5l9.4-0.9l3.4-15.3
			c0,0,18.7-4.3,29.8-7.7c11.1-3.4,22.1-28.1,22.1-28.1l-18.7-2.6l18.7-10.2c0,0-2.6-11.1-4.3-14.5s-58.7-2.6-58.7-2.6l57-8.5
			l-2.6-20.4l-32.3-1.7l34.9-13.6C694.9,395.5,700.9,358.8,688.1,358.9z"/>
		<path class="st22" d="M678.2,351.8c0,0-208.8,1.8-223.3,0c-14.5-1.8-29.8,7.1-29.8,7.1s-15.3,1.8-21.8,0
			c-6.4-1.8-16.1,10.6-23.4,8.9c-7.3-1.8-37.1-5.4-41.9-8s-32.2-3.6-46.8-4.4c-14.5-0.9-39.5,0-47.6,0s-14.5-5.3-12.1,0
			s-0.5,12.6-0.5,12.6H226c0,0-0.8,4.3,0,8.7c0.8,4.4,7.3,12.4,8.9,15.9c1.6,3.5-12.1-8-17.7-8.9c-5.6-0.9-1.6,30.1,0,33.6
			s46.8,12.4,50.8,14.2c4,1.8-41.1,3.5-44.3,4.4c-3.2,0.9,0.8,20.4,0.8,20.4l21.8,16.8l-4.8,4.4l16.1,13.3h-30.6l5.6,18.6l35.5,23.9
			c0,0,186.2-8.9,195.9-6.2c9.7,2.7,7.3,8.9,29.8,6.2c22.6-2.7,71.7-2.7,86.2-4.4c14.5-1.8,35.5,5.7,41.1,5.1s8.1-13,8.1-13l8.9-0.9
			l3.2-15.9c0,0,17.7-4.4,28.2-8c10.5-3.5,21-29.2,21-29.2l-17.7-2.7l17.7-10.6c0,0-2.4-11.5-4-15s-55.6-2.7-55.6-2.7l54-8.9
			l-2.4-21.2l-30.6-1.8l33-14.2C684.6,389.8,690.3,351.7,678.2,351.8z"/>
		<path class="st23" d="M691.5,362.3c0,0-220.2,1.7-235.5,0c-15.3-1.7-31.5,6.8-31.5,6.8s-16.2,1.7-23,0s-17,10.2-24.7,8.5
			s-39.1-5.2-44.2-7.7c-5.1-2.5-34-3.4-49.3-4.3c-15.3-0.8-41.7,0-50.2,0c-8.5,0-15.3-5.1-12.8,0c2.6,5.1-0.5,12.1-0.5,12.1h-5.4
			c0,0-0.9,4.1,0,8.3c0.9,4.3,7.7,11.9,9.4,15.3s-12.8-7.7-18.7-8.5c-6-0.9-1.7,28.9,0,32.3c1.7,3.4,49.3,11.9,53.6,13.6
			c4.3,1.7-43.4,3.4-46.8,4.3s0.9,19.6,0.9,19.6l23,16.2l-5.1,4.3l17,12.8h-32.3l6,17.9l37.4,23c0,0,196.4-8.5,206.6-6
			c10.2,2.6,7.7,8.5,31.5,6c23.8-2.6,75.7-2.6,91-4.3s37.4,5.5,43.4,4.9c6-0.6,8.5-12.5,8.5-12.5l9.4-0.9l3.4-15.3
			c0,0,18.7-4.3,29.8-7.7c11.1-3.4,22.1-28.1,22.1-28.1l-18.7-2.6l18.7-10.2c0,0-2.6-11.1-4.3-14.5c-1.7-3.4-58.7-2.6-58.7-2.6
			l57-8.5l-2.6-20.4l-32.3-1.7l34.9-13.6C698.3,398.9,704.3,362.2,691.5,362.3z"/>
		<polygon class="st24" points="626,486.4 515.5,486.4 423.2,499.6 299.1,499.6 432.2,508.6 524.4,492.8 		"/>
		<polygon class="st24" points="608.2,389.1 470.4,408.2 434.7,398.7 305.5,402.3 440.2,389.1 462.6,395.5 		"/>
		<path class="st24" d="M626,439.3c0,0-349.1-34.9-352.5-33.6S466.5,456.3,626,439.3z"/>
		<polygon class="st24" points="620.9,508.6 533.4,517.1 611.6,521.7 		"/>
		<path class="st25" d="M448.6,367.2c0,0,6.5-4.3,11.3,0c4.8,4.3,2.8,15.3-2.3,15.6s-10.8-0.6-11.9-5.1S444.7,368.8,448.6,367.2z"/>
		<path class="st26" d="M451,370.9c0,0,3.6-1.7,6.2,0s1.5,6.3-1.2,6.4c-2.8,0.1-5.9-0.2-6.5-2.1C448.8,373.3,448.9,371.5,451,370.9z
			"/>
	</g>
</g>
<g id="Layer_5" class="st0">
	<rect x="291" y="401" class="st27" width="384" height="118"/>
	<text transform="matrix(1 0 0 1 291 457.7354)" class="st28 st29 st30">Old Town</text>
	<rect x="1086" y="399" class="st27" width="384" height="118"/>
	<text transform="matrix(1 0 0 1 1086 455.7354)" class="st31 st29 st30">Duellen</text>
</g>
</svg>
