<?xml version="1.0" encoding="utf-8"?>
<!-- Generator: Adobe Illustrator 22.0.1, SVG Export Plug-In . SVG Version: 6.00 Build 0)  -->
<svg version="1.1" id="Layer_1" xmlns="http://www.w3.org/2000/svg" xmlns:xlink="http://www.w3.org/1999/xlink" x="0px" y="0px"
	 width="794.8px" height="450.3px" viewBox="0 0 794.8 450.3" style="enable-background:new 0 0 794.8 450.3;" xml:space="preserve"
	>
<style type="text/css">
	.st0{fill:#EDF4F3;}
	.st1{fill:#E1E5E4;}
</style>
<g>
	<g>
		<path class="st0" d="M762.8,170.3c0-69.2-78.6-125.2-175.5-125.2c-56.9,0-107.4,19.3-139.5,49.3C424.7,60.1,387,37.8,344.3,37.8
			c-59.1,0-108.7,42.8-123.2,100.9c-21.4-14.1-48-22.5-76.8-22.5c-70.4,0-127.5,50-127.5,111.7s57.1,111.7,127.5,111.7
			c24.7,0,47.8-6.2,67.3-16.8c13,51,69.7,89.4,137.7,89.4c59.1,0,109.7-29,130.4-70.1c22.6,31.1,62.4,51.7,107.6,51.7
			c70.4,0,127.5-50,127.5-111.7c0-8.1-1-16-2.8-23.5C743.4,235.8,762.8,204.7,762.8,170.3z"/>
	</g>
	<g>
		<path class="st1" d="M720.8,184.3c0-60.3-69.7-109.2-155.7-109.2c-50.5,0-95.3,16.8-123.8,42.9c-20.5-29.8-54-49.3-91.8-49.3
			c-52.4,0-96.5,37.3-109.3,87.9c-19-12.3-42.6-19.6-68.1-19.6c-62.5,0-113.1,43.6-113.1,97.4s50.7,97.4,113.1,97.4
			c21.9,0,42.4-5.4,59.7-14.7c11.6,44.4,61.9,77.9,122.2,77.9c52.4,0,97.3-25.3,115.7-61.1C489.7,361,525,379,565.1,379
			c62.5,0,113.1-43.6,113.1-97.4c0-7-0.9-13.9-2.5-20.5C703.6,241.4,720.8,214.3,720.8,184.3z"/>
	</g>
	<g>
		<path class="st0" d="M654.8,220.6c0-13.9-57.1-25.1-127.5-25.1c-41.3,0-78.1,3.9-101.4,9.9c-16.8-6.9-44.2-11.3-75.2-11.3
			c-42.9,0-79,8.6-89.5,20.2c-15.5-2.8-34.8-4.5-55.8-4.5c-51.2,0-92.6,10-92.6,22.4c0,12.4,41.5,22.4,92.6,22.4
			c18,0,34.7-1.2,48.9-3.4c9.5,10.2,50.7,17.9,100,17.9c42.9,0,79.7-5.8,94.8-14c16.4,6.2,45.3,10.4,78.2,10.4
			c51.2,0,92.6-10,92.6-22.4c0-1.6-0.7-3.2-2.1-4.7C640.7,233.7,654.8,227.5,654.8,220.6z"/>
	</g>
</g>
</svg>
